<svg width="20" height="22" viewBox="0 0 20 22" fill="none" xmlns="http://www.w3.org/2000/svg">
<path fill-rule="evenodd" clip-rule="evenodd" d="M19.1006 9.11137H0.862123C0.438495 9.11137 0.0946811 8.76756 0.0946811 8.34393C0.0946811 7.9203 0.438495 7.57649 0.862123 7.57649H19.1006C19.5243 7.57649 19.8681 7.9203 19.8681 8.34393C19.8681 8.76756 19.5243 9.11137 19.1006 9.11137Z" fill="#1967D2"/>
<path fill-rule="evenodd" clip-rule="evenodd" d="M14.5315 13.1075C14.1079 13.1075 13.76 12.7637 13.76 12.34C13.76 11.9164 14.0987 11.5726 14.5223 11.5726H14.5315C14.9552 11.5726 15.299 11.9164 15.299 12.34C15.299 12.7637 14.9552 13.1075 14.5315 13.1075Z" fill="#1967D2"/>
<path fill-rule="evenodd" clip-rule="evenodd" d="M9.99083 13.1075C9.5672 13.1075 9.2193 12.7637 9.2193 12.34C9.2193 11.9164 9.55799 11.5726 9.98162 11.5726H9.99083C10.4145 11.5726 10.7583 11.9164 10.7583 12.34C10.7583 12.7637 10.4145 13.1075 9.99083 13.1075Z" fill="#1967D2"/>
<path fill-rule="evenodd" clip-rule="evenodd" d="M5.44066 13.1075C5.01704 13.1075 4.66811 12.7637 4.66811 12.34C4.66811 11.9164 5.00783 11.5726 5.43145 11.5726H5.44066C5.86429 11.5726 6.20811 11.9164 6.20811 12.34C6.20811 12.7637 5.86429 13.1075 5.44066 13.1075Z" fill="#1967D2"/>
<path fill-rule="evenodd" clip-rule="evenodd" d="M14.5315 17.0846C14.1079 17.0846 13.76 16.7408 13.76 16.3171C13.76 15.8935 14.0987 15.5497 14.5223 15.5497H14.5315C14.9552 15.5497 15.299 15.8935 15.299 16.3171C15.299 16.7408 14.9552 17.0846 14.5315 17.0846Z" fill="#1967D2"/>
<path fill-rule="evenodd" clip-rule="evenodd" d="M9.99083 17.0846C9.5672 17.0846 9.2193 16.7408 9.2193 16.3171C9.2193 15.8935 9.55799 15.5497 9.98162 15.5497H9.99083C10.4145 15.5497 10.7583 15.8935 10.7583 16.3171C10.7583 16.7408 10.4145 17.0846 9.99083 17.0846Z" fill="#1967D2"/>
<path fill-rule="evenodd" clip-rule="evenodd" d="M5.44066 17.0846C5.01704 17.0846 4.66811 16.7408 4.66811 16.3171C4.66811 15.8935 5.00783 15.5497 5.43145 15.5497H5.44066C5.86429 15.5497 6.20811 15.8935 6.20811 16.3171C6.20811 16.7408 5.86429 17.0846 5.44066 17.0846Z" fill="#1967D2"/>
<path fill-rule="evenodd" clip-rule="evenodd" d="M14.1142 4.90242C13.6906 4.90242 13.3468 4.5586 13.3468 4.13498V0.767442C13.3468 0.343814 13.6906 0 14.1142 0C14.5379 0 14.8817 0.343814 14.8817 0.767442V4.13498C14.8817 4.5586 14.5379 4.90242 14.1142 4.90242Z" fill="#1967D2"/>
<path fill-rule="evenodd" clip-rule="evenodd" d="M5.84825 4.90242C5.42462 4.90242 5.0808 4.5586 5.0808 4.13498V0.767442C5.0808 0.343814 5.42462 0 5.84825 0C6.27187 0 6.61569 0.343814 6.61569 0.767442V4.13498C6.61569 4.5586 6.27187 4.90242 5.84825 4.90242Z" fill="#1967D2"/>
<mask id="mask0_244_4810" style="mask-type:luminance" maskUnits="userSpaceOnUse" x="0" y="1" width="20" height="21">
<path fill-rule="evenodd" clip-rule="evenodd" d="M0 1.61582H19.9535V22H0V1.61582Z" fill="white"/>
</mask>
<g mask="url(#mask0_244_4810)">
<path fill-rule="evenodd" clip-rule="evenodd" d="M5.6494 3.15071C2.99609 3.15071 1.53488 4.56587 1.53488 7.13527V16.3947C1.53488 19.0204 2.99609 20.4652 5.6494 20.4652H14.3041C16.9574 20.4652 18.4186 19.047 18.4186 16.4725V7.13527C18.4227 5.87155 18.083 4.88922 17.4087 4.21387C16.7149 3.51806 15.6456 3.15071 14.3133 3.15071H5.6494ZM14.3041 22.0001H5.6494C2.16521 22.0001 0 19.8523 0 16.3947V7.13527C0 3.72987 2.16521 1.61582 5.6494 1.61582H14.3133C16.062 1.61582 17.5079 2.13973 18.4953 3.12922C19.4541 4.0921 19.9586 5.47657 19.9535 7.13731V16.4725C19.9535 19.882 17.7883 22.0001 14.3041 22.0001Z" fill="#1967D2"/>
</g>
</svg>
