<svg width="19" height="20" viewBox="0 0 19 20" fill="none" xmlns="http://www.w3.org/2000/svg">
<path fill-rule="evenodd" clip-rule="evenodd" d="M12.7735 15.0414H5.52075C5.10488 15.0414 4.76735 14.7038 4.76735 14.288C4.76735 13.8721 5.10488 13.5346 5.52075 13.5346H12.7735C13.1893 13.5346 13.5269 13.8721 13.5269 14.288C13.5269 14.7038 13.1893 15.0414 12.7735 15.0414Z" fill="#1967D2"/>
<path fill-rule="evenodd" clip-rule="evenodd" d="M12.7735 10.8359H5.52075C5.10488 10.8359 4.76735 10.4983 4.76735 10.0825C4.76735 9.66659 5.10488 9.32907 5.52075 9.32907H12.7735C13.1893 9.32907 13.5269 9.66659 13.5269 10.0825C13.5269 10.4983 13.1893 10.8359 12.7735 10.8359Z" fill="#1967D2"/>
<path fill-rule="evenodd" clip-rule="evenodd" d="M8.28799 6.64018H5.52051C5.10463 6.64018 4.76711 6.30266 4.76711 5.88678C4.76711 5.47091 5.10463 5.13338 5.52051 5.13338H8.28799C8.70386 5.13338 9.04139 5.47091 9.04139 5.88678C9.04139 6.30266 8.70386 6.64018 8.28799 6.64018Z" fill="#1967D2"/>
<mask id="mask0_244_4846" style="mask-type:luminance" maskUnits="userSpaceOnUse" x="0" y="0" width="19" height="20">
<path fill-rule="evenodd" clip-rule="evenodd" d="M0 0H18.247V20H0V0Z" fill="white"/>
</mask>
<g mask="url(#mask0_244_4846)">
<path fill-rule="evenodd" clip-rule="evenodd" d="M12.9672 1.50661L5.24341 1.51063C2.90486 1.52469 1.50655 2.97122 1.50655 5.38109V14.6188C1.50655 17.0447 2.91792 18.4932 5.27957 18.4932L13.0034 18.4902C15.342 18.4762 16.7403 17.0276 16.7403 14.6188V5.38109C16.7403 2.95515 15.3299 1.50661 12.9672 1.50661ZM5.28057 20C2.12233 20 -0.000245247 17.8373 -0.000245247 14.6188V5.38109C-0.000245247 2.13344 2.05603 0.0229203 5.23838 0.00383419L12.9662 -0.000183935H12.9672C16.1255 -0.000183935 18.2471 2.16257 18.2471 5.38109V14.6188C18.2471 17.8654 16.1908 19.9769 13.0084 19.997L5.28057 20Z" fill="#1967D2"/>
</g>
</svg>
