<svg width="348" height="348" viewBox="0 0 348 348" fill="none" xmlns="http://www.w3.org/2000/svg">
<path d="M330.599 174C340.209 174 348.09 166.19 347.13 156.628C343.666 122.103 329.936 89.2531 307.517 62.4244C281.362 31.1268 245.044 10.0118 204.906 2.76711C164.767 -4.47754 123.359 2.60862 87.9136 22.788C52.4681 42.9673 25.238 74.9573 10.9791 113.171C-3.27979 151.384 -3.66124 193.393 9.90138 231.859C23.464 270.325 50.1087 302.804 85.1819 323.624C120.255 344.443 161.528 352.28 201.791 345.766C236.306 340.181 268.198 324.356 293.432 300.538C300.42 293.942 299.582 282.879 292.321 276.584C285.061 270.289 274.136 271.168 266.985 277.587C247.221 295.329 222.69 307.132 196.233 311.413C164.022 316.624 131.004 310.355 102.945 293.699C74.8869 277.043 53.5711 251.06 42.721 220.287C31.8709 189.514 32.1761 155.907 43.5832 125.337C54.9904 94.7659 76.7744 69.1739 105.131 53.0304C133.487 36.8869 166.614 31.218 198.724 37.0137C230.835 42.8094 259.89 59.7014 280.813 84.7395C297.999 105.305 308.802 130.292 312.113 156.645C313.312 166.179 320.99 174 330.599 174Z" fill="#1967D2"/>
</svg>
