<svg width="432" height="50" viewBox="0 0 432 50" fill="none" xmlns="http://www.w3.org/2000/svg">
<path d="M7.15185 8.47888L9.18349 10.5105L7.15185 12.5422L5.12021 10.5105L7.15185 8.47888ZM7.30452 21.4203C8.46322 21.4203 9.37531 21.2324 10.0408 20.8566C10.7062 20.4808 11.176 19.9759 11.45 19.3417C11.7319 18.7076 11.8728 17.999 11.8728 17.2161C11.8728 16.3549 11.7397 15.4741 11.4735 14.5738C11.2073 13.6735 10.9176 12.8397 10.6045 12.0724L13.5169 10.9685C13.9553 12.1116 14.2646 13.1763 14.4446 14.1628C14.6325 15.1414 14.7265 16.1279 14.7265 17.1222C14.7265 18.6332 14.4485 19.9406 13.8927 21.0445C13.3368 22.1563 12.5069 23.0135 11.403 23.6164C10.307 24.227 8.94079 24.5324 7.30452 24.5324C5.61344 24.5324 4.2277 24.2114 3.14728 23.5694C2.0747 22.9352 1.28005 22.0701 0.763334 20.9741C0.254445 19.878 0 18.6488 0 17.2866C0 16.3706 0.0978633 15.4272 0.29359 14.4564C0.497146 13.4777 0.782907 12.5108 1.15087 11.5557L3.81667 12.5891C3.54265 13.3877 3.31169 14.1824 3.1238 14.9731C2.9359 15.756 2.84195 16.4919 2.84195 17.1809C2.84195 17.956 2.97504 18.6645 3.24123 19.3065C3.51525 19.9485 3.97717 20.4613 4.62698 20.8449C5.27679 21.2285 6.1693 21.4203 7.30452 21.4203ZM17.3453 2.81846H20.3164V13.7635C20.3164 14.6482 20.4495 15.2745 20.7157 15.6425C20.9819 16.0026 21.5025 16.1827 22.2776 16.1827H22.5595V19.3417H22.2776C20.5787 19.3417 19.33 18.8994 18.5314 18.0147C17.7407 17.13 17.3453 15.7873 17.3453 13.9866V2.81846ZM22.0897 16.1827H23.0292V19.3417H22.0897V16.1827ZM26.3644 20.9153L28.3021 22.8413L26.3644 24.7907L24.4267 22.8413L26.3644 20.9153ZM22.395 20.9153L24.3562 22.8413L22.395 24.7907L20.4808 22.8413L22.395 20.9153ZM24.0626 19.3417H22.7591V16.1827H24.0391C24.7986 16.1827 25.3544 16.0457 25.7067 15.7717C26.0669 15.4898 26.2469 14.977 26.2469 14.2332C26.2469 13.8026 26.2 13.2429 26.106 12.5539C26.0199 11.8649 25.8672 11.0977 25.648 10.2522L28.49 9.48883C28.6857 10.2561 28.8305 11.0116 28.9245 11.7553C29.0263 12.4913 29.0771 13.1959 29.0771 13.8692C29.0771 14.9653 28.9206 15.9243 28.6074 16.7464C28.2942 17.5606 27.7736 18.1987 27.0455 18.6606C26.3174 19.1147 25.3231 19.3417 24.0626 19.3417ZM35.4422 9.64149C36.1938 9.64149 36.8514 9.81765 37.4151 10.17C37.9788 10.5144 38.4564 10.992 38.8478 11.6027C39.2471 12.2055 39.5564 12.9023 39.7756 13.693C40.0026 14.4759 40.1396 15.3058 40.1866 16.1827H41.1613V19.3417H39.9752C39.7012 20.4769 39.2393 21.4634 38.5895 22.3011C37.9397 23.1466 37.0824 23.8512 36.0176 24.4149C34.9529 24.9865 33.6493 25.421 32.107 25.7185L31.0383 22.8296C32.0639 22.626 32.9956 22.3598 33.8333 22.031C34.6788 21.71 35.3874 21.3225 35.9589 20.8684C36.5304 20.4143 36.914 19.9054 37.1098 19.3417H35.8649C34.2991 19.3417 33.1091 19.0168 32.2949 18.367C31.4807 17.7172 31.0736 16.6798 31.0736 15.2549C31.0736 14.6678 31.1597 14.0493 31.3319 13.3994C31.512 12.7496 31.7821 12.139 32.1422 11.5674C32.5024 10.9959 32.9565 10.534 33.5045 10.1817C34.0525 9.82156 34.6984 9.64149 35.4422 9.64149ZM35.8297 16.1827H37.4386C37.4073 15.7756 37.3446 15.3685 37.2507 14.9613C37.1567 14.5542 37.0276 14.1863 36.8632 13.8574C36.7066 13.5208 36.5069 13.2546 36.2642 13.0589C36.0294 12.8553 35.7475 12.7535 35.4187 12.7535C35.0272 12.7535 34.7141 12.8945 34.4792 13.1763C34.2522 13.4503 34.0917 13.7752 33.9977 14.151C33.9038 14.519 33.8568 14.8478 33.8568 15.1375C33.8568 15.5759 34.0329 15.8617 34.3853 15.9948C34.7376 16.12 35.2191 16.1827 35.8297 16.1827ZM48.7712 20.8097L50.8028 22.8413L48.7712 24.8729L46.7395 22.8413L48.7712 20.8097ZM40.7385 16.1827H42.7115C43.7684 16.1827 44.7588 16.0652 45.6826 15.8304C46.6143 15.5955 47.5577 15.2667 48.5128 14.8439C49.4758 14.4133 50.521 13.9083 51.6483 13.329C51.3587 13.2037 51.0338 13.0706 50.6736 12.9297C50.3213 12.7888 49.969 12.6518 49.6167 12.5187C49.2722 12.3778 48.9669 12.2603 48.7007 12.1664C48.4267 12.0568 48.1801 11.9667 47.9609 11.8963C47.7495 11.818 47.5655 11.7593 47.4089 11.7201C47.2602 11.681 47.1388 11.6614 47.0449 11.6614C46.6064 11.6614 46.1876 11.7984 45.7883 12.0724C45.3968 12.3386 45.0837 12.6244 44.8488 12.9297L44.2851 13.6343L41.819 12.4247L42.277 11.6849C42.8172 10.7924 43.4944 10.0564 44.3086 9.47708C45.1228 8.89773 46.0388 8.60806 47.0566 8.60806C47.7534 8.60806 48.4189 8.73332 49.053 8.98385C49.695 9.22655 50.3409 9.5084 50.9907 9.82939C51.6875 10.1739 52.2942 10.4596 52.811 10.6867C53.3277 10.9059 53.7896 11.086 54.1967 11.2269C54.6116 11.36 55.0148 11.4618 55.4063 11.5322C55.7977 11.5948 56.2205 11.6379 56.6746 11.6614V14.5621C56.1344 14.6325 55.6138 14.7578 55.1127 14.9379C54.6116 15.1101 54.0754 15.3371 53.5038 15.619C52.9323 15.9008 52.2747 16.2414 51.5309 16.6407C50.5288 17.1731 49.5658 17.6428 48.642 18.0499C47.726 18.457 46.7865 18.7741 45.8235 19.0011C44.8684 19.2282 43.8193 19.3417 42.6762 19.3417H40.7385V16.1827ZM56.1227 25.7302L55.0188 22.8413C56.1775 22.5829 57.16 22.2385 57.9664 21.8079C58.7806 21.3851 59.3991 20.8253 59.8219 20.1285C60.2447 19.4317 60.456 18.5627 60.456 17.5214C60.456 16.8168 60.3504 16.0339 60.139 15.1727C59.9354 14.3115 59.7045 13.5012 59.4461 12.7418L62.3702 11.7788C62.6756 12.6244 62.9065 13.5208 63.0631 14.4681C63.2197 15.4154 63.298 16.3236 63.298 17.1926C63.298 18.7741 63.0083 20.1481 62.429 21.3146C61.8496 22.489 61.0237 23.4441 59.9511 24.1801C58.8785 24.916 57.6023 25.4327 56.1227 25.7302ZM65.8933 2.81846H68.8645V13.7635C68.8645 14.6482 68.9976 15.2745 69.2637 15.6425C69.5299 16.0026 70.0506 16.1827 70.8256 16.1827H71.1075V19.3417H70.8256C69.1267 19.3417 67.878 18.8994 67.0794 18.0147C66.2887 17.13 65.8933 15.7873 65.8933 13.9866V2.81846ZM74.6423 8.38493C75.253 8.76855 75.8362 9.14435 76.3921 9.51231C76.948 9.88028 77.4569 10.26 77.9188 10.6514C78.3807 11.0351 78.7839 11.4383 79.1284 11.861C79.4728 12.2838 79.739 12.734 79.9269 13.2115C80.1148 13.6891 80.2088 14.2019 80.2088 14.75C80.2088 15.9321 79.9387 16.8599 79.3985 17.5332C78.8583 18.1987 78.0871 18.6684 77.085 18.9424C76.0907 19.2086 74.9046 19.3417 73.5267 19.3417H70.6847V16.1827H73.5149C74.384 16.1827 75.1003 16.1435 75.664 16.0652C76.2355 15.9791 76.6622 15.8304 76.9441 15.619C77.2259 15.4076 77.3668 15.1023 77.3668 14.703C77.3668 14.4603 77.2416 14.1941 76.991 13.9044C76.7405 13.6147 76.4117 13.3133 76.0046 13.0002C75.5975 12.687 75.1512 12.3738 74.6658 12.0607C74.1882 11.7475 73.7107 11.4383 73.2331 11.1329C72.7633 10.8276 72.3406 10.5379 71.9648 10.2639C71.6594 10.029 71.4206 9.73544 71.2484 9.38313C71.084 9.03083 71.0018 8.66678 71.0018 8.29098C71.0018 7.86821 71.1036 7.46501 71.3071 7.08139C71.5185 6.69777 71.8278 6.42766 72.2349 6.27108L81.1835 2.61882V5.73088L74.6423 8.38493ZM98.0473 16.8521C98.0473 18.6214 97.7185 20.1011 97.0608 21.2911C96.411 22.489 95.4755 23.4441 94.2541 24.1566C93.0406 24.8769 91.5922 25.3975 89.909 25.7185L88.8403 22.8296C89.9364 22.6182 90.9072 22.3402 91.7527 21.9958C92.6061 21.6591 93.3029 21.252 93.8431 20.7744C94.3911 20.3047 94.7552 19.7762 94.9352 19.189C94.716 19.236 94.4812 19.2791 94.2306 19.3182C93.9879 19.3495 93.7687 19.3652 93.573 19.3652C92.109 19.3652 90.9581 19.0442 90.1204 18.4022C89.2905 17.7524 88.8756 16.7033 88.8756 15.2549C88.8756 14.6286 88.9695 13.9905 89.1574 13.3407C89.3453 12.6831 89.6193 12.0802 89.9794 11.5322C90.3396 10.9763 90.7937 10.5301 91.3417 10.1934C91.8897 9.84896 92.5239 9.67672 93.2442 9.67672C94.0975 9.67672 94.8256 9.88028 95.4285 10.2874C96.0391 10.6945 96.5363 11.2465 96.9199 11.9432C97.3035 12.6322 97.5854 13.4034 97.7655 14.2567C97.9534 15.1023 98.0473 15.9674 98.0473 16.8521ZM93.5495 16.2297C93.8783 16.2297 94.1876 16.2101 94.4772 16.1709C94.7748 16.124 95.0292 16.0731 95.2406 16.0183C95.2093 15.6581 95.1466 15.2863 95.0527 14.9026C94.9587 14.519 94.8335 14.1667 94.6769 13.8457C94.5203 13.5169 94.3246 13.2546 94.0897 13.0589C93.8548 12.8553 93.5652 12.7535 93.2207 12.7535C92.8214 12.7535 92.5043 12.8984 92.2695 13.1881C92.0424 13.4699 91.8819 13.7987 91.788 14.1745C91.7018 14.5425 91.6588 14.8635 91.6588 15.1375C91.6588 15.5838 91.831 15.8773 92.1755 16.0183C92.5278 16.1592 92.9858 16.2297 93.5495 16.2297ZM113.29 8.47888L115.322 10.5105L113.29 12.5422L111.259 10.5105L113.29 8.47888ZM113.443 21.4203C114.602 21.4203 115.514 21.2324 116.179 20.8566C116.845 20.4808 117.315 19.9759 117.589 19.3417C117.87 18.7076 118.011 17.999 118.011 17.2161C118.011 16.3549 117.878 15.4741 117.612 14.5738C117.346 13.6735 117.056 12.8397 116.743 12.0724L119.656 10.9685C120.094 12.1116 120.403 13.1763 120.583 14.1628C120.771 15.1414 120.865 16.1279 120.865 17.1222C120.865 18.6332 120.587 19.9406 120.031 21.0445C119.475 22.1563 118.646 23.0135 117.542 23.6164C116.446 24.227 115.079 24.5324 113.443 24.5324C111.752 24.5324 110.366 24.2114 109.286 23.5694C108.213 22.9352 107.419 22.0701 106.902 20.9741C106.393 19.878 106.139 18.6488 106.139 17.2866C106.139 16.3706 106.237 15.4272 106.432 14.4564C106.636 13.4777 106.922 12.5108 107.29 11.5557L109.955 12.5891C109.681 13.3877 109.45 14.1824 109.262 14.9731C109.075 15.756 108.981 16.4919 108.981 17.1809C108.981 17.956 109.114 18.6645 109.38 19.3065C109.654 19.9485 110.116 20.4613 110.766 20.8449C111.415 21.2285 112.308 21.4203 113.443 21.4203ZM123.484 2.81846H126.455V13.7635C126.455 14.6482 126.588 15.2745 126.854 15.6425C127.121 16.0026 127.641 16.1827 128.416 16.1827H128.698V19.3417H128.416C126.717 19.3417 125.469 18.8994 124.67 18.0147C123.879 17.13 123.484 15.7873 123.484 13.9866V2.81846ZM128.228 16.1827H129.168V19.3417H128.228V16.1827ZM132.503 20.9153L134.441 22.8413L132.503 24.7907L130.565 22.8413L132.503 20.9153ZM128.534 20.9153L130.495 22.8413L128.534 24.7907L126.619 22.8413L128.534 20.9153ZM130.201 19.3417H128.898V16.1827H130.178C130.937 16.1827 131.493 16.0457 131.845 15.7717C132.206 15.4898 132.386 14.977 132.386 14.2332C132.386 13.8026 132.339 13.2429 132.245 12.5539C132.159 11.8649 132.006 11.0977 131.787 10.2522L134.629 9.48883C134.824 10.2561 134.969 11.0116 135.063 11.7553C135.165 12.4913 135.216 13.1959 135.216 13.8692C135.216 14.9653 135.059 15.9243 134.746 16.7464C134.433 17.5606 133.912 18.1987 133.184 18.6606C132.456 19.1147 131.462 19.3417 130.201 19.3417ZM137.835 2.81846H140.806V13.7635C140.806 14.6482 140.939 15.2745 141.205 15.6425C141.471 16.0026 141.992 16.1827 142.767 16.1827H143.049V19.3417H142.767C141.068 19.3417 139.819 18.8994 139.021 18.0147C138.23 17.13 137.835 15.7873 137.835 13.9866V2.81846ZM150.283 12.9649C149.946 12.9649 149.641 13.0785 149.367 13.3055C149.101 13.5325 148.862 13.8105 148.65 14.1393C148.447 14.4603 148.275 14.7734 148.134 15.0788C148.361 15.298 148.58 15.4898 148.791 15.6542C149.011 15.8108 149.214 15.9439 149.402 16.0535C149.692 16.2179 149.958 16.3353 150.201 16.4058C150.451 16.4763 150.67 16.5115 150.858 16.5115C151.305 16.5115 151.626 16.3627 151.821 16.0652C152.025 15.7677 152.127 15.4076 152.127 14.9848C152.127 14.429 151.962 13.9553 151.633 13.5639C151.305 13.1646 150.854 12.9649 150.283 12.9649ZM150.847 19.6118C150.306 19.6118 149.794 19.5335 149.308 19.3769C148.823 19.2204 148.349 19.0011 147.887 18.7193C147.433 18.4374 146.975 18.1125 146.513 17.7446C146.223 18.0499 145.93 18.3239 145.632 18.5666C145.335 18.8015 144.99 18.9894 144.599 19.1303C144.207 19.2712 143.714 19.3417 143.119 19.3417H142.626V16.1827H143.061C143.475 16.1827 143.84 16.0339 144.153 15.7364C144.466 15.4389 144.767 15.0553 145.057 14.5855C145.347 14.108 145.644 13.6069 145.949 13.0824C146.263 12.55 146.611 12.045 146.995 11.5674C147.378 11.0899 147.828 10.7023 148.345 10.4048C148.862 10.1073 149.476 9.95857 150.189 9.95857C151.152 9.95857 151.986 10.1895 152.69 10.6514C153.403 11.1055 153.951 11.7084 154.334 12.46C154.718 13.2115 154.91 14.0336 154.91 14.9261C154.91 15.8343 154.757 16.6407 154.452 17.3453C154.146 18.0499 153.692 18.6058 153.09 19.0129C152.495 19.4122 151.747 19.6118 150.847 19.6118ZM163.365 19.3417C162.989 19.3417 162.641 19.2986 162.32 19.2125C161.999 19.1264 161.733 19.0168 161.521 18.8837C161.334 20.0502 160.946 21.0993 160.359 22.031C159.772 22.9626 158.985 23.7416 157.998 24.368C157.02 25.0021 155.841 25.4562 154.464 25.7302L153.383 22.8413C154.542 22.5829 155.524 22.2385 156.331 21.8079C157.145 21.3851 157.763 20.8253 158.186 20.1285C158.609 19.4317 158.82 18.5627 158.82 17.5214C158.82 16.8168 158.715 16.0339 158.503 15.1727C158.3 14.3115 158.069 13.5012 157.81 12.7418L160.723 11.7788L161.404 14.3977C161.545 14.9379 161.752 15.3724 162.026 15.7012C162.308 16.0222 162.711 16.1827 163.236 16.1827H163.682V19.3417H163.365ZM168.579 0.364052L170.611 2.39569L168.579 4.42734L166.548 2.39569L168.579 0.364052ZM168.955 12.0842C169.268 12.0842 169.581 12.0646 169.895 12.0254C170.208 11.9863 170.517 11.9315 170.822 11.861C170.775 11.5557 170.701 11.2308 170.599 10.8863C170.505 10.5418 170.38 10.2208 170.223 9.92334C170.067 9.62584 169.879 9.38313 169.66 9.19524C169.441 9.00734 169.178 8.91339 168.873 8.91339C168.521 8.91339 168.223 9.03083 167.98 9.2657C167.738 9.49274 167.558 9.77067 167.44 10.0995C167.323 10.4283 167.264 10.7493 167.264 11.0625C167.264 11.5009 167.425 11.7827 167.746 11.908C168.067 12.0254 168.47 12.0842 168.955 12.0842ZM167.687 16.1827C168.399 16.1827 168.99 16.1474 169.46 16.077C169.93 16.0065 170.286 15.8617 170.529 15.6425C170.779 15.4154 170.905 15.0631 170.905 14.5855C170.607 14.656 170.294 14.7108 169.965 14.75C169.636 14.7813 169.304 14.7969 168.967 14.7969C167.597 14.7969 166.52 14.5112 165.737 13.9397C164.954 13.3681 164.563 12.4521 164.563 11.1916C164.563 10.5653 164.661 9.939 164.857 9.31267C165.052 8.68635 165.338 8.11483 165.714 7.59811C166.09 7.07356 166.544 6.65471 167.076 6.34154C167.616 6.02838 168.223 5.8718 168.896 5.8718C169.781 5.8718 170.525 6.09101 171.128 6.52944C171.738 6.96004 172.232 7.53939 172.607 8.26749C172.991 8.9956 173.269 9.80982 173.441 10.7102C173.613 11.6105 173.7 12.5226 173.7 13.4464C173.7 14.6521 173.578 15.6425 173.336 16.4176C173.093 17.1848 172.721 17.7837 172.22 18.2143C171.727 18.6371 171.092 18.9307 170.317 19.0951C169.542 19.2595 168.618 19.3417 167.546 19.3417H163.248V16.1827H167.687ZM173.535 25.7302L172.431 22.8413C173.59 22.5829 174.573 22.2385 175.379 21.8079C176.193 21.3851 176.812 20.8253 177.234 20.1285C177.657 19.4317 177.869 18.5627 177.869 17.5214C177.869 16.8168 177.763 16.0339 177.551 15.1727C177.348 14.3115 177.117 13.5012 176.859 12.7418L179.783 11.7788C180.088 12.6244 180.319 13.5208 180.476 14.4681C180.632 15.4154 180.71 16.3236 180.71 17.1926C180.71 18.7741 180.421 20.1481 179.841 21.3146C179.262 22.489 178.436 23.4441 177.364 24.1801C176.291 24.916 175.015 25.4327 173.535 25.7302ZM183.306 2.81846H186.277V13.7635C186.277 14.6482 186.41 15.2745 186.676 15.6425C186.942 16.0026 187.463 16.1827 188.238 16.1827H188.52V19.3417H188.238C186.539 19.3417 185.29 18.8994 184.492 18.0147C183.701 17.13 183.306 15.7873 183.306 13.9866V2.81846ZM192.055 8.38493C192.665 8.76855 193.249 9.14435 193.805 9.51231C194.36 9.88028 194.869 10.26 195.331 10.6514C195.793 11.0351 196.196 11.4383 196.541 11.861C196.885 12.2838 197.152 12.734 197.339 13.2115C197.527 13.6891 197.621 14.2019 197.621 14.75C197.621 15.9321 197.351 16.8599 196.811 17.5332C196.271 18.1987 195.5 18.6684 194.497 18.9424C193.503 19.2086 192.317 19.3417 190.939 19.3417H188.097V16.1827H190.927C191.796 16.1827 192.513 16.1435 193.076 16.0652C193.648 15.9791 194.075 15.8304 194.357 15.619C194.638 15.4076 194.779 15.1023 194.779 14.703C194.779 14.4603 194.654 14.1941 194.404 13.9044C194.153 13.6147 193.824 13.3133 193.417 13.0002C193.01 12.687 192.564 12.3738 192.078 12.0607C191.601 11.7475 191.123 11.4383 190.646 11.1329C190.176 10.8276 189.753 10.5379 189.377 10.2639C189.072 10.029 188.833 9.73544 188.661 9.38313C188.496 9.03083 188.414 8.66678 188.414 8.29098C188.414 7.86821 188.516 7.46501 188.72 7.08139C188.931 6.69777 189.24 6.42766 189.647 6.27108L198.596 2.61882V5.73088L192.055 8.38493ZM213.616 25.2605C211.925 25.2605 210.539 24.9395 209.459 24.2975C208.386 23.6634 207.592 22.7982 207.075 21.7022C206.566 20.6139 206.312 19.3848 206.312 18.0147C206.312 17.0987 206.409 16.1553 206.605 15.1845C206.809 14.2058 207.094 13.2389 207.462 12.2838L210.128 13.3172C209.854 14.1236 209.623 14.9222 209.435 15.7129C209.247 16.4958 209.153 17.2318 209.153 17.9207C209.153 18.688 209.287 19.3926 209.553 20.0346C209.827 20.6766 210.289 21.1894 210.939 21.573C211.588 21.9566 212.481 22.1484 213.616 22.1484C214.493 22.1484 215.264 22.0662 215.93 21.9018C216.595 21.7452 217.147 21.5378 217.585 21.2794C218.024 21.0289 218.353 20.7627 218.572 20.4808C218.799 20.199 218.912 19.9406 218.912 19.7058C218.912 19.5648 218.873 19.4474 218.795 19.3534C218.717 19.2673 218.576 19.2243 218.372 19.2243H216.47C216.031 19.2243 215.597 19.1812 215.166 19.0951C214.743 19.0011 214.356 18.825 214.004 18.5666C213.659 18.3004 213.381 17.9207 213.17 17.4275C212.966 16.9343 212.864 16.2923 212.864 15.5015C212.864 14.6952 212.994 13.9201 213.252 13.1763C213.518 12.4326 213.894 11.7671 214.379 11.1799C214.873 10.5927 215.464 10.1308 216.153 9.79416C216.842 9.45751 217.613 9.28919 218.466 9.28919C219.014 9.28919 219.562 9.37139 220.11 9.5358C220.658 9.69238 221.167 9.939 221.637 10.2756L220.639 13.0354C220.239 12.824 219.86 12.6753 219.5 12.5891C219.139 12.503 218.799 12.46 218.478 12.46C217.899 12.46 217.397 12.5931 216.975 12.8592C216.56 13.1254 216.243 13.4856 216.023 13.9397C215.804 14.3937 215.695 14.9105 215.695 15.4898C215.695 15.7247 215.761 15.8813 215.894 15.9595C216.035 16.0378 216.231 16.077 216.481 16.077H218.255C219.116 16.077 219.793 16.2179 220.286 16.4998C220.78 16.7738 221.128 17.1574 221.332 17.6506C221.535 18.136 221.637 18.6958 221.637 19.33C221.637 20.4025 221.332 21.389 220.721 22.2893C220.11 23.1897 219.206 23.91 218.008 24.4502C216.818 24.9904 215.354 25.2605 213.616 25.2605ZM227.156 2.81846V19.33H224.174V2.81846H227.156ZM236.481 19.3417C236.105 19.3417 235.757 19.2986 235.436 19.2125C235.115 19.1264 234.848 19.0168 234.637 18.8837C234.449 20.0502 234.062 21.0993 233.474 22.031C232.887 22.9626 232.1 23.7416 231.114 24.368C230.135 25.0021 228.957 25.4562 227.579 25.7302L226.499 22.8413C227.657 22.5829 228.64 22.2385 229.446 21.8079C230.261 21.3851 230.879 20.8253 231.302 20.1285C231.725 19.4317 231.936 18.5627 231.936 17.5214C231.936 16.8168 231.83 16.0339 231.619 15.1727C231.415 14.3115 231.184 13.5012 230.926 12.7418L233.839 11.7788L234.52 14.3977C234.661 14.9379 234.868 15.3724 235.142 15.7012C235.424 16.0222 235.827 16.1827 236.352 16.1827H236.798V19.3417H236.481ZM236.328 16.1827H236.892V19.3417H236.328V16.1827ZM238.747 20.8097L240.779 22.8413L238.747 24.8729L236.716 22.8413L238.747 20.8097ZM237.89 19.3417H236.587V16.1827H237.867C238.626 16.1827 239.182 16.0457 239.534 15.7717C239.894 15.4898 240.074 14.977 240.074 14.2332C240.074 13.8026 240.027 13.2429 239.933 12.5539C239.847 11.8649 239.695 11.0977 239.475 10.2522L242.317 9.48883C242.513 10.2561 242.658 11.0116 242.752 11.7553C242.854 12.4913 242.905 13.1959 242.905 13.8692C242.905 14.9653 242.748 15.9243 242.435 16.7464C242.122 17.5606 241.601 18.1987 240.873 18.6606C240.145 19.1147 239.151 19.3417 237.89 19.3417ZM262.963 6.72908L264.9 8.65503L262.963 10.6045L261.025 8.65503L262.963 6.72908ZM258.993 6.72908L260.954 8.65503L258.993 10.6045L257.079 8.65503L258.993 6.72908ZM267.554 11.1916L270.314 10.8511L270.561 14.1041C270.6 14.7304 270.768 15.2354 271.066 15.619C271.363 15.9948 271.845 16.1827 272.51 16.1827H272.769V19.3417H272.51C271.618 19.3417 270.874 19.1773 270.279 18.8485C269.692 18.5197 269.206 18.0499 268.823 17.4392C268.353 17.8855 267.817 18.2496 267.214 18.5314C266.611 18.8132 265.902 19.0207 265.088 19.1538C264.274 19.2791 263.311 19.3417 262.199 19.3417H260.238C258.86 19.3417 257.604 19.2399 256.468 19.0364C255.333 18.825 254.355 18.4844 253.533 18.0147C252.71 17.5449 252.076 16.9186 251.63 16.1357C251.184 15.3528 250.961 14.3859 250.961 13.235C250.961 12.5617 251.035 11.908 251.184 11.2739C251.34 10.6319 251.532 10.0329 251.759 9.47708L254.39 10.4753C254.257 10.8354 254.128 11.2504 254.002 11.7201C253.877 12.182 253.814 12.6283 253.814 13.0589C253.814 13.6852 253.975 14.2019 254.296 14.609C254.625 15.0083 255.079 15.3254 255.658 15.5603C256.245 15.7873 256.926 15.9478 257.702 16.0418C258.484 16.1357 259.33 16.1827 260.238 16.1827H262.199C263.358 16.1827 264.344 16.1083 265.159 15.9595C265.973 15.8108 266.595 15.5564 267.026 15.1962C267.457 14.8282 267.672 14.3311 267.672 13.7048C267.672 13.3212 267.66 12.8984 267.637 12.4365C267.613 11.9667 267.586 11.5518 267.554 11.1916ZM272.299 16.1827H273.238V19.3417H272.299V16.1827ZM276.573 20.9153L278.511 22.8413L276.573 24.7907L274.636 22.8413L276.573 20.9153ZM272.604 20.9153L274.565 22.8413L272.604 24.7907L270.69 22.8413L272.604 20.9153ZM274.272 19.3417H272.968V16.1827H274.248C275.008 16.1827 275.564 16.0457 275.916 15.7717C276.276 15.4898 276.456 14.977 276.456 14.2332C276.456 13.8026 276.409 13.2429 276.315 12.5539C276.229 11.8649 276.076 11.0977 275.857 10.2522L278.699 9.48883C278.895 10.2561 279.04 11.0116 279.134 11.7553C279.235 12.4913 279.286 13.1959 279.286 13.8692C279.286 14.9653 279.13 15.9243 278.817 16.7464C278.503 17.5606 277.983 18.1987 277.255 18.6606C276.527 19.1147 275.532 19.3417 274.272 19.3417ZM281.905 2.81846H284.876V13.7635C284.876 14.6482 285.009 15.2745 285.275 15.6425C285.542 16.0026 286.062 16.1827 286.837 16.1827H287.119V19.3417H286.837C285.138 19.3417 283.89 18.8994 283.091 18.0147C282.3 17.13 281.905 15.7873 281.905 13.9866V2.81846ZM294.741 19.3417C293.927 19.3417 293.253 19.2047 292.721 18.9307C292.196 18.6488 291.77 18.273 291.441 17.8033C291.018 18.2809 290.494 18.6567 289.867 18.9307C289.241 19.2047 288.458 19.3417 287.519 19.3417H286.696V16.1827H287.542C288.427 16.1827 289.08 16.0222 289.503 15.7012C289.926 15.3724 290.137 14.7852 290.137 13.9397C290.137 13.8144 290.13 13.6265 290.114 13.376C290.098 13.1254 290.079 12.8436 290.055 12.5304C290.039 12.2173 290.02 11.9119 289.996 11.6144L292.744 11.2739L292.991 14.2567C293.015 14.6169 293.093 14.9457 293.226 15.2432C293.367 15.5329 293.563 15.7638 293.813 15.9361C294.071 16.1005 294.389 16.1827 294.764 16.1827C295.453 16.1827 295.943 15.9909 296.232 15.6072C296.522 15.2158 296.667 14.6599 296.667 13.9397C296.667 13.8222 296.659 13.6382 296.643 13.3877C296.635 13.1293 296.62 12.8436 296.596 12.5304C296.573 12.2173 296.549 11.9119 296.526 11.6144L299.274 11.2739L299.52 14.2567C299.544 14.5934 299.611 14.9105 299.72 15.208C299.83 15.5055 299.994 15.7443 300.213 15.9243C300.44 16.0966 300.73 16.1827 301.082 16.1827C301.411 16.1827 301.673 16.0887 301.869 15.9008C302.065 15.7051 302.206 15.4507 302.292 15.1375C302.378 14.8165 302.421 14.4681 302.421 14.0923C302.421 13.5599 302.355 12.9532 302.221 12.2721C302.088 11.5831 301.947 10.9411 301.799 10.3461L304.641 9.59452C304.829 10.2913 304.973 10.992 305.075 11.6966C305.177 12.3934 305.228 13.0902 305.228 13.787C305.228 14.7891 305.099 15.7129 304.84 16.5585C304.582 17.3962 304.155 18.0695 303.56 18.5784C302.965 19.0794 302.151 19.3339 301.118 19.3417C300.397 19.3417 299.791 19.1969 299.297 18.9072C298.804 18.6097 298.397 18.2339 298.076 17.7798C297.669 18.2496 297.18 18.6293 296.608 18.9189C296.037 19.2008 295.414 19.3417 294.741 19.3417ZM313.918 2.81846H316.889V13.7635C316.889 14.6482 317.022 15.2745 317.289 15.6425C317.555 16.0026 318.075 16.1827 318.85 16.1827H319.132V19.3417H318.85C317.152 19.3417 315.903 18.8994 315.104 18.0147C314.313 17.13 313.918 15.7873 313.918 13.9866V2.81846ZM318.674 16.1827H319.238V19.3417H318.674V16.1827ZM321.093 20.8097L323.125 22.8413L321.093 24.8729L319.062 22.8413L321.093 20.8097ZM320.236 19.3417H318.933V16.1827H320.213C320.972 16.1827 321.528 16.0457 321.88 15.7717C322.24 15.4898 322.42 14.977 322.42 14.2332C322.42 13.8026 322.374 13.2429 322.28 12.5539C322.193 11.8649 322.041 11.0977 321.822 10.2522L324.664 9.48883C324.859 10.2561 325.004 11.0116 325.098 11.7553C325.2 12.4913 325.251 13.1959 325.251 13.8692C325.251 14.9653 325.094 15.9243 324.781 16.7464C324.468 17.5606 323.947 18.1987 323.219 18.6606C322.491 19.1147 321.497 19.3417 320.236 19.3417ZM332.872 25.7302L331.768 22.8413C332.927 22.5829 333.91 22.2385 334.716 21.8079C335.53 21.3851 336.149 20.8253 336.572 20.1285C336.994 19.4317 337.206 18.5627 337.206 17.5214C337.206 16.8168 337.1 16.0339 336.889 15.1727C336.685 14.3115 336.454 13.5012 336.196 12.7418L339.12 11.7788C339.425 12.6244 339.656 13.5208 339.813 14.4681C339.969 15.4154 340.048 16.3236 340.048 17.1926C340.048 18.7741 339.758 20.1481 339.179 21.3146C338.599 22.489 337.773 23.4441 336.701 24.1801C335.628 24.916 334.352 25.4327 332.872 25.7302ZM342.643 2.81846H345.614V13.7635C345.614 14.6482 345.747 15.2745 346.013 15.6425C346.28 16.0026 346.8 16.1827 347.575 16.1827H347.857V19.3417H347.575C345.876 19.3417 344.628 18.8994 343.829 18.0147C343.038 17.13 342.643 15.7873 342.643 13.9866V2.81846ZM351.392 8.38493C352.003 8.76855 352.586 9.14435 353.142 9.51231C353.698 9.88028 354.206 10.26 354.668 10.6514C355.13 11.0351 355.534 11.4383 355.878 11.861C356.222 12.2838 356.489 12.734 356.677 13.2115C356.864 13.6891 356.958 14.2019 356.958 14.75C356.958 15.9321 356.688 16.8599 356.148 17.5332C355.608 18.1987 354.837 18.6684 353.835 18.9424C352.84 19.2086 351.654 19.3417 350.276 19.3417H347.434V16.1827H350.265C351.134 16.1827 351.85 16.1435 352.414 16.0652C352.985 15.9791 353.412 15.8304 353.694 15.619C353.976 15.4076 354.116 15.1023 354.116 14.703C354.116 14.4603 353.991 14.1941 353.741 13.9044C353.49 13.6147 353.161 13.3133 352.754 13.0002C352.347 12.687 351.901 12.3738 351.415 12.0607C350.938 11.7475 350.46 11.4383 349.983 11.1329C349.513 10.8276 349.09 10.5379 348.714 10.2639C348.409 10.029 348.17 9.73544 347.998 9.38313C347.834 9.03083 347.751 8.66678 347.751 8.29098C347.751 7.86821 347.853 7.46501 348.057 7.08139C348.268 6.69777 348.577 6.42766 348.985 6.27108L357.933 2.61882V5.73088L351.392 8.38493ZM384.896 2.71277L386.728 4.54477L384.896 6.37677L383.064 4.54477L384.896 2.71277ZM386.94 5.70739L388.772 7.53939L386.94 9.37139L385.108 7.53939L386.94 5.70739ZM382.853 5.70739L384.685 7.53939L382.853 9.37139L381.021 7.53939L382.853 5.70739ZM382.278 19.3417C381.886 19.3417 381.534 19.283 381.221 19.1656C380.915 19.0481 380.637 18.9111 380.387 18.7545C380.269 20.1011 379.909 21.2677 379.306 22.2541C378.711 23.2484 377.882 24.0157 376.817 24.5559C375.76 25.1039 374.472 25.3779 372.953 25.3779C371.262 25.3779 369.876 25.0569 368.796 24.4149C367.723 23.7808 366.929 22.9157 366.412 21.8196C365.903 20.7314 365.649 19.5022 365.649 18.1321C365.649 17.2161 365.747 16.2727 365.942 15.3019C366.146 14.3233 366.432 13.3564 366.8 12.4012L369.465 13.4347C369.191 14.2411 368.96 15.0396 368.772 15.8304C368.585 16.6133 368.491 17.3492 368.491 18.0382C368.491 18.8054 368.624 19.51 368.89 20.152C369.164 20.794 369.626 21.3068 370.276 21.6904C370.925 22.074 371.818 22.2659 372.953 22.2659C374.112 22.2659 375.024 22.078 375.689 21.7022C376.355 21.3264 376.825 20.8214 377.099 20.1872C377.381 19.5531 377.521 18.8446 377.521 18.0617C377.521 17.2005 377.388 16.3236 377.122 15.4311C376.856 14.5307 376.566 13.693 376.253 12.918L379.166 11.8141L379.952 14.198C380.132 14.7774 380.406 15.2549 380.774 15.6307C381.142 15.9987 381.651 16.1827 382.301 16.1827C382.982 16.1827 383.468 15.9752 383.757 15.5603C384.055 15.1453 384.204 14.5816 384.204 13.8692C384.204 13.7439 384.196 13.5639 384.18 13.329C384.164 13.0863 384.145 12.8162 384.121 12.5187C384.098 12.2133 384.074 11.9119 384.051 11.6144L386.811 11.2739L387.057 14.1745C387.081 14.5112 387.147 14.8361 387.257 15.1492C387.366 15.4546 387.531 15.7051 387.75 15.9008C387.977 16.0887 388.267 16.1827 388.619 16.1827C388.948 16.1827 389.21 16.0887 389.406 15.9008C389.602 15.7051 389.743 15.4507 389.829 15.1375C389.915 14.8165 389.958 14.4681 389.958 14.0923C389.958 13.5599 389.891 12.9532 389.758 12.2721C389.625 11.5831 389.484 10.9411 389.336 10.3461L392.177 9.59452C392.365 10.2913 392.51 10.992 392.612 11.6966C392.714 12.3934 392.765 13.0902 392.765 13.787C392.765 14.7891 392.635 15.7129 392.377 16.5585C392.119 17.3962 391.692 18.0695 391.097 18.5784C390.502 19.0794 389.688 19.3339 388.654 19.3417C387.934 19.3417 387.327 19.1969 386.834 18.9072C386.341 18.6097 385.934 18.2339 385.613 17.7798C385.206 18.2496 384.716 18.6293 384.145 18.9189C383.573 19.2008 382.951 19.3417 382.278 19.3417ZM396.863 5.96575L398.895 7.99739L396.863 10.029L394.832 7.99739L396.863 5.96575ZM392.365 25.7302L391.261 22.8413C392.42 22.5829 393.403 22.2385 394.209 21.8079C395.023 21.3851 395.642 20.8253 396.065 20.1285C396.487 19.4317 396.699 18.5627 396.699 17.5214C396.699 16.8168 396.593 16.0339 396.382 15.1727C396.178 14.3115 395.947 13.5012 395.689 12.7418L398.613 11.7788C398.918 12.6244 399.149 13.5208 399.306 14.4681C399.462 15.4154 399.541 16.3236 399.541 17.1926C399.541 18.7741 399.251 20.1481 398.672 21.3146C398.092 22.489 397.266 23.4441 396.194 24.1801C395.121 24.916 393.845 25.4327 392.365 25.7302ZM405.882 9.64149C406.634 9.64149 407.291 9.81765 407.855 10.17C408.419 10.5144 408.896 10.992 409.288 11.6027C409.687 12.2055 409.996 12.9023 410.216 13.693C410.443 14.4759 410.58 15.3058 410.627 16.1827H411.601V19.3417H410.415C410.141 20.4769 409.679 21.4634 409.03 22.3011C408.38 23.1466 407.522 23.8512 406.458 24.4149C405.393 24.9865 404.089 25.421 402.547 25.7185L401.478 22.8296C402.504 22.626 403.436 22.3598 404.273 22.031C405.119 21.71 405.827 21.3225 406.399 20.8684C406.97 20.4143 407.354 19.9054 407.55 19.3417H406.305C404.739 19.3417 403.549 19.0168 402.735 18.367C401.921 17.7172 401.514 16.6798 401.514 15.2549C401.514 14.6678 401.6 14.0493 401.772 13.3994C401.952 12.7496 402.222 12.139 402.582 11.5674C402.942 10.9959 403.397 10.534 403.945 10.1817C404.493 9.82156 405.138 9.64149 405.882 9.64149ZM406.27 16.1827H407.879C407.847 15.7756 407.785 15.3685 407.691 14.9613C407.597 14.5542 407.468 14.1863 407.303 13.8574C407.147 13.5208 406.947 13.2546 406.704 13.0589C406.469 12.8553 406.188 12.7535 405.859 12.7535C405.467 12.7535 405.154 12.8945 404.919 13.1763C404.692 13.4503 404.532 13.7752 404.438 14.151C404.344 14.519 404.297 14.8478 404.297 15.1375C404.297 15.5759 404.473 15.8617 404.825 15.9948C405.178 16.12 405.659 16.1827 406.27 16.1827ZM418.835 12.9649C418.499 12.9649 418.193 13.0785 417.919 13.3055C417.653 13.5325 417.414 13.8105 417.203 14.1393C417 14.4603 416.827 14.7734 416.686 15.0788C416.913 15.298 417.133 15.4898 417.344 15.6542C417.563 15.8108 417.767 15.9439 417.955 16.0535C418.244 16.2179 418.511 16.3353 418.753 16.4058C419.004 16.4763 419.223 16.5115 419.411 16.5115C419.857 16.5115 420.178 16.3627 420.374 16.0652C420.577 15.7677 420.679 15.4076 420.679 14.9848C420.679 14.429 420.515 13.9553 420.186 13.5639C419.857 13.1646 419.407 12.9649 418.835 12.9649ZM419.399 19.6118C418.859 19.6118 418.346 19.5335 417.861 19.3769C417.375 19.2204 416.902 19.0011 416.44 18.7193C415.986 18.4374 415.528 18.1125 415.066 17.7446C414.776 18.0499 414.482 18.3239 414.185 18.5666C413.887 18.8015 413.543 18.9894 413.152 19.1303C412.76 19.2712 412.267 19.3417 411.672 19.3417H411.179V16.1827H411.613C412.028 16.1827 412.392 16.0339 412.705 15.7364C413.018 15.4389 413.32 15.0553 413.61 14.5855C413.899 14.108 414.197 13.6069 414.502 13.0824C414.815 12.55 415.164 12.045 415.547 11.5674C415.931 11.0899 416.381 10.7023 416.898 10.4048C417.414 10.1073 418.029 9.95857 418.741 9.95857C419.704 9.95857 420.538 10.1895 421.243 10.6514C421.955 11.1055 422.503 11.7084 422.887 12.46C423.271 13.2115 423.462 14.0336 423.462 14.9261C423.462 15.8343 423.31 16.6407 423.004 17.3453C422.699 18.0499 422.245 18.6058 421.642 19.0129C421.047 19.4122 420.299 19.6118 419.399 19.6118ZM428.688 1.19785C428.79 1.23699 428.884 1.25656 428.97 1.25656C429.142 1.25656 429.303 1.20176 429.452 1.09215C429.608 0.974719 429.792 0.818137 430.004 0.622411L430.685 0L432 1.20959L431.248 1.91421C430.857 2.29 430.497 2.57968 430.168 2.78323C429.847 2.98679 429.51 3.08857 429.158 3.08857C428.837 3.08857 428.465 2.9907 428.042 2.79498L426.527 2.11385C426.426 2.06687 426.332 2.03164 426.246 2.00816C426.16 1.98467 426.073 1.97292 425.987 1.97292C425.784 1.97292 425.58 2.05122 425.377 2.2078C425.181 2.36438 424.93 2.59534 424.625 2.90067L423.873 3.65226L422.546 2.45441L423.31 1.65585C423.803 1.14696 424.241 0.763334 424.625 0.504975C425.016 0.246616 425.4 0.117436 425.776 0.117436C425.987 0.117436 426.206 0.152667 426.434 0.223128C426.661 0.285761 426.907 0.37971 427.173 0.504975L428.688 1.19785ZM429.052 4.48605V19.33H426.069V4.48605H429.052Z" fill="#212121"/>
<path d="M320.44 48.4032L95.9648 48.4032" stroke="#1967D2" stroke-width="2" stroke-linecap="round"/>
</svg>
