<svg width="387" height="72" viewBox="0 0 387 72" fill="none" xmlns="http://www.w3.org/2000/svg">
<rect x="1" y="1" width="385" height="70" rx="15" fill="#DFEBFD"/>
<rect x="1" y="1" width="385" height="70" rx="15" stroke="#1967D2" stroke-width="2"/>
<path d="M9.54395 32.1777L10.9502 33.584L9.54395 34.9902L8.1377 33.584L9.54395 32.1777ZM9.6582 41.8984C10.5781 41.8984 11.2959 41.749 11.8115 41.4502C12.3271 41.1514 12.6904 40.7529 12.9014 40.2549C13.1123 39.7627 13.2178 39.2236 13.2178 38.6377C13.2178 37.9639 13.1182 37.29 12.9189 36.6162C12.7256 35.9424 12.5293 35.3506 12.3301 34.8408L14.2021 34.1113C14.501 34.9199 14.7207 35.6875 14.8613 36.4141C15.002 37.1406 15.0723 37.8525 15.0723 38.5498C15.0723 39.6162 14.876 40.5479 14.4834 41.3447C14.0908 42.1475 13.4932 42.7715 12.6904 43.2168C11.8936 43.6621 10.8828 43.8848 9.6582 43.8848C8.39258 43.8848 7.36719 43.6475 6.58203 43.1729C5.79688 42.7041 5.22266 42.0713 4.85938 41.2744C4.50195 40.4775 4.32324 39.5928 4.32324 38.6201C4.32324 37.9639 4.39062 37.29 4.52539 36.5986C4.66602 35.9014 4.8623 35.2158 5.11426 34.542L6.83691 35.2188C6.64941 35.793 6.48828 36.3701 6.35352 36.9502C6.22461 37.5244 6.16016 38.0752 6.16016 38.6025C6.16016 39.2061 6.26562 39.7568 6.47656 40.2549C6.69336 40.7529 7.05371 41.1514 7.55762 41.4502C8.06738 41.749 8.76758 41.8984 9.6582 41.8984ZM17.1465 27.7129H19.0449V36.0449C19.0449 36.7832 19.168 37.293 19.4141 37.5742C19.6602 37.8496 20.082 37.9873 20.6797 37.9873H20.8906V40H20.6797C19.4727 40 18.582 39.6865 18.0078 39.0596C17.4336 38.4268 17.1465 37.4512 17.1465 36.1328V27.7129ZM26.2871 35.2451C26.0176 35.2451 25.7715 35.3359 25.5488 35.5176C25.332 35.6934 25.1357 35.9189 24.96 36.1943C24.79 36.4697 24.6406 36.7451 24.5117 37.0205C24.6934 37.1963 24.8691 37.3516 25.0391 37.4863C25.209 37.6211 25.373 37.7354 25.5312 37.8291C25.7598 37.9697 25.9736 38.0723 26.1729 38.1367C26.3721 38.2012 26.5508 38.2334 26.709 38.2334C27.0898 38.2334 27.3682 38.1221 27.5439 37.8994C27.7256 37.6768 27.8164 37.3809 27.8164 37.0117C27.8164 36.5078 27.6816 36.0889 27.4121 35.7549C27.1426 35.415 26.7676 35.2451 26.2871 35.2451ZM26.709 40.2021C26.3105 40.2021 25.9326 40.1436 25.5752 40.0264C25.2236 39.9092 24.8779 39.7422 24.5381 39.5254C24.1982 39.3086 23.8525 39.0479 23.501 38.7432C23.2666 38.9951 23.0352 39.2178 22.8066 39.4111C22.584 39.5986 22.3262 39.7451 22.0332 39.8506C21.7402 39.9502 21.377 40 20.9434 40H20.5742V37.9873H20.8994C21.2451 37.9873 21.5439 37.876 21.7959 37.6533C22.0479 37.4248 22.2793 37.1348 22.4902 36.7832C22.707 36.4258 22.9238 36.0479 23.1406 35.6494C23.3633 35.251 23.6123 34.873 23.8877 34.5156C24.1631 34.1582 24.4883 33.8682 24.8633 33.6455C25.2441 33.4229 25.7012 33.3115 26.2344 33.3115C26.9258 33.3115 27.5234 33.4756 28.0273 33.8037C28.5371 34.1318 28.9297 34.5713 29.2051 35.1221C29.4863 35.667 29.627 36.2676 29.627 36.9238C29.627 37.5859 29.5156 38.1631 29.293 38.6553C29.0703 39.1416 28.7422 39.5225 28.3086 39.7979C27.875 40.0674 27.3418 40.2021 26.709 40.2021ZM34.3643 33.083C34.8916 33.083 35.3604 33.2031 35.7705 33.4434C36.1807 33.6836 36.5322 34.0234 36.8252 34.4629C37.124 34.8965 37.3525 35.4121 37.5107 36.0098C37.6748 36.6074 37.7715 37.2666 37.8008 37.9873H38.6797V40H37.6426C37.4727 40.7676 37.168 41.4678 36.7285 42.1006C36.2949 42.7334 35.6885 43.2754 34.9092 43.7266C34.1299 44.1777 33.1426 44.5176 31.9473 44.7461L31.2705 42.9355C32.0908 42.7715 32.8174 42.5547 33.4502 42.2852C34.083 42.0156 34.6045 41.6904 35.0146 41.3096C35.4248 40.9287 35.7031 40.4922 35.8496 40H34.707C33.5645 40 32.7002 39.7656 32.1143 39.2969C31.5342 38.8281 31.2441 38.0986 31.2441 37.1084C31.2441 36.6631 31.3057 36.2061 31.4287 35.7373C31.5576 35.2627 31.751 34.8262 32.0088 34.4277C32.2725 34.0234 32.6006 33.6982 32.9932 33.4521C33.3857 33.2061 33.8428 33.083 34.3643 33.083ZM34.6543 37.9873H36.0166C35.9873 37.5596 35.9316 37.1699 35.8496 36.8184C35.7734 36.4609 35.668 36.1533 35.5332 35.8955C35.3984 35.6318 35.2314 35.4297 35.0322 35.2891C34.8389 35.1426 34.6104 35.0693 34.3467 35.0693C34.0127 35.0693 33.749 35.1865 33.5557 35.4209C33.3682 35.6494 33.2363 35.916 33.1602 36.2207C33.084 36.5254 33.0459 36.7949 33.0459 37.0293C33.0459 37.3984 33.1807 37.6504 33.4502 37.7852C33.7197 37.9199 34.1211 37.9873 34.6543 37.9873ZM38.3457 37.9873H38.9697V40H38.3457V37.9873ZM42.2217 29.0752L43.5752 30.4111L42.2217 31.7734L40.8857 30.4111L42.2217 29.0752ZM39.2861 29.0752L40.6396 30.4111L39.2861 31.7734L37.9414 30.4111L39.2861 29.0752ZM39.7168 40H38.75V37.9873H39.6992C40.3672 37.9873 40.833 37.8525 41.0967 37.583C41.3662 37.3135 41.501 36.8945 41.501 36.3262C41.501 35.998 41.4658 35.585 41.3955 35.0869C41.3311 34.583 41.2227 34.0469 41.0703 33.4785L42.916 32.9863C43.0625 33.5078 43.168 34.041 43.2324 34.5859C43.2969 35.1309 43.3291 35.6377 43.3291 36.1064C43.3291 36.874 43.2207 37.5508 43.0039 38.1367C42.793 38.7168 42.4238 39.1738 41.8965 39.5078C41.375 39.8359 40.6484 40 39.7168 40ZM55.5723 27.1592V40H53.4541V29.6729L50.3164 30.7363V28.9873L55.3174 27.1592H55.5723ZM68.3604 32.5293V34.6211C68.3604 35.957 68.1875 37.0322 67.8418 37.8467C67.4961 38.6611 67.0098 39.2529 66.3828 39.6221C65.7559 39.9912 65.0205 40.1758 64.1768 40.1758C63.3389 40.1758 62.6035 39.9912 61.9707 39.6221C61.3379 39.2529 60.8457 38.6611 60.4941 37.8467C60.1426 37.0322 59.9668 35.957 59.9668 34.6211V32.5293C59.9668 31.1934 60.1396 30.124 60.4854 29.3213C60.8369 28.5127 61.3262 27.9297 61.9531 27.5723C62.5859 27.209 63.3213 27.0273 64.1592 27.0273C65.0029 27.0273 65.7383 27.209 66.3652 27.5723C66.998 27.9297 67.4873 28.5127 67.833 29.3213C68.1846 30.124 68.3604 31.1934 68.3604 32.5293ZM66.2422 34.9199V32.2129C66.2422 31.3574 66.1602 30.6719 65.9961 30.1562C65.8379 29.6406 65.6035 29.2715 65.293 29.0488C64.9824 28.8203 64.6045 28.7061 64.1592 28.7061C63.7197 28.7061 63.3447 28.8203 63.0342 29.0488C62.7295 29.2715 62.4951 29.6406 62.3311 30.1562C62.1729 30.6719 62.0938 31.3574 62.0938 32.2129V34.9199C62.0938 35.7754 62.1729 36.4668 62.3311 36.9941C62.4951 37.5156 62.7324 37.8965 63.043 38.1367C63.3594 38.3711 63.7373 38.4883 64.1768 38.4883C64.6279 38.4883 65.0059 38.3711 65.3105 38.1367C65.6152 37.8965 65.8467 37.5156 66.0049 36.9941C66.1631 36.4668 66.2422 35.7754 66.2422 34.9199ZM72.3594 37.9609L72.3506 39.4727C72.3506 40.0703 72.2012 40.6855 71.9023 41.3184C71.6035 41.9512 71.208 42.4727 70.7158 42.8828L69.582 42.2236C69.7461 41.96 69.8955 41.6934 70.0303 41.4238C70.165 41.1543 70.2734 40.8672 70.3555 40.5625C70.4375 40.2578 70.4785 39.9209 70.4785 39.5518V37.9609H72.3594ZM75.9805 38.3301H76.1562C76.9648 38.3301 77.6387 38.2246 78.1777 38.0137C78.7227 37.7969 79.1562 37.498 79.4785 37.1172C79.8008 36.7363 80.0322 36.2881 80.1729 35.7725C80.3135 35.2568 80.3838 34.6973 80.3838 34.0938V31.8877C80.3838 31.1904 80.2871 30.6074 80.0938 30.1387C79.9062 29.6699 79.6514 29.3154 79.3291 29.0752C79.0068 28.835 78.6523 28.7148 78.2656 28.7148C77.832 28.7148 77.4629 28.8408 77.1582 29.0928C76.8535 29.3389 76.6221 29.6699 76.4639 30.0859C76.3057 30.4961 76.2266 30.9502 76.2266 31.4482C76.2266 31.917 76.2998 32.3594 76.4463 32.7754C76.5986 33.1855 76.8271 33.5166 77.1318 33.7686C77.4365 34.0205 77.8203 34.1465 78.2832 34.1465C78.6113 34.1465 78.9131 34.085 79.1885 33.9619C79.4639 33.833 79.7041 33.6602 79.9092 33.4434C80.1143 33.2266 80.2754 32.9834 80.3926 32.7139C80.5098 32.4443 80.5742 32.1689 80.5859 31.8877L81.3945 32.1338C81.3945 32.5791 81.3008 33.0186 81.1133 33.4521C80.9316 33.8799 80.6768 34.2725 80.3486 34.6299C80.0264 34.9814 79.6484 35.2627 79.2148 35.4736C78.7871 35.6846 78.3213 35.79 77.8174 35.79C77.0029 35.79 76.3203 35.5908 75.7695 35.1924C75.2246 34.7939 74.8145 34.2695 74.5391 33.6191C74.2637 32.9688 74.126 32.2627 74.126 31.501C74.126 30.6807 74.29 29.9336 74.6182 29.2598C74.9463 28.5801 75.4209 28.0381 76.042 27.6338C76.6631 27.2295 77.4072 27.0273 78.2744 27.0273C78.9658 27.0273 79.5723 27.1621 80.0938 27.4316C80.6152 27.7012 81.0547 28.0732 81.4121 28.5479C81.7695 29.0225 82.0391 29.5732 82.2207 30.2002C82.4023 30.8271 82.4932 31.501 82.4932 32.2217V32.9688C82.4932 33.7246 82.4258 34.4541 82.291 35.1572C82.1562 35.8545 81.9365 36.502 81.6318 37.0996C81.333 37.6914 80.9375 38.2129 80.4453 38.6641C79.959 39.1094 79.3613 39.458 78.6523 39.71C77.9492 39.9561 77.123 40.0791 76.1738 40.0791H75.9805V38.3301ZM92.8467 32.5293V34.6211C92.8467 35.957 92.6738 37.0322 92.3281 37.8467C91.9824 38.6611 91.4961 39.2529 90.8691 39.6221C90.2422 39.9912 89.5068 40.1758 88.6631 40.1758C87.8252 40.1758 87.0898 39.9912 86.457 39.6221C85.8242 39.2529 85.332 38.6611 84.9805 37.8467C84.6289 37.0322 84.4531 35.957 84.4531 34.6211V32.5293C84.4531 31.1934 84.626 30.124 84.9717 29.3213C85.3232 28.5127 85.8125 27.9297 86.4395 27.5723C87.0723 27.209 87.8076 27.0273 88.6455 27.0273C89.4893 27.0273 90.2246 27.209 90.8516 27.5723C91.4844 27.9297 91.9736 28.5127 92.3193 29.3213C92.6709 30.124 92.8467 31.1934 92.8467 32.5293ZM90.7285 34.9199V32.2129C90.7285 31.3574 90.6465 30.6719 90.4824 30.1562C90.3242 29.6406 90.0898 29.2715 89.7793 29.0488C89.4688 28.8203 89.0908 28.7061 88.6455 28.7061C88.2061 28.7061 87.8311 28.8203 87.5205 29.0488C87.2158 29.2715 86.9814 29.6406 86.8174 30.1562C86.6592 30.6719 86.5801 31.3574 86.5801 32.2129V34.9199C86.5801 35.7754 86.6592 36.4668 86.8174 36.9941C86.9814 37.5156 87.2188 37.8965 87.5293 38.1367C87.8457 38.3711 88.2236 38.4883 88.6631 38.4883C89.1143 38.4883 89.4922 38.3711 89.7969 38.1367C90.1016 37.8965 90.333 37.5156 90.4912 36.9941C90.6494 36.4668 90.7285 35.7754 90.7285 34.9199ZM103.077 32.5293V34.6211C103.077 35.957 102.904 37.0322 102.559 37.8467C102.213 38.6611 101.727 39.2529 101.1 39.6221C100.473 39.9912 99.7373 40.1758 98.8936 40.1758C98.0557 40.1758 97.3203 39.9912 96.6875 39.6221C96.0547 39.2529 95.5625 38.6611 95.2109 37.8467C94.8594 37.0322 94.6836 35.957 94.6836 34.6211V32.5293C94.6836 31.1934 94.8564 30.124 95.2021 29.3213C95.5537 28.5127 96.043 27.9297 96.6699 27.5723C97.3027 27.209 98.0381 27.0273 98.876 27.0273C99.7197 27.0273 100.455 27.209 101.082 27.5723C101.715 27.9297 102.204 28.5127 102.55 29.3213C102.901 30.124 103.077 31.1934 103.077 32.5293ZM100.959 34.9199V32.2129C100.959 31.3574 100.877 30.6719 100.713 30.1562C100.555 29.6406 100.32 29.2715 100.01 29.0488C99.6992 28.8203 99.3213 28.7061 98.876 28.7061C98.4365 28.7061 98.0615 28.8203 97.751 29.0488C97.4463 29.2715 97.2119 29.6406 97.0479 30.1562C96.8896 30.6719 96.8105 31.3574 96.8105 32.2129V34.9199C96.8105 35.7754 96.8896 36.4668 97.0479 36.9941C97.2119 37.5156 97.4492 37.8965 97.7598 38.1367C98.0762 38.3711 98.4541 38.4883 98.8936 38.4883C99.3447 38.4883 99.7227 38.3711 100.027 38.1367C100.332 37.8965 100.563 37.5156 100.722 36.9941C100.88 36.4668 100.959 35.7754 100.959 34.9199Z" fill="#212121"/>
<path d="M292.27 44.4385C291.004 44.4385 289.979 44.2012 289.193 43.7266C288.408 43.2578 287.834 42.625 287.471 41.8281C287.113 41.0312 286.935 40.1436 286.935 39.165C286.935 38.5088 287.002 37.835 287.137 37.1436C287.277 36.4463 287.474 35.7637 287.726 35.0957L289.448 35.7725C289.261 36.3408 289.1 36.915 288.965 37.4951C288.836 38.0752 288.771 38.6289 288.771 39.1562C288.771 39.7539 288.877 40.3018 289.088 40.7998C289.305 41.3037 289.665 41.7021 290.169 41.9951C290.679 42.2939 291.379 42.4434 292.27 42.4434C292.908 42.4434 293.482 42.3818 293.992 42.2588C294.502 42.1416 294.933 41.9834 295.284 41.7842C295.636 41.5908 295.905 41.377 296.093 41.1426C296.28 40.9082 296.374 40.6797 296.374 40.457C296.374 40.3164 296.333 40.1904 296.251 40.0791C296.169 39.9678 296.02 39.9121 295.803 39.9121H294.379C294.004 39.9121 293.658 39.8682 293.342 39.7803C293.031 39.6924 292.765 39.5488 292.542 39.3496C292.319 39.1504 292.146 38.8838 292.023 38.5498C291.9 38.2158 291.839 37.8027 291.839 37.3105C291.839 36.7188 291.933 36.1562 292.12 35.623C292.313 35.084 292.586 34.6064 292.938 34.1904C293.289 33.7686 293.714 33.4375 294.212 33.1973C294.716 32.957 295.278 32.8369 295.899 32.8369C296.263 32.8369 296.632 32.8896 297.007 32.9951C297.382 33.1006 297.745 33.2734 298.097 33.5137L297.455 35.2451C297.186 35.1045 296.922 35.0049 296.664 34.9463C296.406 34.8818 296.154 34.8496 295.908 34.8496C295.445 34.8496 295.047 34.958 294.713 35.1748C294.385 35.3916 294.133 35.6875 293.957 36.0625C293.781 36.4316 293.693 36.8477 293.693 37.3105C293.693 37.5332 293.746 37.6885 293.852 37.7764C293.957 37.8643 294.139 37.9082 294.396 37.9082H295.794C296.392 37.9082 296.857 38.0107 297.191 38.2158C297.531 38.4209 297.771 38.7021 297.912 39.0596C298.053 39.417 298.123 39.8271 298.123 40.29C298.123 41.0225 297.9 41.7021 297.455 42.3291C297.01 42.9619 296.354 43.4717 295.486 43.8584C294.619 44.2451 293.547 44.4385 292.27 44.4385ZM301.858 38.0137C302.497 38.0137 303.057 37.9609 303.537 37.8555C304.023 37.75 304.401 37.5859 304.671 37.3633C304.94 37.1348 305.075 36.833 305.075 36.458C305.075 36.0889 304.926 35.7021 304.627 35.2979C304.334 34.8936 303.909 34.4834 303.353 34.0674C302.802 33.6455 302.131 33.2295 301.34 32.8193L302.21 31.0439C302.901 31.3896 303.534 31.7588 304.108 32.1514C304.683 32.5439 305.178 32.9629 305.594 33.4082C306.01 33.8535 306.329 34.3252 306.552 34.8232C306.78 35.3154 306.895 35.8398 306.895 36.3965C306.895 37.2227 306.707 37.9023 306.332 38.4355C305.963 38.9629 305.415 39.3525 304.688 39.6045C303.962 39.8564 303.062 39.9824 301.99 39.9824C301.568 39.9824 301.167 39.9648 300.786 39.9297C300.411 39.8945 300.051 39.8389 299.705 39.7627V37.7588C300.086 37.835 300.464 37.8965 300.839 37.9434C301.214 37.9902 301.554 38.0137 301.858 38.0137ZM313.548 36.5371C313.548 36.3906 313.513 36.1973 313.442 35.957C313.378 35.7109 313.305 35.4941 313.223 35.3066L311.588 31.6504L313.275 30.8418L315.35 35.6846C315.578 36.2178 315.78 36.6543 315.956 36.9941C316.132 37.334 316.313 37.5859 316.501 37.75C316.688 37.9082 316.914 37.9873 317.178 37.9873H317.547V40H317.178C316.727 40 316.349 39.9443 316.044 39.833C315.739 39.7217 315.476 39.5605 315.253 39.3496C315.03 39.1328 314.813 38.8721 314.603 38.5674C314.321 38.8838 313.993 39.1475 313.618 39.3584C313.249 39.5693 312.824 39.7275 312.344 39.833C311.869 39.9385 311.324 39.9912 310.709 39.9912C310.258 39.9912 309.859 39.9736 309.514 39.9385C309.174 39.8975 308.84 39.8389 308.512 39.7627V37.7588C308.869 37.8408 309.224 37.9023 309.575 37.9434C309.927 37.9844 310.261 38.0049 310.577 38.0049C311.169 38.0049 311.685 37.9551 312.124 37.8555C312.569 37.7559 312.918 37.5977 313.17 37.3809C313.422 37.1641 313.548 36.8828 313.548 36.5371ZM319.551 37.9873C319.404 37.7764 319.272 37.5361 319.155 37.2666C319.038 36.9971 318.947 36.7129 318.883 36.4141C318.818 36.1152 318.786 35.8311 318.786 35.5615C318.786 34.8994 318.953 34.2988 319.287 33.7598C319.627 33.2148 320.075 32.7812 320.632 32.459C321.188 32.1309 321.795 31.9668 322.451 31.9668C323.002 31.9668 323.535 32.0693 324.051 32.2744C324.572 32.4795 325.108 32.7725 325.659 33.1533L324.93 34.7969C324.508 34.5508 324.106 34.3545 323.726 34.208C323.345 34.0557 322.964 33.9795 322.583 33.9795C322.261 33.9795 321.95 34.0469 321.651 34.1816C321.358 34.3164 321.118 34.5068 320.931 34.7529C320.743 34.9932 320.649 35.2832 320.649 35.623C320.649 35.9746 320.729 36.2969 320.887 36.5898C321.045 36.877 321.221 37.1113 321.414 37.293C321.613 37.4688 321.76 37.5742 321.854 37.6094C321.883 37.6094 321.918 37.6064 321.959 37.6006C322 37.5947 322.044 37.5859 322.091 37.5742L326.055 36.625V38.6377C325.322 38.8604 324.613 39.0566 323.928 39.2266C323.242 39.3965 322.574 39.54 321.924 39.6572C321.273 39.7744 320.632 39.8623 319.999 39.9209C319.372 39.9736 318.745 40 318.118 40H317.213V37.9873H319.551ZM341.321 35.4385V37.126H332.093L332.022 35.8516L337.542 27.2031H339.238L337.401 30.3496L334.229 35.4385H341.321ZM339.722 27.2031V40H337.604V27.2031H339.722ZM351.077 32.5293V34.6211C351.077 35.957 350.904 37.0322 350.559 37.8467C350.213 38.6611 349.727 39.2529 349.1 39.6221C348.473 39.9912 347.737 40.1758 346.894 40.1758C346.056 40.1758 345.32 39.9912 344.688 39.6221C344.055 39.2529 343.562 38.6611 343.211 37.8467C342.859 37.0322 342.684 35.957 342.684 34.6211V32.5293C342.684 31.1934 342.856 30.124 343.202 29.3213C343.554 28.5127 344.043 27.9297 344.67 27.5723C345.303 27.209 346.038 27.0273 346.876 27.0273C347.72 27.0273 348.455 27.209 349.082 27.5723C349.715 27.9297 350.204 28.5127 350.55 29.3213C350.901 30.124 351.077 31.1934 351.077 32.5293ZM348.959 34.9199V32.2129C348.959 31.3574 348.877 30.6719 348.713 30.1562C348.555 29.6406 348.32 29.2715 348.01 29.0488C347.699 28.8203 347.321 28.7061 346.876 28.7061C346.437 28.7061 346.062 28.8203 345.751 29.0488C345.446 29.2715 345.212 29.6406 345.048 30.1562C344.89 30.6719 344.811 31.3574 344.811 32.2129V34.9199C344.811 35.7754 344.89 36.4668 345.048 36.9941C345.212 37.5156 345.449 37.8965 345.76 38.1367C346.076 38.3711 346.454 38.4883 346.894 38.4883C347.345 38.4883 347.723 38.3711 348.027 38.1367C348.332 37.8965 348.563 37.5156 348.722 36.9941C348.88 36.4668 348.959 35.7754 348.959 34.9199Z" fill="#212121"/>
<circle cx="372.5" cy="36.5" r="8.5" fill="#1967D2"/>
<circle cx="372.5" cy="36.5" r="11" stroke="#1967D2"/>
</svg>
