<svg width="68" height="47" viewBox="0 0 68 47" fill="none" xmlns="http://www.w3.org/2000/svg">
<path d="M27.3765 2.12365L28.4726 3.21973L27.3765 4.31581L26.2805 3.21973L27.3765 2.12365ZM24.835 13.2831L24.3075 11.8719C25.0154 11.7166 25.5977 11.4951 26.0544 11.2074C26.5157 10.9243 26.8582 10.568 27.082 10.1387C27.3058 9.71401 27.4177 9.20935 27.4177 8.62478C27.4177 8.22288 27.3651 7.78902 27.2601 7.32318C27.155 6.85735 27.0272 6.40065 26.8765 5.95308L28.3219 5.47355C28.4909 5.95308 28.6188 6.44632 28.7055 6.95326C28.7969 7.46019 28.8426 7.95114 28.8426 8.42611C28.8426 9.27557 28.6896 10.0337 28.3836 10.7005C28.0776 11.3673 27.6277 11.9221 27.034 12.3651C26.4403 12.8081 25.7073 13.1141 24.835 13.2831ZM31.939 0V9.57015H30.4661V0H31.939ZM38.8922 8.02878C39.39 8.02878 39.8262 7.98768 40.2007 7.90547C40.5797 7.82327 40.8743 7.69539 41.0844 7.52185C41.2945 7.34373 41.3995 7.10853 41.3995 6.81625C41.3995 6.52852 41.2831 6.2271 41.0501 5.91198C40.8218 5.59686 40.4907 5.27717 40.0568 4.95291C39.6275 4.62409 39.1046 4.29983 38.4881 3.98014L39.1663 2.59634C39.7052 2.86579 40.1984 3.15351 40.646 3.4595C41.0935 3.76549 41.4794 4.09203 41.8037 4.43912C42.128 4.78621 42.3769 5.15386 42.5504 5.54205C42.7285 5.92568 42.8176 6.33443 42.8176 6.76829C42.8176 7.41224 42.6714 7.94201 42.3791 8.35761C42.0914 8.76864 41.6644 9.07234 41.0981 9.26872C40.5318 9.4651 39.8308 9.5633 38.995 9.5633C38.6662 9.5633 38.3533 9.54959 38.0565 9.52219C37.7642 9.49479 37.4833 9.4514 37.2139 9.39203V7.83012C37.5107 7.88949 37.8053 7.93744 38.0976 7.97398C38.3899 8.01052 38.6548 8.02878 38.8922 8.02878ZM46.51 4.18565C46.921 4.18565 47.2864 4.27928 47.6061 4.46652C47.9258 4.65377 48.1998 4.91866 48.4281 5.26118C48.661 5.59914 48.8392 6.00104 48.9625 6.46687C49.0903 6.9327 49.1657 7.44649 49.1885 8.00823H49.8736V9.577H49.0652C48.9328 10.1753 48.6953 10.721 48.3528 11.2143C48.0148 11.7075 47.5421 12.1299 46.9347 12.4816C46.3273 12.8333 45.5578 13.0982 44.6261 13.2763L44.0986 11.8651C44.738 11.7372 45.3043 11.5682 45.7975 11.3581C46.2908 11.148 46.6972 10.8946 47.0169 10.5977C47.3366 10.3009 47.5535 9.96062 47.6677 9.577H46.7772C45.8866 9.577 45.213 9.39432 44.7563 9.02896C44.3041 8.6636 44.0781 8.09501 44.0781 7.32318C44.0781 6.97609 44.126 6.61986 44.2219 6.2545C44.3224 5.88458 44.4731 5.54434 44.6741 5.23378C44.8796 4.91866 45.1353 4.66519 45.4413 4.47338C45.7473 4.28156 46.1035 4.18565 46.51 4.18565ZM46.7361 8.00823H47.7979C47.775 7.67484 47.7317 7.37114 47.6677 7.09712C47.6084 6.81853 47.5261 6.57876 47.4211 6.37781C47.3161 6.1723 47.1859 6.01474 47.0306 5.90513C46.8799 5.79095 46.7018 5.73387 46.4963 5.73387C46.236 5.73387 46.0305 5.82521 45.8797 6.00789C45.7336 6.186 45.6308 6.3938 45.5715 6.63128C45.5121 6.86877 45.4824 7.07885 45.4824 7.26153C45.4824 7.54925 45.5875 7.74563 45.7975 7.85067C46.0076 7.95571 46.3205 8.00823 46.7361 8.00823ZM51.4286 6.45317V0H52.9015V6.46687C52.9015 6.77743 52.9358 7.04916 53.0043 7.28208C53.0773 7.515 53.2029 7.69539 53.381 7.82327C53.5592 7.94658 53.8081 8.00823 54.1277 8.00823H54.3333V9.577H54.1414C53.8081 9.577 53.5203 9.54046 53.2783 9.46739C53.0362 9.39432 52.8261 9.28471 52.648 9.13856C52.4745 8.99242 52.3192 8.81431 52.1822 8.60423C52.0269 8.80974 51.8648 8.98557 51.6958 9.13171C51.5268 9.27786 51.319 9.38975 51.0724 9.46739C50.8258 9.54046 50.5107 9.577 50.1271 9.577H49.627V8.00823H50.0996C50.4467 8.00823 50.7162 7.94658 50.908 7.82327C51.0998 7.69539 51.2345 7.515 51.3122 7.28208C51.3898 7.04916 51.4286 6.77286 51.4286 6.45317ZM54.847 9.577H54.0935V8.00823H54.8333C55.354 8.00823 55.7171 7.90319 55.9226 7.69311C56.1327 7.48303 56.2377 7.15649 56.2377 6.71349C56.2377 6.45774 56.2103 6.13576 56.1555 5.74757C56.1053 5.35481 56.0208 4.93693 55.902 4.49393L57.3406 4.1103C57.4548 4.51676 57.537 4.93236 57.5872 5.35709C57.6375 5.78182 57.6626 6.17687 57.6626 6.54223C57.6626 7.1405 57.5781 7.66799 57.4091 8.12469C57.2447 8.57682 56.957 8.93305 56.546 9.19337C56.1395 9.44912 55.5732 9.577 54.847 9.577ZM56.0048 1.00702L57.1009 2.1031L56.0048 3.19918L54.9087 2.1031L56.0048 1.00702ZM60.7659 0V9.57015H59.293V0H60.7659ZM64.0747 8.02878C64.5725 8.02878 65.0086 7.98768 65.3831 7.90547C65.7622 7.82327 66.0567 7.69539 66.2668 7.52185C66.4769 7.34373 66.5819 7.10853 66.5819 6.81625C66.5819 6.52852 66.4655 6.2271 66.2326 5.91198C66.0042 5.59686 65.6731 5.27717 65.2392 4.95291C64.81 4.62409 64.287 4.29983 63.6705 3.98014L64.3487 2.59634C64.8876 2.86579 65.3808 3.15351 65.8284 3.4595C66.276 3.76549 66.6619 4.09203 66.9861 4.43912C67.3104 4.78621 67.5593 5.15386 67.7328 5.54205C67.9109 5.92568 68 6.33443 68 6.76829C68 7.41224 67.8539 7.94201 67.5616 8.35761C67.2738 8.76864 66.8468 9.07234 66.2805 9.26872C65.7142 9.4651 65.0132 9.5633 64.1774 9.5633C63.8486 9.5633 63.5358 9.54959 63.2389 9.52219C62.9466 9.49479 62.6657 9.4514 62.3963 9.39203V7.83012C62.6931 7.88949 62.9877 7.93744 63.28 7.97398C63.5723 8.01052 63.8372 8.02878 64.0747 8.02878Z" fill="white"/>
<path d="M0.827932 45.4345L0 43.2677C0.869035 43.074 1.60595 42.8156 2.21075 42.4927C2.82143 42.1756 3.2853 41.7557 3.60238 41.2331C3.91946 40.7106 4.078 40.0588 4.078 39.2778C4.078 38.7494 3.99873 38.1622 3.84019 37.5163C3.68753 36.8704 3.51431 36.2626 3.32053 35.6931L5.51367 34.9708C5.74267 35.605 5.91589 36.2773 6.03333 36.9878C6.15077 37.6983 6.20949 38.3794 6.20949 39.0312C6.20949 40.2173 5.99223 41.2478 5.55771 42.1227C5.12319 43.0035 4.50371 43.7199 3.69927 44.2718C2.89482 44.8238 1.93771 45.2113 0.827932 45.4345ZM10.9657 33.3678C11.5294 33.3678 12.0226 33.4999 12.4454 33.7641C12.8682 34.0225 13.2264 34.3807 13.5199 34.8387C13.8194 35.2908 14.0513 35.8134 14.2158 36.4065C14.386 36.9937 14.4888 37.6161 14.524 38.2737H15.2551V40.643H14.3655C14.16 41.4944 13.8135 42.2343 13.3262 42.8626C12.8388 43.4967 12.1958 44.0252 11.3973 44.448C10.5987 44.8766 9.62104 45.2025 8.46428 45.4257L7.66277 43.2589C8.43198 43.1063 9.13074 42.9066 9.75902 42.66C10.3932 42.4193 10.9246 42.1286 11.3532 41.788C11.7819 41.4475 12.0696 41.0658 12.2164 40.643H11.2828C10.1084 40.643 9.21588 40.3993 8.6052 39.912C7.99453 39.4246 7.68919 38.6466 7.68919 37.5779C7.68919 37.1375 7.75379 36.6737 7.88297 36.1863C8.01802 35.6989 8.2206 35.2409 8.4907 34.8123C8.76081 34.3836 9.10138 34.0372 9.51241 33.773C9.92344 33.5028 10.4079 33.3678 10.9657 33.3678ZM11.2563 38.2737H12.463C12.4395 37.9684 12.3926 37.6631 12.3221 37.3577C12.2516 37.0524 12.1547 36.7764 12.0314 36.5298C11.914 36.2773 11.7643 36.0777 11.5822 35.9309C11.4061 35.7782 11.1947 35.7019 10.9481 35.7019C10.6545 35.7019 10.4196 35.8076 10.2435 36.0189C10.0732 36.2245 9.95279 36.4681 9.88233 36.75C9.81187 37.026 9.77664 37.2726 9.77664 37.4898C9.77664 37.8187 9.90876 38.033 10.173 38.1328C10.4372 38.2268 10.7983 38.2737 11.2563 38.2737ZM14.9204 38.2737H15.5457V40.643H14.9204V38.2737ZM18.8222 30.0561L20.2755 31.5005L18.8222 32.9626L17.3689 31.5005L18.8222 30.0561ZM15.8452 30.0561L17.3161 31.5005L15.8452 32.9626L14.4095 31.5005L15.8452 30.0561ZM17.8358 34.5745L19.8968 34.3278L20.0729 36.7588C20.0906 37.0641 20.1522 37.3313 20.2579 37.5603C20.3695 37.7893 20.5309 37.9655 20.7423 38.0888C20.9537 38.2121 21.2238 38.2737 21.5526 38.2737H21.7288V40.643H21.535C21.1357 40.643 20.7776 40.5931 20.4605 40.4933C20.1434 40.3935 19.8645 40.2555 19.6237 40.0793C19.383 39.9032 19.1745 39.6977 18.9984 39.4628C18.6519 39.8386 18.2292 40.1292 17.7301 40.3348C17.2368 40.5403 16.7113 40.643 16.1535 40.643H15.3167V38.2737H16.1535C16.817 38.2737 17.2779 38.124 17.5363 37.8245C17.7947 37.5251 17.9238 37.07 17.9238 36.4593C17.9238 36.1305 17.915 35.8105 17.8974 35.4993C17.8857 35.1822 17.8651 34.8739 17.8358 34.5745ZM27.4362 40.643C26.8256 40.643 26.3206 40.5403 25.9213 40.3348C25.5279 40.1234 25.2079 39.8415 24.9613 39.4892C24.6442 39.8474 24.2508 40.1292 23.781 40.3348C23.3113 40.5403 22.7241 40.643 22.0195 40.643H21.4029V38.2737H22.0371C22.7006 38.2737 23.1909 38.1534 23.508 37.9126C23.8251 37.666 23.9836 37.2256 23.9836 36.5914C23.9836 36.4975 23.9777 36.3566 23.966 36.1687C23.9542 35.9808 23.9396 35.7694 23.9219 35.5345C23.9102 35.2996 23.8955 35.0706 23.8779 34.8475L25.9389 34.5921L26.1239 36.8293C26.1415 37.0994 26.2002 37.346 26.3 37.5691C26.4057 37.7864 26.5525 37.9596 26.7404 38.0888C26.9342 38.2121 27.172 38.2737 27.4539 38.2737C27.9706 38.2737 28.3376 38.1299 28.5548 37.8422C28.7721 37.5486 28.8807 37.1317 28.8807 36.5914C28.8807 36.5034 28.8748 36.3654 28.8631 36.1775C28.8572 35.9837 28.8455 35.7694 28.8279 35.5345C28.8103 35.2996 28.7926 35.0706 28.775 34.8475L30.836 34.5921L31.021 36.8293C31.0386 37.0817 31.0885 37.3196 31.1707 37.5427C31.253 37.7658 31.3763 37.9449 31.5407 38.08C31.711 38.2091 31.9282 38.2737 32.1924 38.2737C32.4391 38.2737 32.6358 38.2033 32.7826 38.0623C32.9294 37.9155 33.0351 37.7247 33.0996 37.4898C33.1642 37.2491 33.1965 36.9878 33.1965 36.7059C33.1965 36.3067 33.1466 35.8516 33.0468 35.3407C32.947 34.824 32.8413 34.3425 32.7297 33.8963L34.8612 33.3326C35.0021 33.8552 35.1108 34.3807 35.1871 34.9092C35.2634 35.4318 35.3016 35.9543 35.3016 36.4769C35.3016 37.2285 35.2047 37.9214 35.0109 38.5556C34.8172 39.1839 34.4972 39.6888 34.0509 40.0705C33.6046 40.4463 32.994 40.6372 32.2189 40.643C31.6787 40.643 31.2236 40.5344 30.8537 40.3171C30.4837 40.094 30.1784 39.8122 29.9377 39.4716C29.6323 39.8239 29.2653 40.1087 28.8367 40.3259C28.408 40.5373 27.9412 40.643 27.4362 40.643ZM39.5117 28.2505V40.6342H37.2745V28.2505H39.5117ZM51.1204 45.0117C49.9812 45.0117 49.0329 44.8062 48.2755 44.3951C47.5239 43.99 46.9602 43.4028 46.5844 42.6336C46.2086 41.8702 46.0207 40.9513 46.0207 39.8767C46.0207 39.2074 46.097 38.5145 46.2497 37.7981C46.4082 37.0759 46.6167 36.383 46.875 35.7195L48.8744 36.4946C48.6865 37.023 48.5162 37.5897 48.3635 38.1945C48.2109 38.7993 48.1345 39.3659 48.1345 39.8944C48.1345 40.4874 48.2402 40.9924 48.4516 41.4093C48.6689 41.8262 48.9948 42.1403 49.4293 42.3517C49.8697 42.569 50.4334 42.6776 51.1204 42.6776C51.7898 42.6776 52.3182 42.5484 52.7058 42.2901C53.0992 42.0376 53.3781 41.6677 53.5425 41.1803C53.7069 40.6988 53.7891 40.1116 53.7891 39.4187V28.2505H56.0263V36.3184C56.0263 36.9056 56.1144 37.3783 56.2905 37.7365C56.4726 38.0946 56.8572 38.2737 57.4444 38.2737H57.7086V40.643H57.462C57.2212 40.643 57.0128 40.6254 56.8366 40.5902C56.6663 40.5549 56.5107 40.5021 56.3698 40.4316C56.2348 40.3612 56.0997 40.2731 55.9647 40.1674C55.9177 40.9307 55.7885 41.6119 55.5771 42.2108C55.3716 42.8097 55.0721 43.3177 54.6787 43.7346C54.2853 44.1515 53.7921 44.4685 53.199 44.6858C52.6118 44.9031 51.9189 45.0117 51.1204 45.0117ZM57.3739 38.2737H58.6686V40.643H57.3739V38.2737ZM59.4525 40.643H58.4749V38.2737H59.4349C60.0045 38.2737 60.4214 38.171 60.6856 37.9655C60.9557 37.7541 61.0908 37.3695 61.0908 36.8116C61.0908 36.4887 61.0556 36.0689 60.9851 35.5521C60.9205 35.0354 60.806 34.46 60.6416 33.8258L62.7731 33.2533C62.9199 33.8287 63.0285 34.3954 63.099 34.9532C63.1753 35.5052 63.2135 36.0336 63.2135 36.5386C63.2135 37.3607 63.096 38.08 62.8611 38.6965C62.6263 39.3072 62.2358 39.7857 61.6897 40.1322C61.1436 40.4727 60.3979 40.643 59.4525 40.643ZM59.6551 43.805L61.0291 45.179L59.6551 46.553L58.2811 45.179L59.6551 43.805ZM61.1877 41.559L62.5617 42.933L61.1877 44.3071L59.8137 42.933L61.1877 41.559ZM58.1226 41.559L59.4966 42.933L58.1226 44.3071L56.7485 42.933L58.1226 41.559ZM67.4148 28.2505V40.6342H65.1776V28.2505H67.4148Z" fill="white"/>
</svg>
