<svg width="40" height="40" viewBox="0 0 40 40" fill="none" xmlns="http://www.w3.org/2000/svg">
<path fill-rule="evenodd" clip-rule="evenodd" d="M20 0C31.046 0 40 8.954 40 20C40 31.046 31.046 40 20 40C8.954 40 0 31.046 0 20C0 8.954 8.954 0 20 0ZM21 22H8.6C8.06957 22 7.56086 22.2107 7.18579 22.5858C6.81071 22.9609 6.6 23.4696 6.6 24C6.6 24.5304 6.81071 25.0391 7.18579 25.4142C7.56086 25.7893 8.06957 26 8.6 26H9.628L9.054 27.022C8.92557 27.2513 8.84355 27.5036 8.81264 27.7646C8.78173 28.0256 8.80253 28.2901 8.87384 28.5431C8.94516 28.796 9.06559 29.0324 9.22828 29.2388C9.39097 29.4452 9.59271 29.6176 9.822 29.746C10.0513 29.8744 10.3036 29.9564 10.5646 29.9874C10.8256 30.0183 11.0901 29.9975 11.3431 29.9262C11.596 29.8548 11.8324 29.7344 12.0388 29.5717C12.2452 29.409 12.4176 29.2073 12.546 28.978L14.212 26H21C21.5304 26 22.0391 25.7893 22.4142 25.4142C22.7893 25.0391 23 24.5304 23 24C23 23.4696 22.7893 22.9609 22.4142 22.5858C22.0391 22.2107 21.5304 22 21 22ZM24.786 16.024C24.5389 15.5747 24.1287 15.2375 23.64 15.082C23.1514 14.9265 22.6217 14.9646 22.1604 15.1884C21.6991 15.4123 21.3414 15.8048 21.1611 16.2849C20.9809 16.7649 20.992 17.2959 21.192 17.768L21.296 17.978L27.456 28.978C27.7055 29.4228 28.1154 29.7554 28.602 29.908C29.0886 30.0605 29.6151 30.0214 30.0739 29.7987C30.5326 29.576 30.8889 29.1864 31.07 28.7097C31.2511 28.233 31.2432 27.7051 31.048 27.234L30.944 27.022L30.372 26.002H31.4C31.9129 26.0061 32.4077 25.8129 32.7822 25.4625C33.1567 25.1121 33.3823 24.6312 33.4124 24.1192C33.4424 23.6072 33.2746 23.1032 32.9436 22.7114C32.6127 22.3196 32.1438 22.07 31.634 22.014L31.4 22H28.132L24.786 16.024ZM19.746 7.024C19.4989 6.57469 19.0887 6.23746 18.6 6.08196C18.1114 5.92646 17.5817 5.96458 17.1204 6.18844C16.6591 6.4123 16.3014 6.8048 16.1211 7.28486C15.9409 7.76491 15.952 8.29586 16.152 8.768L16.254 8.978L17.708 11.572L14.094 18.024C13.8425 18.4695 13.7713 18.9944 13.895 19.4908C14.0188 19.9872 14.328 20.4173 14.7591 20.6926C15.1902 20.968 15.7105 21.0677 16.2128 20.9712C16.7152 20.8748 17.1615 20.5895 17.46 20.174L17.586 19.978L23.746 8.978C24.0008 8.53237 24.0746 8.00581 23.9519 7.50733C23.8293 7.00884 23.5197 6.5766 23.0872 6.30008C22.6547 6.02356 22.1324 5.92394 21.6284 6.02183C21.1245 6.11973 20.6775 6.40766 20.38 6.826L20.256 7.022L20 7.48L19.746 7.024Z" fill="white"/>
</svg>
