<svg width="140" height="140" viewBox="0 0 140 140" fill="none" xmlns="http://www.w3.org/2000/svg">
<rect x="1" y="1" width="138" height="138" rx="23" stroke="#8B8B8B" stroke-width="2"/>
<path d="M69.9999 50.3497C68.1867 50.3499 66.4141 49.8124 64.9064 48.8053C63.3986 47.7981 62.2234 46.3664 61.5294 44.6913C60.8353 43.0162 60.6536 41.1728 61.0072 39.3944C61.3608 37.616 62.2338 35.9824 63.5158 34.7002C64.7979 33.418 66.4314 32.5447 68.2097 32.1909C69.9881 31.8371 71.8314 32.0185 73.5066 32.7124C75.1818 33.4062 76.6137 34.5812 77.6211 36.0888C78.6285 37.5964 79.1662 39.3689 79.1662 41.1822C79.1639 43.6126 78.1974 45.9429 76.479 47.6616C74.7605 49.3803 72.4304 50.347 69.9999 50.3497ZM69.9999 34.6584C68.7093 34.6582 67.4476 35.0407 66.3744 35.7575C65.3011 36.4744 64.4646 37.4935 63.9706 38.6858C63.4766 39.8782 63.3473 41.1902 63.599 42.4561C63.8507 43.7219 64.4722 44.8847 65.3848 45.7973C66.2974 46.7099 67.4602 47.3314 68.726 47.5831C69.9919 47.8348 71.3039 47.7055 72.4963 47.2115C73.6886 46.7175 74.7076 45.8809 75.4245 44.8077C76.1414 43.7345 76.5239 42.4728 76.5237 41.1822C76.5217 39.4526 75.8337 37.7944 74.6107 36.5714C73.3877 35.3483 71.7295 34.6604 69.9999 34.6584ZM84.6337 69.9834H55.3662L54.0449 68.6622C54.0449 66.5669 54.4576 64.4922 55.2594 62.5564C56.0612 60.6207 57.2365 58.8618 58.718 57.3803C60.1996 55.8987 61.9585 54.7235 63.8942 53.9217C65.83 53.1198 67.9047 52.7072 69.9999 52.7072C72.0952 52.7072 74.1699 53.1198 76.1056 53.9217C78.0414 54.7235 79.8002 55.8987 81.2818 57.3803C82.7634 58.8618 83.9386 60.6207 84.7404 62.5564C85.5422 64.4922 85.9549 66.5669 85.9549 68.6622L84.6337 69.9834ZM56.7499 67.3409H83.2499C82.9268 64.051 81.3913 60.999 78.9422 58.7786C76.4932 56.5583 73.3057 55.3285 69.9999 55.3285C66.6942 55.3285 63.5067 56.5583 61.0576 58.7786C58.6085 60.999 57.073 64.051 56.7499 67.3409Z" fill="#8B8B8B"/>
<path d="M48.2656 96.7129H50.1641V105.045C50.1641 105.783 50.2871 106.293 50.5332 106.574C50.7793 106.85 51.2012 106.987 51.7988 106.987H52.0098V109H51.7988C50.5918 109 49.7012 108.687 49.127 108.06C48.5527 107.427 48.2656 106.451 48.2656 105.133V96.7129ZM57.4062 104.245C57.1367 104.245 56.8906 104.336 56.668 104.518C56.4512 104.693 56.2549 104.919 56.0791 105.194C55.9092 105.47 55.7598 105.745 55.6309 106.021C55.8125 106.196 55.9883 106.352 56.1582 106.486C56.3281 106.621 56.4922 106.735 56.6504 106.829C56.8789 106.97 57.0928 107.072 57.292 107.137C57.4912 107.201 57.6699 107.233 57.8281 107.233C58.209 107.233 58.4873 107.122 58.6631 106.899C58.8447 106.677 58.9355 106.381 58.9355 106.012C58.9355 105.508 58.8008 105.089 58.5312 104.755C58.2617 104.415 57.8867 104.245 57.4062 104.245ZM57.8281 109.202C57.4297 109.202 57.0518 109.144 56.6943 109.026C56.3428 108.909 55.9971 108.742 55.6572 108.525C55.3174 108.309 54.9717 108.048 54.6201 107.743C54.3857 107.995 54.1543 108.218 53.9258 108.411C53.7031 108.599 53.4453 108.745 53.1523 108.851C52.8594 108.95 52.4961 109 52.0625 109H51.6934V106.987H52.0186C52.3643 106.987 52.6631 106.876 52.915 106.653C53.167 106.425 53.3984 106.135 53.6094 105.783C53.8262 105.426 54.043 105.048 54.2598 104.649C54.4824 104.251 54.7314 103.873 55.0068 103.516C55.2822 103.158 55.6074 102.868 55.9824 102.646C56.3633 102.423 56.8203 102.312 57.3535 102.312C58.0449 102.312 58.6426 102.476 59.1465 102.804C59.6562 103.132 60.0488 103.571 60.3242 104.122C60.6055 104.667 60.7461 105.268 60.7461 105.924C60.7461 106.586 60.6348 107.163 60.4121 107.655C60.1895 108.142 59.8613 108.522 59.4277 108.798C58.9941 109.067 58.4609 109.202 57.8281 109.202ZM67.0654 109C66.7256 109 66.4268 108.959 66.1689 108.877C65.917 108.789 65.7148 108.689 65.5625 108.578C65.4453 109.404 65.1904 110.172 64.7979 110.881C64.4053 111.59 63.8545 112.193 63.1455 112.691C62.4424 113.189 61.5547 113.544 60.4824 113.755L59.8145 111.944C60.7227 111.745 61.4697 111.461 62.0557 111.092C62.6475 110.729 63.0869 110.271 63.374 109.721C63.6611 109.176 63.8047 108.528 63.8047 107.778C63.8047 107.263 63.7373 106.706 63.6025 106.108C63.4678 105.511 63.3037 104.925 63.1104 104.351L64.9648 103.735L65.457 105.643C65.5742 106.088 65.7529 106.425 65.9932 106.653C66.2334 106.876 66.5586 106.987 66.9688 106.987H67.2939V109H67.0654ZM70.959 95.21L72.3652 96.6162L70.959 98.0225L69.5527 96.6162L70.959 95.21ZM71.3018 103.911C71.5537 103.911 71.8027 103.894 72.0488 103.858C72.3008 103.817 72.5498 103.765 72.7959 103.7C72.7607 103.437 72.7051 103.158 72.6289 102.865C72.5527 102.572 72.4502 102.3 72.3213 102.048C72.1982 101.796 72.043 101.591 71.8555 101.433C71.668 101.274 71.4424 101.195 71.1787 101.195C70.8682 101.195 70.6133 101.298 70.4141 101.503C70.2207 101.708 70.0771 101.954 69.9834 102.241C69.8896 102.522 69.8428 102.789 69.8428 103.041C69.8428 103.404 69.9717 103.642 70.2295 103.753C70.4932 103.858 70.8506 103.911 71.3018 103.911ZM70.291 106.987C70.8828 106.987 71.3662 106.955 71.7412 106.891C72.1221 106.826 72.4033 106.688 72.585 106.478C72.7725 106.267 72.8691 105.941 72.875 105.502C72.623 105.566 72.3623 105.616 72.0928 105.651C71.8232 105.687 71.542 105.704 71.249 105.704C70.2412 105.704 69.4619 105.496 68.9111 105.08C68.3662 104.658 68.0938 104.005 68.0938 103.12C68.0938 102.663 68.1611 102.209 68.2959 101.758C68.4307 101.301 68.6299 100.882 68.8936 100.501C69.1572 100.12 69.4824 99.8154 69.8691 99.5869C70.2559 99.3584 70.6982 99.2441 71.1963 99.2441C71.8232 99.2441 72.3564 99.4023 72.7959 99.7188C73.2354 100.035 73.5898 100.457 73.8594 100.984C74.1348 101.512 74.334 102.104 74.457 102.76C74.5859 103.41 74.6504 104.075 74.6504 104.755C74.6504 105.646 74.5654 106.369 74.3955 106.926C74.2256 107.482 73.9619 107.913 73.6045 108.218C73.2471 108.517 72.7871 108.722 72.2246 108.833C71.6621 108.944 70.9824 109 70.1855 109H66.9688V106.987H70.291ZM74.5713 113.755L73.8945 111.944C74.8027 111.745 75.5498 111.461 76.1357 111.092C76.7275 110.729 77.167 110.271 77.4541 109.721C77.7412 109.176 77.8848 108.528 77.8848 107.778C77.8848 107.263 77.8174 106.706 77.6826 106.108C77.5479 105.511 77.3838 104.925 77.1904 104.351L79.0449 103.735C79.2617 104.351 79.4258 104.983 79.5371 105.634C79.6543 106.284 79.7129 106.914 79.7129 107.523C79.7129 108.613 79.5166 109.586 79.124 110.441C78.7314 111.297 78.1543 112.009 77.3926 112.577C76.6309 113.146 75.6904 113.538 74.5713 113.755ZM81.7871 96.7129H83.6855V105.045C83.6855 105.783 83.8086 106.293 84.0547 106.574C84.3008 106.85 84.7227 106.987 85.3203 106.987H85.5312V109H85.3203C84.1133 109 83.2227 108.687 82.6484 108.06C82.0742 107.427 81.7871 106.451 81.7871 105.133V96.7129ZM87.7812 100.65C88.2148 100.938 88.6455 101.228 89.0732 101.521C89.501 101.813 89.9023 102.115 90.2773 102.426C90.6523 102.736 90.9834 103.064 91.2705 103.41C91.5635 103.756 91.792 104.122 91.9561 104.509C92.1201 104.89 92.2021 105.297 92.2021 105.73C92.2021 106.545 92.0176 107.189 91.6484 107.664C91.2793 108.139 90.7314 108.481 90.0049 108.692C89.2842 108.897 88.3965 109 87.3418 109H85.2148V106.987H87.333C88.0361 106.987 88.6074 106.952 89.0469 106.882C89.4922 106.806 89.8203 106.674 90.0312 106.486C90.248 106.299 90.3564 106.035 90.3564 105.695C90.3564 105.455 90.2627 105.209 90.0752 104.957C89.8936 104.699 89.6504 104.441 89.3457 104.184C89.041 103.92 88.707 103.662 88.3438 103.41C87.9805 103.152 87.6143 102.897 87.2451 102.646C86.876 102.394 86.5361 102.147 86.2256 101.907C86.0146 101.743 85.8506 101.553 85.7334 101.336C85.6162 101.113 85.5576 100.879 85.5576 100.633C85.5576 100.352 85.6338 100.076 85.7861 99.8066C85.9385 99.5371 86.1582 99.3438 86.4453 99.2266L92.9668 96.5723V98.5498L87.7812 100.65Z" fill="#8B8B8B"/>
</svg>
