<svg width="362" height="213" viewBox="0 0 362 213" fill="none" xmlns="http://www.w3.org/2000/svg">
<path d="M71.3037 14.5371C71.3037 14.3906 71.2686 14.1973 71.1982 13.957C71.1338 13.7109 71.0605 13.4941 70.9785 13.3066L69.3438 9.65039L71.0312 8.8418L73.1055 13.6846C73.334 14.2178 73.5361 14.6543 73.7119 14.9941C73.8877 15.334 74.0693 15.5859 74.2568 15.75C74.4443 15.9082 74.6699 15.9873 74.9336 15.9873H75.3027V18H74.9336C74.4824 18 74.1045 17.9443 73.7998 17.833C73.4951 17.7217 73.2314 17.5605 73.0088 17.3496C72.7861 17.1328 72.5693 16.8721 72.3584 16.5674C72.0771 16.8838 71.749 17.1475 71.374 17.3584C71.0049 17.5693 70.5801 17.7275 70.0996 17.833C69.625 17.9385 69.0801 17.9912 68.4648 17.9912C68.0137 17.9912 67.6152 17.9736 67.2695 17.9385C66.9297 17.8975 66.5957 17.8389 66.2676 17.7627V15.7588C66.625 15.8408 66.9795 15.9023 67.3311 15.9434C67.6826 15.9844 68.0166 16.0049 68.333 16.0049C68.9248 16.0049 69.4404 15.9551 69.8799 15.8555C70.3252 15.7559 70.6738 15.5977 70.9258 15.3809C71.1777 15.1641 71.3037 14.8828 71.3037 14.5371ZM74.9336 15.9873H75.6367V18H74.9336V15.9873ZM78.1152 19.2744L79.4688 20.6191L78.1152 21.9814L76.7793 20.6191L78.1152 19.2744ZM75.1797 19.2744L76.5332 20.6191L75.1797 21.9814L73.835 20.6191L75.1797 19.2744ZM78.0889 12.2607L79.873 12.041L80.0312 14.2998C80.0488 14.6396 80.1191 14.9385 80.2422 15.1963C80.3652 15.4482 80.541 15.6445 80.7695 15.7852C81.0039 15.9199 81.2969 15.9873 81.6484 15.9873H81.8242V18H81.6309C81.2148 18 80.8486 17.9502 80.5322 17.8506C80.2158 17.7451 79.9404 17.6016 79.7061 17.4199C79.4775 17.2324 79.2783 17.0068 79.1084 16.7432C78.7803 17.1592 78.3613 17.4727 77.8516 17.6836C77.3477 17.8945 76.8174 18 76.2607 18H75.4346V15.9873H76.2607C76.9639 15.9873 77.4561 15.8174 77.7373 15.4775C78.0244 15.1318 78.168 14.6367 78.168 13.9922C78.168 13.6875 78.1592 13.3916 78.1416 13.1045C78.1299 12.8174 78.1123 12.5361 78.0889 12.2607ZM84.1621 12.2607L85.9463 12.041L86.1045 14.2998C86.1221 14.6396 86.1924 14.9385 86.3154 15.1963C86.4385 15.4482 86.6143 15.6445 86.8428 15.7852C87.0771 15.9199 87.3701 15.9873 87.7217 15.9873H87.8975V18H87.7041C87.2881 18 86.9219 17.9502 86.6055 17.8506C86.2891 17.7451 86.0137 17.6016 85.7793 17.4199C85.5508 17.2324 85.3516 17.0068 85.1816 16.7432C84.8535 17.1592 84.4346 17.4727 83.9248 17.6836C83.4209 17.8945 82.8906 18 82.334 18H81.5078V15.9873H82.334C83.0371 15.9873 83.5293 15.8174 83.8105 15.4775C84.0977 15.1318 84.2412 14.6367 84.2412 13.9922C84.2412 13.6875 84.2324 13.3916 84.2148 13.1045C84.2031 12.8174 84.1855 12.5361 84.1621 12.2607ZM84.4609 7.78711L85.8672 9.19336L84.4609 10.5996L83.0547 9.19336L84.4609 7.78711ZM90.1387 9.65039C90.5723 9.9375 91.0029 10.2275 91.4307 10.5205C91.8584 10.8135 92.2598 11.1152 92.6348 11.4258C93.0098 11.7363 93.3408 12.0645 93.6279 12.4102C93.9209 12.7559 94.1494 13.1221 94.3135 13.5088C94.4775 13.8896 94.5596 14.2969 94.5596 14.7305C94.5596 15.5449 94.375 16.1895 94.0059 16.6641C93.6367 17.1387 93.0889 17.4814 92.3623 17.6924C91.6416 17.8975 90.7539 18 89.6992 18H87.5723V15.9873H89.6904C90.3936 15.9873 90.9648 15.9521 91.4043 15.8818C91.8496 15.8057 92.1777 15.6738 92.3887 15.4863C92.6055 15.2988 92.7139 15.0352 92.7139 14.6953C92.7139 14.4551 92.6201 14.209 92.4326 13.957C92.251 13.6992 92.0078 13.4414 91.7031 13.1836C91.3984 12.9199 91.0645 12.6621 90.7012 12.4102C90.3379 12.1523 89.9717 11.8975 89.6025 11.6455C89.2334 11.3936 88.8936 11.1475 88.583 10.9072C88.3721 10.7432 88.208 10.5527 88.0908 10.3359C87.9736 10.1133 87.915 9.87891 87.915 9.63281C87.915 9.35156 87.9912 9.07617 88.1436 8.80664C88.2959 8.53711 88.5156 8.34375 88.8027 8.22656L95.3242 5.57227V7.5498L90.1387 9.65039ZM108.719 19.2129L110.125 20.6191L108.719 22.0254L107.312 20.6191L108.719 19.2129ZM109.967 18H108.104C107.037 18 106.082 17.9209 105.238 17.7627C104.4 17.5986 103.688 17.3408 103.103 16.9893C102.517 16.6377 102.068 16.1836 101.758 15.627C101.453 15.0645 101.301 14.3789 101.301 13.5703C101.301 13.1133 101.351 12.668 101.45 12.2344C101.556 11.7949 101.688 11.3818 101.846 10.9951L103.533 11.6279C103.439 11.8916 103.352 12.1875 103.27 12.5156C103.193 12.8379 103.155 13.1455 103.155 13.4385C103.155 13.9248 103.27 14.332 103.498 14.6602C103.732 14.9883 104.063 15.249 104.491 15.4424C104.925 15.6357 105.443 15.7764 106.047 15.8643C106.656 15.9463 107.342 15.9873 108.104 15.9873H109.984C110.395 15.9873 110.819 15.9727 111.259 15.9434C111.698 15.9141 112.108 15.8467 112.489 15.7412C112.876 15.6299 113.187 15.46 113.421 15.2314C113.661 15.0029 113.781 14.6924 113.781 14.2998C113.781 14.0303 113.743 13.6318 113.667 13.1045C113.597 12.5713 113.491 12.0352 113.351 11.4961L115.188 10.9951C115.287 11.2939 115.369 11.6426 115.434 12.041C115.498 12.4395 115.545 12.8262 115.574 13.2012C115.604 13.5762 115.618 13.8721 115.618 14.0889C115.618 14.915 115.466 15.5859 115.161 16.1016C114.862 16.6113 114.446 17.0039 113.913 17.2793C113.386 17.5547 112.782 17.7451 112.103 17.8506C111.429 17.9502 110.717 18 109.967 18ZM117.701 5.71289H119.6V14.0449C119.6 14.7832 119.723 15.293 119.969 15.5742C120.215 15.8496 120.637 15.9873 121.234 15.9873H121.445V18H121.234C120.027 18 119.137 17.6865 118.562 17.0596C117.988 16.4268 117.701 15.4512 117.701 14.1328V5.71289ZM126.587 6.15234L127.993 7.55859L126.587 8.96484L125.181 7.55859L126.587 6.15234ZM133.899 15.9873V18H133.39C132.628 18 131.986 17.9238 131.465 17.7715C130.943 17.6133 130.53 17.3672 130.226 17.0332C129.921 16.6992 129.71 16.2656 129.593 15.7324C128.843 16.1367 128.084 16.5117 127.316 16.8574C126.555 17.2031 125.781 17.4814 124.996 17.6924C124.217 17.8975 123.411 18 122.579 18H121.129V15.9873H122.605C123.455 15.9873 124.252 15.8848 124.996 15.6797C125.746 15.4688 126.496 15.1875 127.246 14.8359C127.996 14.4844 128.799 14.0859 129.654 13.6406C129.438 13.5527 129.221 13.4648 129.004 13.377C128.793 13.2891 128.576 13.2012 128.354 13.1133C128.131 13.0195 127.899 12.9287 127.659 12.8408C127.354 12.7178 127.085 12.6152 126.851 12.5332C126.622 12.4453 126.423 12.3779 126.253 12.3311C126.089 12.2842 125.954 12.2607 125.849 12.2607C125.509 12.2607 125.181 12.3633 124.864 12.5684C124.554 12.7676 124.299 12.9961 124.1 13.2539L123.766 13.6846L122.148 12.8936L122.395 12.4893C122.787 11.8447 123.279 11.3174 123.871 10.9072C124.463 10.4971 125.125 10.292 125.857 10.292C126.314 10.292 126.777 10.3799 127.246 10.5557C127.721 10.7314 128.216 10.9424 128.731 11.1885C129.229 11.4346 129.672 11.6426 130.059 11.8125C130.445 11.9824 130.797 12.1201 131.113 12.2256C131.43 12.3311 131.731 12.4102 132.019 12.4629C132.312 12.5156 132.61 12.5508 132.915 12.5684V14.4492C132.628 14.4785 132.329 14.5342 132.019 14.6162C131.714 14.6982 131.371 14.8242 130.99 14.9941C131.025 15.2344 131.148 15.4277 131.359 15.5742C131.57 15.7207 131.852 15.8262 132.203 15.8906C132.555 15.9551 132.962 15.9873 133.425 15.9873H133.899ZM133.557 15.9873H134.181V18H133.557V15.9873ZM137.433 7.83984L138.786 9.17578L137.433 10.5381L136.097 9.17578L137.433 7.83984ZM134.497 7.83984L135.851 9.17578L134.497 10.5381L133.152 9.17578L134.497 7.83984ZM136.615 12.2607L138.399 12.041L138.558 14.2998C138.575 14.6396 138.646 14.9385 138.769 15.1963C138.892 15.4482 139.067 15.6445 139.296 15.7852C139.53 15.9199 139.823 15.9873 140.175 15.9873H140.351V18H140.157C139.741 18 139.375 17.9502 139.059 17.8506C138.742 17.7451 138.467 17.6016 138.232 17.4199C138.004 17.2324 137.805 17.0068 137.635 16.7432C137.307 17.1592 136.888 17.4727 136.378 17.6836C135.874 17.8945 135.344 18 134.787 18H133.961V15.9873H134.787C135.49 15.9873 135.982 15.8174 136.264 15.4775C136.551 15.1318 136.694 14.6367 136.694 13.9922C136.694 13.6875 136.686 13.3916 136.668 13.1045C136.656 12.8174 136.639 12.5361 136.615 12.2607ZM140.992 18H140.025V15.9873H140.975C141.643 15.9873 142.108 15.8525 142.372 15.583C142.642 15.3135 142.776 14.8945 142.776 14.3262C142.776 13.998 142.741 13.585 142.671 13.0869C142.606 12.583 142.498 12.0469 142.346 11.4785L144.191 10.9863C144.338 11.5078 144.443 12.041 144.508 12.5859C144.572 13.1309 144.604 13.6377 144.604 14.1064C144.604 14.874 144.496 15.5508 144.279 16.1367C144.068 16.7168 143.699 17.1738 143.172 17.5078C142.65 17.8359 141.924 18 140.992 18ZM142.478 7.00488L143.884 8.41113L142.478 9.81738L141.071 8.41113L142.478 7.00488ZM148.586 5.71289V17.9912H146.696V5.71289H148.586ZM157.709 5.71289V17.9912H155.819V5.71289H157.709ZM158.104 22.7549L157.428 20.9443C158.336 20.7451 159.083 20.4609 159.669 20.0918C160.261 19.7285 160.7 19.2715 160.987 18.7207C161.274 18.1758 161.418 17.5283 161.418 16.7783C161.418 16.2627 161.351 15.7061 161.216 15.1084C161.081 14.5107 160.917 13.9248 160.724 13.3506L162.578 12.7354C162.795 13.3506 162.959 13.9834 163.07 14.6338C163.188 15.2842 163.246 15.9141 163.246 16.5234C163.246 17.6133 163.05 18.5859 162.657 19.4414C162.265 20.2969 161.688 21.0088 160.926 21.5771C160.164 22.1455 159.224 22.5381 158.104 22.7549ZM171.692 16.0137C172.331 16.0137 172.891 15.9609 173.371 15.8555C173.857 15.75 174.235 15.5859 174.505 15.3633C174.774 15.1348 174.909 14.833 174.909 14.458C174.909 14.0889 174.76 13.7021 174.461 13.2979C174.168 12.8936 173.743 12.4834 173.187 12.0674C172.636 11.6455 171.965 11.2295 171.174 10.8193L172.044 9.04395C172.735 9.38965 173.368 9.75879 173.942 10.1514C174.517 10.5439 175.012 10.9629 175.428 11.4082C175.844 11.8535 176.163 12.3252 176.386 12.8232C176.614 13.3154 176.729 13.8398 176.729 14.3965C176.729 15.2227 176.541 15.9023 176.166 16.4355C175.797 16.9629 175.249 17.3525 174.522 17.6045C173.796 17.8564 172.896 17.9824 171.824 17.9824C171.402 17.9824 171.001 17.9648 170.62 17.9297C170.245 17.8945 169.885 17.8389 169.539 17.7627V15.7588C169.92 15.835 170.298 15.8965 170.673 15.9434C171.048 15.9902 171.388 16.0137 171.692 16.0137ZM181.466 11.083C181.993 11.083 182.462 11.2031 182.872 11.4434C183.282 11.6836 183.634 12.0234 183.927 12.4629C184.226 12.8965 184.454 13.4121 184.612 14.0098C184.776 14.6074 184.873 15.2666 184.902 15.9873H185.781V18H184.744C184.574 18.7676 184.27 19.4678 183.83 20.1006C183.396 20.7334 182.79 21.2754 182.011 21.7266C181.231 22.1777 180.244 22.5176 179.049 22.7461L178.372 20.9355C179.192 20.7715 179.919 20.5547 180.552 20.2852C181.185 20.0156 181.706 19.6904 182.116 19.3096C182.526 18.9287 182.805 18.4922 182.951 18H181.809C180.666 18 179.802 17.7656 179.216 17.2969C178.636 16.8281 178.346 16.0986 178.346 15.1084C178.346 14.6631 178.407 14.2061 178.53 13.7373C178.659 13.2627 178.853 12.8262 179.11 12.4277C179.374 12.0234 179.702 11.6982 180.095 11.4521C180.487 11.2061 180.944 11.083 181.466 11.083ZM181.756 15.9873H183.118C183.089 15.5596 183.033 15.1699 182.951 14.8184C182.875 14.4609 182.77 14.1533 182.635 13.8955C182.5 13.6318 182.333 13.4297 182.134 13.2891C181.94 13.1426 181.712 13.0693 181.448 13.0693C181.114 13.0693 180.851 13.1865 180.657 13.4209C180.47 13.6494 180.338 13.916 180.262 14.2207C180.186 14.5254 180.147 14.7949 180.147 15.0293C180.147 15.3984 180.282 15.6504 180.552 15.7852C180.821 15.9199 181.223 15.9873 181.756 15.9873ZM190.923 6.15234L192.329 7.55859L190.923 8.96484L189.517 7.55859L190.923 6.15234ZM185.465 15.9873H186.941C187.791 15.9873 188.588 15.8848 189.332 15.6797C190.082 15.4688 190.832 15.1875 191.582 14.8359C192.332 14.4844 193.135 14.0859 193.99 13.6406C193.773 13.5527 193.557 13.4648 193.34 13.377C193.129 13.2891 192.912 13.2012 192.689 13.1133C192.467 13.0195 192.235 12.9287 191.995 12.8408C191.69 12.7178 191.421 12.6152 191.187 12.5332C190.958 12.4453 190.759 12.3779 190.589 12.3311C190.425 12.2842 190.29 12.2607 190.185 12.2607C189.845 12.2607 189.517 12.3633 189.2 12.5684C188.89 12.7676 188.635 12.9961 188.436 13.2539L188.102 13.6846L186.484 12.8936L186.73 12.4893C187.123 11.8447 187.615 11.3174 188.207 10.9072C188.799 10.4971 189.461 10.292 190.193 10.292C190.65 10.292 191.113 10.3799 191.582 10.5557C192.057 10.7314 192.552 10.9424 193.067 11.1885C193.565 11.4346 194.008 11.6426 194.395 11.8125C194.781 11.9824 195.133 12.1201 195.449 12.2256C195.766 12.3311 196.067 12.4102 196.354 12.4629C196.647 12.5156 196.946 12.5508 197.251 12.5684V14.4404C196.917 14.4873 196.577 14.5693 196.231 14.6865C195.886 14.8037 195.496 14.9678 195.062 15.1787C194.635 15.3896 194.128 15.6504 193.542 15.9609C192.792 16.3594 192.071 16.7109 191.38 17.0156C190.688 17.3203 189.982 17.5605 189.262 17.7363C188.541 17.9121 187.759 18 186.915 18H185.465V15.9873ZM212.236 8.92969L213.59 10.2744L212.236 11.6367L210.9 10.2744L212.236 8.92969ZM209.301 8.92969L210.654 10.2744L209.301 11.6367L207.956 10.2744L209.301 8.92969ZM215.875 12.2344L217.659 12.0146L217.826 14.2822C217.861 14.792 218.005 15.2051 218.257 15.5215C218.509 15.832 218.898 15.9873 219.426 15.9873H219.619V18H219.426C218.764 18 218.213 17.877 217.773 17.6309C217.34 17.3789 216.982 17.0039 216.701 16.5059C216.367 16.8633 215.978 17.1504 215.532 17.3672C215.087 17.584 214.554 17.7451 213.933 17.8506C213.317 17.9502 212.579 18 211.718 18H210.25C209.184 18 208.229 17.9209 207.385 17.7627C206.547 17.5986 205.835 17.3408 205.249 16.9893C204.663 16.6377 204.215 16.1836 203.904 15.627C203.6 15.0645 203.447 14.3789 203.447 13.5703C203.447 13.1133 203.497 12.668 203.597 12.2344C203.702 11.7949 203.834 11.3818 203.992 10.9951L205.68 11.6279C205.586 11.8916 205.498 12.1875 205.416 12.5156C205.34 12.8379 205.302 13.1455 205.302 13.4385C205.302 13.9248 205.416 14.332 205.645 14.6602C205.879 14.9883 206.21 15.249 206.638 15.4424C207.071 15.6357 207.59 15.7764 208.193 15.8643C208.803 15.9463 209.488 15.9873 210.25 15.9873H211.718C212.614 15.9873 213.376 15.9229 214.003 15.7939C214.636 15.6592 215.119 15.4453 215.453 15.1523C215.787 14.8594 215.954 14.4697 215.954 13.9834C215.954 13.7139 215.942 13.418 215.919 13.0957C215.901 12.7734 215.887 12.4863 215.875 12.2344ZM224.761 6.15234L226.167 7.55859L224.761 8.96484L223.354 7.55859L224.761 6.15234ZM219.303 15.9873H220.779C221.629 15.9873 222.426 15.8848 223.17 15.6797C223.92 15.4688 224.67 15.1875 225.42 14.8359C226.17 14.4844 226.973 14.0859 227.828 13.6406C227.611 13.5527 227.395 13.4648 227.178 13.377C226.967 13.2891 226.75 13.2012 226.527 13.1133C226.305 13.0195 226.073 12.9287 225.833 12.8408C225.528 12.7178 225.259 12.6152 225.024 12.5332C224.796 12.4453 224.597 12.3779 224.427 12.3311C224.263 12.2842 224.128 12.2607 224.022 12.2607C223.683 12.2607 223.354 12.3633 223.038 12.5684C222.728 12.7676 222.473 12.9961 222.273 13.2539L221.939 13.6846L220.322 12.8936L220.568 12.4893C220.961 11.8447 221.453 11.3174 222.045 10.9072C222.637 10.4971 223.299 10.292 224.031 10.292C224.488 10.292 224.951 10.3799 225.42 10.5557C225.895 10.7314 226.39 10.9424 226.905 11.1885C227.403 11.4346 227.846 11.6426 228.232 11.8125C228.619 11.9824 228.971 12.1201 229.287 12.2256C229.604 12.3311 229.905 12.4102 230.192 12.4629C230.485 12.5156 230.784 12.5508 231.089 12.5684V14.4404C230.755 14.4873 230.415 14.5693 230.069 14.6865C229.724 14.8037 229.334 14.9678 228.9 15.1787C228.473 15.3896 227.966 15.6504 227.38 15.9609C226.63 16.3594 225.909 16.7109 225.218 17.0156C224.526 17.3203 223.82 17.5605 223.1 17.7363C222.379 17.9121 221.597 18 220.753 18H219.303V15.9873ZM234.965 5.71289V17.9912H233.075V5.71289H234.965ZM239.21 16.0137C239.849 16.0137 240.408 15.9609 240.889 15.8555C241.375 15.75 241.753 15.5859 242.022 15.3633C242.292 15.1348 242.427 14.833 242.427 14.458C242.427 14.0889 242.277 13.7021 241.979 13.2979C241.686 12.8936 241.261 12.4834 240.704 12.0674C240.153 11.6455 239.482 11.2295 238.691 10.8193L239.562 9.04395C240.253 9.38965 240.886 9.75879 241.46 10.1514C242.034 10.5439 242.529 10.9629 242.945 11.4082C243.361 11.8535 243.681 12.3252 243.903 12.8232C244.132 13.3154 244.246 13.8398 244.246 14.3965C244.246 15.2227 244.059 15.9023 243.684 16.4355C243.314 16.9629 242.767 17.3525 242.04 17.6045C241.313 17.8564 240.414 17.9824 239.342 17.9824C238.92 17.9824 238.519 17.9648 238.138 17.9297C237.763 17.8945 237.402 17.8389 237.057 17.7627V15.7588C237.438 15.835 237.815 15.8965 238.19 15.9434C238.565 15.9902 238.905 16.0137 239.21 16.0137ZM250.565 18C250.226 18 249.927 17.959 249.669 17.877C249.417 17.7891 249.215 17.6895 249.062 17.5781C248.945 18.4043 248.69 19.1719 248.298 19.8809C247.905 20.5898 247.354 21.1934 246.646 21.6914C245.942 22.1895 245.055 22.5439 243.982 22.7549L243.314 20.9443C244.223 20.7451 244.97 20.4609 245.556 20.0918C246.147 19.7285 246.587 19.2715 246.874 18.7207C247.161 18.1758 247.305 17.5283 247.305 16.7783C247.305 16.2627 247.237 15.7061 247.103 15.1084C246.968 14.5107 246.804 13.9248 246.61 13.3506L248.465 12.7354L248.957 14.6426C249.074 15.0879 249.253 15.4248 249.493 15.6533C249.733 15.876 250.059 15.9873 250.469 15.9873H250.794V18H250.565ZM250.451 15.9873H251.761V18H250.451V15.9873ZM252.525 18H251.559V15.9873H252.508C253.176 15.9873 253.642 15.8525 253.905 15.583C254.175 15.3135 254.31 14.8945 254.31 14.3262C254.31 13.998 254.274 13.585 254.204 13.0869C254.14 12.583 254.031 12.0469 253.879 11.4785L255.725 10.9863C255.871 11.5078 255.977 12.041 256.041 12.5859C256.105 13.1309 256.138 13.6377 256.138 14.1064C256.138 14.874 256.029 15.5508 255.812 16.1367C255.602 16.7168 255.232 17.1738 254.705 17.5078C254.184 17.8359 253.457 18 252.525 18ZM252.728 21.2344L254.011 22.5264L252.728 23.8096L251.444 22.5264L252.728 21.2344ZM254.248 19.002L255.531 20.2939L254.248 21.5771L252.956 20.2939L254.248 19.002ZM251.216 19.002L252.499 20.2939L251.216 21.5771L249.924 20.2939L251.216 19.002ZM267.59 14.7832C267.59 14.5488 267.496 14.3027 267.309 14.0449C267.127 13.7812 266.901 13.5205 266.632 13.2627C266.362 13.0049 266.09 12.7646 265.814 12.542C265.527 12.8174 265.264 13.0898 265.023 13.3594C264.789 13.623 264.602 13.8838 264.461 14.1416C264.326 14.3936 264.259 14.6484 264.259 14.9062C264.259 15.2109 264.396 15.4688 264.672 15.6797C264.947 15.8848 265.36 15.9873 265.911 15.9873C266.485 15.9873 266.907 15.8906 267.177 15.6973C267.452 15.498 267.59 15.1934 267.59 14.7832ZM264.443 11.3379L264.101 11.0303L265.27 9.52734C265.826 9.97852 266.351 10.418 266.843 10.8457C267.341 11.2676 267.783 11.6924 268.17 12.1201C268.557 12.542 268.858 12.9756 269.075 13.4209C269.298 13.8662 269.409 14.332 269.409 14.8184C269.409 15.4688 269.263 16.0283 268.97 16.4971C268.677 16.9658 268.267 17.3291 267.739 17.5869C267.218 17.8389 266.611 17.9648 265.92 17.9648C264.818 17.9648 263.96 17.6953 263.345 17.1562C262.735 16.6113 262.431 15.9258 262.431 15.0996C262.431 14.3906 262.612 13.7461 262.976 13.166C263.339 12.5859 263.828 11.9766 264.443 11.3379ZM271.475 5.71289H273.373V14.0449C273.373 14.7832 273.496 15.293 273.742 15.5742C273.988 15.8496 274.41 15.9873 275.008 15.9873H275.219V18H275.008C273.801 18 272.91 17.6865 272.336 17.0596C271.762 16.4268 271.475 15.4512 271.475 14.1328V5.71289ZM275.685 7.40918V6.28418L282.566 3.48926V4.61426L275.685 7.40918ZM277.469 9.65039C277.902 9.9375 278.333 10.2275 278.761 10.5205C279.188 10.8135 279.59 11.1152 279.965 11.4258C280.34 11.7363 280.671 12.0645 280.958 12.4102C281.251 12.7559 281.479 13.1221 281.644 13.5088C281.808 13.8896 281.89 14.2969 281.89 14.7305C281.89 15.5449 281.705 16.1895 281.336 16.6641C280.967 17.1387 280.419 17.4814 279.692 17.6924C278.972 17.8975 278.084 18 277.029 18H274.902V15.9873H277.021C277.724 15.9873 278.295 15.9521 278.734 15.8818C279.18 15.8057 279.508 15.6738 279.719 15.4863C279.936 15.2988 280.044 15.0352 280.044 14.6953C280.044 14.4551 279.95 14.209 279.763 13.957C279.581 13.6992 279.338 13.4414 279.033 13.1836C278.729 12.9199 278.395 12.6621 278.031 12.4102C277.668 12.1523 277.302 11.8975 276.933 11.6455C276.563 11.3936 276.224 11.1475 275.913 10.9072C275.702 10.7432 275.538 10.5527 275.421 10.3359C275.304 10.1133 275.245 9.87891 275.245 9.63281C275.245 9.35156 275.321 9.07617 275.474 8.80664C275.626 8.53711 275.846 8.34375 276.133 8.22656L282.654 5.57227V7.5498L277.469 9.65039ZM281.784 22.7549L281.107 20.9443C282.016 20.7451 282.763 20.4609 283.349 20.0918C283.94 19.7285 284.38 19.2715 284.667 18.7207C284.954 18.1758 285.098 17.5283 285.098 16.7783C285.098 16.2627 285.03 15.7061 284.896 15.1084C284.761 14.5107 284.597 13.9248 284.403 13.3506L286.258 12.7354C286.475 13.3506 286.639 13.9834 286.75 14.6338C286.867 15.2842 286.926 15.9141 286.926 16.5234C286.926 17.6133 286.729 18.5859 286.337 19.4414C285.944 20.2969 285.367 21.0088 284.605 21.5771C283.844 22.1455 282.903 22.5381 281.784 22.7549ZM290.696 16.0137C291.335 16.0137 291.895 15.9609 292.375 15.8555C292.861 15.75 293.239 15.5859 293.509 15.3633C293.778 15.1348 293.913 14.833 293.913 14.458C293.913 14.0889 293.764 13.7021 293.465 13.2979C293.172 12.8936 292.747 12.4834 292.19 12.0674C291.64 11.6455 290.969 11.2295 290.178 10.8193L291.048 9.04395C291.739 9.38965 292.372 9.75879 292.946 10.1514C293.521 10.5439 294.016 10.9629 294.432 11.4082C294.848 11.8535 295.167 12.3252 295.39 12.8232C295.618 13.3154 295.732 13.8398 295.732 14.3965C295.732 15.2227 295.545 15.9023 295.17 16.4355C294.801 16.9629 294.253 17.3525 293.526 17.6045C292.8 17.8564 291.9 17.9824 290.828 17.9824C290.406 17.9824 290.005 17.9648 289.624 17.9297C289.249 17.8945 288.889 17.8389 288.543 17.7627V15.7588C288.924 15.835 289.302 15.8965 289.677 15.9434C290.052 15.9902 290.392 16.0137 290.696 16.0137Z" fill="#212121"/>
<rect x="1.5" y="53.5" width="158" height="158" rx="14.5" fill="#D9D9D9"/>
<rect x="1.5" y="53.5" width="158" height="158" rx="14.5" stroke="#1967D2" stroke-width="3"/>
<path d="M57.0117 136.5H54.7793C53.7188 136.5 52.7666 136.421 51.9229 136.263C51.085 136.099 50.373 135.841 49.7871 135.489C49.2012 135.138 48.7559 134.684 48.4512 134.127C48.1465 133.564 47.9941 132.879 47.9941 132.07C47.9941 131.613 48.0439 131.165 48.1436 130.726C48.249 130.286 48.3809 129.873 48.5391 129.486L50.2266 130.128C50.1328 130.386 50.0449 130.679 49.9629 131.007C49.8867 131.329 49.8486 131.637 49.8486 131.93C49.8486 132.422 49.9629 132.832 50.1914 133.16C50.4199 133.488 50.748 133.749 51.1758 133.942C51.6094 134.136 52.1279 134.276 52.7314 134.364C53.3408 134.446 54.0234 134.487 54.7793 134.487H57.0029C57.7061 134.487 58.2803 134.452 58.7256 134.382C59.1709 134.306 59.499 134.174 59.71 133.986C59.9209 133.799 60.0264 133.535 60.0264 133.195C60.0264 132.955 59.9355 132.709 59.7539 132.457C59.5723 132.199 59.3291 131.941 59.0244 131.684C58.7197 131.42 58.3828 131.162 58.0137 130.91C57.6504 130.652 57.2842 130.397 56.915 130.146C56.5459 129.894 56.2061 129.647 55.8955 129.407C55.6846 129.243 55.5205 129.05 55.4033 128.827C55.2861 128.599 55.2275 128.361 55.2275 128.115C55.2275 127.828 55.3037 127.556 55.4561 127.298C55.6084 127.034 55.8311 126.844 56.124 126.727L62.6455 124.072V126.05L57.46 128.15C57.8877 128.438 58.2891 128.71 58.6641 128.968C59.0391 129.226 59.3877 129.486 59.71 129.75C60.0322 130.008 60.3252 130.274 60.5889 130.55C60.8584 130.825 61.0986 131.124 61.3096 131.446C61.5264 131.769 61.7139 132.12 61.8721 132.501C62.0654 132.97 62.2559 133.351 62.4434 133.644C62.6367 133.937 62.8682 134.15 63.1377 134.285C63.4072 134.42 63.7529 134.487 64.1748 134.487H64.4209L64.4121 136.5H64.166C63.4922 136.5 62.9209 136.386 62.4521 136.157C61.9893 135.923 61.585 135.542 61.2393 135.015C60.9756 135.36 60.6709 135.645 60.3252 135.867C59.9795 136.084 59.543 136.245 59.0156 136.351C58.4941 136.45 57.8262 136.5 57.0117 136.5ZM65.0449 136.5H64.0781V134.487H65.0273C65.6953 134.487 66.1611 134.353 66.4248 134.083C66.6943 133.813 66.8291 133.395 66.8291 132.826C66.8291 132.498 66.7939 132.085 66.7236 131.587C66.6592 131.083 66.5508 130.547 66.3984 129.979L68.2441 129.486C68.3906 130.008 68.4961 130.541 68.5605 131.086C68.625 131.631 68.6572 132.138 68.6572 132.606C68.6572 133.374 68.5488 134.051 68.332 134.637C68.1211 135.217 67.752 135.674 67.2246 136.008C66.7031 136.336 65.9766 136.5 65.0449 136.5ZM66.5303 125.505L67.9365 126.911L66.5303 128.317L65.124 126.911L66.5303 125.505ZM70.7402 124.213H72.6387V132.545C72.6387 133.283 72.7617 133.793 73.0078 134.074C73.2539 134.35 73.6758 134.487 74.2734 134.487H74.4844V136.5H74.2734C73.0664 136.5 72.1758 136.187 71.6016 135.56C71.0273 134.927 70.7402 133.951 70.7402 132.633V124.213ZM74.1416 134.487H74.5635V136.5H74.1416V134.487ZM75.9521 137.713L77.3584 139.119L75.9521 140.525L74.5459 139.119L75.9521 137.713ZM75.3105 136.5H74.3438V134.487H75.293C75.9609 134.487 76.4268 134.353 76.6904 134.083C76.96 133.813 77.0947 133.395 77.0947 132.826C77.0947 132.498 77.0596 132.085 76.9893 131.587C76.9248 131.083 76.8164 130.547 76.6641 129.979L78.5098 129.486C78.6562 130.008 78.7617 130.541 78.8262 131.086C78.8906 131.631 78.9229 132.138 78.9229 132.606C78.9229 133.374 78.8145 134.051 78.5977 134.637C78.3867 135.217 78.0176 135.674 77.4902 136.008C76.9688 136.336 76.2422 136.5 75.3105 136.5ZM88.3447 129.583C88.8721 129.583 89.3408 129.703 89.751 129.943C90.1611 130.184 90.5127 130.523 90.8057 130.963C91.1045 131.396 91.333 131.912 91.4912 132.51C91.6553 133.107 91.752 133.767 91.7812 134.487H92.6602V136.5H91.623C91.4531 137.268 91.1484 137.968 90.709 138.601C90.2754 139.233 89.6689 139.775 88.8896 140.227C88.1104 140.678 87.123 141.018 85.9277 141.246L85.251 139.436C86.0713 139.271 86.7979 139.055 87.4307 138.785C88.0635 138.516 88.585 138.19 88.9951 137.81C89.4053 137.429 89.6836 136.992 89.8301 136.5H88.6875C87.5449 136.5 86.6807 136.266 86.0947 135.797C85.5146 135.328 85.2246 134.599 85.2246 133.608C85.2246 133.163 85.2861 132.706 85.4092 132.237C85.5381 131.763 85.7314 131.326 85.9893 130.928C86.2529 130.523 86.5811 130.198 86.9736 129.952C87.3662 129.706 87.8232 129.583 88.3447 129.583ZM88.6348 134.487H89.9971C89.9678 134.06 89.9121 133.67 89.8301 133.318C89.7539 132.961 89.6484 132.653 89.5137 132.396C89.3789 132.132 89.2119 131.93 89.0127 131.789C88.8193 131.643 88.5908 131.569 88.3271 131.569C87.9932 131.569 87.7295 131.687 87.5361 131.921C87.3486 132.149 87.2168 132.416 87.1406 132.721C87.0645 133.025 87.0264 133.295 87.0264 133.529C87.0264 133.898 87.1611 134.15 87.4307 134.285C87.7002 134.42 88.1016 134.487 88.6348 134.487ZM93.126 125.909V124.784L100.008 121.989V123.114L93.126 125.909ZM94.9102 128.15C95.3438 128.438 95.7744 128.728 96.2021 129.021C96.6299 129.313 97.0312 129.615 97.4062 129.926C97.7812 130.236 98.1123 130.564 98.3994 130.91C98.6924 131.256 98.9209 131.622 99.085 132.009C99.249 132.39 99.3311 132.797 99.3311 133.23C99.3311 134.045 99.1465 134.689 98.7773 135.164C98.4082 135.639 97.8604 135.981 97.1338 136.192C96.4131 136.397 95.5254 136.5 94.4707 136.5H92.3438V134.487H94.4619C95.165 134.487 95.7363 134.452 96.1758 134.382C96.6211 134.306 96.9492 134.174 97.1602 133.986C97.377 133.799 97.4854 133.535 97.4854 133.195C97.4854 132.955 97.3916 132.709 97.2041 132.457C97.0225 132.199 96.7793 131.941 96.4746 131.684C96.1699 131.42 95.8359 131.162 95.4727 130.91C95.1094 130.652 94.7432 130.397 94.374 130.146C94.0049 129.894 93.665 129.647 93.3545 129.407C93.1436 129.243 92.9795 129.053 92.8623 128.836C92.7451 128.613 92.6865 128.379 92.6865 128.133C92.6865 127.852 92.7627 127.576 92.915 127.307C93.0674 127.037 93.2871 126.844 93.5742 126.727L100.096 124.072V126.05L94.9102 128.15ZM104.517 129.583C105.044 129.583 105.513 129.703 105.923 129.943C106.333 130.184 106.685 130.523 106.978 130.963C107.276 131.396 107.505 131.912 107.663 132.51C107.827 133.107 107.924 133.767 107.953 134.487H108.832V136.5H107.795C107.625 137.268 107.32 137.968 106.881 138.601C106.447 139.233 105.841 139.775 105.062 140.227C104.282 140.678 103.295 141.018 102.1 141.246L101.423 139.436C102.243 139.271 102.97 139.055 103.603 138.785C104.235 138.516 104.757 138.19 105.167 137.81C105.577 137.429 105.855 136.992 106.002 136.5H104.859C103.717 136.5 102.853 136.266 102.267 135.797C101.687 135.328 101.396 134.599 101.396 133.608C101.396 133.163 101.458 132.706 101.581 132.237C101.71 131.763 101.903 131.326 102.161 130.928C102.425 130.523 102.753 130.198 103.146 129.952C103.538 129.706 103.995 129.583 104.517 129.583ZM104.807 134.487H106.169C106.14 134.06 106.084 133.67 106.002 133.318C105.926 132.961 105.82 132.653 105.686 132.396C105.551 132.132 105.384 131.93 105.185 131.789C104.991 131.643 104.763 131.569 104.499 131.569C104.165 131.569 103.901 131.687 103.708 131.921C103.521 132.149 103.389 132.416 103.312 132.721C103.236 133.025 103.198 133.295 103.198 133.529C103.198 133.898 103.333 134.15 103.603 134.285C103.872 134.42 104.273 134.487 104.807 134.487ZM108.516 134.487H109.201C109.869 134.487 110.306 134.314 110.511 133.969C110.722 133.617 110.827 133.146 110.827 132.554V124.213H112.717V132.642C112.717 133.913 112.436 134.874 111.873 135.524C111.316 136.175 110.423 136.5 109.192 136.5H108.516V134.487Z" fill="#212121"/>
<rect x="201" y="52" width="161" height="161" rx="16" fill="#D9D9D9"/>
<path d="M258.012 136.5H255.779C254.719 136.5 253.767 136.421 252.923 136.263C252.085 136.099 251.373 135.841 250.787 135.489C250.201 135.138 249.756 134.684 249.451 134.127C249.146 133.564 248.994 132.879 248.994 132.07C248.994 131.613 249.044 131.165 249.144 130.726C249.249 130.286 249.381 129.873 249.539 129.486L251.227 130.128C251.133 130.386 251.045 130.679 250.963 131.007C250.887 131.329 250.849 131.637 250.849 131.93C250.849 132.422 250.963 132.832 251.191 133.16C251.42 133.488 251.748 133.749 252.176 133.942C252.609 134.136 253.128 134.276 253.731 134.364C254.341 134.446 255.023 134.487 255.779 134.487H258.003C258.706 134.487 259.28 134.452 259.726 134.382C260.171 134.306 260.499 134.174 260.71 133.986C260.921 133.799 261.026 133.535 261.026 133.195C261.026 132.955 260.936 132.709 260.754 132.457C260.572 132.199 260.329 131.941 260.024 131.684C259.72 131.42 259.383 131.162 259.014 130.91C258.65 130.652 258.284 130.397 257.915 130.146C257.546 129.894 257.206 129.647 256.896 129.407C256.685 129.243 256.521 129.05 256.403 128.827C256.286 128.599 256.228 128.361 256.228 128.115C256.228 127.828 256.304 127.556 256.456 127.298C256.608 127.034 256.831 126.844 257.124 126.727L263.646 124.072V126.05L258.46 128.15C258.888 128.438 259.289 128.71 259.664 128.968C260.039 129.226 260.388 129.486 260.71 129.75C261.032 130.008 261.325 130.274 261.589 130.55C261.858 130.825 262.099 131.124 262.31 131.446C262.526 131.769 262.714 132.12 262.872 132.501C263.065 132.97 263.256 133.351 263.443 133.644C263.637 133.937 263.868 134.15 264.138 134.285C264.407 134.42 264.753 134.487 265.175 134.487H265.421L265.412 136.5H265.166C264.492 136.5 263.921 136.386 263.452 136.157C262.989 135.923 262.585 135.542 262.239 135.015C261.976 135.36 261.671 135.645 261.325 135.867C260.979 136.084 260.543 136.245 260.016 136.351C259.494 136.45 258.826 136.5 258.012 136.5ZM266.045 136.5H265.078V134.487H266.027C266.695 134.487 267.161 134.353 267.425 134.083C267.694 133.813 267.829 133.395 267.829 132.826C267.829 132.498 267.794 132.085 267.724 131.587C267.659 131.083 267.551 130.547 267.398 129.979L269.244 129.486C269.391 130.008 269.496 130.541 269.561 131.086C269.625 131.631 269.657 132.138 269.657 132.606C269.657 133.374 269.549 134.051 269.332 134.637C269.121 135.217 268.752 135.674 268.225 136.008C267.703 136.336 266.977 136.5 266.045 136.5ZM267.53 125.505L268.937 126.911L267.53 128.317L266.124 126.911L267.53 125.505ZM271.74 124.213H273.639V132.545C273.639 133.283 273.762 133.793 274.008 134.074C274.254 134.35 274.676 134.487 275.273 134.487H275.484V136.5H275.273C274.066 136.5 273.176 136.187 272.602 135.56C272.027 134.927 271.74 133.951 271.74 132.633V124.213ZM275.142 134.487H275.563V136.5H275.142V134.487ZM276.952 137.713L278.358 139.119L276.952 140.525L275.546 139.119L276.952 137.713ZM276.311 136.5H275.344V134.487H276.293C276.961 134.487 277.427 134.353 277.69 134.083C277.96 133.813 278.095 133.395 278.095 132.826C278.095 132.498 278.06 132.085 277.989 131.587C277.925 131.083 277.816 130.547 277.664 129.979L279.51 129.486C279.656 130.008 279.762 130.541 279.826 131.086C279.891 131.631 279.923 132.138 279.923 132.606C279.923 133.374 279.814 134.051 279.598 134.637C279.387 135.217 279.018 135.674 278.49 136.008C277.969 136.336 277.242 136.5 276.311 136.5ZM289.345 129.583C289.872 129.583 290.341 129.703 290.751 129.943C291.161 130.184 291.513 130.523 291.806 130.963C292.104 131.396 292.333 131.912 292.491 132.51C292.655 133.107 292.752 133.767 292.781 134.487H293.66V136.5H292.623C292.453 137.268 292.148 137.968 291.709 138.601C291.275 139.233 290.669 139.775 289.89 140.227C289.11 140.678 288.123 141.018 286.928 141.246L286.251 139.436C287.071 139.271 287.798 139.055 288.431 138.785C289.063 138.516 289.585 138.19 289.995 137.81C290.405 137.429 290.684 136.992 290.83 136.5H289.688C288.545 136.5 287.681 136.266 287.095 135.797C286.515 135.328 286.225 134.599 286.225 133.608C286.225 133.163 286.286 132.706 286.409 132.237C286.538 131.763 286.731 131.326 286.989 130.928C287.253 130.523 287.581 130.198 287.974 129.952C288.366 129.706 288.823 129.583 289.345 129.583ZM289.635 134.487H290.997C290.968 134.06 290.912 133.67 290.83 133.318C290.754 132.961 290.648 132.653 290.514 132.396C290.379 132.132 290.212 131.93 290.013 131.789C289.819 131.643 289.591 131.569 289.327 131.569C288.993 131.569 288.729 131.687 288.536 131.921C288.349 132.149 288.217 132.416 288.141 132.721C288.064 133.025 288.026 133.295 288.026 133.529C288.026 133.898 288.161 134.15 288.431 134.285C288.7 134.42 289.102 134.487 289.635 134.487ZM294.126 125.909V124.784L301.008 121.989V123.114L294.126 125.909ZM295.91 128.15C296.344 128.438 296.774 128.728 297.202 129.021C297.63 129.313 298.031 129.615 298.406 129.926C298.781 130.236 299.112 130.564 299.399 130.91C299.692 131.256 299.921 131.622 300.085 132.009C300.249 132.39 300.331 132.797 300.331 133.23C300.331 134.045 300.146 134.689 299.777 135.164C299.408 135.639 298.86 135.981 298.134 136.192C297.413 136.397 296.525 136.5 295.471 136.5H293.344V134.487H295.462C296.165 134.487 296.736 134.452 297.176 134.382C297.621 134.306 297.949 134.174 298.16 133.986C298.377 133.799 298.485 133.535 298.485 133.195C298.485 132.955 298.392 132.709 298.204 132.457C298.022 132.199 297.779 131.941 297.475 131.684C297.17 131.42 296.836 131.162 296.473 130.91C296.109 130.652 295.743 130.397 295.374 130.146C295.005 129.894 294.665 129.647 294.354 129.407C294.144 129.243 293.979 129.053 293.862 128.836C293.745 128.613 293.687 128.379 293.687 128.133C293.687 127.852 293.763 127.576 293.915 127.307C294.067 127.037 294.287 126.844 294.574 126.727L301.096 124.072V126.05L295.91 128.15ZM305.517 129.583C306.044 129.583 306.513 129.703 306.923 129.943C307.333 130.184 307.685 130.523 307.978 130.963C308.276 131.396 308.505 131.912 308.663 132.51C308.827 133.107 308.924 133.767 308.953 134.487H309.832V136.5H308.795C308.625 137.268 308.32 137.968 307.881 138.601C307.447 139.233 306.841 139.775 306.062 140.227C305.282 140.678 304.295 141.018 303.1 141.246L302.423 139.436C303.243 139.271 303.97 139.055 304.603 138.785C305.235 138.516 305.757 138.19 306.167 137.81C306.577 137.429 306.855 136.992 307.002 136.5H305.859C304.717 136.5 303.853 136.266 303.267 135.797C302.687 135.328 302.396 134.599 302.396 133.608C302.396 133.163 302.458 132.706 302.581 132.237C302.71 131.763 302.903 131.326 303.161 130.928C303.425 130.523 303.753 130.198 304.146 129.952C304.538 129.706 304.995 129.583 305.517 129.583ZM305.807 134.487H307.169C307.14 134.06 307.084 133.67 307.002 133.318C306.926 132.961 306.82 132.653 306.686 132.396C306.551 132.132 306.384 131.93 306.185 131.789C305.991 131.643 305.763 131.569 305.499 131.569C305.165 131.569 304.901 131.687 304.708 131.921C304.521 132.149 304.389 132.416 304.312 132.721C304.236 133.025 304.198 133.295 304.198 133.529C304.198 133.898 304.333 134.15 304.603 134.285C304.872 134.42 305.273 134.487 305.807 134.487ZM309.516 134.487H310.201C310.869 134.487 311.306 134.314 311.511 133.969C311.722 133.617 311.827 133.146 311.827 132.554V124.213H313.717V132.642C313.717 133.913 313.436 134.874 312.873 135.524C312.316 136.175 311.423 136.5 310.192 136.5H309.516V134.487Z" fill="#212121"/>
</svg>
