<svg width="140" height="140" viewBox="0 0 140 140" fill="none" xmlns="http://www.w3.org/2000/svg">
<rect x="1" y="1" width="138" height="138" rx="23" stroke="#1967D2" stroke-width="2"/>
<path d="M69.9999 50.3497C68.1867 50.3499 66.4141 49.8124 64.9064 48.8053C63.3986 47.7981 62.2234 46.3664 61.5294 44.6913C60.8353 43.0162 60.6536 41.1728 61.0072 39.3944C61.3608 37.616 62.2338 35.9824 63.5158 34.7002C64.7979 33.418 66.4314 32.5447 68.2097 32.1909C69.9881 31.8371 71.8314 32.0185 73.5066 32.7124C75.1818 33.4062 76.6137 34.5812 77.6211 36.0888C78.6285 37.5964 79.1662 39.3689 79.1662 41.1822C79.1639 43.6126 78.1974 45.9429 76.479 47.6616C74.7605 49.3803 72.4304 50.347 69.9999 50.3497ZM69.9999 34.6584C68.7093 34.6582 67.4476 35.0407 66.3744 35.7575C65.3011 36.4744 64.4646 37.4935 63.9706 38.6858C63.4766 39.8782 63.3473 41.1902 63.599 42.4561C63.8507 43.7219 64.4722 44.8847 65.3848 45.7973C66.2974 46.7099 67.4602 47.3314 68.726 47.5831C69.9919 47.8348 71.3039 47.7055 72.4963 47.2115C73.6886 46.7175 74.7076 45.8809 75.4245 44.8077C76.1414 43.7345 76.5239 42.4728 76.5237 41.1822C76.5217 39.4526 75.8337 37.7944 74.6107 36.5714C73.3877 35.3483 71.7295 34.6604 69.9999 34.6584ZM84.6337 69.9834H55.3662L54.0449 68.6622C54.0449 66.5669 54.4576 64.4922 55.2594 62.5564C56.0612 60.6207 57.2365 58.8618 58.718 57.3803C60.1996 55.8987 61.9585 54.7235 63.8942 53.9217C65.83 53.1198 67.9047 52.7072 69.9999 52.7072C72.0952 52.7072 74.1699 53.1198 76.1056 53.9217C78.0414 54.7235 79.8002 55.8987 81.2818 57.3803C82.7634 58.8618 83.9386 60.6207 84.7404 62.5564C85.5422 64.4922 85.9549 66.5669 85.9549 68.6622L84.6337 69.9834ZM56.7499 67.3409H83.2499C82.9268 64.051 81.3913 60.999 78.9422 58.7786C76.4932 56.5583 73.3057 55.3285 69.9999 55.3285C66.6942 55.3285 63.5067 56.5583 61.0576 58.7786C58.6085 60.999 57.073 64.051 56.7499 67.3409Z" fill="#1967D2"/>
<path d="M53.9287 102.083C54.4561 102.083 54.9248 102.203 55.335 102.443C55.7451 102.684 56.0967 103.023 56.3896 103.463C56.6885 103.896 56.917 104.412 57.0752 105.01C57.2393 105.607 57.3359 106.267 57.3652 106.987H58.2441V109H57.207C57.0371 109.768 56.7324 110.468 56.293 111.101C55.8594 111.733 55.2529 112.275 54.4736 112.727C53.6943 113.178 52.707 113.518 51.5117 113.746L50.835 111.936C51.6553 111.771 52.3818 111.555 53.0146 111.285C53.6475 111.016 54.1689 110.69 54.5791 110.31C54.9893 109.929 55.2676 109.492 55.4141 109H54.2715C53.1289 109 52.2646 108.766 51.6787 108.297C51.0986 107.828 50.8086 107.099 50.8086 106.108C50.8086 105.663 50.8701 105.206 50.9932 104.737C51.1221 104.263 51.3154 103.826 51.5732 103.428C51.8369 103.023 52.165 102.698 52.5576 102.452C52.9502 102.206 53.4072 102.083 53.9287 102.083ZM54.2188 106.987H55.5811C55.5518 106.56 55.4961 106.17 55.4141 105.818C55.3379 105.461 55.2324 105.153 55.0977 104.896C54.9629 104.632 54.7959 104.43 54.5967 104.289C54.4033 104.143 54.1748 104.069 53.9111 104.069C53.5771 104.069 53.3135 104.187 53.1201 104.421C52.9326 104.649 52.8008 104.916 52.7246 105.221C52.6484 105.525 52.6104 105.795 52.6104 106.029C52.6104 106.398 52.7451 106.65 53.0146 106.785C53.2842 106.92 53.6855 106.987 54.2188 106.987ZM63.9395 110.213L65.3457 111.619L63.9395 113.025L62.5332 111.619L63.9395 110.213ZM57.9277 106.987H59.4043C60.2539 106.987 61.0508 106.885 61.7949 106.68C62.5449 106.469 63.2949 106.188 64.0449 105.836C64.7949 105.484 65.5977 105.086 66.4531 104.641C66.2363 104.553 66.0195 104.465 65.8027 104.377C65.5918 104.289 65.375 104.201 65.1523 104.113C64.9297 104.02 64.6982 103.929 64.458 103.841C64.1533 103.718 63.8838 103.615 63.6494 103.533C63.4209 103.445 63.2217 103.378 63.0518 103.331C62.8877 103.284 62.7529 103.261 62.6475 103.261C62.3076 103.261 61.9795 103.363 61.6631 103.568C61.3525 103.768 61.0977 103.996 60.8984 104.254L60.5645 104.685L58.9473 103.894L59.1934 103.489C59.5859 102.845 60.0781 102.317 60.6699 101.907C61.2617 101.497 61.9238 101.292 62.6562 101.292C63.1133 101.292 63.5762 101.38 64.0449 101.556C64.5195 101.731 65.0146 101.942 65.5303 102.188C66.0283 102.435 66.4707 102.643 66.8574 102.812C67.2441 102.982 67.5957 103.12 67.9121 103.226C68.2285 103.331 68.5303 103.41 68.8174 103.463C69.1104 103.516 69.4092 103.551 69.7139 103.568V105.44C69.3799 105.487 69.04 105.569 68.6943 105.687C68.3486 105.804 67.959 105.968 67.5254 106.179C67.0977 106.39 66.5908 106.65 66.0049 106.961C65.2549 107.359 64.5342 107.711 63.8428 108.016C63.1514 108.32 62.4453 108.561 61.7246 108.736C61.0039 108.912 60.2217 109 59.3779 109H57.9277V106.987ZM69.3623 113.755L68.6855 111.944C69.5938 111.745 70.3408 111.461 70.9268 111.092C71.5186 110.729 71.958 110.271 72.2451 109.721C72.5322 109.176 72.6758 108.528 72.6758 107.778C72.6758 107.263 72.6084 106.706 72.4736 106.108C72.3389 105.511 72.1748 104.925 71.9814 104.351L73.8359 103.735C74.0527 104.351 74.2168 104.983 74.3281 105.634C74.4453 106.284 74.5039 106.914 74.5039 107.523C74.5039 108.613 74.3076 109.586 73.915 110.441C73.5225 111.297 72.9453 112.009 72.1836 112.577C71.4219 113.146 70.4814 113.538 69.3623 113.755ZM76.5781 96.7129H78.4766V105.045C78.4766 105.783 78.5996 106.293 78.8457 106.574C79.0918 106.85 79.5137 106.987 80.1113 106.987H80.3223V109H80.1113C78.9043 109 78.0137 108.687 77.4395 108.06C76.8652 107.427 76.5781 106.451 76.5781 105.133V96.7129ZM82.5723 100.65C83.0059 100.938 83.4365 101.228 83.8643 101.521C84.292 101.813 84.6934 102.115 85.0684 102.426C85.4434 102.736 85.7744 103.064 86.0615 103.41C86.3545 103.756 86.583 104.122 86.7471 104.509C86.9111 104.89 86.9932 105.297 86.9932 105.73C86.9932 106.545 86.8086 107.189 86.4395 107.664C86.0703 108.139 85.5225 108.481 84.7959 108.692C84.0752 108.897 83.1875 109 82.1328 109H80.0059V106.987H82.124C82.8271 106.987 83.3984 106.952 83.8379 106.882C84.2832 106.806 84.6113 106.674 84.8223 106.486C85.0391 106.299 85.1475 106.035 85.1475 105.695C85.1475 105.455 85.0537 105.209 84.8662 104.957C84.6846 104.699 84.4414 104.441 84.1367 104.184C83.832 103.92 83.498 103.662 83.1348 103.41C82.7715 103.152 82.4053 102.897 82.0361 102.646C81.667 102.394 81.3271 102.147 81.0166 101.907C80.8057 101.743 80.6416 101.553 80.5244 101.336C80.4072 101.113 80.3486 100.879 80.3486 100.633C80.3486 100.352 80.4248 100.076 80.5771 99.8066C80.7295 99.5371 80.9492 99.3438 81.2363 99.2266L87.7578 96.5723V98.5498L82.5723 100.65Z" fill="#1967D2"/>
</svg>
