<svg width="418" height="25" viewBox="0 0 418 25" fill="none" xmlns="http://www.w3.org/2000/svg">
<path d="M301.147 12.4277C301.147 12.0675 301.064 11.7308 300.9 11.4175C300.743 11.1043 300.524 10.8537 300.242 10.6657C299.96 10.4778 299.627 10.3838 299.244 10.3838C298.97 10.3838 298.719 10.4582 298.492 10.607C298.265 10.748 298.061 10.9398 297.881 11.1826C297.709 11.4175 297.556 11.6798 297.423 11.9696C297.29 12.2515 297.176 12.5334 297.082 12.8153C297.474 12.9876 297.85 13.1521 298.21 13.3087C298.578 13.4575 298.915 13.5789 299.22 13.6728C299.526 13.7668 299.784 13.8138 299.996 13.8138C300.411 13.8138 300.704 13.6767 300.877 13.4027C301.057 13.1207 301.147 12.7958 301.147 12.4277ZM303.837 11.3235C303.891 11.6681 303.997 12.0127 304.154 12.3572C304.31 12.7018 304.506 12.9915 304.741 13.2265C304.976 13.4536 305.246 13.5671 305.552 13.5671H305.857V16.7269H305.552C305.058 16.7269 304.569 16.6133 304.083 16.3862C303.606 16.1513 303.218 15.8577 302.92 15.5053C302.591 15.9751 302.192 16.3275 301.722 16.5624C301.26 16.7974 300.669 16.9148 299.949 16.9148C299.518 16.9148 299.06 16.8404 298.574 16.6917C298.097 16.5429 297.627 16.3745 297.165 16.1866C296.71 15.9908 296.295 15.8185 295.92 15.6697C295.544 15.5209 295.242 15.4465 295.015 15.4465C294.811 15.4465 294.643 15.5444 294.51 15.7402C294.385 15.9281 294.283 16.2061 294.205 16.5742C294.134 16.9344 294.083 17.369 294.052 17.878C294.028 18.3871 294.017 18.9548 294.017 19.5813C294.017 20.2234 294.028 20.8421 294.052 21.4372C294.075 22.0402 294.103 22.5805 294.134 23.0582C294.173 23.5359 294.201 23.9196 294.216 24.2094H291.233C291.186 23.3871 291.147 22.5923 291.115 21.8248C291.084 21.0652 291.068 20.3252 291.068 19.6048C291.068 18.6024 291.104 17.6862 291.174 16.8561C291.244 16.026 291.385 15.2977 291.597 14.6713C291.816 14.037 292.141 13.5201 292.572 13.1207C293.01 12.7214 293.59 12.459 294.31 12.3337C294.514 11.6524 294.764 11.0142 295.062 10.4191C295.367 9.82392 295.724 9.29533 296.131 8.8333C296.538 8.37128 296.996 8.01105 297.505 7.75263C298.022 7.48638 298.586 7.35325 299.197 7.35325C300.019 7.35325 300.751 7.5177 301.393 7.8466C302.043 8.16767 302.58 8.62578 303.003 9.22093C303.425 9.80825 303.703 10.5091 303.837 11.3235ZM305.375 13.5671H306.315V16.7269H305.375V13.5671ZM309.651 18.3009L311.589 20.2273L309.651 22.1772L307.713 20.2273L309.651 18.3009ZM305.681 18.3009L307.642 20.2273L305.681 22.1772L303.766 20.2273L305.681 18.3009ZM309.393 8.63361L312.141 8.30471L312.376 11.5467C312.4 11.9539 312.482 12.3102 312.623 12.6156C312.772 12.9211 312.987 13.156 313.269 13.3204C313.551 13.4849 313.911 13.5671 314.35 13.5671H314.585V16.7269H314.326C313.794 16.7269 313.316 16.6603 312.893 16.5272C312.47 16.3941 312.098 16.21 311.777 15.9751C311.456 15.7402 311.178 15.4661 310.943 15.1529C310.481 15.6541 309.917 16.0417 309.252 16.3158C308.594 16.5898 307.893 16.7269 307.149 16.7269H306.033V13.5671H307.149C308.034 13.5671 308.649 13.3674 308.993 12.968C309.338 12.5687 309.51 11.9618 309.51 11.1473C309.51 10.7088 309.498 10.282 309.475 9.86699C309.459 9.44412 309.432 9.03299 309.393 8.63361ZM314.138 13.5671H314.972V16.7269H314.138V13.5671ZM319.342 2.6077L321.28 4.53412L319.342 6.48402L317.404 4.53412L319.342 2.6077ZM315.372 2.6077L317.333 4.53412L315.372 6.48402L313.457 4.53412L315.372 2.6077ZM318.026 8.63361L320.775 8.30471L321.01 11.5467C321.033 11.9539 321.116 12.3102 321.257 12.6156C321.405 12.9211 321.621 13.156 321.903 13.3204C322.185 13.4849 322.545 13.5671 322.983 13.5671H323.218V16.7269H322.96C322.427 16.7269 321.95 16.6603 321.527 16.5272C321.104 16.3941 320.732 16.21 320.411 15.9751C320.09 15.7402 319.812 15.4661 319.577 15.1529C319.115 15.6541 318.551 16.0417 317.885 16.3158C317.228 16.5898 316.527 16.7269 315.783 16.7269H314.667V13.5671H315.783C316.668 13.5671 317.282 13.3674 317.627 12.968C317.971 12.5687 318.144 11.9618 318.144 11.1473C318.144 10.7088 318.132 10.282 318.109 9.86699C318.093 9.44412 318.065 9.03299 318.026 8.63361ZM337.208 16.7269C336.503 16.7269 335.9 16.582 335.399 16.2923C334.898 15.9947 334.487 15.6188 334.166 15.1646C333.759 15.6345 333.269 16.0143 332.698 16.304C332.126 16.5859 331.503 16.7269 330.83 16.7269C330.015 16.7269 329.342 16.5898 328.809 16.3158C328.285 16.0339 327.858 15.658 327.529 15.1881C327.106 15.6658 326.582 16.0417 325.955 16.3158C325.329 16.5898 324.546 16.7269 323.606 16.7269H322.784V13.5671H323.629C324.514 13.5671 325.168 13.4066 325.591 13.0855C326.014 12.7566 326.225 12.1693 326.225 11.3235C326.225 11.1982 326.217 11.0103 326.202 10.7597C326.186 10.5091 326.167 10.2272 326.143 9.91397C326.127 9.60073 326.108 9.29533 326.084 8.99775L328.833 8.65711L329.08 11.6407C329.103 12.0009 329.181 12.3298 329.315 12.6274C329.456 12.9171 329.651 13.1482 329.902 13.3204C330.16 13.4849 330.477 13.5671 330.853 13.5671C331.542 13.5671 332.032 13.3752 332.322 12.9915C332.611 12.6 332.756 12.044 332.756 11.3235C332.756 11.2061 332.748 11.0221 332.733 10.7715C332.725 10.513 332.709 10.2272 332.686 9.91397C332.662 9.60073 332.639 9.29533 332.615 8.99775L335.364 8.65711L335.611 11.6407C335.634 11.9853 335.701 12.3063 335.81 12.6039C335.928 12.8936 336.1 13.1286 336.327 13.3087C336.554 13.481 336.844 13.5671 337.196 13.5671C337.525 13.5671 337.788 13.4731 337.983 13.2852C338.179 13.0894 338.32 12.8232 338.406 12.4864C338.492 12.1497 338.536 11.7699 338.536 11.347C338.536 11.0651 338.52 10.6814 338.489 10.1959C338.465 9.70254 338.434 9.2131 338.395 8.72758L341.143 8.38694L341.39 11.6407C341.413 12.0479 341.496 12.3964 341.637 12.6861C341.785 12.968 341.997 13.1873 342.271 13.3439C342.545 13.4927 342.89 13.5671 343.305 13.5671H343.633V16.7269H343.328C342.584 16.7269 341.934 16.5977 341.378 16.3393C340.83 16.073 340.407 15.7089 340.11 15.2468C339.796 15.6775 339.405 16.0339 338.935 16.3158C338.473 16.5898 337.897 16.7269 337.208 16.7269ZM347.698 10.7127C347.698 11.0103 347.788 11.2961 347.968 11.5702C348.148 11.8443 348.383 12.0871 348.673 12.2985C348.97 12.5099 349.287 12.6744 349.624 12.7918C349.89 12.7135 350.164 12.5843 350.446 12.4042C350.728 12.2163 350.967 11.9931 351.163 11.7347C351.359 11.4762 351.457 11.1982 351.457 10.9007C351.457 10.5639 351.374 10.2546 351.21 9.9727C351.045 9.68296 350.826 9.45586 350.552 9.29141C350.286 9.11913 349.984 9.03299 349.648 9.03299C349.115 9.03299 348.657 9.19744 348.273 9.52634C347.89 9.84741 347.698 10.2429 347.698 10.7127ZM349.119 6.96562L350.446 4.34617C351.895 5.0353 353.175 5.6696 354.287 6.24909C355.399 6.82858 356.335 7.39632 357.095 7.95232C357.854 8.50832 358.426 9.09955 358.81 9.72603C359.201 10.3525 359.397 11.0612 359.397 11.8521C359.397 13.4027 358.927 14.5851 357.988 15.3995C357.056 16.2061 355.814 16.6094 354.264 16.6094C353.716 16.6094 353.144 16.5624 352.549 16.4685C351.954 16.3745 351.382 16.257 350.834 16.1161C350.294 15.9751 349.824 15.842 349.424 15.7167C348.72 15.9673 347.913 16.1983 347.005 16.4097C346.104 16.6212 345.223 16.7269 344.362 16.7269H343.222V13.5671H344.209C344.522 13.5671 344.808 13.5632 345.067 13.5554C345.333 13.5475 345.607 13.5319 345.889 13.5084C345.693 13.2813 345.525 13.015 345.384 12.7096C345.243 12.3964 345.133 12.0675 345.055 11.7229C344.976 11.3784 344.937 11.0495 344.937 10.7362C344.937 10.0314 345.114 9.35798 345.466 8.71584C345.818 8.0737 346.331 7.55294 347.005 7.15357C347.686 6.74636 348.512 6.54275 349.483 6.54275C350.196 6.54275 350.889 6.71503 351.562 7.05959C352.244 7.40416 352.8 7.87401 353.23 8.46916C353.669 9.05648 353.888 9.72994 353.888 10.4895C353.888 10.9124 353.837 11.3079 353.735 11.6759C353.641 12.0362 353.508 12.3729 353.336 12.6861C353.164 12.9994 352.956 13.2891 352.713 13.5554C353.074 13.6102 353.43 13.6532 353.782 13.6846C354.143 13.7159 354.413 13.7316 354.593 13.7316C355.149 13.7316 355.63 13.6023 356.038 13.3439C356.445 13.0777 356.648 12.6078 356.648 11.9344C356.648 11.7621 356.582 11.5702 356.449 11.3588C356.324 11.1473 356.104 10.9046 355.791 10.6305C355.478 10.3564 355.039 10.0432 354.475 9.69079C353.912 9.3384 353.187 8.93902 352.302 8.49266C351.425 8.03846 350.364 7.52945 349.119 6.96562ZM374.785 22.7645C373.093 22.7645 371.707 22.4435 370.627 21.8013C369.554 21.167 368.759 20.3017 368.242 19.2054C367.733 18.1169 367.479 16.8874 367.479 15.517C367.479 14.7417 367.557 13.9117 367.714 13.0268C367.878 12.134 368.144 11.1982 368.512 10.2194L371.179 11.2413C370.897 12.0714 370.682 12.8349 370.533 13.5319C370.392 14.2288 370.321 14.8592 370.321 15.423C370.321 16.1905 370.454 16.8953 370.721 17.5374C370.995 18.1795 371.457 18.6925 372.107 19.0762C372.757 19.4599 373.649 19.6517 374.785 19.6517C376.014 19.6517 377.013 19.5186 377.78 19.2524C378.556 18.9861 379.123 18.6846 379.484 18.3479C379.844 18.0112 380.024 17.7371 380.024 17.5256C380.024 17.2359 379.883 17.0284 379.601 16.9031C379.327 16.7856 378.888 16.7269 378.285 16.7269H376.465C376.167 16.7269 375.975 16.6486 375.889 16.492C375.811 16.3353 375.732 16.1239 375.654 15.8577L375.196 14.1662C375.133 13.9704 375.122 13.8255 375.161 13.7316C375.2 13.6298 375.337 13.5789 375.572 13.5789H382.526V16.7269C382.588 16.8992 382.628 17.0401 382.643 17.1498C382.659 17.2594 382.667 17.3808 382.667 17.5139C382.667 18.1952 382.495 18.8491 382.15 19.4756C381.805 20.1099 381.296 20.6737 380.623 21.167C379.949 21.6604 379.123 22.048 378.144 22.3299C377.166 22.6197 376.046 22.7645 374.785 22.7645ZM386.062 5.76749C386.672 6.1512 387.256 6.52709 387.812 6.89514C388.368 7.2632 388.877 7.643 389.339 8.03455C389.801 8.41826 390.204 8.82156 390.549 9.24443C390.893 9.6673 391.159 10.1176 391.347 10.5953C391.535 11.073 391.629 11.5859 391.629 12.134C391.629 13.3165 391.359 14.2445 390.819 14.9179C390.278 15.5836 389.507 16.0534 388.505 16.3275C387.51 16.5938 386.324 16.7269 384.946 16.7269H382.103V13.5671H384.934C385.803 13.5671 386.52 13.528 387.083 13.4496C387.655 13.3635 388.082 13.2147 388.364 13.0033C388.646 12.7918 388.787 12.4864 388.787 12.0871C388.787 11.8443 388.661 11.578 388.411 11.2883C388.16 10.9986 387.831 10.6971 387.424 10.3838C387.017 10.0706 386.571 9.75735 386.085 9.44412C385.607 9.13088 385.13 8.82156 384.652 8.51615C384.182 8.21074 383.759 7.921 383.383 7.64691C383.078 7.41199 382.839 7.11833 382.667 6.76593C382.502 6.41354 382.42 6.0494 382.42 5.67352C382.42 5.25065 382.522 4.84735 382.726 4.46364C382.937 4.07992 383.246 3.80975 383.653 3.65313L392.604 0V3.1128L386.062 5.76749ZM400.921 0.199689H403.893V11.1473C403.893 12.0322 404.026 12.6587 404.292 13.0268C404.558 13.387 405.079 13.5671 405.854 13.5671H406.136V16.7269H405.854C404.155 16.7269 402.906 16.2844 402.107 15.3995C401.316 14.5147 400.921 13.1716 400.921 11.3705V0.199689ZM413.372 10.3486C413.035 10.3486 412.73 10.4621 412.456 10.6892C412.189 10.9163 411.951 11.1943 411.739 11.5232C411.536 11.8443 411.363 12.1575 411.222 12.4629C411.449 12.6822 411.669 12.8741 411.88 13.0385C412.099 13.1951 412.303 13.3283 412.491 13.4379C412.781 13.6023 413.047 13.7198 413.29 13.7903C413.54 13.8608 413.76 13.896 413.947 13.896C414.394 13.896 414.715 13.7472 414.911 13.4496C415.114 13.1521 415.216 12.7918 415.216 12.369C415.216 11.813 415.052 11.3392 414.723 10.9477C414.394 10.5483 413.944 10.3486 413.372 10.3486ZM413.936 16.9971C413.395 16.9971 412.882 16.9187 412.397 16.7621C411.911 16.6055 411.438 16.3862 410.976 16.1043C410.521 15.8224 410.063 15.4974 409.601 15.1294C409.312 15.4348 409.018 15.7089 408.72 15.9516C408.423 16.1866 408.078 16.3745 407.687 16.5155C407.295 16.6564 406.802 16.7269 406.207 16.7269H405.713V13.5671H406.148C406.563 13.5671 406.927 13.4183 407.24 13.1207C407.554 12.8232 407.855 12.4395 408.145 11.9696C408.435 11.4919 408.732 10.9907 409.037 10.4661C409.351 9.93355 409.699 9.42845 410.083 8.95077C410.467 8.47308 410.917 8.08545 411.434 7.78787C411.951 7.4903 412.565 7.34151 413.278 7.34151C414.241 7.34151 415.075 7.57252 415.78 8.03455C416.493 8.48874 417.041 9.09172 417.424 9.84349C417.808 10.5953 418 11.4175 418 12.3102C418 13.2186 417.847 14.0252 417.542 14.73C417.236 15.4348 416.782 15.9908 416.179 16.398C415.584 16.7974 414.836 16.9971 413.936 16.9971Z" fill="#212121"/>
<line x1="273.644" y1="15.7245" x2="1.00236" y2="15.7245" stroke="#1967D2" stroke-width="2" stroke-linecap="round"/>
</svg>
