<svg width="374" height="26" viewBox="0 0 374 26" fill="none" xmlns="http://www.w3.org/2000/svg">
<path d="M244.315 8.11928L246.348 10.152L244.315 12.1848L242.282 10.152L244.315 8.11928ZM244.468 21.0678C245.627 21.0678 246.539 20.8798 247.205 20.5038C247.871 20.1278 248.341 19.6226 248.615 18.9881C248.897 18.3536 249.038 17.6447 249.038 16.8613C249.038 15.9996 248.905 15.1184 248.639 14.2176C248.372 13.3167 248.083 12.4825 247.769 11.7148L250.683 10.6103C251.122 11.754 251.431 12.8193 251.612 13.8063C251.8 14.7855 251.894 15.7725 251.894 16.7673C251.894 18.2792 251.615 19.5873 251.059 20.6918C250.503 21.8042 249.673 22.6619 248.568 23.2651C247.472 23.8761 246.105 24.1816 244.468 24.1816C242.776 24.1816 241.389 23.8604 240.308 23.2181C239.235 22.5836 238.44 21.718 237.923 20.6213C237.414 19.5247 237.159 18.2948 237.159 16.9318C237.159 16.0153 237.257 15.0714 237.453 14.1001C237.656 13.1209 237.942 12.1535 238.31 11.1978L240.978 12.2318C240.704 13.0308 240.472 13.8259 240.284 14.6171C240.096 15.4004 240.002 16.1367 240.002 16.8261C240.002 17.6016 240.136 18.3105 240.402 18.9528C240.676 19.5952 241.138 20.1082 241.788 20.4921C242.439 20.8759 243.332 21.0678 244.468 21.0678ZM254.514 2.45576H257.487V13.4068C257.487 14.292 257.62 14.9186 257.886 15.2868C258.152 15.6471 258.673 15.8273 259.449 15.8273H259.731V18.9881H259.449C257.749 18.9881 256.5 18.5455 255.701 17.6603C254.909 16.7751 254.514 15.4317 254.514 13.6301V2.45576ZM259.261 15.8273H260.201V18.9881H259.261V15.8273ZM263.538 20.5626L265.477 22.4896L263.538 24.4401L261.599 22.4896L263.538 20.5626ZM259.566 20.5626L261.529 22.4896L259.566 24.4401L257.651 22.4896L259.566 20.5626ZM261.235 18.9881H259.931V15.8273H261.211C261.971 15.8273 262.527 15.6902 262.88 15.4161C263.24 15.1341 263.42 14.621 263.42 13.8768C263.42 13.446 263.373 12.8859 263.279 12.1965C263.193 11.5072 263.04 10.7395 262.821 9.89354L265.665 9.12978C265.86 9.89745 266.005 10.6534 266.099 11.3975C266.201 12.1339 266.252 12.8389 266.252 13.5126C266.252 14.6092 266.095 15.5688 265.782 16.3913C265.469 17.206 264.948 17.8444 264.219 18.3066C263.491 18.7609 262.496 18.9881 261.235 18.9881ZM268.872 2.45576H271.845V13.4068C271.845 14.292 271.978 14.9186 272.245 15.2868C272.511 15.6471 273.032 15.8273 273.807 15.8273H274.089V18.9881H273.807C272.108 18.9881 270.858 18.5455 270.059 17.6603C269.268 16.7751 268.872 15.4317 268.872 13.6301V2.45576ZM281.327 12.6078C280.991 12.6078 280.685 12.7214 280.411 12.9485C280.145 13.1757 279.906 13.4538 279.694 13.7828C279.49 14.104 279.318 14.4173 279.177 14.7228C279.404 14.9421 279.624 15.1341 279.835 15.2986C280.054 15.4552 280.258 15.5884 280.446 15.6981C280.736 15.8626 281.002 15.9801 281.245 16.0506C281.496 16.1211 281.715 16.1563 281.903 16.1563C282.35 16.1563 282.671 16.0075 282.867 15.7098C283.07 15.4121 283.172 15.0518 283.172 14.6288C283.172 14.0726 283.008 13.5987 282.679 13.2071C282.35 12.8075 281.899 12.6078 281.327 12.6078ZM281.891 19.2583C281.351 19.2583 280.838 19.18 280.352 19.0233C279.866 18.8667 279.393 18.6473 278.93 18.3653C278.476 18.0833 278.018 17.7582 277.556 17.3901C277.266 17.6956 276.972 17.9697 276.674 18.2126C276.377 18.4476 276.032 18.6356 275.64 18.7766C275.249 18.9176 274.755 18.9881 274.16 18.9881H273.666V15.8273H274.101C274.516 15.8273 274.881 15.6785 275.194 15.3808C275.507 15.0831 275.809 14.6993 276.099 14.2293C276.388 13.7515 276.686 13.2501 276.992 12.7253C277.305 12.1926 277.654 11.6874 278.037 11.2095C278.421 10.7317 278.872 10.344 279.389 10.0463C279.906 9.74862 280.521 9.59979 281.233 9.59979C282.197 9.59979 283.031 9.83087 283.736 10.293C284.449 10.7474 284.997 11.3505 285.381 12.1025C285.765 12.8545 285.957 13.6771 285.957 14.5701C285.957 15.4787 285.804 16.2856 285.499 16.9906C285.193 17.6956 284.739 18.2517 284.136 18.6591C283.54 19.0586 282.792 19.2583 281.891 19.2583ZM294.417 18.9881C294.041 18.9881 293.692 18.945 293.371 18.8588C293.05 18.7727 292.784 18.663 292.572 18.5298C292.384 19.697 291.996 20.7467 291.409 21.6788C290.821 22.611 290.034 23.3904 289.047 24.0171C288.068 24.6516 286.889 25.1059 285.51 25.3801L284.429 22.4896C285.589 22.2311 286.572 21.8864 287.379 21.4556C288.193 21.0326 288.812 20.4725 289.235 19.7753C289.658 19.0782 289.87 18.2087 289.87 17.1668C289.87 16.4618 289.764 15.6785 289.552 14.8168C289.349 13.9551 289.118 13.1444 288.859 12.3845L291.773 11.421L292.455 14.0413C292.596 14.5818 292.803 15.0166 293.077 15.3456C293.359 15.6667 293.763 15.8273 294.288 15.8273H294.734V18.9881H294.417ZM299.634 0L301.667 2.03276L299.634 4.06552L297.601 2.03276L299.634 0ZM300.01 11.7265C300.323 11.7265 300.637 11.707 300.95 11.6678C301.263 11.6286 301.573 11.5738 301.878 11.5033C301.831 11.1978 301.757 10.8727 301.655 10.528C301.561 10.1834 301.436 9.8622 301.279 9.56454C301.122 9.26687 300.934 9.02403 300.715 8.83603C300.496 8.64803 300.233 8.55403 299.928 8.55403C299.575 8.55403 299.278 8.67153 299.035 8.90653C298.792 9.1337 298.612 9.41179 298.494 9.74079C298.377 10.0698 298.318 10.391 298.318 10.7043C298.318 11.143 298.479 11.425 298.8 11.5503C299.121 11.6678 299.524 11.7265 300.01 11.7265ZM298.741 15.8273C299.454 15.8273 300.045 15.7921 300.515 15.7216C300.985 15.6511 301.342 15.5061 301.584 15.2868C301.835 15.0596 301.96 14.7071 301.96 14.2293C301.663 14.2998 301.349 14.3546 301.02 14.3938C300.691 14.4251 300.359 14.4408 300.022 14.4408C298.651 14.4408 297.574 14.1549 296.79 13.5831C296.007 13.0112 295.615 12.0947 295.615 10.8335C295.615 10.2069 295.713 9.5802 295.909 8.95353C296.105 8.32686 296.391 7.75503 296.767 7.23803C297.143 6.71319 297.597 6.29411 298.13 5.98077C298.67 5.66744 299.278 5.51077 299.951 5.51077C300.836 5.51077 301.581 5.73011 302.184 6.16877C302.795 6.59961 303.288 7.17928 303.664 7.90778C304.048 8.63628 304.326 9.45095 304.498 10.3518C304.671 11.2526 304.757 12.1652 304.757 13.0895C304.757 14.2959 304.636 15.2868 304.393 16.0623C304.15 16.83 303.778 17.4292 303.276 17.8601C302.783 18.2831 302.148 18.5768 301.373 18.7413C300.597 18.9058 299.673 18.9881 298.6 18.9881H294.299V15.8273H298.741ZM304.592 25.3801L303.488 22.4896C304.647 22.2311 305.63 21.8864 306.437 21.4556C307.252 21.0326 307.871 20.4725 308.294 19.7753C308.717 19.0782 308.928 18.2087 308.928 17.1668C308.928 16.4618 308.823 15.6785 308.611 14.8168C308.407 13.9551 308.176 13.1444 307.918 12.3845L310.844 11.421C311.149 12.267 311.38 13.164 311.537 14.1118C311.693 15.0596 311.772 15.9683 311.772 16.8378C311.772 18.4202 311.482 19.7949 310.902 20.9621C310.323 22.1371 309.496 23.0928 308.423 23.8291C307.35 24.5654 306.073 25.0824 304.592 25.3801ZM314.369 2.45576H317.341V13.4068C317.341 14.292 317.474 14.9186 317.741 15.2868C318.007 15.6471 318.528 15.8273 319.304 15.8273H319.586V18.9881H319.304C317.604 18.9881 316.354 18.5455 315.555 17.6603C314.764 16.7751 314.369 15.4317 314.369 13.6301V2.45576ZM323.122 8.02528C323.733 8.40912 324.317 8.78512 324.873 9.15328C325.429 9.52145 325.938 9.90137 326.401 10.293C326.863 10.6769 327.266 11.0803 327.611 11.5033C327.955 11.9263 328.222 12.3767 328.41 12.8545C328.598 13.3324 328.692 13.8455 328.692 14.3938C328.692 15.5766 328.422 16.5049 327.881 17.1786C327.341 17.8444 326.569 18.3144 325.566 18.5886C324.571 18.8549 323.385 18.9881 322.006 18.9881H319.163V15.8273H321.994C322.864 15.8273 323.581 15.7881 324.145 15.7098C324.716 15.6236 325.143 15.4748 325.425 15.2633C325.707 15.0518 325.848 14.7463 325.848 14.3468C325.848 14.104 325.723 13.8376 325.472 13.5478C325.222 13.258 324.893 12.9564 324.485 12.643C324.078 12.3297 323.631 12.0164 323.146 11.703C322.668 11.3897 322.19 11.0803 321.712 10.7748C321.242 10.4693 320.819 10.1795 320.443 9.90529C320.138 9.67029 319.899 9.37654 319.727 9.02403C319.562 8.67153 319.48 8.30728 319.48 7.93128C319.48 7.50828 319.582 7.10486 319.785 6.72103C319.997 6.33719 320.306 6.06694 320.714 5.91027L329.667 2.25601V5.36977L323.122 8.02528ZM344.695 24.9101C343.003 24.9101 341.617 24.5889 340.536 23.9466C339.463 23.3121 338.668 22.4465 338.151 21.3498C337.641 20.261 337.387 19.0312 337.387 17.6603C337.387 16.7438 337.485 15.7999 337.681 14.8286C337.884 13.8494 338.17 12.882 338.538 11.9263L341.206 12.9603C340.931 13.7671 340.7 14.5661 340.512 15.3573C340.324 16.1406 340.23 16.877 340.23 17.5663C340.23 18.334 340.364 19.039 340.63 19.6813C340.904 20.3237 341.366 20.8367 342.016 21.2206C342.667 21.6044 343.56 21.7963 344.695 21.7963C345.573 21.7963 346.344 21.7141 347.01 21.5496C347.676 21.3929 348.228 21.1853 348.667 20.9268C349.106 20.6762 349.435 20.4098 349.654 20.1278C349.881 19.8458 349.995 19.5873 349.995 19.3523C349.995 19.2113 349.955 19.0938 349.877 18.9998C349.799 18.9137 349.658 18.8706 349.454 18.8706H347.551C347.112 18.8706 346.677 18.8275 346.246 18.7413C345.823 18.6473 345.436 18.4711 345.083 18.2126C344.738 17.9462 344.46 17.5663 344.249 17.0728C344.045 16.5793 343.943 15.937 343.943 15.1458C343.943 14.339 344.073 13.5635 344.331 12.8193C344.597 12.0751 344.973 11.4093 345.459 10.8218C345.953 10.2343 346.544 9.77212 347.233 9.43529C347.923 9.09845 348.694 8.93003 349.548 8.93003C350.096 8.93003 350.645 9.01228 351.193 9.17678C351.741 9.33345 352.251 9.5802 352.721 9.91704L351.722 12.6783C351.322 12.4668 350.942 12.318 350.582 12.2318C350.222 12.1456 349.881 12.1025 349.56 12.1025C348.98 12.1025 348.479 12.2357 348.056 12.502C347.641 12.7684 347.323 13.1287 347.104 13.5831C346.885 14.0374 346.775 14.5544 346.775 15.1341C346.775 15.3691 346.842 15.5257 346.975 15.6041C347.116 15.6824 347.312 15.7216 347.562 15.7216H349.337C350.198 15.7216 350.876 15.8626 351.369 16.1446C351.863 16.4187 352.212 16.8026 352.415 17.2961C352.619 17.7817 352.721 18.3418 352.721 18.9763C352.721 20.0495 352.415 21.0365 351.804 21.9373C351.193 22.8382 350.288 23.5588 349.09 24.0993C347.899 24.6398 346.434 24.9101 344.695 24.9101ZM358.243 2.45576V18.9763H355.259V2.45576H358.243ZM367.573 18.9881C367.197 18.9881 366.848 18.945 366.527 18.8588C366.206 18.7727 365.939 18.663 365.728 18.5298C365.54 19.697 365.152 20.7467 364.565 21.6788C363.977 22.611 363.19 23.3904 362.203 24.0171C361.224 24.6516 360.045 25.1059 358.666 25.3801L357.585 22.4896C358.745 22.2311 359.728 21.8864 360.534 21.4556C361.349 21.0326 361.968 20.4725 362.391 19.7753C362.814 19.0782 363.025 18.2087 363.025 17.1668C363.025 16.4618 362.92 15.6785 362.708 14.8168C362.505 13.9551 362.273 13.1444 362.015 12.3845L364.929 11.421L365.61 14.0413C365.751 14.5818 365.959 15.0166 366.233 15.3456C366.515 15.6667 366.919 15.8273 367.443 15.8273H367.89V18.9881H367.573ZM367.42 15.8273H367.984V18.9881H367.42V15.8273ZM369.84 20.4568L371.873 22.4896L369.84 24.5223L367.808 22.4896L369.84 20.4568ZM368.983 18.9881H367.678V15.8273H368.959C369.719 15.8273 370.275 15.6902 370.628 15.4161C370.988 15.1341 371.168 14.621 371.168 13.8768C371.168 13.446 371.121 12.8859 371.027 12.1965C370.941 11.5072 370.788 10.7395 370.569 9.89354L373.412 9.12978C373.608 9.89745 373.753 10.6534 373.847 11.3975C373.949 12.1339 374 12.8389 374 13.5126C374 14.6092 373.843 15.5688 373.53 16.3913C373.217 17.206 372.696 17.8444 371.967 18.3066C371.239 18.7609 370.244 18.9881 368.983 18.9881Z" fill="#212121"/>
<line x1="223.596" y1="17.9854" x2="1.00267" y2="17.9854" stroke="#1967D2" stroke-width="2" stroke-linecap="round"/>
</svg>
