<svg width="144" height="32" viewBox="0 0 144 32" fill="none" xmlns="http://www.w3.org/2000/svg">
<path d="M8.82407 3.37079L10.183 4.72088L8.82407 6.08861L7.48281 4.72088L8.82407 3.37079ZM5.87683 3.37079L7.23574 4.72088L5.87683 6.08861L4.52675 4.72088L5.87683 3.37079ZM12.4772 6.68865L14.2685 6.46804L14.4362 8.74465C14.4715 9.25645 14.6156 9.67118 14.8686 9.98885C15.1215 10.3006 15.5127 10.4565 16.0422 10.4565H16.2363V12.4772H16.0422C15.3774 12.4772 14.8244 12.3537 14.3832 12.1066C13.9479 11.8537 13.5891 11.4772 13.3067 10.9771C12.9714 11.336 12.5802 11.6242 12.1331 11.8419C11.686 12.0596 11.1507 12.2213 10.5271 12.3272C9.90943 12.4272 9.16821 12.4772 8.30345 12.4772H6.82983C5.75918 12.4772 4.80029 12.3978 3.95318 12.239C3.11196 12.0743 2.39721 11.8154 1.80893 11.4625C1.22066 11.1095 0.770635 10.6536 0.458852 10.0947C0.152951 9.53 0 8.84172 0 8.0299C0 7.57105 0.0500031 7.12397 0.150009 6.68865C0.255898 6.24744 0.388259 5.83271 0.547092 5.44445L2.24131 6.07978C2.14719 6.34451 2.05895 6.64158 1.97659 6.97102C1.90012 7.29456 1.86188 7.60341 1.86188 7.89754C1.86188 8.38581 1.97659 8.79466 2.20602 9.12409C2.44133 9.45352 2.7737 9.7153 3.20314 9.90943C3.63846 10.1036 4.15908 10.2447 4.765 10.333C5.3768 10.4153 6.06508 10.4565 6.82983 10.4565H8.30345C9.20351 10.4565 9.96826 10.3918 10.5977 10.2624C11.233 10.1271 11.7184 9.91237 12.0537 9.61824C12.389 9.3241 12.5567 8.9329 12.5567 8.44464C12.5567 8.17403 12.5449 7.87695 12.5214 7.5534C12.5037 7.22985 12.489 6.9416 12.4772 6.68865ZM15.8833 10.4565H16.5893V12.4772H15.8833V10.4565ZM19.0776 13.7567L20.4365 15.1068L19.0776 16.4745L17.7364 15.1068L19.0776 13.7567ZM16.1304 13.7567L17.4893 15.1068L16.1304 16.4745L14.7803 15.1068L16.1304 13.7567ZM17.3658 12.4772H16.3951V10.4565H17.3481C18.0188 10.4565 18.4864 10.3212 18.7511 10.0506C19.0218 9.78001 19.1571 9.3594 19.1571 8.78877C19.1571 8.45934 19.1218 8.04461 19.0512 7.54458C18.9865 7.03867 18.8776 6.5004 18.7247 5.92978L20.5777 5.43563C20.7248 5.95919 20.8307 6.49452 20.8954 7.04161C20.9601 7.5887 20.9925 8.09755 20.9925 8.56817C20.9925 9.33881 20.8836 10.0183 20.666 10.6065C20.4542 11.1889 20.0836 11.6478 19.5541 11.9831C19.0306 12.3125 18.3011 12.4772 17.3658 12.4772ZM23.0838 0.141185H24.9898V8.5064C24.9898 9.24763 25.1133 9.75942 25.3604 10.0418C25.6075 10.3183 26.031 10.4565 26.631 10.4565H26.8428V12.4772H26.631C25.4192 12.4772 24.525 12.1625 23.9485 11.5331C23.372 10.8977 23.0838 9.91825 23.0838 8.59464V0.141185ZM32.5696 12.4772C31.9284 12.4772 31.4166 12.3684 31.0343 12.1507C30.6519 11.9272 30.343 11.6213 30.1077 11.233C29.8077 11.6272 29.4253 11.9331 28.9606 12.1507C28.4959 12.3684 27.8899 12.4772 27.1428 12.4772H26.5252V10.4565H27.1605C27.8664 10.4565 28.39 10.3124 28.7312 10.0241C29.0783 9.73001 29.2518 9.24174 29.2518 8.55935C29.2518 8.45934 29.2459 8.33286 29.2341 8.17991C29.2283 8.02696 29.2165 7.85048 29.1988 7.65047C29.1871 7.44457 29.1724 7.22397 29.1547 6.98866L30.9548 6.76806L31.1137 8.80642C31.1313 9.10644 31.196 9.38293 31.3078 9.63588C31.4255 9.88296 31.5902 10.083 31.8019 10.2359C32.0137 10.383 32.2755 10.4565 32.5873 10.4565C33.152 10.4565 33.555 10.2859 33.7962 9.94473C34.0374 9.60353 34.158 9.14174 34.158 8.55935C34.158 8.46522 34.155 8.34169 34.1492 8.18874C34.1433 8.0299 34.1315 7.85048 34.1139 7.65047C34.0962 7.44457 34.0786 7.22397 34.0609 6.98866L35.861 6.76806L36.0199 8.80642C36.0375 9.08879 36.0934 9.35646 36.1875 9.60941C36.2875 9.86237 36.4316 10.0683 36.6199 10.2271C36.8081 10.38 37.0464 10.4565 37.3346 10.4565C37.6052 10.4565 37.8229 10.3771 37.9876 10.2183C38.1582 10.0536 38.2818 9.8359 38.3582 9.56529C38.4406 9.2888 38.4818 8.9829 38.4818 8.64759C38.4818 8.27698 38.4406 7.86225 38.3582 7.40339C38.2759 6.93866 38.17 6.47393 38.0406 6.00919L39.8936 5.52387C40.0348 6.01802 40.1378 6.51216 40.2025 7.00631C40.2731 7.49458 40.3084 7.97696 40.3084 8.45346C40.3084 9.1888 40.2142 9.85943 40.026 10.4653C39.8436 11.0713 39.5377 11.5566 39.1083 11.9213C38.6788 12.286 38.0965 12.4714 37.3611 12.4772C36.814 12.4772 36.3552 12.3655 35.9846 12.1419C35.6198 11.9125 35.3228 11.6066 35.0933 11.2242C34.7757 11.6301 34.3962 11.9419 33.955 12.1596C33.5197 12.3713 33.0579 12.4772 32.5696 12.4772ZM55.3269 12.4772H53.4562C52.3856 12.4772 51.4267 12.3978 50.5796 12.239C49.7383 12.0743 49.0236 11.8154 48.4353 11.4625C47.847 11.1095 47.397 10.6536 47.0852 10.0947C46.7793 9.53 46.6264 8.84172 46.6264 8.0299C46.6264 7.57105 46.6764 7.12397 46.7764 6.68865C46.8823 6.24744 47.0146 5.83271 47.1735 5.44445L48.8677 6.07978C48.7736 6.34451 48.6853 6.64158 48.603 6.97102C48.5265 7.29456 48.4883 7.60341 48.4883 7.89754C48.4883 8.38581 48.603 8.79466 48.8324 9.12409C49.0677 9.45352 49.4001 9.7153 49.8295 9.90943C50.2648 10.1036 50.7855 10.2447 51.3914 10.333C52.0032 10.4153 52.6915 10.4565 53.4562 10.4565H55.3446C55.7564 10.4565 56.1829 10.4418 56.6241 10.4124C57.0653 10.383 57.4771 10.3153 57.8594 10.2094C58.2477 10.0977 58.5595 9.92708 58.7948 9.69765C59.036 9.46823 59.1566 9.15644 59.1566 8.7623C59.1566 8.4917 59.1183 8.09167 59.0419 7.56223C58.9713 7.0269 58.8654 6.48863 58.7242 5.94742L60.5684 5.44445C60.6684 5.74447 60.7508 6.09449 60.8155 6.49452C60.8802 6.89454 60.9273 7.2828 60.9567 7.65929C60.9861 8.03579 61.0008 8.33286 61.0008 8.55052C61.0008 9.37999 60.8478 10.0536 60.5419 10.5712C60.2419 11.083 59.8243 11.4772 59.2889 11.7537C58.7595 12.0301 58.1536 12.2213 57.4712 12.3272C56.7947 12.4272 56.0799 12.4772 55.3269 12.4772ZM55.3534 3.37079L56.7123 4.72088L55.3534 6.08861L54.0121 4.72088L55.3534 3.37079ZM52.4062 3.37079L53.7651 4.72088L52.4062 6.08861L51.0561 4.72088L52.4062 3.37079ZM64.9981 0.141185V12.4684H63.1009V0.141185H64.9981ZM71.9956 12.4772C71.6544 12.4772 71.3544 12.4361 71.0955 12.3537C70.8426 12.2655 70.6396 12.1655 70.4867 12.0537C70.369 12.8831 70.1131 13.6538 69.719 14.3656C69.3248 15.0774 68.7719 15.6833 68.0601 16.1833C67.3541 16.6834 66.4629 17.0393 65.3864 17.2511L64.7157 15.4333C65.6276 15.2333 66.3776 14.948 66.9659 14.5774C67.56 14.2126 68.0012 13.7538 68.2895 13.2008C68.5777 12.6537 68.7219 12.0037 68.7219 11.2507C68.7219 10.733 68.6542 10.1742 68.5189 9.57412C68.3836 8.97408 68.2189 8.38581 68.0248 7.8093L69.8866 7.19162L70.3808 9.10644C70.4984 9.55353 70.6779 9.89178 70.9191 10.1212C71.1602 10.3448 71.4867 10.4565 71.8985 10.4565H72.225V12.4772H71.9956ZM71.8721 10.4565H72.2956V12.4772H71.8721V10.4565ZM73.6898 13.695L75.1017 15.1068L73.6898 16.5187L72.278 15.1068L73.6898 13.695ZM73.0457 12.4772H72.075V10.4565H73.028C73.6986 10.4565 74.1663 10.3212 74.431 10.0506C74.7016 9.78001 74.8369 9.3594 74.8369 8.78877C74.8369 8.45934 74.8016 8.04461 74.731 7.54458C74.6663 7.03867 74.5575 6.5004 74.4046 5.92978L76.2576 5.43563C76.4047 5.95919 76.5106 6.49452 76.5753 7.04161C76.64 7.5887 76.6723 8.09755 76.6723 8.56817C76.6723 9.33881 76.5635 10.0183 76.3459 10.6065C76.1341 11.1889 75.7635 11.6478 75.234 11.9831C74.7105 12.3125 73.981 12.4772 73.0457 12.4772ZM77.4665 17.2511L76.7871 15.4333C77.6989 15.2333 78.4489 14.948 79.0372 14.5774C79.6313 14.2126 80.0726 13.7538 80.3608 13.2008C80.6491 12.6537 80.7932 12.0037 80.7932 11.2507C80.7932 10.733 80.7255 10.1742 80.5902 9.57412C80.4549 8.97408 80.2902 8.38581 80.0961 7.8093L81.958 7.19162C82.1756 7.8093 82.3403 8.44464 82.4521 9.09762C82.5698 9.7506 82.6286 10.383 82.6286 10.9948C82.6286 12.089 82.4315 13.0655 82.0374 13.9244C81.6432 14.7833 81.0638 15.498 80.299 16.0686C79.5343 16.6393 78.5901 17.0334 77.4665 17.2511ZM84.7111 0.141185H86.6171V8.5064C86.6171 9.24763 86.7406 9.75942 86.9877 10.0418C87.2348 10.3183 87.6583 10.4565 88.2583 10.4565H88.4701V12.4772H88.2583C87.0465 12.4772 86.1523 12.1625 85.5758 11.5331C84.9993 10.8977 84.7111 9.91825 84.7111 8.59464V0.141185ZM90.7291 4.09437C91.1644 4.38262 91.5968 4.67382 92.0262 4.96795C92.4557 5.26209 92.8586 5.56505 93.2351 5.87683C93.6116 6.18861 93.944 6.51805 94.2322 6.86513C94.5264 7.21221 94.7558 7.57988 94.9205 7.96814C95.0852 8.35051 95.1676 8.75936 95.1676 9.19468C95.1676 10.0124 94.9823 10.6595 94.6117 11.136C94.2411 11.6125 93.691 11.9566 92.9616 12.1684C92.238 12.3743 91.3468 12.4772 90.2879 12.4772H88.1525V10.4565H90.2791C90.985 10.4565 91.5586 10.4212 91.9998 10.3506C92.4468 10.2742 92.7763 10.1418 92.9881 9.95355C93.2057 9.7653 93.3145 9.50058 93.3145 9.15938C93.3145 8.91819 93.2204 8.67112 93.0322 8.41816C92.8498 8.15932 92.6057 7.90048 92.2998 7.64164C91.9939 7.37692 91.6586 7.11808 91.2938 6.86513C90.9291 6.60629 90.5614 6.35039 90.1908 6.09743C89.8202 5.84448 89.479 5.5974 89.1672 5.35621C88.9555 5.19149 88.7907 5.00031 88.6731 4.78265C88.5554 4.5591 88.4966 4.32379 88.4966 4.07672C88.4966 3.79435 88.5731 3.51786 88.726 3.24726C88.879 2.97665 89.0996 2.78252 89.3878 2.66487L95.9353 0V1.98542L90.7291 4.09437ZM110.636 12.4772H108.765C107.695 12.4772 106.736 12.3978 105.889 12.239C105.048 12.0743 104.333 11.8154 103.745 11.4625C103.156 11.1095 102.706 10.6536 102.395 10.0947C102.089 9.53 101.936 8.84172 101.936 8.0299C101.936 7.57105 101.986 7.12397 102.086 6.68865C102.192 6.24744 102.324 5.83271 102.483 5.44445L104.177 6.07978C104.083 6.34451 103.995 6.64158 103.912 6.97102C103.836 7.29456 103.798 7.60341 103.798 7.89754C103.798 8.38581 103.912 8.79466 104.142 9.12409C104.377 9.45352 104.709 9.7153 105.139 9.90943C105.574 10.1036 106.095 10.2447 106.701 10.333C107.312 10.4153 108.001 10.4565 108.765 10.4565H110.654C111.066 10.4565 111.492 10.4418 111.933 10.4124C112.375 10.383 112.786 10.3153 113.169 10.2094C113.557 10.0977 113.869 9.92708 114.104 9.69765C114.345 9.46823 114.466 9.15644 114.466 8.7623C114.466 8.4917 114.428 8.09167 114.351 7.56223C114.281 7.0269 114.175 6.48863 114.033 5.94742L115.878 5.44445C115.978 5.74447 116.06 6.09449 116.125 6.49452C116.189 6.89454 116.237 7.2828 116.266 7.65929C116.295 8.03579 116.31 8.33286 116.31 8.55052C116.31 9.37999 116.157 10.0536 115.851 10.5712C115.551 11.083 115.134 11.4772 114.598 11.7537C114.069 12.0301 113.463 12.2213 112.78 12.3272C112.104 12.4272 111.389 12.4772 110.636 12.4772ZM110.663 3.37079L112.022 4.72088L110.663 6.08861L109.321 4.72088L110.663 3.37079ZM107.715 3.37079L109.074 4.72088L107.715 6.08861L106.365 4.72088L107.715 3.37079ZM120.307 0.141185V12.4684H118.41V0.141185H120.307ZM127.305 12.4772C126.964 12.4772 126.664 12.4361 126.405 12.3537C126.152 12.2655 125.949 12.1655 125.796 12.0537C125.678 12.8831 125.422 13.6538 125.028 14.3656C124.634 15.0774 124.081 15.6833 123.369 16.1833C122.663 16.6834 121.772 17.0393 120.696 17.2511L120.025 15.4333C120.937 15.2333 121.687 14.948 122.275 14.5774C122.869 14.2126 123.31 13.7538 123.599 13.2008C123.887 12.6537 124.031 12.0037 124.031 11.2507C124.031 10.733 123.963 10.1742 123.828 9.57412C123.693 8.97408 123.528 8.38581 123.334 7.8093L125.196 7.19162L125.69 9.10644C125.808 9.55353 125.987 9.89178 126.228 10.1212C126.47 10.3448 126.796 10.4565 127.208 10.4565H127.534V12.4772H127.305ZM134.726 0.635333L136.138 2.04718L134.726 3.45904L133.314 2.04718L134.726 0.635333ZM134.885 6.97102C134.538 6.97102 134.185 7.05337 133.826 7.21809C133.473 7.38281 133.114 7.61811 132.749 7.92401C132.39 8.22992 132.032 8.59759 131.673 9.02702C131.32 9.45646 130.973 9.93296 130.632 10.4565H131.787C132.523 10.4565 133.182 10.4242 133.764 10.3595C134.352 10.2947 134.852 10.1918 135.264 10.0506C135.676 9.90355 135.991 9.70942 136.208 9.46823C136.432 9.22704 136.544 8.92996 136.544 8.577C136.544 8.10638 136.388 7.72106 136.076 7.42104C135.77 7.12102 135.373 6.97102 134.885 6.97102ZM134.841 4.97678C135.541 4.97678 136.161 5.12973 136.702 5.43563C137.244 5.73565 137.667 6.14744 137.973 6.671C138.279 7.18868 138.432 7.78283 138.432 8.45346C138.432 8.77701 138.388 9.10644 138.3 9.44176C138.211 9.77707 138.076 10.0741 137.894 10.333C137.994 10.3565 138.111 10.3771 138.247 10.3948C138.388 10.4124 138.556 10.4271 138.75 10.4389C138.95 10.4506 139.191 10.4565 139.473 10.4565H139.729V12.4772H139.482C138.753 12.4772 138.141 12.3949 137.647 12.2302C137.158 12.0596 136.741 11.8419 136.394 11.5772C135.852 11.8537 135.188 12.0743 134.399 12.239C133.617 12.3978 132.738 12.4772 131.761 12.4772H127.208V10.4565H128.584C128.684 10.2918 128.781 10.1359 128.876 9.98885C128.976 9.8359 129.078 9.68 129.184 9.52117V0.141185H131.082V7.01514C131.382 6.6857 131.679 6.39451 131.973 6.14155C132.273 5.8886 132.576 5.67682 132.882 5.50622C133.193 5.32974 133.508 5.19738 133.826 5.10914C134.149 5.0209 134.488 4.97678 134.841 4.97678ZM140.373 12.4772H139.403V10.4565H140.356C141.026 10.4565 141.494 10.3212 141.759 10.0506C142.029 9.78001 142.165 9.3594 142.165 8.78877C142.165 8.45934 142.129 8.04461 142.059 7.54458C141.994 7.03867 141.885 6.5004 141.732 5.92978L143.585 5.43563C143.732 5.95919 143.838 6.49452 143.903 7.04161C143.968 7.5887 144 8.09755 144 8.56817C144 9.33881 143.891 10.0183 143.674 10.6065C143.462 11.1889 143.091 11.6478 142.562 11.9831C142.038 12.3125 141.309 12.4772 140.373 12.4772ZM141.865 1.43832L143.276 2.85017L141.865 4.26203L140.453 2.85017L141.865 1.43832Z" fill="#212121"/>
<path d="M104.661 30.5489L36.3905 30.5489" stroke="#1967D2" stroke-width="2" stroke-linecap="round"/>
</svg>
