<svg width="36" height="36" viewBox="0 0 36 36" fill="none" xmlns="http://www.w3.org/2000/svg">
<path d="M12.66 24.6766C11.3148 25.9166 9.54204 26.5883 7.71282 26.5511C5.8836 26.5139 4.13965 25.7706 2.84593 24.4769C1.5522 23.1832 0.80897 21.4392 0.771757 19.61C0.734544 17.7808 1.40624 16.0081 2.64627 14.6628L14.6628 2.64627C16.0081 1.40624 17.7808 0.734544 19.61 0.771757C21.4392 0.80897 23.1832 1.5522 24.4769 2.84593C25.7706 4.13965 26.5139 5.8836 26.5511 7.71282C26.5883 9.54204 25.9166 11.3148 24.6766 12.66M8.65299 8.65299L15.2005 15.2005" stroke="#424242" stroke-width="1.5" stroke-linecap="round" stroke-linejoin="round"/>
<path d="M25.9863 22.5199V29.4525M22.52 25.9862H29.4526M35.2297 23.6754C35.2349 26.366 34.3216 28.9778 32.6408 31.0788C30.96 33.1798 28.6124 34.6442 25.9863 35.2297C23.3601 34.6442 21.0125 33.1798 19.3317 31.0788C17.6509 28.9778 16.7376 26.366 16.7428 23.6754V20.2091C16.7428 19.5962 16.9863 19.0084 17.4196 18.575C17.853 18.1417 18.4408 17.8982 19.0537 17.8982H32.9189C33.5317 17.8982 34.1195 18.1417 34.5529 18.575C34.9863 19.0084 35.2297 19.5962 35.2297 20.2091V23.6754Z" stroke="#424242" stroke-width="1.5" stroke-linecap="round" stroke-linejoin="round"/>
</svg>
