<svg width="136" height="15" viewBox="0 0 136 15" fill="none" xmlns="http://www.w3.org/2000/svg">
<path d="M101.203 1.16995H102.681V7.65596C102.681 8.23067 102.776 8.62749 102.968 8.84643C103.159 9.0608 103.488 9.16799 103.953 9.16799H104.117V10.7348H103.953C103.013 10.7348 102.32 10.4907 101.873 10.0027C101.426 9.51008 101.203 8.75064 101.203 7.72437V1.16995ZM108.318 7.03335C108.108 7.03335 107.917 7.10405 107.743 7.24545C107.575 7.38228 107.422 7.55789 107.285 7.77227C107.153 7.98664 107.036 8.20102 106.936 8.41539C107.077 8.55223 107.214 8.6731 107.347 8.77801C107.479 8.88292 107.607 8.97186 107.73 9.04484C107.908 9.15431 108.074 9.23413 108.229 9.2843C108.384 9.33447 108.523 9.35956 108.647 9.35956C108.943 9.35956 109.16 9.2729 109.297 9.09957C109.438 8.92625 109.509 8.69591 109.509 8.40855C109.509 8.01629 109.404 7.69016 109.194 7.43018C108.984 7.16563 108.692 7.03335 108.318 7.03335ZM108.647 10.8921C108.336 10.8921 108.042 10.8465 107.764 10.7553C107.49 10.6641 107.221 10.5341 106.957 10.3653C106.692 10.1965 106.423 9.99357 106.149 9.75638C105.967 9.95251 105.787 10.1258 105.609 10.2764C105.435 10.4223 105.235 10.5363 105.007 10.6184C104.779 10.696 104.496 10.7348 104.158 10.7348H103.871V9.16799H104.124C104.393 9.16799 104.626 9.08133 104.822 8.908C105.018 8.73012 105.198 8.50434 105.362 8.23067C105.531 7.95243 105.7 7.65824 105.869 7.34808C106.042 7.03791 106.236 6.74372 106.45 6.46549C106.665 6.18725 106.918 5.96147 107.21 5.78815C107.506 5.61482 107.862 5.52816 108.277 5.52816C108.815 5.52816 109.281 5.65587 109.673 5.9113C110.07 6.16673 110.375 6.50882 110.59 6.93757C110.809 7.36176 110.918 7.82928 110.918 8.34013C110.918 8.85555 110.831 9.30483 110.658 9.68797C110.485 10.0665 110.229 10.363 109.892 10.5774C109.554 10.7872 109.139 10.8921 108.647 10.8921ZM115.837 10.7348C115.573 10.7348 115.34 10.7028 115.139 10.639C114.943 10.5706 114.786 10.493 114.667 10.4064C114.576 11.0495 114.378 11.647 114.072 12.1989C113.766 12.7508 113.338 13.2206 112.786 13.6083C112.238 13.996 111.547 14.272 110.713 14.4362L110.193 13.0268C110.9 12.8717 111.481 12.6505 111.937 12.3631C112.398 12.0803 112.74 11.7245 112.964 11.2958C113.187 10.8716 113.299 10.3676 113.299 9.78375C113.299 9.38237 113.247 8.94905 113.142 8.48381C113.037 8.01857 112.909 7.56245 112.758 7.11546L114.202 6.63653L114.585 8.1212C114.676 8.46785 114.816 8.73012 115.003 8.908C115.19 9.08133 115.443 9.16799 115.762 9.16799H116.015V10.7348H115.837ZM118.868 0L119.963 1.09469L118.868 2.18937L117.773 1.09469L118.868 0ZM119.135 6.77337C119.331 6.77337 119.525 6.75968 119.717 6.73232C119.913 6.70039 120.107 6.65934 120.298 6.60916C120.271 6.40391 120.227 6.18725 120.168 5.95919C120.109 5.73113 120.029 5.51904 119.929 5.32291C119.833 5.12678 119.712 4.96714 119.566 4.84398C119.42 4.72083 119.244 4.65925 119.039 4.65925C118.797 4.65925 118.599 4.73908 118.444 4.89872C118.293 5.05836 118.182 5.24993 118.109 5.47343C118.036 5.69236 117.999 5.8999 117.999 6.09603C117.999 6.37882 118.1 6.56355 118.3 6.65021C118.506 6.73232 118.784 6.77337 119.135 6.77337ZM118.348 9.16799C118.809 9.16799 119.185 9.1429 119.477 9.09273C119.774 9.04256 119.993 8.93537 120.134 8.77117C120.28 8.60696 120.355 8.35382 120.36 8.01173C120.164 8.0619 119.961 8.10067 119.751 8.12804C119.541 8.15541 119.322 8.16909 119.094 8.16909C118.309 8.16909 117.703 8.00717 117.274 7.68332C116.85 7.35492 116.638 6.84634 116.638 6.15761C116.638 5.80183 116.69 5.44834 116.795 5.09713C116.9 4.74136 117.055 4.41523 117.26 4.11875C117.466 3.82228 117.719 3.58509 118.02 3.40721C118.321 3.22932 118.665 3.14038 119.053 3.14038C119.541 3.14038 119.956 3.26353 120.298 3.50984C120.64 3.75614 120.916 4.08454 121.126 4.49505C121.34 4.90556 121.495 5.36624 121.591 5.87709C121.692 6.38338 121.742 6.90108 121.742 7.43018C121.742 8.12348 121.676 8.68678 121.543 9.1201C121.411 9.55341 121.206 9.88866 120.928 10.1258C120.649 10.3585 120.291 10.5181 119.853 10.6048C119.416 10.6914 118.886 10.7348 118.266 10.7348H115.762V9.16799H118.348ZM121.68 14.4362L121.153 13.0268C121.86 12.8717 122.442 12.6505 122.898 12.3631C123.359 12.0803 123.701 11.7245 123.924 11.2958C124.148 10.8716 124.259 10.3676 124.259 9.78375C124.259 9.38237 124.207 8.94905 124.102 8.48381C123.997 8.01857 123.87 7.56245 123.719 7.11546L125.163 6.63653C125.331 7.11546 125.459 7.60806 125.546 8.11436C125.637 8.62065 125.683 9.11098 125.683 9.58534C125.683 10.4337 125.53 11.1909 125.224 11.8568C124.919 12.5227 124.469 13.0769 123.876 13.5194C123.283 13.9618 122.551 14.2674 121.68 14.4362ZM127.297 1.16995H128.775V7.65596C128.775 8.23067 128.871 8.62749 129.062 8.84643C129.254 9.0608 129.582 9.16799 130.048 9.16799H130.212V10.7348H130.048C129.108 10.7348 128.415 10.4907 127.968 10.0027C127.521 9.51008 127.297 8.75064 127.297 7.72437V1.16995ZM131.963 4.23506C132.301 4.45856 132.636 4.68434 132.969 4.9124C133.302 5.14046 133.614 5.37536 133.906 5.6171C134.198 5.85885 134.456 6.11427 134.68 6.38338C134.908 6.65249 135.085 6.93757 135.213 7.23861C135.341 7.53508 135.405 7.85209 135.405 8.18962C135.405 8.82362 135.261 9.32535 134.974 9.69481C134.686 10.0643 134.26 10.3311 133.694 10.4953C133.133 10.6549 132.442 10.7348 131.621 10.7348H129.966V9.16799H131.614C132.162 9.16799 132.606 9.14062 132.949 9.08589C133.295 9.02659 133.551 8.92397 133.715 8.77801C133.884 8.63205 133.968 8.4268 133.968 8.16225C133.968 7.97524 133.895 7.78367 133.749 7.58754C133.608 7.38685 133.418 7.18615 133.181 6.98546C132.944 6.78021 132.684 6.57952 132.401 6.38338C132.118 6.18269 131.833 5.98428 131.546 5.78815C131.259 5.59202 130.994 5.40045 130.752 5.21344C130.588 5.08573 130.46 4.93749 130.369 4.76872C130.278 4.5954 130.232 4.41295 130.232 4.22138C130.232 4.00244 130.292 3.78807 130.41 3.57825C130.529 3.36844 130.7 3.21792 130.923 3.1267L136 1.06048V2.59988L131.963 4.23506Z" fill="#424242"/>
<path d="M4.06402 4.64557L5.1587 5.74026L4.06402 6.83494L2.96933 5.74026L4.06402 4.64557ZM4.15296 12.2126C4.86907 12.2126 5.42782 12.0963 5.8292 11.8637C6.23058 11.631 6.51338 11.3209 6.67758 10.9332C6.84178 10.55 6.92389 10.1304 6.92389 9.67428C6.92389 9.14975 6.84634 8.62521 6.69126 8.10067C6.54075 7.57614 6.38795 7.11546 6.23286 6.71863L7.69016 6.15076C7.92279 6.78021 8.09383 7.37772 8.2033 7.94331C8.31277 8.5089 8.3675 9.06308 8.3675 9.60586C8.3675 10.436 8.2147 11.1612 7.9091 11.7816C7.6035 12.4064 7.13826 12.8922 6.51338 13.2389C5.89306 13.5855 5.10625 13.7588 4.15296 13.7588C3.16775 13.7588 2.36954 13.5741 1.75834 13.2046C1.14714 12.8397 0.700143 12.3471 0.417349 11.7268C0.139116 11.1065 0 10.4178 0 9.6606C0 9.14975 0.0524537 8.62521 0.157361 8.08699C0.26683 7.54421 0.419629 7.01055 0.615761 6.48601L1.95675 7.01283C1.81079 7.45982 1.68536 7.9091 1.58045 8.36066C1.48011 8.80766 1.42993 9.23641 1.42993 9.64692C1.42993 10.1167 1.51203 10.5455 1.67624 10.9332C1.845 11.3209 2.12551 11.631 2.51778 11.8637C2.9146 12.0963 3.45966 12.2126 4.15296 12.2126ZM11.46 1.16995V10.7279H9.989V1.16995H11.46ZM16.8855 10.7348C16.621 10.7348 16.3884 10.7028 16.1877 10.639C15.9915 10.5706 15.8342 10.493 15.7156 10.4064C15.6244 11.0495 15.4259 11.647 15.1203 12.1989C14.8147 12.7508 14.386 13.2206 13.8341 13.6083C13.2867 13.996 12.5957 14.272 11.761 14.4362L11.2411 13.0268C11.948 12.8717 12.5296 12.6505 12.9857 12.3631C13.4464 12.0803 13.7885 11.7245 14.012 11.2958C14.2355 10.8716 14.3472 10.3676 14.3472 9.78375C14.3472 9.38237 14.2948 8.94905 14.1899 8.48381C14.085 8.01857 13.9572 7.56245 13.8067 7.11546L15.2503 6.63653L15.6335 8.1212C15.7247 8.46785 15.8638 8.73012 16.0508 8.908C16.2378 9.08133 16.491 9.16799 16.8103 9.16799H17.0634V10.7348H16.8855ZM16.8103 10.7348V9.16799H18.0897V9.03115C18.0897 8.56591 18.1353 8.08471 18.2265 7.58754C18.3177 7.09037 18.4637 6.62741 18.6644 6.19866C18.8651 5.7699 19.1296 5.42325 19.458 5.1587C19.7864 4.89416 20.1878 4.76188 20.6622 4.76188C21.0727 4.76188 21.4239 4.85995 21.7158 5.05608C22.0077 5.25221 22.2312 5.5236 22.3863 5.87025C22.546 6.21234 22.6258 6.6046 22.6258 7.04704C22.6258 7.47123 22.5437 7.89086 22.3795 8.30593C22.2153 8.71643 21.9895 9.09501 21.7021 9.44166C21.4193 9.78831 21.0955 10.0757 20.7306 10.3037C20.3703 10.5318 19.9894 10.6709 19.588 10.7211C19.6428 10.9263 19.7294 11.1339 19.848 11.3437C19.9666 11.5581 20.108 11.7633 20.2722 11.9594C20.441 12.1556 20.6257 12.3243 20.8264 12.4657C20.872 11.9777 20.9746 11.5307 21.1343 11.1247C21.2939 10.7234 21.5014 10.3767 21.7569 10.0848C22.0169 9.79287 22.3202 9.56709 22.6668 9.40745C23.018 9.24781 23.4035 9.16799 23.8231 9.16799H24.042V10.7348H23.8094C23.5084 10.7348 23.2484 10.7735 23.0294 10.8511C22.8151 10.9286 22.6395 11.0495 22.5026 11.2137C22.3658 11.3779 22.2632 11.5877 22.1947 11.8431C22.1309 12.1031 22.099 12.411 22.099 12.7668C22.099 12.8717 22.1012 12.9834 22.1058 13.102C22.1104 13.2206 22.1172 13.3369 22.1263 13.4509L21.1274 14.4088C20.6439 14.1671 20.1992 13.8546 19.7933 13.4715C19.3919 13.0929 19.0521 12.6687 18.7739 12.1989C18.5002 11.7291 18.3109 11.2411 18.206 10.7348H16.8103ZM20.6211 6.27392C20.4296 6.27392 20.2608 6.35374 20.1148 6.51338C19.9734 6.66846 19.8549 6.87827 19.7591 7.14282C19.6633 7.40281 19.5903 7.69701 19.5401 8.02541C19.4945 8.35382 19.4717 8.68907 19.4717 9.03115V9.17483C19.8092 9.16115 20.1171 9.0608 20.3954 8.87379C20.6782 8.68222 20.9016 8.43136 21.0659 8.1212C21.2346 7.81104 21.319 7.47579 21.319 7.11546C21.319 6.84634 21.2551 6.63881 21.1274 6.49285C20.9997 6.34689 20.831 6.27392 20.6211 6.27392ZM23.7752 9.16799H24.261V10.7348H23.7752V9.16799ZM26.7924 2.23042L27.8461 3.27037L26.7924 4.33085L25.7525 3.27037L26.7924 2.23042ZM24.5073 2.23042L25.5609 3.27037L24.5073 4.33085L23.4605 3.27037L24.5073 2.23042ZM24.8425 10.7348H24.0899V9.16799H24.8288C25.3488 9.16799 25.7114 9.06308 25.9167 8.85327C26.1265 8.64345 26.2314 8.31733 26.2314 7.87489C26.2314 7.61947 26.204 7.2979 26.1493 6.9102C26.0991 6.51794 26.0147 6.10059 25.8962 5.65816L27.3329 5.27502C27.447 5.68096 27.5291 6.09603 27.5792 6.52022C27.6294 6.94441 27.6545 7.33895 27.6545 7.70385C27.6545 8.30136 27.5701 8.82818 27.4013 9.2843C27.2371 9.73586 26.9498 10.0916 26.5393 10.3516C26.1333 10.607 25.5677 10.7348 24.8425 10.7348Z" fill="#8B8B8B"/>
</svg>
