<svg width="387" height="72" viewBox="0 0 387 72" fill="none" xmlns="http://www.w3.org/2000/svg">
<rect x="1" y="1" width="385" height="70" rx="15" fill="#F5F5F5"/>
<rect x="1" y="1" width="385" height="70" rx="15" stroke="#8B8B8B" stroke-width="2"/>
<path d="M15.5439 32.1777L16.9502 33.584L15.5439 34.9902L14.1377 33.584L15.5439 32.1777ZM15.6582 41.8984C16.5781 41.8984 17.2959 41.749 17.8115 41.4502C18.3271 41.1514 18.6904 40.7529 18.9014 40.2549C19.1123 39.7627 19.2178 39.2236 19.2178 38.6377C19.2178 37.9639 19.1182 37.29 18.9189 36.6162C18.7256 35.9424 18.5293 35.3506 18.3301 34.8408L20.2021 34.1113C20.501 34.9199 20.7207 35.6875 20.8613 36.4141C21.002 37.1406 21.0723 37.8525 21.0723 38.5498C21.0723 39.6162 20.876 40.5479 20.4834 41.3447C20.0908 42.1475 19.4932 42.7715 18.6904 43.2168C17.8936 43.6621 16.8828 43.8848 15.6582 43.8848C14.3926 43.8848 13.3672 43.6475 12.582 43.1729C11.7969 42.7041 11.2227 42.0713 10.8594 41.2744C10.502 40.4775 10.3232 39.5928 10.3232 38.6201C10.3232 37.9639 10.3906 37.29 10.5254 36.5986C10.666 35.9014 10.8623 35.2158 11.1143 34.542L12.8369 35.2188C12.6494 35.793 12.4883 36.3701 12.3535 36.9502C12.2246 37.5244 12.1602 38.0752 12.1602 38.6025C12.1602 39.2061 12.2656 39.7568 12.4766 40.2549C12.6934 40.7529 13.0537 41.1514 13.5576 41.4502C14.0674 41.749 14.7676 41.8984 15.6582 41.8984ZM23.1465 27.7129H25.0449V36.0449C25.0449 36.7832 25.168 37.293 25.4141 37.5742C25.6602 37.8496 26.082 37.9873 26.6797 37.9873H26.8906V40H26.6797C25.4727 40 24.582 39.6865 24.0078 39.0596C23.4336 38.4268 23.1465 37.4512 23.1465 36.1328V27.7129ZM32.2871 35.2451C32.0176 35.2451 31.7715 35.3359 31.5488 35.5176C31.332 35.6934 31.1357 35.9189 30.96 36.1943C30.79 36.4697 30.6406 36.7451 30.5117 37.0205C30.6934 37.1963 30.8691 37.3516 31.0391 37.4863C31.209 37.6211 31.373 37.7354 31.5312 37.8291C31.7598 37.9697 31.9736 38.0723 32.1729 38.1367C32.3721 38.2012 32.5508 38.2334 32.709 38.2334C33.0898 38.2334 33.3682 38.1221 33.5439 37.8994C33.7256 37.6768 33.8164 37.3809 33.8164 37.0117C33.8164 36.5078 33.6816 36.0889 33.4121 35.7549C33.1426 35.415 32.7676 35.2451 32.2871 35.2451ZM32.709 40.2021C32.3105 40.2021 31.9326 40.1436 31.5752 40.0264C31.2236 39.9092 30.8779 39.7422 30.5381 39.5254C30.1982 39.3086 29.8525 39.0479 29.501 38.7432C29.2666 38.9951 29.0352 39.2178 28.8066 39.4111C28.584 39.5986 28.3262 39.7451 28.0332 39.8506C27.7402 39.9502 27.377 40 26.9434 40H26.5742V37.9873H26.8994C27.2451 37.9873 27.5439 37.876 27.7959 37.6533C28.0479 37.4248 28.2793 37.1348 28.4902 36.7832C28.707 36.4258 28.9238 36.0479 29.1406 35.6494C29.3633 35.251 29.6123 34.873 29.8877 34.5156C30.1631 34.1582 30.4883 33.8682 30.8633 33.6455C31.2441 33.4229 31.7012 33.3115 32.2344 33.3115C32.9258 33.3115 33.5234 33.4756 34.0273 33.8037C34.5371 34.1318 34.9297 34.5713 35.2051 35.1221C35.4863 35.667 35.627 36.2676 35.627 36.9238C35.627 37.5859 35.5156 38.1631 35.293 38.6553C35.0703 39.1416 34.7422 39.5225 34.3086 39.7979C33.875 40.0674 33.3418 40.2021 32.709 40.2021ZM40.3643 33.083C40.8916 33.083 41.3604 33.2031 41.7705 33.4434C42.1807 33.6836 42.5322 34.0234 42.8252 34.4629C43.124 34.8965 43.3525 35.4121 43.5107 36.0098C43.6748 36.6074 43.7715 37.2666 43.8008 37.9873H44.6797V40H43.6426C43.4727 40.7676 43.168 41.4678 42.7285 42.1006C42.2949 42.7334 41.6885 43.2754 40.9092 43.7266C40.1299 44.1777 39.1426 44.5176 37.9473 44.7461L37.2705 42.9355C38.0908 42.7715 38.8174 42.5547 39.4502 42.2852C40.083 42.0156 40.6045 41.6904 41.0146 41.3096C41.4248 40.9287 41.7031 40.4922 41.8496 40H40.707C39.5645 40 38.7002 39.7656 38.1143 39.2969C37.5342 38.8281 37.2441 38.0986 37.2441 37.1084C37.2441 36.6631 37.3057 36.2061 37.4287 35.7373C37.5576 35.2627 37.751 34.8262 38.0088 34.4277C38.2725 34.0234 38.6006 33.6982 38.9932 33.4521C39.3857 33.2061 39.8428 33.083 40.3643 33.083ZM40.6543 37.9873H42.0166C41.9873 37.5596 41.9316 37.1699 41.8496 36.8184C41.7734 36.4609 41.668 36.1533 41.5332 35.8955C41.3984 35.6318 41.2314 35.4297 41.0322 35.2891C40.8389 35.1426 40.6104 35.0693 40.3467 35.0693C40.0127 35.0693 39.749 35.1865 39.5557 35.4209C39.3682 35.6494 39.2363 35.916 39.1602 36.2207C39.084 36.5254 39.0459 36.7949 39.0459 37.0293C39.0459 37.3984 39.1807 37.6504 39.4502 37.7852C39.7197 37.9199 40.1211 37.9873 40.6543 37.9873ZM44.3457 37.9873H44.9697V40H44.3457V37.9873ZM48.2217 29.0752L49.5752 30.4111L48.2217 31.7734L46.8857 30.4111L48.2217 29.0752ZM45.2861 29.0752L46.6396 30.4111L45.2861 31.7734L43.9414 30.4111L45.2861 29.0752ZM45.7168 40H44.75V37.9873H45.6992C46.3672 37.9873 46.833 37.8525 47.0967 37.583C47.3662 37.3135 47.501 36.8945 47.501 36.3262C47.501 35.998 47.4658 35.585 47.3955 35.0869C47.3311 34.583 47.2227 34.0469 47.0703 33.4785L48.916 32.9863C49.0625 33.5078 49.168 34.041 49.2324 34.5859C49.2969 35.1309 49.3291 35.6377 49.3291 36.1064C49.3291 36.874 49.2207 37.5508 49.0039 38.1367C48.793 38.7168 48.4238 39.1738 47.8965 39.5078C47.375 39.8359 46.6484 40 45.7168 40ZM64.3672 38.3125V40H55.7891V38.5498L59.9551 34.0059C60.4121 33.4902 60.7725 33.0449 61.0361 32.6699C61.2998 32.2949 61.4844 31.958 61.5898 31.6592C61.7012 31.3545 61.7568 31.0586 61.7568 30.7715C61.7568 30.168 61.5898 29.6729 61.2559 29.2861C60.9219 28.8994 60.4473 28.7061 59.832 28.7061C59.3574 28.7061 58.959 28.8086 58.6367 29.0137C58.3145 29.2188 58.0713 29.5029 57.9072 29.8662C57.7432 30.2236 57.6611 30.6338 57.6611 31.0967H55.543C55.543 30.3525 55.7129 29.6729 56.0527 29.0576C56.3926 28.4365 56.8848 27.9443 57.5293 27.5811C58.1738 27.2119 58.9502 27.0273 59.8584 27.0273C61.1416 27.0273 62.1318 27.3467 62.8291 27.9854C63.5264 28.6182 63.875 29.4736 63.875 30.5518C63.875 31.085 63.7607 31.6123 63.5322 32.1338C63.3096 32.6553 62.999 33.1738 62.6006 33.6895C62.2021 34.2051 61.7451 34.7295 61.2295 35.2627L58.4609 38.3125H64.3672ZM74.835 35.4385V37.126H65.6064L65.5361 35.8516L71.0557 27.2031H72.752L70.915 30.3496L67.7422 35.4385H74.835ZM73.2354 27.2031V40H71.1172V27.2031H73.2354ZM78.3594 37.9609L78.3506 39.4727C78.3506 40.0703 78.2012 40.6855 77.9023 41.3184C77.6035 41.9512 77.208 42.4727 76.7158 42.8828L75.582 42.2236C75.7461 41.96 75.8955 41.6934 76.0303 41.4238C76.165 41.1543 76.2734 40.8672 76.3555 40.5625C76.4375 40.2578 76.4785 39.9209 76.4785 39.5518V37.9609H78.3594ZM81.9805 38.3301H82.1562C82.9648 38.3301 83.6387 38.2246 84.1777 38.0137C84.7227 37.7969 85.1562 37.498 85.4785 37.1172C85.8008 36.7363 86.0322 36.2881 86.1729 35.7725C86.3135 35.2568 86.3838 34.6973 86.3838 34.0938V31.8877C86.3838 31.1904 86.2871 30.6074 86.0938 30.1387C85.9062 29.6699 85.6514 29.3154 85.3291 29.0752C85.0068 28.835 84.6523 28.7148 84.2656 28.7148C83.832 28.7148 83.4629 28.8408 83.1582 29.0928C82.8535 29.3389 82.6221 29.6699 82.4639 30.0859C82.3057 30.4961 82.2266 30.9502 82.2266 31.4482C82.2266 31.917 82.2998 32.3594 82.4463 32.7754C82.5986 33.1855 82.8271 33.5166 83.1318 33.7686C83.4365 34.0205 83.8203 34.1465 84.2832 34.1465C84.6113 34.1465 84.9131 34.085 85.1885 33.9619C85.4639 33.833 85.7041 33.6602 85.9092 33.4434C86.1143 33.2266 86.2754 32.9834 86.3926 32.7139C86.5098 32.4443 86.5742 32.1689 86.5859 31.8877L87.3945 32.1338C87.3945 32.5791 87.3008 33.0186 87.1133 33.4521C86.9316 33.8799 86.6768 34.2725 86.3486 34.6299C86.0264 34.9814 85.6484 35.2627 85.2148 35.4736C84.7871 35.6846 84.3213 35.79 83.8174 35.79C83.0029 35.79 82.3203 35.5908 81.7695 35.1924C81.2246 34.7939 80.8145 34.2695 80.5391 33.6191C80.2637 32.9688 80.126 32.2627 80.126 31.501C80.126 30.6807 80.29 29.9336 80.6182 29.2598C80.9463 28.5801 81.4209 28.0381 82.042 27.6338C82.6631 27.2295 83.4072 27.0273 84.2744 27.0273C84.9658 27.0273 85.5723 27.1621 86.0938 27.4316C86.6152 27.7012 87.0547 28.0732 87.4121 28.5479C87.7695 29.0225 88.0391 29.5732 88.2207 30.2002C88.4023 30.8271 88.4932 31.501 88.4932 32.2217V32.9688C88.4932 33.7246 88.4258 34.4541 88.291 35.1572C88.1562 35.8545 87.9365 36.502 87.6318 37.0996C87.333 37.6914 86.9375 38.2129 86.4453 38.6641C85.959 39.1094 85.3613 39.458 84.6523 39.71C83.9492 39.9561 83.123 40.0791 82.1738 40.0791H81.9805V38.3301ZM98.8467 32.5293V34.6211C98.8467 35.957 98.6738 37.0322 98.3281 37.8467C97.9824 38.6611 97.4961 39.2529 96.8691 39.6221C96.2422 39.9912 95.5068 40.1758 94.6631 40.1758C93.8252 40.1758 93.0898 39.9912 92.457 39.6221C91.8242 39.2529 91.332 38.6611 90.9805 37.8467C90.6289 37.0322 90.4531 35.957 90.4531 34.6211V32.5293C90.4531 31.1934 90.626 30.124 90.9717 29.3213C91.3232 28.5127 91.8125 27.9297 92.4395 27.5723C93.0723 27.209 93.8076 27.0273 94.6455 27.0273C95.4893 27.0273 96.2246 27.209 96.8516 27.5723C97.4844 27.9297 97.9736 28.5127 98.3193 29.3213C98.6709 30.124 98.8467 31.1934 98.8467 32.5293ZM96.7285 34.9199V32.2129C96.7285 31.3574 96.6465 30.6719 96.4824 30.1562C96.3242 29.6406 96.0898 29.2715 95.7793 29.0488C95.4688 28.8203 95.0908 28.7061 94.6455 28.7061C94.2061 28.7061 93.8311 28.8203 93.5205 29.0488C93.2158 29.2715 92.9814 29.6406 92.8174 30.1562C92.6592 30.6719 92.5801 31.3574 92.5801 32.2129V34.9199C92.5801 35.7754 92.6592 36.4668 92.8174 36.9941C92.9814 37.5156 93.2188 37.8965 93.5293 38.1367C93.8457 38.3711 94.2236 38.4883 94.6631 38.4883C95.1143 38.4883 95.4922 38.3711 95.7969 38.1367C96.1016 37.8965 96.333 37.5156 96.4912 36.9941C96.6494 36.4668 96.7285 35.7754 96.7285 34.9199ZM109.077 32.5293V34.6211C109.077 35.957 108.904 37.0322 108.559 37.8467C108.213 38.6611 107.727 39.2529 107.1 39.6221C106.473 39.9912 105.737 40.1758 104.894 40.1758C104.056 40.1758 103.32 39.9912 102.688 39.6221C102.055 39.2529 101.562 38.6611 101.211 37.8467C100.859 37.0322 100.684 35.957 100.684 34.6211V32.5293C100.684 31.1934 100.856 30.124 101.202 29.3213C101.554 28.5127 102.043 27.9297 102.67 27.5723C103.303 27.209 104.038 27.0273 104.876 27.0273C105.72 27.0273 106.455 27.209 107.082 27.5723C107.715 27.9297 108.204 28.5127 108.55 29.3213C108.901 30.124 109.077 31.1934 109.077 32.5293ZM106.959 34.9199V32.2129C106.959 31.3574 106.877 30.6719 106.713 30.1562C106.555 29.6406 106.32 29.2715 106.01 29.0488C105.699 28.8203 105.321 28.7061 104.876 28.7061C104.437 28.7061 104.062 28.8203 103.751 29.0488C103.446 29.2715 103.212 29.6406 103.048 30.1562C102.89 30.6719 102.811 31.3574 102.811 32.2129V34.9199C102.811 35.7754 102.89 36.4668 103.048 36.9941C103.212 37.5156 103.449 37.8965 103.76 38.1367C104.076 38.3711 104.454 38.4883 104.894 38.4883C105.345 38.4883 105.723 38.3711 106.027 38.1367C106.332 37.8965 106.563 37.5156 106.722 36.9941C106.88 36.4668 106.959 35.7754 106.959 34.9199Z" fill="#212121"/>
<path d="M276.039 44.4385C274.773 44.4385 273.748 44.2012 272.963 43.7266C272.178 43.2578 271.604 42.625 271.24 41.8281C270.883 41.0312 270.704 40.1436 270.704 39.165C270.704 38.5088 270.771 37.835 270.906 37.1436C271.047 36.4463 271.243 35.7637 271.495 35.0957L273.218 35.7725C273.03 36.3408 272.869 36.915 272.734 37.4951C272.605 38.0752 272.541 38.6289 272.541 39.1562C272.541 39.7539 272.646 40.3018 272.857 40.7998C273.074 41.3037 273.435 41.7021 273.938 41.9951C274.448 42.2939 275.148 42.4434 276.039 42.4434C276.678 42.4434 277.252 42.3818 277.762 42.2588C278.271 42.1416 278.702 41.9834 279.054 41.7842C279.405 41.5908 279.675 41.377 279.862 41.1426C280.05 40.9082 280.144 40.6797 280.144 40.457C280.144 40.3164 280.103 40.1904 280.021 40.0791C279.938 39.9678 279.789 39.9121 279.572 39.9121H278.148C277.773 39.9121 277.428 39.8682 277.111 39.7803C276.801 39.6924 276.534 39.5488 276.312 39.3496C276.089 39.1504 275.916 38.8838 275.793 38.5498C275.67 38.2158 275.608 37.8027 275.608 37.3105C275.608 36.7188 275.702 36.1562 275.89 35.623C276.083 35.084 276.355 34.6064 276.707 34.1904C277.059 33.7686 277.483 33.4375 277.981 33.1973C278.485 32.957 279.048 32.8369 279.669 32.8369C280.032 32.8369 280.401 32.8896 280.776 32.9951C281.151 33.1006 281.515 33.2734 281.866 33.5137L281.225 35.2451C280.955 35.1045 280.691 35.0049 280.434 34.9463C280.176 34.8818 279.924 34.8496 279.678 34.8496C279.215 34.8496 278.816 34.958 278.482 35.1748C278.154 35.3916 277.902 35.6875 277.727 36.0625C277.551 36.4316 277.463 36.8477 277.463 37.3105C277.463 37.5332 277.516 37.6885 277.621 37.7764C277.727 37.8643 277.908 37.9082 278.166 37.9082H279.563C280.161 37.9082 280.627 38.0107 280.961 38.2158C281.301 38.4209 281.541 38.7021 281.682 39.0596C281.822 39.417 281.893 39.8271 281.893 40.29C281.893 41.0225 281.67 41.7021 281.225 42.3291C280.779 42.9619 280.123 43.4717 279.256 43.8584C278.389 44.2451 277.316 44.4385 276.039 44.4385ZM285.628 38.0137C286.267 38.0137 286.826 37.9609 287.307 37.8555C287.793 37.75 288.171 37.5859 288.44 37.3633C288.71 37.1348 288.845 36.833 288.845 36.458C288.845 36.0889 288.695 35.7021 288.396 35.2979C288.104 34.8936 287.679 34.4834 287.122 34.0674C286.571 33.6455 285.9 33.2295 285.109 32.8193L285.979 31.0439C286.671 31.3896 287.304 31.7588 287.878 32.1514C288.452 32.5439 288.947 32.9629 289.363 33.4082C289.779 33.8535 290.099 34.3252 290.321 34.8232C290.55 35.3154 290.664 35.8398 290.664 36.3965C290.664 37.2227 290.477 37.9023 290.102 38.4355C289.732 38.9629 289.185 39.3525 288.458 39.6045C287.731 39.8564 286.832 39.9824 285.76 39.9824C285.338 39.9824 284.937 39.9648 284.556 39.9297C284.181 39.8945 283.82 39.8389 283.475 39.7627V37.7588C283.855 37.835 284.233 37.8965 284.608 37.9434C284.983 37.9902 285.323 38.0137 285.628 38.0137ZM297.317 36.5371C297.317 36.3906 297.282 36.1973 297.212 35.957C297.147 35.7109 297.074 35.4941 296.992 35.3066L295.357 31.6504L297.045 30.8418L299.119 35.6846C299.348 36.2178 299.55 36.6543 299.726 36.9941C299.901 37.334 300.083 37.5859 300.271 37.75C300.458 37.9082 300.684 37.9873 300.947 37.9873H301.316V40H300.947C300.496 40 300.118 39.9443 299.813 39.833C299.509 39.7217 299.245 39.5605 299.022 39.3496C298.8 39.1328 298.583 38.8721 298.372 38.5674C298.091 38.8838 297.763 39.1475 297.388 39.3584C297.019 39.5693 296.594 39.7275 296.113 39.833C295.639 39.9385 295.094 39.9912 294.479 39.9912C294.027 39.9912 293.629 39.9736 293.283 39.9385C292.943 39.8975 292.609 39.8389 292.281 39.7627V37.7588C292.639 37.8408 292.993 37.9023 293.345 37.9434C293.696 37.9844 294.03 38.0049 294.347 38.0049C294.938 38.0049 295.454 37.9551 295.894 37.8555C296.339 37.7559 296.688 37.5977 296.939 37.3809C297.191 37.1641 297.317 36.8828 297.317 36.5371ZM303.32 37.9873C303.174 37.7764 303.042 37.5361 302.925 37.2666C302.808 36.9971 302.717 36.7129 302.652 36.4141C302.588 36.1152 302.556 35.8311 302.556 35.5615C302.556 34.8994 302.723 34.2988 303.057 33.7598C303.396 33.2148 303.845 32.7812 304.401 32.459C304.958 32.1309 305.564 31.9668 306.221 31.9668C306.771 31.9668 307.305 32.0693 307.82 32.2744C308.342 32.4795 308.878 32.7725 309.429 33.1533L308.699 34.7969C308.277 34.5508 307.876 34.3545 307.495 34.208C307.114 34.0557 306.733 33.9795 306.353 33.9795C306.03 33.9795 305.72 34.0469 305.421 34.1816C305.128 34.3164 304.888 34.5068 304.7 34.7529C304.513 34.9932 304.419 35.2832 304.419 35.623C304.419 35.9746 304.498 36.2969 304.656 36.5898C304.814 36.877 304.99 37.1113 305.184 37.293C305.383 37.4688 305.529 37.5742 305.623 37.6094C305.652 37.6094 305.688 37.6064 305.729 37.6006C305.77 37.5947 305.813 37.5859 305.86 37.5742L309.824 36.625V38.6377C309.092 38.8604 308.383 39.0566 307.697 39.2266C307.012 39.3965 306.344 39.54 305.693 39.6572C305.043 39.7744 304.401 39.8623 303.769 39.9209C303.142 39.9736 302.515 40 301.888 40H300.982V37.9873H303.32ZM324.854 38.3125V40H316.275V38.5498L320.441 34.0059C320.898 33.4902 321.259 33.0449 321.522 32.6699C321.786 32.2949 321.971 31.958 322.076 31.6592C322.188 31.3545 322.243 31.0586 322.243 30.7715C322.243 30.168 322.076 29.6729 321.742 29.2861C321.408 28.8994 320.934 28.7061 320.318 28.7061C319.844 28.7061 319.445 28.8086 319.123 29.0137C318.801 29.2188 318.558 29.5029 318.394 29.8662C318.229 30.2236 318.147 30.6338 318.147 31.0967H316.029C316.029 30.3525 316.199 29.6729 316.539 29.0576C316.879 28.4365 317.371 27.9443 318.016 27.5811C318.66 27.2119 319.437 27.0273 320.345 27.0273C321.628 27.0273 322.618 27.3467 323.315 27.9854C324.013 28.6182 324.361 29.4736 324.361 30.5518C324.361 31.085 324.247 31.6123 324.019 32.1338C323.796 32.6553 323.485 33.1738 323.087 33.6895C322.688 34.2051 322.231 34.7295 321.716 35.2627L318.947 38.3125H324.854ZM334.847 32.5293V34.6211C334.847 35.957 334.674 37.0322 334.328 37.8467C333.982 38.6611 333.496 39.2529 332.869 39.6221C332.242 39.9912 331.507 40.1758 330.663 40.1758C329.825 40.1758 329.09 39.9912 328.457 39.6221C327.824 39.2529 327.332 38.6611 326.98 37.8467C326.629 37.0322 326.453 35.957 326.453 34.6211V32.5293C326.453 31.1934 326.626 30.124 326.972 29.3213C327.323 28.5127 327.812 27.9297 328.439 27.5723C329.072 27.209 329.808 27.0273 330.646 27.0273C331.489 27.0273 332.225 27.209 332.852 27.5723C333.484 27.9297 333.974 28.5127 334.319 29.3213C334.671 30.124 334.847 31.1934 334.847 32.5293ZM332.729 34.9199V32.2129C332.729 31.3574 332.646 30.6719 332.482 30.1562C332.324 29.6406 332.09 29.2715 331.779 29.0488C331.469 28.8203 331.091 28.7061 330.646 28.7061C330.206 28.7061 329.831 28.8203 329.521 29.0488C329.216 29.2715 328.981 29.6406 328.817 30.1562C328.659 30.6719 328.58 31.3574 328.58 32.2129V34.9199C328.58 35.7754 328.659 36.4668 328.817 36.9941C328.981 37.5156 329.219 37.8965 329.529 38.1367C329.846 38.3711 330.224 38.4883 330.663 38.4883C331.114 38.4883 331.492 38.3711 331.797 38.1367C332.102 37.8965 332.333 37.5156 332.491 36.9941C332.649 36.4668 332.729 35.7754 332.729 34.9199ZM345.077 32.5293V34.6211C345.077 35.957 344.904 37.0322 344.559 37.8467C344.213 38.6611 343.727 39.2529 343.1 39.6221C342.473 39.9912 341.737 40.1758 340.894 40.1758C340.056 40.1758 339.32 39.9912 338.688 39.6221C338.055 39.2529 337.562 38.6611 337.211 37.8467C336.859 37.0322 336.684 35.957 336.684 34.6211V32.5293C336.684 31.1934 336.856 30.124 337.202 29.3213C337.554 28.5127 338.043 27.9297 338.67 27.5723C339.303 27.209 340.038 27.0273 340.876 27.0273C341.72 27.0273 342.455 27.209 343.082 27.5723C343.715 27.9297 344.204 28.5127 344.55 29.3213C344.901 30.124 345.077 31.1934 345.077 32.5293ZM342.959 34.9199V32.2129C342.959 31.3574 342.877 30.6719 342.713 30.1562C342.555 29.6406 342.32 29.2715 342.01 29.0488C341.699 28.8203 341.321 28.7061 340.876 28.7061C340.437 28.7061 340.062 28.8203 339.751 29.0488C339.446 29.2715 339.212 29.6406 339.048 30.1562C338.89 30.6719 338.811 31.3574 338.811 32.2129V34.9199C338.811 35.7754 338.89 36.4668 339.048 36.9941C339.212 37.5156 339.449 37.8965 339.76 38.1367C340.076 38.3711 340.454 38.4883 340.894 38.4883C341.345 38.4883 341.723 38.3711 342.027 38.1367C342.332 37.8965 342.563 37.5156 342.722 36.9941C342.88 36.4668 342.959 35.7754 342.959 34.9199Z" fill="#212121"/>
<circle cx="366.5" cy="36.5" r="8.5" fill="#8B8B8B"/>
<circle cx="366.5" cy="36.5" r="11" stroke="#8B8B8B"/>
</svg>
