<svg width="260" height="70" viewBox="0 0 260 70" fill="none" xmlns="http://www.w3.org/2000/svg">
<path d="M62.1797 35.2041H57.1074V33.707H62.1797V35.2041Z" fill="#212121"/>
<path d="M132.18 35.2041H127.107V33.707H132.18V35.2041Z" fill="#212121"/>
<path d="M202.18 35.2041H197.107V33.707H202.18V35.2041Z" fill="#212121"/>
<rect x="1" y="1" width="48" height="68" rx="7" stroke="#249651" stroke-width="2"/>
<path d="M23.3477 25.752V40H20.5352V28.9941L17.1562 30.0684V27.8516L23.0449 25.752H23.3477Z" fill="#212121"/>
<path d="M93.1387 33.5254L90.8926 32.9883L91.7031 25.7812H99.6914V28.0566H94.0176L93.666 31.2109C93.8548 31.1003 94.1413 30.9831 94.5254 30.8594C94.9095 30.7292 95.3392 30.6641 95.8145 30.6641C96.7324 30.6641 97.5137 30.8529 98.1582 31.2305C98.8092 31.6081 99.304 32.1549 99.6426 32.8711C99.9876 33.5807 100.16 34.4368 100.16 35.4395C100.16 36.2793 99.9844 37.0638 99.6328 37.793C99.2878 38.5156 98.7604 39.0983 98.0508 39.541C97.3477 39.9772 96.4492 40.1953 95.3555 40.1953C94.7435 40.1953 94.151 40.1042 93.5781 39.9219C93.0117 39.7396 92.5007 39.4694 92.0449 39.1113C91.5957 38.7533 91.2344 38.3203 90.9609 37.8125C90.694 37.2982 90.554 36.7122 90.541 36.0547H93.334C93.3926 36.6667 93.5977 37.1452 93.9492 37.4902C94.3073 37.8288 94.7728 37.998 95.3457 37.998C95.8275 37.998 96.2116 37.8809 96.498 37.6465C96.791 37.4056 97.0026 37.0801 97.1328 36.6699C97.2695 36.2598 97.3379 35.8008 97.3379 35.293C97.3379 34.7786 97.2533 34.3327 97.084 33.9551C96.9212 33.571 96.6706 33.2715 96.332 33.0566C96 32.8353 95.5736 32.7246 95.0527 32.7246C94.5319 32.7246 94.1283 32.806 93.8418 32.9688C93.5618 33.1315 93.3275 33.3171 93.1387 33.5254Z" fill="#212121"/>
<rect x="71" y="1" width="48" height="68" rx="7" stroke="#249651" stroke-width="2"/>
<path d="M170.15 25.7812V27.2949L164.652 40H161.684L167.182 27.9785H160.102V25.7812H170.15Z" fill="#212121"/>
<rect x="141" y="1" width="48" height="68" rx="7" stroke="#249651" stroke-width="2"/>
<path d="M234.348 25.752V40H231.535V28.9941L228.156 30.0684V27.8516L234.045 25.752H234.348Z" fill="#212121"/>
<rect x="211" y="1" width="48" height="68" rx="7" stroke="#249651" stroke-width="2"/>
</svg>
