<svg width="36" height="41" viewBox="0 0 36 41" fill="none" xmlns="http://www.w3.org/2000/svg">
<path d="M18 23.1521L23.894 29.0461L4.5 40.2421C4.0215 40.5218 3.47439 40.6623 2.92032 40.6478C2.36625 40.6333 1.82723 40.4644 1.364 40.16L1.148 40.0041L18 23.1521ZM0 5.15205L15.172 20.3241L0 35.4961V5.15205ZM27.48 13.6721L34.5 17.7261C36.5 18.8801 36.5 21.7661 34.5 22.9221L27.48 26.9761L20.828 20.3241L27.48 13.6721ZM4.5 0.40605L23.894 11.6021L18 17.4961L1.148 0.64205C1.6184 0.270626 2.18974 0.0494641 2.78762 0.00737009C3.3855 -0.034724 3.9822 0.104201 4.5 0.40605Z" fill="white"/>
</svg>
