<svg width="68" height="47" viewBox="0 0 68 47" fill="none" xmlns="http://www.w3.org/2000/svg">
<path d="M27.4186 2.12146L28.5135 3.2164L27.4186 4.31135L26.3237 3.2164L27.4186 2.12146ZM24.8797 13.2694L24.3528 11.8596C25.0599 11.7045 25.6416 11.4832 26.0978 11.1958C26.5586 10.913 26.9008 10.5571 27.1243 10.1282C27.3479 9.70395 27.4597 9.19982 27.4597 8.61585C27.4597 8.21437 27.4072 7.78095 27.3023 7.3156C27.1973 6.85025 27.0696 6.39402 26.919 5.94692L28.363 5.46788C28.5318 5.94692 28.6595 6.43965 28.7462 6.94606C28.8375 7.45247 28.8831 7.94291 28.8831 8.41739C28.8831 9.26597 28.7303 10.0233 28.4246 10.6894C28.1189 11.3555 27.6695 11.9098 27.0764 12.3523C26.4833 12.7949 25.7511 13.1006 24.8797 13.2694ZM31.9763 0V9.56024H30.505V0H31.9763ZM38.9224 8.02047C39.4197 8.02047 39.8553 7.97941 40.2295 7.89729C40.6081 7.81517 40.9024 7.68743 41.1123 7.51406C41.3221 7.33613 41.4271 7.10118 41.4271 6.80919C41.4271 6.52177 41.3107 6.22066 41.078 5.90586C40.8499 5.59106 40.5192 5.2717 40.0857 4.94778C39.6569 4.6193 39.1345 4.29538 38.5186 3.97602L39.1961 2.59365C39.7344 2.86283 40.2272 3.15025 40.6743 3.45592C41.1214 3.76159 41.5069 4.08779 41.8308 4.43453C42.1547 4.78126 42.4034 5.14852 42.5767 5.53632C42.7547 5.91955 42.8436 6.32787 42.8436 6.76129C42.8436 7.40457 42.6976 7.93379 42.4057 8.34896C42.1182 8.75956 41.6917 9.06295 41.1259 9.25913C40.5602 9.45531 39.8599 9.5534 39.025 9.5534C38.6965 9.5534 38.384 9.53971 38.0875 9.51234C37.7955 9.48496 37.5149 9.44162 37.2457 9.38231V7.82201C37.5423 7.88132 37.8365 7.92923 38.1285 7.96573C38.4205 8.00222 38.6851 8.02047 38.9224 8.02047ZM46.5322 4.18132C46.9428 4.18132 47.3078 4.27485 47.6272 4.4619C47.9465 4.64895 48.2203 4.91357 48.4484 5.25574C48.6811 5.59334 48.859 5.99482 48.9822 6.46018C49.1099 6.92553 49.1852 7.43878 49.208 7.99994H49.8923V9.56708H49.0848C48.9525 10.1647 48.7153 10.7099 48.3731 11.2027C48.0355 11.6954 47.5633 12.1174 46.9565 12.4687C46.3497 12.82 45.581 13.0846 44.6503 13.2625L44.1234 11.8528C44.7621 11.725 45.3278 11.5562 45.8205 11.3464C46.3132 11.1365 46.7193 10.8833 47.0386 10.5868C47.358 10.2902 47.5747 9.95031 47.6888 9.56708H46.7991C45.9095 9.56708 45.2365 9.38459 44.7803 9.01961C44.3287 8.65463 44.1028 8.08663 44.1028 7.3156C44.1028 6.96887 44.1507 6.61301 44.2465 6.24803C44.3469 5.87849 44.4975 5.5386 44.6982 5.22836C44.9035 4.91357 45.159 4.66036 45.4647 4.46874C45.7703 4.27713 46.1262 4.18132 46.5322 4.18132ZM46.7581 7.99994H47.8188C47.796 7.6669 47.7526 7.36351 47.6888 7.08977C47.6295 6.81147 47.5473 6.57195 47.4424 6.37121C47.3375 6.16591 47.2074 6.00851 47.0523 5.89902C46.9018 5.78496 46.7238 5.72793 46.5185 5.72793C46.2585 5.72793 46.0532 5.81918 45.9026 6.00167C45.7566 6.1796 45.654 6.38718 45.5947 6.62442C45.5354 6.86166 45.5057 7.07152 45.5057 7.25401C45.5057 7.54143 45.6107 7.73761 45.8205 7.84254C46.0304 7.94748 46.3429 7.99994 46.7581 7.99994ZM51.4458 6.44649V0H52.9171V6.46018C52.9171 6.77041 52.9513 7.04187 53.0198 7.27454C53.0928 7.50722 53.2182 7.68743 53.3962 7.81517C53.5741 7.93835 53.8227 7.99994 54.1421 7.99994H54.3474V9.56708H54.1558C53.8227 9.56708 53.5353 9.53058 53.2935 9.45759C53.0517 9.38459 52.8419 9.2751 52.6639 9.1291C52.4906 8.98311 52.3354 8.80518 52.1986 8.59532C52.0435 8.80062 51.8815 8.97627 51.7127 9.12226C51.5439 9.26825 51.3363 9.38003 51.0899 9.45759C50.8436 9.53058 50.5288 9.56708 50.1456 9.56708H49.646V7.99994H50.1182C50.4649 7.99994 50.7341 7.93835 50.9257 7.81517C51.1173 7.68743 51.2519 7.50722 51.3295 7.27454C51.407 7.04187 51.4458 6.76585 51.4458 6.44649ZM54.8607 9.56708H54.1079V7.99994H54.847C55.3671 7.99994 55.7298 7.89501 55.9351 7.68515C56.1449 7.47528 56.2499 7.14908 56.2499 6.70654C56.2499 6.45105 56.2225 6.12941 56.1677 5.74162C56.1176 5.34926 56.0332 4.93182 55.9145 4.48927L57.3517 4.10604C57.4657 4.51209 57.5478 4.92725 57.598 5.35154C57.6482 5.77584 57.6733 6.17047 57.6733 6.53545C57.6733 7.13311 57.5889 7.66005 57.4201 8.11628C57.2559 8.56795 56.9684 8.9238 56.5578 9.18385C56.1518 9.43934 55.5861 9.56708 54.8607 9.56708ZM56.0172 1.00598L57.1121 2.10093L56.0172 3.19587L54.9222 2.10093L56.0172 1.00598ZM60.7734 0V9.56024H59.302V0H60.7734ZM64.0787 8.02047C64.576 8.02047 65.0117 7.97941 65.3858 7.89729C65.7645 7.81517 66.0588 7.68743 66.2686 7.51406C66.4785 7.33613 66.5834 7.10118 66.5834 6.80919C66.5834 6.52177 66.4671 6.22066 66.2344 5.90586C66.0063 5.59106 65.6755 5.2717 65.2421 4.94778C64.8133 4.6193 64.2909 4.29538 63.675 3.97602L64.3525 2.59365C64.8908 2.86283 65.3835 3.15025 65.8306 3.45592C66.2777 3.76159 66.6633 4.08779 66.9872 4.43453C67.3111 4.78126 67.5597 5.14852 67.7331 5.53632C67.911 5.91955 68 6.32787 68 6.76129C68 7.40457 67.854 7.93379 67.562 8.34896C67.2746 8.75956 66.848 9.06295 66.2823 9.25913C65.7166 9.45531 65.0163 9.5534 64.1814 9.5534C63.8529 9.5534 63.5404 9.53971 63.2438 9.51234C62.9518 9.48496 62.6713 9.44162 62.4021 9.38231V7.82201C62.6986 7.88132 62.9929 7.92923 63.2849 7.96573C63.5769 8.00222 63.8415 8.02047 64.0787 8.02047Z" fill="white"/>
<path d="M0.827075 45.3874L0 43.223C0.868135 43.0294 1.60429 42.7713 2.20847 42.4487C2.81851 42.1319 3.2819 41.7125 3.59865 41.1905C3.91541 40.6684 4.07378 40.0173 4.07378 39.2372C4.07378 38.7092 3.99459 38.1227 3.83622 37.4774C3.68371 36.8322 3.51067 36.2251 3.3171 35.6561L5.50796 34.9346C5.73673 35.5681 5.90977 36.2397 6.02709 36.9495C6.1444 37.6593 6.20306 38.3397 6.20306 38.9908C6.20306 40.1757 5.98603 41.2051 5.55196 42.0791C5.11789 42.959 4.49905 43.6746 3.69544 44.226C2.89183 44.7774 1.93571 45.1645 0.827075 45.3874ZM10.9543 33.3333C11.5175 33.3333 12.0102 33.4652 12.4325 33.7292C12.8549 33.9873 13.2127 34.3451 13.506 34.8026C13.8051 35.2543 14.0368 35.7764 14.201 36.3688C14.3712 36.9554 14.4738 37.5771 14.509 38.2341H15.2393V40.601H14.3506C14.1453 41.4515 13.7992 42.1906 13.3124 42.8182C12.8255 43.4517 12.1832 43.9796 11.3855 44.402C10.5877 44.8302 9.61108 45.1557 8.45552 45.3786L7.65484 43.2142C8.42326 43.0616 9.12128 42.8622 9.74892 42.6158C10.3824 42.3754 10.9133 42.085 11.3415 41.7448C11.7697 41.4046 12.0571 41.0233 12.2037 40.601H11.2711C10.0979 40.601 9.20634 40.3575 8.5963 39.8707C7.98626 39.3838 7.68124 38.6066 7.68124 37.539C7.68124 37.0991 7.74576 36.6357 7.87481 36.1488C8.00972 35.662 8.21209 35.2044 8.48191 34.7762C8.75174 34.348 9.09195 34.002 9.50256 33.738C9.91316 33.4682 10.3971 33.3333 10.9543 33.3333ZM11.2447 38.2341H12.4501C12.4266 37.9291 12.3797 37.6241 12.3093 37.3191C12.2389 37.014 12.1422 36.7383 12.019 36.492C11.9017 36.2397 11.7521 36.0403 11.5702 35.8937C11.3943 35.7412 11.1831 35.6649 10.9367 35.6649C10.6435 35.6649 10.4088 35.7705 10.2328 35.9817C10.0627 36.187 9.94249 36.4304 9.8721 36.7119C9.80171 36.9876 9.76652 37.234 9.76652 37.451C9.76652 37.7795 9.8985 37.9936 10.1625 38.0933C10.4264 38.1872 10.7872 38.2341 11.2447 38.2341ZM14.9049 38.2341H15.5296V40.601H14.9049V38.2341ZM18.8027 30.025L20.2545 31.4679L18.8027 32.9285L17.351 31.4679L18.8027 30.025ZM15.8288 30.025L17.2982 31.4679L15.8288 32.9285L14.3946 31.4679L15.8288 30.025ZM17.8173 34.5387L19.8762 34.2923L20.0522 36.7207C20.0698 37.0258 20.1313 37.2927 20.2369 37.5214C20.3484 37.7502 20.5097 37.9262 20.7209 38.0493C20.932 38.1725 21.2019 38.2341 21.5303 38.2341H21.7063V40.601H21.5127C21.1139 40.601 20.7561 40.5511 20.4393 40.4514C20.1225 40.3517 19.8439 40.2138 19.6034 40.0378C19.3629 39.8619 19.1547 39.6566 18.9787 39.4219C18.6326 39.7973 18.2103 40.0877 17.7117 40.293C17.219 40.4983 16.694 40.601 16.1368 40.601H15.3009V38.2341H16.1368C16.7996 38.2341 17.26 38.0845 17.5181 37.7854C17.7762 37.4862 17.9053 37.0316 17.9053 36.4216C17.9053 36.0931 17.8965 35.7734 17.8789 35.4625C17.8672 35.1458 17.8466 34.8378 17.8173 34.5387ZM27.4078 40.601C26.7978 40.601 26.2933 40.4983 25.8945 40.293C25.5015 40.0818 25.1818 39.8003 24.9354 39.4483C24.6187 39.8061 24.2257 40.0877 23.7564 40.293C23.2871 40.4983 22.7006 40.601 21.9967 40.601H21.3808V38.2341H22.0143C22.6771 38.2341 23.1669 38.1139 23.4836 37.8734C23.8004 37.627 23.9588 37.1871 23.9588 36.5536C23.9588 36.4597 23.9529 36.3189 23.9412 36.1312C23.9294 35.9435 23.9148 35.7324 23.8972 35.4977C23.8854 35.2631 23.8708 35.0343 23.8532 34.8114L25.9121 34.5563L26.0968 36.7911C26.1144 37.061 26.1731 37.3073 26.2728 37.5302C26.3784 37.7473 26.525 37.9203 26.7127 38.0493C26.9063 38.1725 27.1439 38.2341 27.4254 38.2341C27.9416 38.2341 28.3082 38.0904 28.5253 37.803C28.7423 37.5097 28.8508 37.0932 28.8508 36.5536C28.8508 36.4656 28.845 36.3277 28.8332 36.14C28.8274 35.9465 28.8156 35.7324 28.798 35.4977C28.7804 35.2631 28.7628 35.0343 28.7452 34.8114L30.8041 34.5563L30.9889 36.7911C31.0065 37.0434 31.0564 37.2809 31.1385 37.5038C31.2206 37.7267 31.3438 37.9056 31.508 38.0405C31.6781 38.1696 31.8952 38.2341 32.1591 38.2341C32.4055 38.2341 32.602 38.1637 32.7486 38.0229C32.8953 37.8763 33.0009 37.6857 33.0654 37.451C33.1299 37.2105 33.1622 36.9495 33.1622 36.668C33.1622 36.2691 33.1123 35.8145 33.0126 35.3042C32.9129 34.788 32.8073 34.307 32.6958 33.8612L34.8251 33.2981C34.9659 33.8201 35.0744 34.3451 35.1507 34.873C35.2269 35.3951 35.2651 35.9171 35.2651 36.4392C35.2651 37.19 35.1683 37.8822 34.9747 38.5157C34.7811 39.1433 34.4614 39.6478 34.0156 40.029C33.5698 40.4045 32.9598 40.5951 32.1855 40.601C31.6459 40.601 31.1913 40.4924 30.8217 40.2754C30.4522 40.0525 30.1472 39.7709 29.9067 39.4307C29.6016 39.7827 29.235 40.0672 28.8068 40.2842C28.3786 40.4954 27.9123 40.601 27.4078 40.601ZM39.4708 28.2212V40.5922H37.236V28.2212H39.4708ZM51.4634 45.1235C50.1964 45.1235 49.1581 44.883 48.3487 44.402C47.5451 43.9269 46.9497 43.2787 46.5625 42.4575C46.1813 41.6421 45.9906 40.7212 45.9906 39.6947C45.9906 39.114 46.0493 38.4922 46.1666 37.8294C46.2898 37.1607 46.4892 36.4597 46.7649 35.7265L48.7622 36.492C48.551 37.1138 48.3897 37.6857 48.2783 38.2077C48.1727 38.7298 48.1199 39.202 48.1199 39.6243C48.1199 40.1991 48.2196 40.7271 48.4191 41.2081C48.6244 41.6891 48.9704 42.0733 49.4573 42.3607C49.9442 42.6481 50.6129 42.7918 51.4634 42.7918C52.3843 42.7918 53.1322 42.6921 53.7071 42.4927C54.2878 42.2932 54.713 42.0674 54.9829 41.8152C55.2527 41.5629 55.3876 41.3576 55.3876 41.1993C55.3876 40.9822 55.282 40.8268 55.0708 40.7329C54.8655 40.6449 54.5371 40.601 54.0854 40.601H52.7216C52.4987 40.601 52.355 40.5423 52.2905 40.425C52.2318 40.3077 52.1732 40.1493 52.1145 39.9499L51.7713 38.6828C51.7244 38.5362 51.7156 38.4277 51.745 38.3573C51.7743 38.281 51.8769 38.2429 52.0529 38.2429H57.2617V40.601C57.3086 40.73 57.338 40.8356 57.3497 40.9177C57.3614 40.9998 57.3673 41.0907 57.3673 41.1905C57.3673 41.7008 57.2383 42.1906 56.9802 42.6598C56.7221 43.135 56.3408 43.5573 55.8363 43.9269C55.3319 44.2964 54.713 44.5868 53.9798 44.7979C53.2466 45.015 52.4078 45.1235 51.4634 45.1235ZM59.0918 36.4568V28.2212H61.3179V36.4656C61.3179 36.8469 61.356 37.1695 61.4323 37.4334C61.5144 37.6974 61.6552 37.8968 61.8546 38.0317C62.0599 38.1667 62.3503 38.2341 62.7257 38.2341H62.9896V40.601H62.7433C62.321 40.601 61.9543 40.557 61.6435 40.469C61.3384 40.381 61.0686 40.2519 60.834 40.0818C60.6052 39.9059 60.397 39.6888 60.2093 39.4307C60.004 39.6771 59.7811 39.8883 59.5406 40.0642C59.3059 40.2343 59.0244 40.3663 58.6959 40.4602C58.3733 40.554 57.9773 40.601 57.5081 40.601H56.945V38.2341H57.4553C57.8659 38.2341 58.1885 38.1696 58.4231 38.0405C58.6636 37.9056 58.8337 37.7062 58.9335 37.4422C59.039 37.1783 59.0918 36.8498 59.0918 36.4568ZM62.6465 38.2341H63.3504V40.601H62.6465V38.2341ZM64.327 43.7597L65.6996 45.1323L64.327 46.5049L62.9545 45.1323L64.327 43.7597ZM65.858 41.516L67.2306 42.8886L65.858 44.2612L64.4854 42.8886L65.858 41.516ZM62.7961 41.516L64.1687 42.8886L62.7961 44.2612L61.4235 42.8886L62.7961 41.516ZM64.1247 40.601H63.148V38.2341H64.1071C64.6761 38.2341 65.0925 38.1315 65.3565 37.9262C65.6263 37.715 65.7612 37.3308 65.7612 36.7735C65.7612 36.4509 65.726 36.0315 65.6556 35.5153C65.5911 34.9991 65.4767 34.4243 65.3125 33.7908L67.4418 33.2189C67.5884 33.7937 67.6969 34.3598 67.7673 34.917C67.8436 35.4684 67.8817 35.9963 67.8817 36.5008C67.8817 37.322 67.7644 38.0405 67.5298 38.6564C67.2951 39.2665 66.9051 39.7446 66.3595 40.0906C65.814 40.4308 65.0691 40.601 64.1247 40.601Z" fill="white"/>
</svg>
