<svg width="364" height="24" viewBox="0 0 364 24" fill="none" xmlns="http://www.w3.org/2000/svg">
<path d="M245.586 5.8637L247.619 7.89661L245.586 9.92952L243.553 7.89661L245.586 5.8637ZM245.739 18.8132C246.898 18.8132 247.811 18.6252 248.477 18.2492C249.143 17.8731 249.613 17.3678 249.887 16.7333C250.169 16.0987 250.31 15.3898 250.31 14.6064C250.31 13.7446 250.177 12.8633 249.91 11.9624C249.644 11.0615 249.354 10.2272 249.041 9.45948L251.955 8.35489C252.394 9.49865 252.703 10.5641 252.883 11.5511C253.071 12.5304 253.165 13.5175 253.165 14.5124C253.165 16.0243 252.887 17.3326 252.331 18.4372C251.775 19.5496 250.945 20.4074 249.84 21.0106C248.743 21.6217 247.376 21.9272 245.739 21.9272C244.047 21.9272 242.66 21.606 241.579 20.9636C240.506 20.3291 239.711 19.4634 239.194 18.3667C238.684 17.2699 238.43 16.04 238.43 14.6769C238.43 13.7603 238.528 12.8163 238.724 11.8449C238.927 10.8657 239.213 9.89818 239.581 8.94244L242.249 9.97652C241.975 10.7756 241.744 11.5707 241.556 12.362C241.368 13.1453 241.274 13.8817 241.274 14.5711C241.274 15.3467 241.407 16.0557 241.673 16.698C241.947 17.3404 242.409 17.8535 243.06 18.2374C243.71 18.6213 244.603 18.8132 245.739 18.8132ZM255.786 0.199765H258.759V11.1516C258.759 12.0368 258.892 12.6636 259.158 13.0318C259.425 13.3921 259.946 13.5723 260.721 13.5723H261.003V16.7333H260.721C259.021 16.7333 257.772 16.2907 256.973 15.4054C256.182 14.5202 255.786 13.1767 255.786 11.3749V0.199765ZM260.533 13.5723H261.473V16.7333H260.533V13.5723ZM264.811 18.3079L266.749 20.2351L264.811 22.1857L262.872 20.2351L264.811 18.3079ZM260.839 18.3079L262.801 20.2351L260.839 22.1857L258.923 20.2351L260.839 18.3079ZM262.507 16.7333H261.203V13.5723H262.484C263.244 13.5723 263.8 13.4352 264.153 13.161C264.513 12.879 264.693 12.3659 264.693 11.6216C264.693 11.1908 264.646 10.6307 264.552 9.94127C264.466 9.25188 264.313 8.48415 264.094 7.63809L266.938 6.87428C267.133 7.64201 267.278 8.39798 267.372 9.14221C267.474 9.8786 267.525 10.5836 267.525 11.2574C267.525 12.3541 267.368 13.3138 267.055 14.1363C266.742 14.9511 266.221 15.5895 265.492 16.0517C264.764 16.5061 263.769 16.7333 262.507 16.7333ZM273.894 7.02704C274.646 7.02704 275.304 7.20331 275.868 7.55583C276.432 7.90053 276.91 8.3784 277.302 8.98944C277.701 9.59266 278.011 10.2899 278.23 11.0811C278.457 11.8645 278.594 12.6949 278.641 13.5723H279.617V16.7333H278.43C278.156 17.8692 277.694 18.8563 277.043 19.6945C276.393 20.5406 275.535 21.2456 274.47 21.8097C273.404 22.3816 272.1 22.8163 270.557 23.114L269.487 20.2233C270.514 20.0196 271.446 19.7533 272.284 19.4242C273.13 19.1031 273.839 18.7153 274.411 18.2609C274.983 17.8065 275.367 17.2973 275.563 16.7333H274.317C272.75 16.7333 271.56 16.4082 270.745 15.758C269.93 15.1077 269.523 14.0698 269.523 12.644C269.523 12.0564 269.609 11.4375 269.781 10.7873C269.961 10.1371 270.232 9.52607 270.592 8.95419C270.952 8.38231 271.407 7.92011 271.955 7.56758C272.504 7.20722 273.15 7.02704 273.894 7.02704ZM274.282 13.5723H275.892C275.86 13.1649 275.798 12.7576 275.704 12.3502C275.61 11.9428 275.48 11.5746 275.316 11.2456C275.159 10.9088 274.959 10.6424 274.717 10.4466C274.482 10.2429 274.2 10.141 273.871 10.141C273.479 10.141 273.165 10.282 272.93 10.5641C272.703 10.8383 272.543 11.1634 272.449 11.5394C272.355 11.9076 272.308 12.2366 272.308 12.5265C272.308 12.9652 272.484 13.2511 272.836 13.3843C273.189 13.5096 273.671 13.5723 274.282 13.5723ZM287.231 18.2022L289.264 20.2351L287.231 22.268L285.198 20.2351L287.231 18.2022ZM279.194 13.5723H281.168C282.225 13.5723 283.216 13.4548 284.141 13.2198C285.073 12.9848 286.017 12.6557 286.973 12.2327C287.936 11.8018 288.982 11.2965 290.11 10.7168C289.82 10.5915 289.495 10.4583 289.135 10.3173C288.782 10.1763 288.43 10.0392 288.077 9.90601C287.733 9.765 287.427 9.64749 287.161 9.55349C286.887 9.44381 286.64 9.35372 286.421 9.28322C286.209 9.20488 286.025 9.14612 285.868 9.10695C285.719 9.06778 285.598 9.0482 285.504 9.0482C285.065 9.0482 284.646 9.18529 284.247 9.45948C283.855 9.72583 283.542 10.0118 283.307 10.3173L282.742 11.0224L280.275 9.81201L280.733 9.0717C281.274 8.17863 281.951 7.44224 282.766 6.86253C283.581 6.28282 284.497 5.99296 285.516 5.99296C286.213 5.99296 286.879 6.11831 287.513 6.36899C288.156 6.61184 288.802 6.89387 289.452 7.21506C290.149 7.55975 290.757 7.84569 291.274 8.07287C291.791 8.29222 292.253 8.4724 292.66 8.61341C293.075 8.74659 293.479 8.84843 293.871 8.91894C294.262 8.98161 294.685 9.0247 295.14 9.0482V11.9507C294.599 12.0212 294.078 12.1465 293.577 12.3267C293.075 12.499 292.539 12.7262 291.967 13.0083C291.395 13.2903 290.737 13.6311 289.993 14.0306C288.99 14.5633 288.026 15.0333 287.102 15.4407C286.185 15.8481 285.245 16.1653 284.282 16.3925C283.326 16.6197 282.276 16.7333 281.133 16.7333H279.194V13.5723ZM294.587 23.1258L293.483 20.2351C294.642 19.9765 295.625 19.6318 296.432 19.201C297.247 18.7779 297.866 18.2178 298.289 17.5206C298.712 16.8234 298.923 15.9538 298.923 14.9119C298.923 14.2068 298.818 13.4235 298.606 12.5617C298.403 11.7 298.171 10.8892 297.913 10.1293L300.839 9.16571C301.144 10.0118 301.376 10.9088 301.532 11.8567C301.689 12.8046 301.767 13.7133 301.767 14.5829C301.767 16.1653 301.477 17.5402 300.898 18.7074C300.318 19.8825 299.491 20.8383 298.418 21.5747C297.345 22.3111 296.068 22.8281 294.587 23.1258ZM304.364 0.199765H307.337V11.1516C307.337 12.0368 307.47 12.6636 307.737 13.0318C308.003 13.3921 308.524 13.5723 309.3 13.5723H309.582V16.7333H309.3C307.6 16.7333 306.35 16.2907 305.551 15.4054C304.76 14.5202 304.364 13.1767 304.364 11.3749V0.199765ZM313.119 5.7697C313.73 6.15356 314.313 6.52959 314.869 6.89778C315.426 7.26598 315.935 7.64592 316.397 8.03762C316.859 8.42148 317.263 8.82493 317.607 9.24796C317.952 9.671 318.218 10.1214 318.406 10.5993C318.594 11.0772 318.689 11.5903 318.689 12.1387C318.689 13.3216 318.418 14.2499 317.878 14.9237C317.337 15.5895 316.566 16.0596 315.563 16.3338C314.568 16.6001 313.381 16.7333 312.002 16.7333H309.159V13.5723H311.99C312.86 13.5723 313.577 13.5331 314.141 13.4548C314.713 13.3686 315.14 13.2198 315.422 13.0083C315.704 12.7967 315.845 12.4912 315.845 12.0917C315.845 11.8488 315.719 11.5825 315.469 11.2926C315.218 11.0028 314.889 10.7012 314.482 10.3878C314.074 10.0744 313.628 9.76109 313.142 9.44773C312.664 9.13437 312.186 8.82493 311.708 8.51941C311.238 8.21388 310.815 7.92403 310.439 7.64984C310.134 7.41482 309.895 7.12105 309.723 6.76852C309.558 6.416 309.476 6.05172 309.476 5.67569C309.476 5.25266 309.578 4.84921 309.781 4.46534C309.993 4.08148 310.302 3.81121 310.71 3.65453L319.664 0V3.11399L313.119 5.7697ZM334.693 22.6557C333.001 22.6557 331.615 22.3346 330.533 21.6922C329.46 21.0576 328.665 20.192 328.148 19.0952C327.639 18.0063 327.384 16.7764 327.384 15.4054C327.384 14.4889 327.482 13.5449 327.678 12.5735C327.882 11.5942 328.168 10.6267 328.536 9.671L331.203 10.7051C330.929 11.512 330.698 12.311 330.51 13.1023C330.322 13.8857 330.228 14.622 330.228 15.3114C330.228 16.0792 330.361 16.7842 330.627 17.4266C330.902 18.069 331.364 18.5821 332.014 18.966C332.664 19.3498 333.557 19.5418 334.693 19.5418C335.571 19.5418 336.342 19.4595 337.008 19.295C337.674 19.1383 338.226 18.9307 338.665 18.6722C339.104 18.4215 339.433 18.1552 339.652 17.8731C339.879 17.5911 339.993 17.3326 339.993 17.0976C339.993 16.9566 339.954 16.839 339.875 16.745C339.797 16.6589 339.656 16.6158 339.452 16.6158H337.549C337.11 16.6158 336.675 16.5727 336.244 16.4865C335.821 16.3925 335.434 16.2163 335.081 15.9577C334.736 15.6914 334.458 15.3114 334.247 14.8179C334.043 14.3244 333.941 13.682 333.941 12.8907C333.941 12.0838 334.07 11.3083 334.329 10.5641C334.595 9.81984 334.971 9.15396 335.457 8.56641C335.951 7.97887 336.542 7.51666 337.231 7.1798C337.921 6.84294 338.692 6.67451 339.546 6.67451C340.095 6.67451 340.643 6.75677 341.191 6.92128C341.74 7.07796 342.249 7.32473 342.719 7.66159L341.72 10.4231C341.321 10.2115 340.941 10.0627 340.58 9.97652C340.22 9.89035 339.879 9.84726 339.558 9.84726C338.978 9.84726 338.477 9.98044 338.054 10.2468C337.639 10.5131 337.322 10.8735 337.102 11.3279C336.883 11.7822 336.773 12.2993 336.773 12.879C336.773 13.114 336.84 13.2707 336.973 13.349C337.114 13.4274 337.31 13.4665 337.56 13.4665H339.335C340.197 13.4665 340.874 13.6075 341.368 13.8896C341.861 14.1638 342.21 14.5476 342.414 15.0412C342.617 15.5269 342.719 16.087 342.719 16.7215C342.719 17.7948 342.414 18.7819 341.803 19.6828C341.191 20.5837 340.287 21.3044 339.088 21.8449C337.897 22.3855 336.432 22.6557 334.693 22.6557ZM348.242 0.199765V16.7215H345.257V0.199765H348.242ZM357.572 16.7333C357.196 16.7333 356.848 16.6902 356.526 16.604C356.205 16.5179 355.939 16.4082 355.727 16.275C355.539 17.4423 355.152 18.492 354.564 19.4242C353.976 20.3565 353.189 21.136 352.202 21.7627C351.223 22.3972 350.044 22.8516 348.665 23.1258L347.584 20.2351C348.743 19.9765 349.727 19.6318 350.533 19.201C351.348 18.7779 351.967 18.2178 352.39 17.5206C352.813 16.8234 353.025 15.9538 353.025 14.9119C353.025 14.2068 352.919 13.4235 352.707 12.5617C352.504 11.7 352.273 10.8892 352.014 10.1293L354.928 9.16571L355.61 11.7862C355.751 12.3267 355.958 12.7615 356.233 13.0905C356.515 13.4117 356.918 13.5723 357.443 13.5723H357.89V16.7333H357.572ZM357.419 13.5723H357.984V16.7333H357.419V13.5723ZM359.84 18.2022L361.873 20.2351L359.84 22.268L357.807 20.2351L359.84 18.2022ZM358.982 16.7333H357.678V13.5723H358.959C359.719 13.5723 360.275 13.4352 360.627 13.161C360.988 12.879 361.168 12.3659 361.168 11.6216C361.168 11.1908 361.121 10.6307 361.027 9.94127C360.941 9.25188 360.788 8.48415 360.569 7.63809L363.412 6.87428C363.608 7.64201 363.753 8.39798 363.847 9.14221C363.949 9.8786 364 10.5836 364 11.2574C364 12.3541 363.843 13.3138 363.53 14.1363C363.217 14.9511 362.696 15.5895 361.967 16.0517C361.239 16.5061 360.244 16.7333 358.982 16.7333Z" fill="#212121"/>
<line x1="223.612" y1="15.7305" x2="1.00274" y2="15.7305" stroke="#1967D2" stroke-width="2" stroke-linecap="round"/>
</svg>
