<svg width="822" height="90" viewBox="0 0 822 90" fill="none" xmlns="http://www.w3.org/2000/svg">
<rect width="822" height="90" rx="8" fill="#DFEBFD"/>
<rect x="14" y="27" width="137" height="36" rx="8" fill="#1967D2"/>
<path d="M72.2822 38.5459L73.376 39.6396L72.2822 40.7334L71.1885 39.6396L72.2822 38.5459ZM68.8916 49.0322C68.8916 48.4261 69.0124 47.8633 69.2539 47.3438C69.5 46.8197 69.8464 46.348 70.293 45.9287C70.7396 45.5049 71.2728 45.138 71.8926 44.8281C72.5169 44.5182 73.2051 44.2699 73.957 44.083C73.8477 44.042 73.7337 43.9987 73.6152 43.9531C73.4967 43.9076 73.3805 43.8643 73.2666 43.8232C73.1572 43.7777 73.0524 43.7367 72.9521 43.7002C72.738 43.6136 72.5465 43.5407 72.3779 43.4814C72.2093 43.4176 72.0635 43.3698 71.9404 43.3379C71.8219 43.306 71.724 43.29 71.6465 43.29C71.3685 43.29 71.1064 43.3721 70.8604 43.5361C70.6188 43.6956 70.4137 43.8848 70.2451 44.1035L70.0195 44.3975L68.7549 43.7686L68.9531 43.4609C69.263 42.9551 69.6481 42.5449 70.1084 42.2305C70.5687 41.9115 71.0837 41.752 71.6533 41.752C72.0088 41.752 72.3688 41.8203 72.7334 41.957C73.098 42.0892 73.4808 42.2533 73.8818 42.4492C74.2738 42.6361 74.6178 42.7956 74.9141 42.9277C75.2148 43.0599 75.4883 43.167 75.7344 43.249C75.9805 43.3311 76.2174 43.3949 76.4453 43.4404C76.6732 43.4814 76.9056 43.5111 77.1426 43.5293V44.9648C76.901 44.9831 76.639 45.0081 76.3564 45.04C76.0785 45.0719 75.8324 45.1084 75.6182 45.1494C75.6273 45.5277 75.7116 45.8079 75.8711 45.9902C76.0306 46.1725 76.263 46.2933 76.5684 46.3525C76.8783 46.4072 77.2497 46.4346 77.6826 46.4346H78.2227V48H77.7031C77.0013 48 76.4043 47.9294 75.9121 47.7881C75.4245 47.6423 75.0508 47.3848 74.791 47.0156C74.5312 46.6419 74.39 46.1156 74.3672 45.4365C73.7292 45.6143 73.1572 45.8307 72.6514 46.0859C72.1501 46.3366 71.724 46.6169 71.373 46.9268C71.0221 47.2321 70.7555 47.5579 70.5732 47.9043C70.391 48.2507 70.2998 48.6084 70.2998 48.9775C70.2998 49.4697 70.4388 49.8799 70.7168 50.208C70.9993 50.5407 71.3958 50.7913 71.9062 50.96C72.4212 51.1286 73.0228 51.2129 73.7109 51.2129C74.2806 51.2129 74.8434 51.1582 75.3994 51.0488C75.96 50.9395 76.4749 50.7822 76.9443 50.5771L77.3545 52.0332C76.8167 52.2656 76.2288 52.4388 75.5908 52.5527C74.9574 52.6667 74.3216 52.7236 73.6836 52.7236C73.0228 52.7236 72.403 52.653 71.8242 52.5117C71.25 52.3704 70.7419 52.1494 70.2998 51.8486C69.8577 51.5524 69.5114 51.1719 69.2607 50.707C69.0146 50.2422 68.8916 49.6839 68.8916 49.0322ZM82.6592 48C82.1624 48 81.766 47.9157 81.4697 47.7471C81.1735 47.5739 80.9342 47.3369 80.752 47.0361C80.5195 47.3415 80.2233 47.5785 79.8633 47.7471C79.5033 47.9157 79.0339 48 78.4551 48H77.9766V46.4346H78.4688C79.0156 46.4346 79.4212 46.3229 79.6855 46.0996C79.9544 45.8717 80.0889 45.4935 80.0889 44.9648C80.0889 44.8874 80.0843 44.7894 80.0752 44.6709C80.0706 44.5524 80.0615 44.4157 80.0479 44.2607C80.0387 44.1012 80.0273 43.9303 80.0137 43.748L81.4082 43.5771L81.5312 45.1562C81.5449 45.3887 81.5951 45.6029 81.6816 45.7988C81.7728 45.9902 81.9004 46.1452 82.0645 46.2637C82.2285 46.3776 82.4313 46.4346 82.6729 46.4346C83.1104 46.4346 83.4225 46.3024 83.6094 46.0381C83.7962 45.7738 83.8896 45.416 83.8896 44.9648C83.8896 44.8919 83.8874 44.7962 83.8828 44.6777C83.8783 44.5547 83.8691 44.4157 83.8555 44.2607C83.8418 44.1012 83.8281 43.9303 83.8145 43.748L85.209 43.5771L85.332 45.1562C85.3457 45.375 85.389 45.5824 85.4619 45.7783C85.5394 45.9743 85.651 46.1338 85.7969 46.2568C85.9427 46.3753 86.1273 46.4346 86.3506 46.4346C86.5602 46.4346 86.7288 46.373 86.8564 46.25C86.9886 46.1224 87.0843 45.9538 87.1436 45.7441C87.2074 45.5299 87.2393 45.293 87.2393 45.0332C87.2393 44.7461 87.2074 44.4248 87.1436 44.0693C87.0798 43.7093 86.9977 43.3493 86.8975 42.9893L88.333 42.6133C88.4424 42.9961 88.5221 43.3789 88.5723 43.7617C88.627 44.14 88.6543 44.5137 88.6543 44.8828C88.6543 45.4525 88.5814 45.972 88.4355 46.4414C88.2943 46.9108 88.0573 47.2868 87.7246 47.5693C87.3919 47.8519 86.9408 47.9954 86.3711 48C85.9473 48 85.5918 47.9134 85.3047 47.7402C85.0221 47.5625 84.792 47.3255 84.6143 47.0293C84.3682 47.3438 84.0742 47.5853 83.7324 47.7539C83.3952 47.918 83.0374 48 82.6592 48ZM90.2676 38.4434H91.7441V44.9238C91.7441 45.498 91.8398 45.8945 92.0312 46.1133C92.2227 46.3275 92.5508 46.4346 93.0156 46.4346H93.1797V48H93.0156C92.0768 48 91.3841 47.7562 90.9375 47.2686C90.4909 46.7764 90.2676 46.0176 90.2676 44.9922V38.4434ZM92.9062 46.4346H93.4531V48H92.9062V46.4346ZM94.2119 50.5156L95.21 51.5205L94.2119 52.5186L93.2139 51.5205L94.2119 50.5156ZM95.3945 48.7793L96.3926 49.7842L95.3945 50.7822L94.3896 49.7842L95.3945 48.7793ZM93.0361 48.7793L94.0342 49.7842L93.0361 50.7822L92.0312 49.7842L93.0361 48.7793ZM94.0547 48H93.3027V46.4346H94.041C94.5605 46.4346 94.9229 46.3298 95.1279 46.1201C95.3376 45.9105 95.4424 45.5846 95.4424 45.1426C95.4424 44.8874 95.415 44.5661 95.3604 44.1787C95.3102 43.7868 95.2259 43.3698 95.1074 42.9277L96.543 42.5449C96.6569 42.9505 96.7389 43.3652 96.7891 43.7891C96.8392 44.2129 96.8643 44.6071 96.8643 44.9717C96.8643 45.5687 96.7799 46.0951 96.6113 46.5508C96.4473 47.002 96.1602 47.3574 95.75 47.6172C95.3444 47.8724 94.7793 48 94.0547 48Z" fill="white"/>
<path d="M652.906 22.0781H654.594V29.4844C654.594 30.1406 654.703 30.5938 654.922 30.8438C655.141 31.0885 655.516 31.2109 656.047 31.2109H656.234V33H656.047C654.974 33 654.182 32.7214 653.672 32.1641C653.161 31.6016 652.906 30.7344 652.906 29.5625V22.0781ZM656.281 33H655.953V31.2109H656.242C656.549 31.2109 656.815 31.112 657.039 30.9141C657.263 30.7109 657.469 30.4531 657.656 30.1406C657.849 29.8229 658.042 29.487 658.234 29.1328C658.432 28.7786 658.654 28.4427 658.898 28.125C659.143 27.8073 659.432 27.5495 659.766 27.3516C660.104 27.1536 660.51 27.0547 660.984 27.0547C661.552 27.0547 662.036 27.1719 662.438 27.4062C662.844 27.6406 663.172 27.9609 663.422 28.3672C663.677 28.7682 663.852 29.2214 663.945 29.7266C664.013 30.0651 664.109 30.3464 664.234 30.5703C664.359 30.7891 664.505 30.9505 664.672 31.0547C664.844 31.1589 665.026 31.2109 665.219 31.2109H665.422V33H665.211C664.878 33 664.549 32.9271 664.227 32.7812C663.909 32.6354 663.651 32.4323 663.453 32.1719C663.219 32.4948 662.94 32.7448 662.617 32.9219C662.294 33.0938 661.891 33.1797 661.406 33.1797C661.052 33.1797 660.716 33.1276 660.398 33.0234C660.086 32.9193 659.779 32.7708 659.477 32.5781C659.174 32.3854 658.867 32.1536 658.555 31.8828C658.346 32.1068 658.141 32.3047 657.938 32.4766C657.74 32.6432 657.51 32.7734 657.25 32.8672C656.99 32.9557 656.667 33 656.281 33ZM661.031 28.7734C660.792 28.7734 660.573 28.8542 660.375 29.0156C660.182 29.1719 660.008 29.3724 659.852 29.6172C659.701 29.862 659.568 30.1068 659.453 30.3516C659.62 30.5182 659.784 30.6641 659.945 30.7891C660.107 30.9141 660.26 31.0182 660.406 31.1016C660.604 31.2161 660.786 31.2995 660.953 31.3516C661.125 31.4036 661.276 31.4297 661.406 31.4297C661.745 31.4297 661.992 31.3307 662.148 31.1328C662.31 30.9349 662.391 30.6719 662.391 30.3438C662.391 29.8958 662.271 29.5234 662.031 29.2266C661.792 28.9245 661.458 28.7734 661.031 28.7734ZM672.227 22.2656L673.367 23.4062L672.227 24.5469L671.086 23.4062L672.227 22.2656ZM673.578 24.25L674.719 25.3906L673.578 26.5312L672.43 25.3906L673.578 24.25ZM670.883 24.25L672.023 25.3906L670.883 26.5312L669.734 25.3906L670.883 24.25ZM670.477 33C669.909 33 669.456 32.9036 669.117 32.7109C668.779 32.513 668.505 32.2422 668.297 31.8984C668.031 32.2474 667.693 32.5182 667.281 32.7109C666.87 32.9036 666.333 33 665.672 33H665.125V31.2109H665.688C666.312 31.2109 666.776 31.0833 667.078 30.8281C667.385 30.5677 667.539 30.1354 667.539 29.5312C667.539 29.4427 667.534 29.3307 667.523 29.1953C667.518 29.0599 667.508 28.9036 667.492 28.7266C667.482 28.5443 667.469 28.349 667.453 28.1406L669.047 27.9453L669.188 29.75C669.203 30.0156 669.26 30.2604 669.359 30.4844C669.464 30.7031 669.609 30.8802 669.797 31.0156C669.984 31.1458 670.216 31.2109 670.492 31.2109C670.992 31.2109 671.349 31.0599 671.562 30.7578C671.776 30.4557 671.883 30.0469 671.883 29.5312C671.883 29.4479 671.88 29.3385 671.875 29.2031C671.87 29.0625 671.859 28.9036 671.844 28.7266C671.828 28.5443 671.812 28.349 671.797 28.1406L673.391 27.9453L673.531 29.75C673.547 30 673.596 30.237 673.68 30.4609C673.768 30.6849 673.896 30.8672 674.062 31.0078C674.229 31.1432 674.44 31.2109 674.695 31.2109C674.935 31.2109 675.128 31.1406 675.273 31C675.424 30.8542 675.534 30.6615 675.602 30.4219C675.674 30.1771 675.711 29.9062 675.711 29.6094C675.711 29.2812 675.674 28.9141 675.602 28.5078C675.529 28.0964 675.435 27.6849 675.32 27.2734L676.961 26.8438C677.086 27.2812 677.177 27.7188 677.234 28.1562C677.297 28.5885 677.328 29.0156 677.328 29.4375C677.328 30.0885 677.245 30.6823 677.078 31.2188C676.917 31.7552 676.646 32.1849 676.266 32.5078C675.885 32.8307 675.37 32.9948 674.719 33C674.234 33 673.828 32.901 673.5 32.7031C673.177 32.5 672.914 32.2292 672.711 31.8906C672.43 32.25 672.094 32.526 671.703 32.7188C671.318 32.9062 670.909 33 670.477 33ZM690.5 33C690 33 689.568 32.9219 689.203 32.7656C688.839 32.6094 688.539 32.3828 688.305 32.0859C688.076 31.7839 687.906 31.4219 687.797 31C687.474 31.276 687.148 31.4844 686.82 31.625C686.492 31.7656 686.128 31.8359 685.727 31.8359C684.924 31.8359 684.255 31.6198 683.719 31.1875C683.188 30.7552 682.922 30.138 682.922 29.3359C682.922 28.888 683.016 28.4818 683.203 28.1172C683.396 27.7526 683.669 27.4219 684.023 27.125C684.378 26.8229 684.802 26.5521 685.297 26.3125C685.797 26.0729 686.357 25.8594 686.977 25.6719L686.922 25.2969L688.453 24.9844L689.156 29.875C689.214 30.2604 689.352 30.5807 689.57 30.8359C689.794 31.0859 690.115 31.2109 690.531 31.2109H690.766V33H690.5ZM687.438 28.875C687.438 28.7969 687.432 28.7188 687.422 28.6406C687.417 28.5573 687.406 28.4714 687.391 28.3828L687.227 27.2891C686.82 27.4349 686.453 27.5833 686.125 27.7344C685.797 27.8854 685.518 28.0417 685.289 28.2031C685.06 28.3646 684.883 28.5312 684.758 28.7031C684.638 28.875 684.578 29.0573 684.578 29.25C684.578 29.5417 684.682 29.7656 684.891 29.9219C685.099 30.0781 685.378 30.1562 685.727 30.1562C686.008 30.1562 686.279 30.1094 686.539 30.0156C686.799 29.9167 687.013 29.7708 687.18 29.5781C687.352 29.3802 687.438 29.1458 687.438 28.875ZM690.461 31.2109H690.836V33H690.461V31.2109ZM692.07 34.0781L693.32 35.3281L692.07 36.5781L690.82 35.3281L692.07 34.0781ZM691.5 33H690.641V31.2109H691.484C692.078 31.2109 692.492 31.0911 692.727 30.8516C692.966 30.612 693.086 30.2396 693.086 29.7344C693.086 29.4427 693.055 29.0755 692.992 28.6328C692.935 28.1849 692.839 27.7083 692.703 27.2031L694.344 26.7656C694.474 27.2292 694.568 27.7031 694.625 28.1875C694.682 28.6719 694.711 29.1224 694.711 29.5391C694.711 30.2214 694.615 30.8229 694.422 31.3438C694.234 31.8594 693.906 32.2656 693.438 32.5625C692.974 32.8542 692.328 33 691.5 33ZM704.617 27.6328C704.372 27.6328 704.065 27.651 703.695 27.6875C703.331 27.7188 702.971 27.7865 702.617 27.8906C702.904 28.2292 703.201 28.5495 703.508 28.8516C703.82 29.1536 704.083 29.401 704.297 29.5938C704.51 29.7812 704.617 29.875 704.617 29.875C704.617 29.875 704.68 29.8203 704.805 29.7109C704.935 29.6016 705.102 29.4531 705.305 29.2656C705.508 29.0781 705.724 28.8672 705.953 28.6328C706.188 28.3932 706.411 28.1458 706.625 27.8906C706.276 27.7865 705.914 27.7188 705.539 27.6875C705.169 27.651 704.862 27.6328 704.617 27.6328ZM703.164 30.6875C702.992 30.5208 702.802 30.3255 702.594 30.1016C702.385 29.8776 702.174 29.6406 701.961 29.3906C701.753 29.1406 701.56 28.8958 701.383 28.6562C701.211 28.4115 701.07 28.1875 700.961 27.9844C700.857 27.7812 700.805 27.6172 700.805 27.4922C700.805 27.2422 700.922 27.0234 701.156 26.8359C701.396 26.6432 701.708 26.4844 702.094 26.3594C702.479 26.2344 702.893 26.1406 703.336 26.0781C703.779 26.0156 704.206 25.9844 704.617 25.9844C705.023 25.9844 705.448 26.0156 705.891 26.0781C706.333 26.1406 706.745 26.2344 707.125 26.3594C707.51 26.4844 707.823 26.6432 708.062 26.8359C708.307 27.0234 708.43 27.2422 708.43 27.4922C708.43 27.6224 708.378 27.7891 708.273 27.9922C708.169 28.1953 708.029 28.4193 707.852 28.6641C707.674 28.9036 707.479 29.1484 707.266 29.3984C707.052 29.6484 706.833 29.8906 706.609 30.125C706.391 30.3542 706.188 30.5547 706 30.7266C706.417 30.9297 706.867 31.0625 707.352 31.125C707.836 31.1823 708.37 31.2109 708.953 31.2109H709.445V33H708.977C708.456 33 707.964 32.9714 707.5 32.9141C707.036 32.8516 706.565 32.7292 706.086 32.5469C705.612 32.3646 705.096 32.0911 704.539 31.7266C704.164 31.9401 703.818 32.1562 703.5 32.375C703.182 32.5938 702.904 32.8151 702.664 33.0391C702.43 33.2682 702.247 33.5 702.117 33.7344C701.992 33.974 701.93 34.2214 701.93 34.4766C701.93 34.9245 702.052 35.3125 702.297 35.6406C702.547 35.9688 702.904 36.2188 703.367 36.3906C703.836 36.5625 704.396 36.6484 705.047 36.6484C705.536 36.6484 706.036 36.6068 706.547 36.5234C707.062 36.4401 707.539 36.3255 707.977 36.1797L708.383 37.8828C707.872 38.0443 707.336 38.1693 706.773 38.2578C706.211 38.3516 705.643 38.3984 705.07 38.3984C704.148 38.3984 703.328 38.2604 702.609 37.9844C701.891 37.7083 701.328 37.2786 700.922 36.6953C700.516 36.1172 700.312 35.3776 700.312 34.4766C700.312 33.987 700.404 33.5521 700.586 33.1719C700.768 32.7917 701.005 32.4531 701.297 32.1562C701.589 31.8542 701.898 31.5833 702.227 31.3438C702.555 31.1042 702.867 30.8854 703.164 30.6875ZM714.5 34.0781L715.75 35.3281L714.5 36.5781L713.25 35.3281L714.5 34.0781ZM709.156 31.2109H710.469C711.224 31.2109 711.932 31.1198 712.594 30.9375C713.26 30.75 713.927 30.5 714.594 30.1875C715.26 29.875 715.974 29.5208 716.734 29.125C716.542 29.0469 716.349 28.9688 716.156 28.8906C715.969 28.8125 715.776 28.7344 715.578 28.6562C715.38 28.5729 715.174 28.4922 714.961 28.4141C714.69 28.3047 714.451 28.2135 714.242 28.1406C714.039 28.0625 713.862 28.0026 713.711 27.9609C713.565 27.9193 713.445 27.8984 713.352 27.8984C713.049 27.8984 712.758 27.9896 712.477 28.1719C712.201 28.349 711.974 28.5521 711.797 28.7812L711.5 29.1641L710.062 28.4609L710.281 28.1016C710.63 27.5286 711.068 27.0599 711.594 26.6953C712.12 26.3307 712.708 26.1484 713.359 26.1484C713.766 26.1484 714.177 26.2266 714.594 26.3828C715.016 26.5391 715.456 26.7266 715.914 26.9453C716.357 27.1641 716.75 27.349 717.094 27.5C717.438 27.651 717.75 27.7734 718.031 27.8672C718.312 27.9609 718.581 28.0312 718.836 28.0781C719.096 28.125 719.362 28.1562 719.633 28.1719V29.8359C719.336 29.8776 719.034 29.9505 718.727 30.0547C718.419 30.1589 718.073 30.3047 717.688 30.4922C717.307 30.6797 716.857 30.9115 716.336 31.1875C715.669 31.5417 715.029 31.8542 714.414 32.125C713.799 32.3958 713.172 32.6094 712.531 32.7656C711.891 32.9219 711.195 33 710.445 33H709.156V31.2109ZM723.078 22.0781V32.9922H721.398V22.0781H723.078ZM723.43 37.2266L722.828 35.6172C723.635 35.4401 724.299 35.1875 724.82 34.8594C725.346 34.5365 725.737 34.1302 725.992 33.6406C726.247 33.1562 726.375 32.5807 726.375 31.9141C726.375 31.4557 726.315 30.9609 726.195 30.4297C726.076 29.8984 725.93 29.3776 725.758 28.8672L727.406 28.3203C727.599 28.8672 727.745 29.4297 727.844 30.0078C727.948 30.5859 728 31.1458 728 31.6875C728 32.6562 727.826 33.5208 727.477 34.2812C727.128 35.0417 726.615 35.6745 725.938 36.1797C725.26 36.6849 724.424 37.0339 723.43 37.2266ZM741.359 31.5V33H733.734V31.7109L737.438 27.6719C737.844 27.2135 738.164 26.8177 738.398 26.4844C738.633 26.151 738.797 25.8516 738.891 25.5859C738.99 25.3151 739.039 25.0521 739.039 24.7969C739.039 24.2604 738.891 23.8203 738.594 23.4766C738.297 23.1328 737.875 22.9609 737.328 22.9609C736.906 22.9609 736.552 23.0521 736.266 23.2344C735.979 23.4167 735.763 23.6693 735.617 23.9922C735.471 24.3099 735.398 24.6745 735.398 25.0859H733.516C733.516 24.4245 733.667 23.8203 733.969 23.2734C734.271 22.7214 734.708 22.2839 735.281 21.9609C735.854 21.6328 736.544 21.4688 737.352 21.4688C738.492 21.4688 739.372 21.7526 739.992 22.3203C740.612 22.8828 740.922 23.6432 740.922 24.6016C740.922 25.0755 740.82 25.5443 740.617 26.0078C740.419 26.4714 740.143 26.9323 739.789 27.3906C739.435 27.849 739.029 28.3151 738.57 28.7891L736.109 31.5H741.359ZM749.617 26.8516C750.086 26.8516 750.503 26.9583 750.867 27.1719C751.232 27.3854 751.544 27.6875 751.805 28.0781C752.07 28.4635 752.273 28.9219 752.414 29.4531C752.56 29.9844 752.646 30.5703 752.672 31.2109H753.453V33H752.531C752.38 33.6823 752.109 34.3047 751.719 34.8672C751.333 35.4297 750.794 35.9115 750.102 36.3125C749.409 36.7135 748.531 37.0156 747.469 37.2188L746.867 35.6094C747.596 35.4635 748.242 35.2708 748.805 35.0312C749.367 34.7917 749.831 34.5026 750.195 34.1641C750.56 33.8255 750.807 33.4375 750.938 33H749.922C748.906 33 748.138 32.7917 747.617 32.375C747.102 31.9583 746.844 31.3099 746.844 30.4297C746.844 30.0339 746.898 29.6276 747.008 29.2109C747.122 28.7891 747.294 28.401 747.523 28.0469C747.758 27.6875 748.049 27.3984 748.398 27.1797C748.747 26.9609 749.154 26.8516 749.617 26.8516ZM749.875 31.2109H751.086C751.06 30.8307 751.01 30.4844 750.938 30.1719C750.87 29.8542 750.776 29.5807 750.656 29.3516C750.536 29.1172 750.388 28.9375 750.211 28.8125C750.039 28.6823 749.836 28.6172 749.602 28.6172C749.305 28.6172 749.07 28.7214 748.898 28.9297C748.732 29.1328 748.615 29.3698 748.547 29.6406C748.479 29.9115 748.445 30.151 748.445 30.3594C748.445 30.6875 748.565 30.9115 748.805 31.0312C749.044 31.151 749.401 31.2109 749.875 31.2109ZM758.516 34.0781L759.766 35.3281L758.516 36.5781L757.266 35.3281L758.516 34.0781ZM753.172 31.2109H754.484C755.24 31.2109 755.948 31.1198 756.609 30.9375C757.276 30.75 757.943 30.5 758.609 30.1875C759.276 29.875 759.99 29.5208 760.75 29.125C760.557 29.0469 760.365 28.9688 760.172 28.8906C759.984 28.8125 759.792 28.7344 759.594 28.6562C759.396 28.5729 759.19 28.4922 758.977 28.4141C758.706 28.3047 758.466 28.2135 758.258 28.1406C758.055 28.0625 757.878 28.0026 757.727 27.9609C757.581 27.9193 757.461 27.8984 757.367 27.8984C757.065 27.8984 756.773 27.9896 756.492 28.1719C756.216 28.349 755.99 28.5521 755.812 28.7812L755.516 29.1641L754.078 28.4609L754.297 28.1016C754.646 27.5286 755.083 27.0599 755.609 26.6953C756.135 26.3307 756.724 26.1484 757.375 26.1484C757.781 26.1484 758.193 26.2266 758.609 26.3828C759.031 26.5391 759.471 26.7266 759.93 26.9453C760.372 27.1641 760.766 27.349 761.109 27.5C761.453 27.651 761.766 27.7734 762.047 27.8672C762.328 27.9609 762.596 28.0312 762.852 28.0781C763.112 28.125 763.378 28.1562 763.648 28.1719V29.8359C763.352 29.8776 763.049 29.9505 762.742 30.0547C762.435 30.1589 762.089 30.3047 761.703 30.4922C761.323 30.6797 760.872 30.9115 760.352 31.1875C759.685 31.5417 759.044 31.8542 758.43 32.125C757.815 32.3958 757.188 32.6094 756.547 32.7656C755.906 32.9219 755.211 33 754.461 33H753.172V31.2109ZM763.336 37.2266L762.734 35.6172C763.542 35.4401 764.206 35.1875 764.727 34.8594C765.253 34.5365 765.643 34.1302 765.898 33.6406C766.154 33.1562 766.281 32.5807 766.281 31.9141C766.281 31.4557 766.221 30.9609 766.102 30.4297C765.982 29.8984 765.836 29.3776 765.664 28.8672L767.312 28.3203C767.505 28.8672 767.651 29.4297 767.75 30.0078C767.854 30.5859 767.906 31.1458 767.906 31.6875C767.906 32.6562 767.732 33.5208 767.383 34.2812C767.034 35.0417 766.521 35.6745 765.844 36.1797C765.167 36.6849 764.331 37.0339 763.336 37.2266ZM769.75 22.0781H771.438V29.4844C771.438 30.1406 771.547 30.5938 771.766 30.8438C771.984 31.0885 772.359 31.2109 772.891 31.2109H773.078V33H772.891C771.818 33 771.026 32.7214 770.516 32.1641C770.005 31.6016 769.75 30.7344 769.75 29.5625V22.0781ZM775.078 25.5781C775.464 25.8333 775.846 26.0911 776.227 26.3516C776.607 26.612 776.964 26.8802 777.297 27.1562C777.63 27.4323 777.924 27.724 778.18 28.0312C778.44 28.3385 778.643 28.6641 778.789 29.0078C778.935 29.3464 779.008 29.7083 779.008 30.0938C779.008 30.8177 778.844 31.3906 778.516 31.8125C778.188 32.2344 777.701 32.5391 777.055 32.7266C776.414 32.9089 775.625 33 774.688 33H772.797V31.2109H774.68C775.305 31.2109 775.812 31.1797 776.203 31.1172C776.599 31.0495 776.891 30.9323 777.078 30.7656C777.271 30.599 777.367 30.3646 777.367 30.0625C777.367 29.849 777.284 29.6302 777.117 29.4062C776.956 29.1771 776.74 28.9479 776.469 28.7188C776.198 28.4844 775.901 28.2552 775.578 28.0312C775.255 27.8021 774.93 27.5755 774.602 27.3516C774.273 27.1276 773.971 26.9089 773.695 26.6953C773.508 26.5495 773.362 26.3802 773.258 26.1875C773.154 25.9896 773.102 25.7812 773.102 25.5625C773.102 25.3125 773.169 25.0677 773.305 24.8281C773.44 24.5885 773.635 24.4167 773.891 24.3125L779.688 21.9531V23.7109L775.078 25.5781ZM790.492 33C790.19 33 789.924 32.9635 789.695 32.8906C789.471 32.8125 789.292 32.724 789.156 32.625C789.052 33.3594 788.826 34.0417 788.477 34.6719C788.128 35.3021 787.638 35.8385 787.008 36.2812C786.383 36.724 785.594 37.0391 784.641 37.2266L784.047 35.6172C784.854 35.4401 785.518 35.1875 786.039 34.8594C786.565 34.5365 786.956 34.1302 787.211 33.6406C787.466 33.1562 787.594 32.5807 787.594 31.9141C787.594 31.4557 787.534 30.9609 787.414 30.4297C787.294 29.8984 787.148 29.3776 786.977 28.8672L788.625 28.3203L789.062 30.0156C789.167 30.4115 789.326 30.7109 789.539 30.9141C789.753 31.112 790.042 31.2109 790.406 31.2109H790.695V33H790.492ZM797.062 22.5156L798.312 23.7656L797.062 25.0156L795.812 23.7656L797.062 22.5156ZM797.203 28.125C796.896 28.125 796.583 28.1979 796.266 28.3438C795.953 28.4896 795.635 28.6979 795.312 28.9688C794.995 29.2396 794.677 29.5651 794.359 29.9453C794.047 30.3255 793.74 30.7474 793.438 31.2109H794.461C795.112 31.2109 795.695 31.1823 796.211 31.125C796.732 31.0677 797.174 30.9766 797.539 30.8516C797.904 30.7214 798.182 30.5495 798.375 30.3359C798.573 30.1224 798.672 29.8594 798.672 29.5469C798.672 29.1302 798.534 28.7891 798.258 28.5234C797.987 28.2578 797.635 28.125 797.203 28.125ZM797.164 26.3594C797.784 26.3594 798.333 26.4948 798.812 26.7656C799.292 27.0312 799.667 27.3958 799.938 27.8594C800.208 28.3177 800.344 28.8438 800.344 29.4375C800.344 29.724 800.305 30.0156 800.227 30.3125C800.148 30.6094 800.029 30.8724 799.867 31.1016C799.956 31.1224 800.06 31.1406 800.18 31.1562C800.305 31.1719 800.453 31.1849 800.625 31.1953C800.802 31.2057 801.016 31.2109 801.266 31.2109H801.492V33H801.273C800.628 33 800.086 32.9271 799.648 32.7812C799.216 32.6302 798.846 32.4375 798.539 32.2031C798.06 32.4479 797.471 32.6432 796.773 32.7891C796.081 32.9297 795.302 33 794.438 33H790.406V31.2109H791.625C791.714 31.0651 791.799 30.9271 791.883 30.7969C791.971 30.6615 792.062 30.5234 792.156 30.3828V22.0781H793.836V28.1641C794.102 27.8724 794.365 27.6146 794.625 27.3906C794.891 27.1667 795.159 26.9792 795.43 26.8281C795.706 26.6719 795.984 26.5547 796.266 26.4766C796.552 26.3984 796.852 26.3594 797.164 26.3594ZM802.062 33H801.203V31.2109H802.047C802.641 31.2109 803.055 31.0911 803.289 30.8516C803.529 30.612 803.648 30.2396 803.648 29.7344C803.648 29.4427 803.617 29.0755 803.555 28.6328C803.497 28.1849 803.401 27.7083 803.266 27.2031L804.906 26.7656C805.036 27.2292 805.13 27.7031 805.188 28.1875C805.245 28.6719 805.273 29.1224 805.273 29.5391C805.273 30.2214 805.177 30.8229 804.984 31.3438C804.797 31.8594 804.469 32.2656 804 32.5625C803.536 32.8542 802.891 33 802.062 33ZM803.383 23.2266L804.633 24.4766L803.383 25.7266L802.133 24.4766L803.383 23.2266Z" fill="#1967D2"/>
<path d="M483.583 64.0908C483.583 63.8402 483.672 63.626 483.85 63.4482C484.027 63.266 484.242 63.1748 484.492 63.1748C484.743 63.1748 484.957 63.266 485.135 63.4482C485.312 63.626 485.401 63.8402 485.401 64.0908C485.401 64.3415 485.312 64.5557 485.135 64.7334C484.957 64.9111 484.743 65 484.492 65C484.242 65 484.027 64.9134 483.85 64.7402C483.672 64.5671 483.583 64.3506 483.583 64.0908ZM491.007 62.5117C491.007 62.3932 490.979 62.2406 490.925 62.0537C490.875 61.8623 490.813 61.6846 490.74 61.5205L489.53 58.7793L490.597 58.2803L492.148 61.9307C492.358 62.4229 492.54 62.8011 492.695 63.0654C492.855 63.3298 493.01 63.512 493.16 63.6123C493.315 63.708 493.491 63.7559 493.687 63.7559H493.974V65H493.687C493.326 65 493.033 64.9567 492.805 64.8701C492.581 64.7835 492.388 64.6536 492.224 64.4805C492.06 64.3073 491.893 64.0885 491.725 63.8242C491.51 64.0931 491.257 64.3141 490.966 64.4873C490.679 64.6605 490.344 64.7881 489.961 64.8701C489.583 64.9521 489.147 64.9932 488.655 64.9932C488.336 64.9932 488.049 64.9795 487.794 64.9521C487.539 64.9202 487.297 64.877 487.069 64.8223V63.585C487.347 63.6488 487.605 63.6966 487.842 63.7285C488.083 63.7559 488.32 63.7695 488.553 63.7695C489.104 63.7695 489.56 63.7217 489.92 63.626C490.285 63.5303 490.556 63.389 490.733 63.2021C490.916 63.0153 491.007 62.7852 491.007 62.5117ZM494.473 65H493.721V63.7559H494.459C495.07 63.7559 495.478 63.6237 495.683 63.3594C495.892 63.0905 495.997 62.7282 495.997 62.2725C495.997 62.0173 495.972 61.7005 495.922 61.3223C495.872 60.944 495.794 60.568 495.689 60.1943L496.858 59.8799C496.968 60.2399 497.045 60.6273 497.091 61.042C497.136 61.4567 497.159 61.8304 497.159 62.1631C497.159 62.71 497.084 63.1976 496.934 63.626C496.788 64.0498 496.521 64.3848 496.134 64.6309C495.746 64.877 495.193 65 494.473 65ZM495.655 56.8311L496.646 57.8223L495.655 58.8135L494.664 57.8223L495.655 56.8311ZM500.064 63.7695C500.657 63.7695 501.147 63.7194 501.534 63.6191C501.922 63.5143 502.211 63.3617 502.402 63.1611C502.594 62.9606 502.689 62.71 502.689 62.4092C502.689 62.1221 502.594 61.8258 502.402 61.5205C502.211 61.2152 501.908 60.8962 501.493 60.5635C501.078 60.2262 500.534 59.873 499.859 59.5039L500.399 58.4238C500.983 58.7246 501.491 59.0322 501.924 59.3467C502.361 59.6611 502.721 59.9847 503.004 60.3174C503.291 60.6501 503.505 60.9896 503.646 61.3359C503.788 61.6777 503.858 62.0286 503.858 62.3887C503.858 62.9583 503.729 63.4368 503.469 63.8242C503.209 64.2116 502.808 64.5033 502.266 64.6992C501.723 64.8906 501.024 64.9863 500.167 64.9863C499.871 64.9863 499.581 64.9727 499.299 64.9453C499.021 64.918 498.759 64.877 498.513 64.8223V63.585C498.809 63.6442 499.085 63.6898 499.34 63.7217C499.6 63.7536 499.841 63.7695 500.064 63.7695ZM507.516 59.9346C507.889 59.9346 508.229 60.0189 508.534 60.1875C508.844 60.3516 509.113 60.5977 509.341 60.9258C509.569 61.2493 509.744 61.6481 509.867 62.1221C509.995 62.596 510.063 63.1406 510.072 63.7559H510.893V65H509.963C509.863 65.5241 509.662 66.0299 509.361 66.5176C509.065 67.0098 508.623 67.4427 508.035 67.8164C507.447 68.1947 506.668 68.4772 505.697 68.6641L505.294 67.5771C505.982 67.445 506.572 67.2627 507.064 67.0303C507.561 66.7979 507.96 66.513 508.261 66.1758C508.566 65.8385 508.773 65.4466 508.883 65H507.803C506.937 65 506.287 64.8268 505.854 64.4805C505.426 64.1296 505.212 63.6032 505.212 62.9014C505.212 62.5505 505.26 62.1995 505.355 61.8486C505.451 61.4977 505.595 61.1787 505.786 60.8916C505.982 60.5999 506.224 60.3675 506.511 60.1943C506.798 60.0212 507.133 59.9346 507.516 59.9346ZM507.734 63.7559H508.944C508.917 63.3184 508.867 62.9378 508.794 62.6143C508.721 62.2861 508.625 62.015 508.507 61.8008C508.388 61.5866 508.245 61.4271 508.076 61.3223C507.908 61.2174 507.714 61.165 507.495 61.165C507.203 61.165 506.973 61.2653 506.805 61.4658C506.641 61.6618 506.524 61.8919 506.456 62.1562C506.392 62.4206 506.36 62.6553 506.36 62.8604C506.36 63.1794 506.467 63.4095 506.682 63.5508C506.9 63.6875 507.251 63.7559 507.734 63.7559ZM510.626 63.7559H510.954V65H510.626V63.7559ZM512.034 66.0459L513.025 67.0371L512.034 68.0283L511.043 67.0371L512.034 66.0459ZM511.535 65H510.783V63.7559H511.521C512.132 63.7559 512.54 63.6237 512.745 63.3594C512.955 63.0905 513.06 62.7282 513.06 62.2725C513.06 62.0173 513.035 61.7005 512.984 61.3223C512.934 60.944 512.857 60.568 512.752 60.1943L513.921 59.8799C514.03 60.2399 514.108 60.6273 514.153 61.042C514.199 61.4567 514.222 61.8304 514.222 62.1631C514.222 62.71 514.146 63.1976 513.996 63.626C513.85 64.0498 513.584 64.3848 513.196 64.6309C512.809 64.877 512.255 65 511.535 65ZM523.368 68.4521C522.384 68.4521 521.595 68.2721 521.003 67.9121C520.415 67.5521 519.989 67.0713 519.725 66.4697C519.465 65.8727 519.335 65.2165 519.335 64.501C519.335 64.0179 519.385 63.5234 519.485 63.0176C519.586 62.5072 519.722 62.0104 519.896 61.5273L520.982 61.9648C520.85 62.3841 520.739 62.8148 520.647 63.2568C520.556 63.6989 520.511 64.1273 520.511 64.542C520.511 65.0342 520.597 65.4831 520.771 65.8887C520.948 66.2943 521.244 66.6178 521.659 66.8594C522.074 67.1009 522.644 67.2217 523.368 67.2217C523.851 67.2217 524.296 67.1738 524.701 67.0781C525.107 66.987 525.458 66.8617 525.754 66.7021C526.05 66.5426 526.28 66.3604 526.444 66.1553C526.608 65.9548 526.69 65.7474 526.69 65.5332C526.69 65.3874 526.647 65.2507 526.561 65.123C526.474 64.9954 526.317 64.9316 526.089 64.9316H524.981C524.644 64.9316 524.357 64.8906 524.12 64.8086C523.888 64.722 523.701 64.599 523.56 64.4395C523.418 64.2799 523.316 64.0863 523.252 63.8584C523.188 63.6305 523.156 63.373 523.156 63.0859C523.156 62.6348 523.227 62.2109 523.368 61.8145C523.509 61.4134 523.712 61.0602 523.977 60.7549C524.241 60.445 524.56 60.2035 524.934 60.0303C525.307 59.8571 525.729 59.7705 526.198 59.7705C526.435 59.7705 526.684 59.8024 526.943 59.8662C527.208 59.93 527.472 60.0508 527.736 60.2285L527.347 61.2676C527.16 61.1719 526.973 61.1035 526.786 61.0625C526.599 61.0169 526.403 60.9941 526.198 60.9941C525.811 60.9941 525.478 61.0876 525.2 61.2744C524.927 61.4613 524.717 61.7142 524.571 62.0332C524.425 62.3477 524.353 62.6986 524.353 63.0859C524.353 63.3001 524.396 63.4574 524.482 63.5576C524.569 63.6533 524.744 63.7012 525.009 63.7012H526.157C526.576 63.7012 526.905 63.7786 527.142 63.9336C527.379 64.0885 527.545 64.3027 527.641 64.5762C527.741 64.8451 527.791 65.1549 527.791 65.5059C527.791 66.0117 527.622 66.488 527.285 66.9346C526.952 67.3857 526.458 67.7503 525.802 68.0283C525.146 68.3109 524.334 68.4521 523.368 68.4521ZM530.683 55.5186V64.9932H529.514V55.5186H530.683ZM538.886 65C538.439 65 538.059 64.9248 537.744 64.7744C537.434 64.6195 537.184 64.403 536.992 64.125C536.805 63.847 536.675 63.5257 536.603 63.1611C536.306 63.4255 536.012 63.6283 535.721 63.7695C535.429 63.9108 535.092 63.9814 534.709 63.9814C534.057 63.9814 533.51 63.806 533.068 63.4551C532.626 63.1042 532.405 62.6188 532.405 61.999C532.405 61.6481 532.476 61.3223 532.617 61.0215C532.758 60.7207 532.975 60.4404 533.267 60.1807C533.558 59.9209 533.927 59.6816 534.374 59.4629C534.825 59.2396 535.358 59.0322 535.974 58.8408L535.926 58.5127L537.02 58.2939L537.614 62.4912C537.669 62.8923 537.799 63.2044 538.004 63.4277C538.214 63.6465 538.517 63.7559 538.913 63.7559H539.118V65H538.886ZM536.329 61.4932C536.329 61.4248 536.327 61.3587 536.322 61.2949C536.318 61.2311 536.311 61.1628 536.302 61.0898L536.131 59.9482C535.689 60.1077 535.306 60.2673 534.982 60.4268C534.663 60.5817 534.401 60.7389 534.196 60.8984C533.991 61.0534 533.839 61.2152 533.738 61.3838C533.643 61.5479 533.595 61.7233 533.595 61.9102C533.595 62.2109 533.697 62.4388 533.902 62.5938C534.107 62.7487 534.385 62.8262 534.736 62.8262C535.005 62.8262 535.26 62.7738 535.502 62.6689C535.748 62.5641 535.946 62.4115 536.097 62.2109C536.252 62.0104 536.329 61.7712 536.329 61.4932ZM541.969 54.6572L542.96 55.6484L541.969 56.6396L540.978 55.6484L541.969 54.6572ZM542.29 61.3633C542.5 61.3633 542.707 61.3451 542.912 61.3086C543.122 61.2676 543.331 61.2174 543.541 61.1582C543.514 60.9167 543.468 60.666 543.404 60.4062C543.345 60.1465 543.261 59.9049 543.151 59.6816C543.047 59.4583 542.912 59.2783 542.748 59.1416C542.584 59.0003 542.381 58.9297 542.14 58.9297C541.857 58.9297 541.629 59.0254 541.456 59.2168C541.287 59.4036 541.164 59.627 541.087 59.8867C541.014 60.1419 540.978 60.3743 540.978 60.584C540.978 60.8984 541.089 61.1081 541.312 61.2129C541.54 61.3132 541.866 61.3633 542.29 61.3633ZM541.449 63.7559C541.964 63.7559 542.379 63.7262 542.693 63.667C543.012 63.6077 543.245 63.4779 543.391 63.2773C543.541 63.0723 543.616 62.7555 543.616 62.3271C543.393 62.3955 543.165 62.4479 542.933 62.4844C542.705 62.5208 542.459 62.5391 542.194 62.5391C541.424 62.5391 540.843 62.3796 540.451 62.0605C540.064 61.7415 539.87 61.2653 539.87 60.6318C539.87 60.29 539.916 59.9482 540.007 59.6064C540.103 59.2601 540.244 58.9456 540.431 58.6631C540.622 58.376 540.861 58.1458 541.148 57.9727C541.436 57.7995 541.771 57.7129 542.153 57.7129C542.614 57.7129 543.006 57.8314 543.329 58.0684C543.657 58.3008 543.922 58.6152 544.122 59.0117C544.327 59.4036 544.475 59.8457 544.566 60.3379C544.662 60.8301 544.71 61.3337 544.71 61.8486C544.71 62.5277 544.648 63.0768 544.525 63.4961C544.407 63.9108 544.215 64.2275 543.951 64.4463C543.687 64.6605 543.343 64.8063 542.919 64.8838C542.495 64.9613 541.978 65 541.367 65H538.865V63.7559H541.449ZM549.734 65C549.42 65 549.156 64.959 548.941 64.877C548.732 64.7904 548.568 64.6992 548.449 64.6035C548.381 65.2005 548.215 65.777 547.95 66.333C547.69 66.8936 547.299 67.3812 546.774 67.7959C546.25 68.2106 545.558 68.5023 544.696 68.6709L544.293 67.5908C545.036 67.4313 545.628 67.1875 546.07 66.8594C546.512 66.5358 546.831 66.1462 547.027 65.6904C547.228 65.2347 547.328 64.7311 547.328 64.1797C547.328 63.7923 547.285 63.3867 547.198 62.9629C547.116 62.5345 547 62.0993 546.85 61.6572L547.984 61.2744L548.354 62.7031C548.454 63.0859 548.613 63.3571 548.832 63.5166C549.051 63.6761 549.326 63.7559 549.659 63.7559H549.912V65H549.734ZM549.666 63.7559H550.814C551.53 63.7559 552.2 63.6624 552.824 63.4756C553.453 63.2842 554.075 63.0358 554.69 62.7305C555.31 62.4251 555.96 62.0947 556.639 61.7393C556.465 61.6755 556.317 61.6185 556.194 61.5684C556.076 61.5182 555.948 61.4635 555.812 61.4043C555.675 61.3405 555.495 61.2653 555.271 61.1787C554.948 61.0465 554.663 60.9326 554.417 60.8369C554.171 60.7412 553.959 60.6683 553.781 60.6182C553.604 60.5635 553.455 60.5361 553.337 60.5361C553.059 60.5361 552.79 60.6182 552.53 60.7822C552.275 60.9417 552.059 61.1354 551.881 61.3633L551.696 61.5957L550.65 61.083L550.753 60.9189C551.054 60.4313 551.425 60.0417 551.867 59.75C552.314 59.4538 552.806 59.3057 553.344 59.3057C553.64 59.3057 553.968 59.3695 554.328 59.4971C554.693 59.6201 555.087 59.7842 555.511 59.9893C555.88 60.167 556.215 60.3219 556.516 60.4541C556.816 60.5863 557.092 60.6956 557.343 60.7822C557.598 60.8688 557.837 60.9349 558.061 60.9805C558.284 61.026 558.498 61.0557 558.703 61.0693V62.252C558.512 62.2747 558.295 62.3271 558.054 62.4092C557.812 62.4912 557.523 62.612 557.186 62.7715C556.848 62.931 556.438 63.1383 555.955 63.3936C555.372 63.7035 554.807 63.9792 554.26 64.2207C553.717 64.4622 553.164 64.6536 552.599 64.7949C552.038 64.9316 551.437 65 550.794 65H549.666V63.7559ZM563.386 68.6777L562.982 67.5908C563.725 67.4313 564.318 67.1875 564.76 66.8594C565.202 66.5358 565.521 66.1462 565.717 65.6904C565.917 65.2347 566.018 64.7311 566.018 64.1797C566.018 63.7923 565.974 63.3867 565.888 62.9629C565.806 62.5345 565.689 62.0993 565.539 61.6572L566.674 61.2744C566.833 61.7301 566.954 62.1859 567.036 62.6416C567.123 63.0973 567.166 63.5417 567.166 63.9746C567.166 64.7357 567.032 65.4398 566.763 66.0869C566.498 66.7386 566.086 67.29 565.525 67.7412C564.969 68.1969 564.256 68.5091 563.386 68.6777ZM568.902 55.5186H570.071V62.1221C570.071 62.7646 570.188 63.1976 570.42 63.4209C570.657 63.6442 571.015 63.7559 571.493 63.7559H571.657V65H571.493C570.623 65 569.973 64.7699 569.545 64.3096C569.117 63.8447 568.902 63.1133 568.902 62.1152V55.5186ZM571.377 63.7559H571.924V65H571.377V63.7559ZM573.845 66.0869L574.802 67.0371L573.845 68.001L572.895 67.0371L573.845 66.0869ZM571.575 66.0869L572.532 67.0371L571.575 68.001L570.625 67.0371L571.575 66.0869ZM573.961 60.8232L575.103 60.6865L575.212 62.2861C575.23 62.5778 575.294 62.8353 575.403 63.0586C575.513 63.2773 575.665 63.4482 575.861 63.5713C576.062 63.6943 576.308 63.7559 576.6 63.7559H576.736V65H576.586C576.249 65 575.957 64.959 575.711 64.877C575.465 64.7949 575.255 64.6764 575.082 64.5215C574.909 64.3665 574.761 64.1774 574.638 63.9541C574.392 64.3141 574.068 64.5785 573.667 64.7471C573.266 64.9157 572.847 65 572.409 65H571.767V63.7559H572.409C572.988 63.7559 573.4 63.6032 573.646 63.2979C573.897 62.9925 574.022 62.571 574.022 62.0332C574.022 61.8145 574.016 61.6071 574.002 61.4111C573.993 61.2152 573.979 61.0192 573.961 60.8232ZM584.892 65C584.454 65 584.094 64.9089 583.812 64.7266C583.534 64.5443 583.31 64.2868 583.142 63.9541C582.886 64.3232 582.586 64.5898 582.239 64.7539C581.893 64.918 581.537 65 581.173 65C580.649 65 580.243 64.9111 579.956 64.7334C579.674 64.5511 579.448 64.2913 579.279 63.9541C579.065 64.2913 578.78 64.5511 578.425 64.7334C578.069 64.9111 577.584 65 576.969 65H576.49V63.7559H576.982C577.566 63.7559 578.003 63.6237 578.295 63.3594C578.587 63.0905 578.732 62.6689 578.732 62.0947C578.732 62.0127 578.73 61.9284 578.726 61.8418C578.721 61.7552 578.714 61.6481 578.705 61.5205C578.696 61.3929 578.682 61.2334 578.664 61.042L579.806 60.8984L579.915 62.293C579.933 62.5482 579.99 62.7874 580.086 63.0107C580.186 63.234 580.327 63.4141 580.51 63.5508C580.692 63.6875 580.918 63.7559 581.187 63.7559C581.67 63.7559 582.014 63.6009 582.219 63.291C582.428 62.9811 582.533 62.5824 582.533 62.0947C582.533 62.0127 582.531 61.9284 582.526 61.8418C582.522 61.7507 582.515 61.6436 582.506 61.5205C582.497 61.3929 582.483 61.2334 582.465 61.042L583.606 60.8984L583.716 62.293C583.734 62.5391 583.784 62.7738 583.866 62.9971C583.953 63.2204 584.078 63.4027 584.242 63.5439C584.411 63.6852 584.625 63.7559 584.885 63.7559C585.113 63.7559 585.299 63.6875 585.445 63.5508C585.596 63.4141 585.707 63.2227 585.78 62.9766C585.858 62.7259 585.896 62.4365 585.896 62.1084C585.896 61.9443 585.89 61.7734 585.876 61.5957C585.867 61.418 585.851 61.1833 585.828 60.8916L586.97 60.7549L587.079 62.293C587.097 62.5846 587.161 62.8398 587.271 63.0586C587.38 63.2773 587.53 63.4482 587.722 63.5713C587.918 63.6943 588.155 63.7559 588.433 63.7559H588.624V65H588.446C587.968 65 587.569 64.9134 587.25 64.7402C586.931 64.5625 586.712 64.2982 586.594 63.9473C586.402 64.2845 586.181 64.5443 585.931 64.7266C585.685 64.9089 585.338 65 584.892 65ZM588.364 63.7559H588.692V65H588.364V63.7559ZM589.772 66.0459L590.764 67.0371L589.772 68.0283L588.781 67.0371L589.772 66.0459ZM589.273 65H588.521V63.7559H589.26C589.87 63.7559 590.278 63.6237 590.483 63.3594C590.693 63.0905 590.798 62.7282 590.798 62.2725C590.798 62.0173 590.773 61.7005 590.723 61.3223C590.673 60.944 590.595 60.568 590.49 60.1943L591.659 59.8799C591.769 60.2399 591.846 60.6273 591.892 61.042C591.937 61.4567 591.96 61.8304 591.96 62.1631C591.96 62.71 591.885 63.1976 591.734 63.626C591.589 64.0498 591.322 64.3848 590.935 64.6309C590.547 64.877 589.993 65 589.273 65ZM601.94 63.8311C601.94 64.7152 601.776 65.4831 601.448 66.1348C601.125 66.791 600.637 67.3288 599.985 67.748C599.338 68.1719 598.529 68.4772 597.559 68.6641L597.155 67.5771C597.857 67.4404 598.463 67.2467 598.974 66.9961C599.489 66.7454 599.899 66.4355 600.204 66.0664C600.509 65.7018 600.699 65.2848 600.771 64.8154C600.598 64.8701 600.398 64.918 600.17 64.959C599.942 65 599.742 65.0205 599.568 65.0205C598.748 65.0205 598.126 64.8451 597.702 64.4941C597.283 64.1432 597.073 63.6123 597.073 62.9014C597.073 62.5505 597.121 62.1995 597.217 61.8486C597.317 61.4977 597.463 61.1787 597.654 60.8916C597.846 60.5999 598.085 60.3675 598.372 60.1943C598.664 60.0212 599.001 59.9346 599.384 59.9346C599.835 59.9346 600.22 60.0462 600.539 60.2695C600.863 60.4883 601.127 60.7845 601.332 61.1582C601.542 61.5319 601.694 61.9512 601.79 62.416C601.89 62.8763 601.94 63.348 601.94 63.8311ZM599.603 63.7832C599.794 63.7832 599.992 63.7695 600.197 63.7422C600.402 63.7103 600.603 63.6647 600.799 63.6055C600.776 63.2227 600.728 62.8809 600.655 62.5801C600.587 62.2793 600.493 62.0241 600.375 61.8145C600.257 61.6003 600.113 61.4385 599.944 61.3291C599.78 61.2197 599.589 61.165 599.37 61.165C599.069 61.165 598.835 61.2653 598.666 61.4658C598.502 61.6618 598.386 61.8919 598.317 62.1562C598.254 62.4206 598.222 62.6553 598.222 62.8604C598.222 63.193 598.336 63.43 598.563 63.5713C598.791 63.7126 599.138 63.7832 599.603 63.7832ZM612.871 62.9629C612.871 62.6484 612.814 62.3682 612.7 62.1221C612.586 61.8714 612.429 61.6732 612.229 61.5273C612.028 61.3815 611.796 61.3086 611.531 61.3086C611.317 61.3086 611.128 61.361 610.964 61.4658C610.804 61.5661 610.663 61.7051 610.54 61.8828C610.422 62.056 610.314 62.2542 610.219 62.4775C610.128 62.7008 610.046 62.9333 609.973 63.1748C610.305 63.3206 610.599 63.446 610.854 63.5508C611.11 63.6556 611.328 63.7376 611.511 63.7969C611.698 63.8516 611.846 63.8789 611.955 63.8789C612.26 63.8789 612.488 63.7969 612.639 63.6328C612.794 63.4642 612.871 63.2409 612.871 62.9629ZM608.811 62.9561C608.938 62.5094 609.084 62.1107 609.248 61.7598C609.412 61.4089 609.601 61.1104 609.815 60.8643C610.03 60.6136 610.276 60.4245 610.554 60.2969C610.832 60.1647 611.148 60.0986 611.504 60.0986C611.987 60.0986 612.418 60.2217 612.796 60.4678C613.174 60.7139 613.473 61.0534 613.691 61.4863C613.915 61.9147 614.026 62.4092 614.026 62.9697C614.026 63.3799 613.951 63.7467 613.801 64.0703C613.65 64.3893 613.42 64.6423 613.11 64.8291C612.805 65.016 612.415 65.1094 611.941 65.1094C611.673 65.1094 611.399 65.0661 611.121 64.9795C610.848 64.8929 610.583 64.7949 610.328 64.6855C610.077 64.5716 609.847 64.4714 609.638 64.3848C609.428 64.2982 609.253 64.2549 609.111 64.2549C608.92 64.2549 608.765 64.3005 608.646 64.3916C608.528 64.4827 608.437 64.6331 608.373 64.8428C608.309 65.0479 608.266 65.3258 608.243 65.6768C608.22 66.0322 608.209 66.472 608.209 66.9961C608.209 67.306 608.211 67.5817 608.216 67.8232C608.225 68.0693 608.236 68.3109 608.25 68.5479C608.268 68.7848 608.286 69.0537 608.305 69.3545H607.129C607.106 68.9352 607.088 68.541 607.074 68.1719C607.061 67.8073 607.054 67.4382 607.054 67.0645C607.054 66.554 607.067 66.0687 607.095 65.6084C607.127 65.1481 607.197 64.7334 607.307 64.3643C607.421 63.9906 607.596 63.6829 607.833 63.4414C608.07 63.1953 608.396 63.0335 608.811 62.9561ZM616.932 63.7695C617.524 63.7695 618.014 63.7194 618.401 63.6191C618.789 63.5143 619.078 63.3617 619.27 63.1611C619.461 62.9606 619.557 62.71 619.557 62.4092C619.557 62.1221 619.461 61.8258 619.27 61.5205C619.078 61.2152 618.775 60.8962 618.36 60.5635C617.946 60.2262 617.401 59.873 616.727 59.5039L617.267 58.4238C617.85 58.7246 618.358 59.0322 618.791 59.3467C619.229 59.6611 619.589 59.9847 619.871 60.3174C620.158 60.6501 620.372 60.9896 620.514 61.3359C620.655 61.6777 620.726 62.0286 620.726 62.3887C620.726 62.9583 620.596 63.4368 620.336 63.8242C620.076 64.2116 619.675 64.5033 619.133 64.6992C618.59 64.8906 617.891 64.9863 617.034 64.9863C616.738 64.9863 616.449 64.9727 616.166 64.9453C615.888 64.918 615.626 64.877 615.38 64.8223V63.585C615.676 63.6442 615.952 63.6898 616.207 63.7217C616.467 63.7536 616.708 63.7695 616.932 63.7695ZM624.383 59.9346C624.757 59.9346 625.096 60.0189 625.401 60.1875C625.711 60.3516 625.98 60.5977 626.208 60.9258C626.436 61.2493 626.611 61.6481 626.734 62.1221C626.862 62.596 626.93 63.1406 626.939 63.7559H627.76V65H626.83C626.73 65.5241 626.529 66.0299 626.229 66.5176C625.932 67.0098 625.49 67.4427 624.902 67.8164C624.314 68.1947 623.535 68.4772 622.564 68.6641L622.161 67.5771C622.849 67.445 623.439 67.2627 623.932 67.0303C624.428 66.7979 624.827 66.513 625.128 66.1758C625.433 65.8385 625.641 65.4466 625.75 65H624.67C623.804 65 623.155 64.8268 622.722 64.4805C622.293 64.1296 622.079 63.6032 622.079 62.9014C622.079 62.5505 622.127 62.1995 622.223 61.8486C622.318 61.4977 622.462 61.1787 622.653 60.8916C622.849 60.5999 623.091 60.3675 623.378 60.1943C623.665 60.0212 624 59.9346 624.383 59.9346ZM624.602 63.7559H625.812C625.784 63.3184 625.734 62.9378 625.661 62.6143C625.588 62.2861 625.493 62.015 625.374 61.8008C625.256 61.5866 625.112 61.4271 624.943 61.3223C624.775 61.2174 624.581 61.165 624.362 61.165C624.071 61.165 623.84 61.2653 623.672 61.4658C623.508 61.6618 623.392 61.8919 623.323 62.1562C623.259 62.4206 623.228 62.6553 623.228 62.8604C623.228 63.1794 623.335 63.4095 623.549 63.5508C623.768 63.6875 624.118 63.7559 624.602 63.7559ZM627.493 63.7559H627.821V65H627.493V63.7559ZM628.901 66.0459L629.893 67.0371L628.901 68.0283L627.91 67.0371L628.901 66.0459ZM628.402 65H627.65V63.7559H628.389C628.999 63.7559 629.407 63.6237 629.612 63.3594C629.822 63.0905 629.927 62.7282 629.927 62.2725C629.927 62.0173 629.902 61.7005 629.852 61.3223C629.801 60.944 629.724 60.568 629.619 60.1943L630.788 59.8799C630.897 60.2399 630.975 60.6273 631.021 61.042C631.066 61.4567 631.089 61.8304 631.089 62.1631C631.089 62.71 631.014 63.1976 630.863 63.626C630.717 64.0498 630.451 64.3848 630.063 64.6309C629.676 64.877 629.122 65 628.402 65ZM640.235 68.5205C639.251 68.5205 638.463 68.3405 637.87 67.9805C637.282 67.6204 636.856 67.1396 636.592 66.5381C636.332 65.9411 636.202 65.2848 636.202 64.5693C636.202 64.2594 636.236 63.863 636.305 63.3799C636.378 62.8923 636.501 62.3887 636.674 61.8691L637.761 62.3066C637.629 62.7624 637.531 63.1999 637.467 63.6191C637.408 64.0384 637.378 64.3688 637.378 64.6104C637.378 65.1025 637.465 65.5514 637.638 65.957C637.811 66.3626 638.105 66.6862 638.52 66.9277C638.939 67.1693 639.511 67.29 640.235 67.29C640.919 67.29 641.505 67.2057 641.992 67.0371C642.484 66.8685 642.86 66.668 643.12 66.4355C643.384 66.2031 643.517 65.9912 643.517 65.7998C643.517 65.5811 643.421 65.3942 643.229 65.2393C643.043 65.0843 642.737 65.0068 642.313 65.0068H641.302C641.211 65.0068 641.145 64.9681 641.104 64.8906C641.062 64.8086 641.024 64.7038 640.987 64.5762L640.803 63.9199C640.798 63.8835 640.807 63.8493 640.83 63.8174C640.853 63.7809 640.894 63.7627 640.953 63.7627H644.74V65.0068H644.467C644.535 65.1436 644.578 65.2734 644.597 65.3965C644.619 65.5195 644.631 65.6471 644.631 65.7793C644.631 66.0801 644.542 66.39 644.364 66.709C644.191 67.0326 643.922 67.3311 643.558 67.6045C643.198 67.8779 642.742 68.099 642.19 68.2676C641.639 68.4362 640.987 68.5205 640.235 68.5205ZM652.704 56.1611L653.695 57.1523L652.704 58.1436L651.713 57.1523L652.704 56.1611ZM653.039 60.7344C652.77 60.7344 652.492 60.7982 652.205 60.9258C651.923 61.0488 651.631 61.238 651.33 61.4932C651.034 61.7438 650.731 62.0583 650.421 62.4365C650.111 62.8148 649.797 63.2546 649.478 63.7559H650.585C651.237 63.7559 651.804 63.724 652.287 63.6602C652.77 63.5964 653.171 63.4984 653.49 63.3662C653.809 63.234 654.049 63.0654 654.208 62.8604C654.368 62.6553 654.447 62.4115 654.447 62.1289C654.447 61.7279 654.317 61.3952 654.058 61.1309C653.802 60.8665 653.463 60.7344 653.039 60.7344ZM648.24 63.5439C648.646 62.8512 649.047 62.252 649.443 61.7461C649.844 61.2357 650.241 60.8141 650.633 60.4814C651.025 60.1488 651.417 59.9004 651.809 59.7363C652.201 59.5723 652.592 59.4902 652.984 59.4902C653.504 59.4902 653.964 59.6042 654.365 59.832C654.771 60.0553 655.088 60.3607 655.315 60.748C655.543 61.1354 655.657 61.5729 655.657 62.0605C655.657 62.5573 655.552 62.9902 655.343 63.3594C655.133 63.7285 654.819 64.0361 654.399 64.2822C653.98 64.5238 653.454 64.7038 652.82 64.8223C652.191 64.9408 651.455 65 650.612 65H650.25C649.607 65 649.067 64.959 648.63 64.877C648.192 64.7949 647.841 64.6764 647.577 64.5215C647.313 64.3665 647.11 64.1797 646.969 63.9609C646.704 64.321 646.406 64.5853 646.073 64.7539C645.745 64.918 645.308 65 644.761 65H644.494L644.501 63.7559H644.761C645.399 63.7559 645.827 63.5986 646.046 63.2842C646.269 62.9652 646.381 62.5482 646.381 62.0332C646.381 61.8145 646.372 61.6117 646.354 61.4248C646.34 61.238 646.328 61.0374 646.319 60.8232L647.461 60.6865L647.563 62.2861C647.586 62.5915 647.65 62.8786 647.755 63.1475C647.86 63.4118 648.021 63.5439 648.24 63.5439ZM658.542 55.5186V64.9932H657.373V55.5186H658.542ZM658.897 68.6777L658.494 67.5908C659.237 67.4313 659.829 67.1875 660.271 66.8594C660.714 66.5358 661.033 66.1462 661.229 65.6904C661.429 65.2347 661.529 64.7311 661.529 64.1797C661.529 63.7923 661.486 63.3867 661.399 62.9629C661.317 62.5345 661.201 62.0993 661.051 61.6572L662.186 61.2744C662.345 61.7301 662.466 62.1859 662.548 62.6416C662.634 63.0973 662.678 63.5417 662.678 63.9746C662.678 64.7357 662.543 65.4398 662.274 66.0869C662.01 66.7386 661.598 67.29 661.037 67.7412C660.481 68.1969 659.768 68.5091 658.897 68.6777ZM671.763 59.1963L672.754 60.1875L671.763 61.1787L670.771 60.1875L671.763 59.1963ZM671.845 66.791C672.606 66.791 673.194 66.6657 673.608 66.415C674.028 66.1689 674.319 65.8431 674.483 65.4375C674.652 65.0365 674.736 64.6058 674.736 64.1455C674.736 63.6032 674.663 63.0677 674.518 62.5391C674.372 62.0104 674.235 61.5775 674.107 61.2402L675.276 60.7686C675.491 61.3564 675.652 61.9284 675.762 62.4844C675.876 63.0358 675.933 63.5622 675.933 64.0635C675.933 64.8337 675.789 65.5173 675.502 66.1143C675.219 66.7113 674.777 67.1784 674.176 67.5156C673.574 67.8529 672.797 68.0215 671.845 68.0215C670.86 68.0215 670.072 67.8415 669.479 67.4814C668.892 67.1214 668.465 66.6406 668.201 66.0391C667.941 65.4421 667.812 64.7858 667.812 64.0703C667.812 63.5872 667.862 63.0928 667.962 62.5869C668.062 62.0765 668.199 61.5798 668.372 61.0967L669.459 61.5342C669.327 61.9535 669.215 62.3841 669.124 62.8262C669.033 63.2682 668.987 63.6966 668.987 64.1113C668.987 64.6035 669.074 65.0524 669.247 65.458C669.425 65.8636 669.721 66.1872 670.136 66.4287C670.55 66.6702 671.12 66.791 671.845 66.791ZM679.59 59.9346C679.964 59.9346 680.303 60.0189 680.608 60.1875C680.918 60.3516 681.187 60.5977 681.415 60.9258C681.643 61.2493 681.818 61.6481 681.941 62.1221C682.069 62.596 682.137 63.1406 682.146 63.7559H682.967V65H682.037C681.937 65.5241 681.736 66.0299 681.436 66.5176C681.139 67.0098 680.697 67.4427 680.109 67.8164C679.521 68.1947 678.742 68.4772 677.771 68.6641L677.368 67.5771C678.056 67.445 678.646 67.2627 679.139 67.0303C679.635 66.7979 680.034 66.513 680.335 66.1758C680.64 65.8385 680.848 65.4466 680.957 65H679.877C679.011 65 678.362 64.8268 677.929 64.4805C677.5 64.1296 677.286 63.6032 677.286 62.9014C677.286 62.5505 677.334 62.1995 677.43 61.8486C677.525 61.4977 677.669 61.1787 677.86 60.8916C678.056 60.5999 678.298 60.3675 678.585 60.1943C678.872 60.0212 679.207 59.9346 679.59 59.9346ZM679.809 63.7559H681.019C680.991 63.3184 680.941 62.9378 680.868 62.6143C680.795 62.2861 680.7 62.015 680.581 61.8008C680.463 61.5866 680.319 61.4271 680.15 61.3223C679.982 61.2174 679.788 61.165 679.569 61.165C679.278 61.165 679.048 61.2653 678.879 61.4658C678.715 61.6618 678.599 61.8919 678.53 62.1562C678.466 62.4206 678.435 62.6553 678.435 62.8604C678.435 63.1794 678.542 63.4095 678.756 63.5508C678.975 63.6875 679.326 63.7559 679.809 63.7559ZM688.935 55.9424L689.857 56.8652L688.935 57.7881L688.012 56.8652L688.935 55.9424ZM690.104 57.6719L691.026 58.5947L690.104 59.5176L689.181 58.5947L690.104 57.6719ZM687.766 57.6719L688.688 58.5947L687.766 59.5176L686.843 58.5947L687.766 57.6719ZM691.122 65C690.685 65 690.325 64.9089 690.042 64.7266C689.764 64.5443 689.541 64.2868 689.372 63.9541C689.117 64.3232 688.816 64.5898 688.47 64.7539C688.123 64.918 687.768 65 687.403 65C686.879 65 686.474 64.9111 686.187 64.7334C685.904 64.5511 685.678 64.2913 685.51 63.9541C685.296 64.2913 685.011 64.5511 684.655 64.7334C684.3 64.9111 683.814 65 683.199 65H682.721V63.7559H683.213C683.796 63.7559 684.234 63.6237 684.525 63.3594C684.817 63.0905 684.963 62.6689 684.963 62.0947C684.963 62.0127 684.961 61.9284 684.956 61.8418C684.951 61.7552 684.945 61.6481 684.936 61.5205C684.926 61.3929 684.913 61.2334 684.895 61.042L686.036 60.8984L686.146 62.293C686.164 62.5482 686.221 62.7874 686.316 63.0107C686.417 63.234 686.558 63.4141 686.74 63.5508C686.923 63.6875 687.148 63.7559 687.417 63.7559C687.9 63.7559 688.244 63.6009 688.449 63.291C688.659 62.9811 688.764 62.5824 688.764 62.0947C688.764 62.0127 688.761 61.9284 688.757 61.8418C688.752 61.7507 688.745 61.6436 688.736 61.5205C688.727 61.3929 688.714 61.2334 688.695 61.042L689.837 60.8984L689.946 62.293C689.965 62.5391 690.015 62.7738 690.097 62.9971C690.183 63.2204 690.309 63.4027 690.473 63.5439C690.641 63.6852 690.855 63.7559 691.115 63.7559C691.343 63.7559 691.53 63.6875 691.676 63.5508C691.826 63.4141 691.938 63.2227 692.011 62.9766C692.088 62.7259 692.127 62.4365 692.127 62.1084C692.127 61.9443 692.12 61.7734 692.106 61.5957C692.097 61.418 692.081 61.1833 692.059 60.8916L693.2 60.7549L693.31 62.293C693.328 62.5846 693.392 62.8398 693.501 63.0586C693.61 63.2773 693.761 63.4482 693.952 63.5713C694.148 63.6943 694.385 63.7559 694.663 63.7559H694.854V65H694.677C694.198 65 693.799 64.9134 693.48 64.7402C693.161 64.5625 692.943 64.2982 692.824 63.9473C692.633 64.2845 692.412 64.5443 692.161 64.7266C691.915 64.9089 691.569 65 691.122 65ZM694.588 63.7559H695.135V65H694.588V63.7559ZM697.056 66.0869L698.013 67.0371L697.056 68.001L696.105 67.0371L697.056 66.0869ZM694.786 66.0869L695.743 67.0371L694.786 68.001L693.836 67.0371L694.786 66.0869ZM695.736 65H694.984V63.7559H695.723C696.333 63.7559 696.741 63.6237 696.946 63.3594C697.156 63.0905 697.261 62.7282 697.261 62.2725C697.261 62.0173 697.236 61.7005 697.186 61.3223C697.135 60.944 697.058 60.568 696.953 60.1943L698.122 59.8799C698.231 60.2399 698.309 60.6273 698.354 61.042C698.4 61.4567 698.423 61.8304 698.423 62.1631C698.423 62.71 698.348 63.1976 698.197 63.626C698.051 64.0498 697.785 64.3848 697.397 64.6309C697.01 64.877 696.456 65 695.736 65ZM701.308 55.5186V64.9932H700.139V55.5186H701.308ZM707.152 55.5186H708.321V62.1221C708.321 62.7646 708.438 63.1976 708.67 63.4209C708.907 63.6442 709.265 63.7559 709.743 63.7559H709.907V65H709.743C708.873 65 708.223 64.7699 707.795 64.3096C707.367 63.8447 707.152 63.1133 707.152 62.1152V55.5186ZM709.634 63.7559H709.962V65H709.634V63.7559ZM711.042 66.0459L712.033 67.0371L711.042 68.0283L710.051 67.0371L711.042 66.0459ZM710.543 65H709.791V63.7559H710.529C711.14 63.7559 711.548 63.6237 711.753 63.3594C711.963 63.0905 712.067 62.7282 712.067 62.2725C712.067 62.0173 712.042 61.7005 711.992 61.3223C711.942 60.944 711.865 60.568 711.76 60.1943L712.929 59.8799C713.038 60.2399 713.116 60.6273 713.161 61.042C713.207 61.4567 713.229 61.8304 713.229 62.1631C713.229 62.71 713.154 63.1976 713.004 63.626C712.858 64.0498 712.591 64.3848 712.204 64.6309C711.817 64.877 711.263 65 710.543 65ZM722.376 68.4521C721.392 68.4521 720.603 68.2721 720.011 67.9121C719.423 67.5521 718.997 67.0713 718.732 66.4697C718.473 65.8727 718.343 65.2165 718.343 64.501C718.343 64.0179 718.393 63.5234 718.493 63.0176C718.593 62.5072 718.73 62.0104 718.903 61.5273L719.99 61.9648C719.858 62.3841 719.746 62.8148 719.655 63.2568C719.564 63.6989 719.519 64.1273 719.519 64.542C719.519 65.0342 719.605 65.4831 719.778 65.8887C719.956 66.2943 720.252 66.6178 720.667 66.8594C721.082 67.1009 721.651 67.2217 722.376 67.2217C722.859 67.2217 723.303 67.1738 723.709 67.0781C724.115 66.987 724.465 66.8617 724.762 66.7021C725.058 66.5426 725.288 66.3604 725.452 66.1553C725.616 65.9548 725.698 65.7474 725.698 65.5332C725.698 65.3874 725.655 65.2507 725.568 65.123C725.482 64.9954 725.325 64.9316 725.097 64.9316H723.989C723.652 64.9316 723.365 64.8906 723.128 64.8086C722.896 64.722 722.709 64.599 722.567 64.4395C722.426 64.2799 722.324 64.0863 722.26 63.8584C722.196 63.6305 722.164 63.373 722.164 63.0859C722.164 62.6348 722.235 62.2109 722.376 61.8145C722.517 61.4134 722.72 61.0602 722.984 60.7549C723.249 60.445 723.568 60.2035 723.941 60.0303C724.315 59.8571 724.737 59.7705 725.206 59.7705C725.443 59.7705 725.691 59.8024 725.951 59.8662C726.215 59.93 726.48 60.0508 726.744 60.2285L726.354 61.2676C726.168 61.1719 725.981 61.1035 725.794 61.0625C725.607 61.0169 725.411 60.9941 725.206 60.9941C724.819 60.9941 724.486 61.0876 724.208 61.2744C723.935 61.4613 723.725 61.7142 723.579 62.0332C723.433 62.3477 723.36 62.6986 723.36 63.0859C723.36 63.3001 723.404 63.4574 723.49 63.5576C723.577 63.6533 723.752 63.7012 724.017 63.7012H725.165C725.584 63.7012 725.912 63.7786 726.149 63.9336C726.386 64.0885 726.553 64.3027 726.648 64.5762C726.749 64.8451 726.799 65.1549 726.799 65.5059C726.799 66.0117 726.63 66.488 726.293 66.9346C725.96 67.3857 725.466 67.7503 724.81 68.0283C724.153 68.3109 723.342 68.4521 722.376 68.4521ZM727.804 68.6777L727.4 67.5908C728.143 67.4313 728.736 67.1875 729.178 66.8594C729.62 66.5358 729.939 66.1462 730.135 65.6904C730.335 65.2347 730.436 64.7311 730.436 64.1797C730.436 63.7923 730.392 63.3867 730.306 62.9629C730.224 62.5345 730.107 62.0993 729.957 61.6572L731.092 61.2744C731.251 61.7301 731.372 62.1859 731.454 62.6416C731.541 63.0973 731.584 63.5417 731.584 63.9746C731.584 64.7357 731.45 65.4398 731.181 66.0869C730.916 66.7386 730.504 67.29 729.943 67.7412C729.387 68.1969 728.674 68.5091 727.804 68.6777ZM733.32 55.5186H734.489V62.1221C734.489 62.7646 734.605 63.1976 734.838 63.4209C735.075 63.6442 735.433 63.7559 735.911 63.7559H736.075V65H735.911C735.041 65 734.391 64.7699 733.963 64.3096C733.535 63.8447 733.32 63.1133 733.32 62.1152V55.5186ZM737.449 58.3691C737.759 58.5879 738.062 58.8044 738.358 59.0186C738.659 59.2327 738.946 59.4515 739.22 59.6748C739.498 59.8936 739.755 60.126 739.992 60.3721C740.234 60.6136 740.45 60.8757 740.642 61.1582C740.838 61.4362 741.004 61.7393 741.141 62.0674C741.305 62.4593 741.469 62.7806 741.633 63.0312C741.801 63.2773 741.997 63.4596 742.221 63.5781C742.444 63.6966 742.717 63.7559 743.041 63.7559H743.232V65H743.041C742.535 65 742.104 64.902 741.749 64.7061C741.398 64.5101 741.084 64.1979 740.806 63.7695C740.623 64.0384 740.4 64.264 740.136 64.4463C739.876 64.6286 739.534 64.7676 739.11 64.8633C738.691 64.9544 738.146 65 737.477 65H735.822V63.7559H737.47C738.062 63.7559 738.538 63.724 738.898 63.6602C739.263 63.5918 739.527 63.4733 739.691 63.3047C739.86 63.1315 739.944 62.89 739.944 62.5801C739.944 62.3385 739.874 62.1016 739.732 61.8691C739.596 61.6367 739.409 61.4089 739.172 61.1855C738.939 60.9577 738.68 60.7344 738.393 60.5156C738.105 60.2969 737.809 60.0804 737.504 59.8662C737.203 59.6475 736.918 59.431 736.649 59.2168C736.504 59.0983 736.39 58.973 736.308 58.8408C736.226 58.7041 736.185 58.5583 736.185 58.4033C736.185 58.2119 736.239 58.0205 736.349 57.8291C736.463 57.6377 736.624 57.4987 736.834 57.4121L741.749 55.416V56.626L737.449 58.3691ZM743.26 65H742.973V63.7559H743.226C743.531 63.7559 743.788 63.6693 743.998 63.4961C744.208 63.3184 744.395 63.0905 744.559 62.8125C744.723 62.5345 744.884 62.2406 745.044 61.9307C745.208 61.6162 745.39 61.32 745.591 61.042C745.791 60.764 746.033 60.5384 746.315 60.3652C746.603 60.1875 746.956 60.0986 747.375 60.0986C747.854 60.0986 748.259 60.1989 748.592 60.3994C748.924 60.5999 749.193 60.8711 749.398 61.2129C749.604 61.5547 749.752 61.9421 749.843 62.375C749.907 62.6712 749.998 62.9242 750.116 63.1338C750.235 63.3389 750.376 63.4938 750.54 63.5986C750.704 63.7035 750.884 63.7559 751.08 63.7559H751.258V65H751.073C750.782 65 750.497 64.9408 750.219 64.8223C749.941 64.6992 749.715 64.5055 749.542 64.2412C749.351 64.5192 749.114 64.7425 748.831 64.9111C748.549 65.0752 748.182 65.1572 747.73 65.1572C747.425 65.1572 747.138 65.1117 746.869 65.0205C746.6 64.9339 746.336 64.8018 746.076 64.624C745.816 64.4463 745.548 64.2253 745.27 63.9609C745.074 64.1842 744.884 64.3734 744.702 64.5283C744.52 64.6833 744.317 64.8018 744.094 64.8838C743.87 64.9613 743.592 65 743.26 65ZM747.402 61.3086C747.174 61.3086 746.967 61.3861 746.78 61.541C746.593 61.6914 746.425 61.8874 746.274 62.1289C746.124 62.3704 745.99 62.6211 745.871 62.8809C746.021 63.0358 746.172 63.1748 746.322 63.2979C746.473 63.4209 746.618 63.5257 746.76 63.6123C746.947 63.7262 747.12 63.8105 747.279 63.8652C747.443 63.9199 747.589 63.9473 747.717 63.9473C748.059 63.9473 748.312 63.8607 748.476 63.6875C748.644 63.5143 748.729 63.2614 748.729 62.9287C748.729 62.4548 748.61 62.0674 748.373 61.7666C748.141 61.4613 747.817 61.3086 747.402 61.3086ZM753.411 61.876C753.411 62.0537 753.461 62.2337 753.562 62.416C753.662 62.5983 753.81 62.7692 754.006 62.9287C754.202 63.0837 754.443 63.2158 754.73 63.3252C755.008 63.2113 755.236 63.0814 755.414 62.9355C755.596 62.7897 755.733 62.6302 755.824 62.457C755.915 62.2793 755.961 62.0902 755.961 61.8896C755.961 61.6253 755.904 61.4043 755.79 61.2266C755.681 61.0443 755.533 60.9076 755.346 60.8164C755.163 60.7207 754.961 60.6729 754.737 60.6729C754.345 60.6729 754.026 60.7822 753.78 61.001C753.534 61.2197 753.411 61.5114 753.411 61.876ZM754.778 59.4492L755.318 58.4375C756.139 58.8385 756.852 59.2145 757.458 59.5654C758.069 59.9163 758.575 60.2536 758.976 60.5771C759.377 60.9007 759.677 61.2197 759.878 61.5342C760.078 61.8441 760.179 62.1631 760.179 62.4912C760.179 63.2979 759.928 63.9062 759.427 64.3164C758.93 64.7266 758.262 64.9316 757.424 64.9316C757.109 64.9316 756.774 64.9066 756.419 64.8564C756.063 64.8063 755.726 64.7448 755.407 64.6719C755.088 64.5944 754.819 64.5192 754.601 64.4463C754.204 64.5921 753.739 64.722 753.206 64.8359C752.673 64.9453 752.158 65 751.661 65H750.998V63.7559H751.572C751.873 63.7559 752.137 63.749 752.365 63.7354C752.598 63.7217 752.851 63.6989 753.124 63.667C752.914 63.4984 752.743 63.3184 752.611 63.127C752.484 62.9355 752.388 62.735 752.324 62.5254C752.265 62.3158 752.235 62.1038 752.235 61.8896C752.235 61.4157 752.347 61.0078 752.57 60.666C752.794 60.3242 753.09 60.0622 753.459 59.8799C753.828 59.693 754.231 59.5996 754.669 59.5996C755.079 59.5996 755.462 59.6999 755.817 59.9004C756.177 60.1009 756.467 60.3652 756.686 60.6934C756.904 61.0169 757.014 61.3724 757.014 61.7598C757.014 62.0423 756.975 62.2975 756.897 62.5254C756.82 62.7533 756.706 62.9629 756.556 63.1543C756.41 63.3411 756.23 63.5212 756.016 63.6943C756.216 63.7171 756.435 63.7399 756.672 63.7627C756.909 63.7809 757.118 63.79 757.301 63.79C757.852 63.79 758.271 63.6875 758.559 63.4824C758.85 63.2728 758.996 62.9492 758.996 62.5117C758.996 62.3385 758.916 62.154 758.757 61.958C758.602 61.7575 758.388 61.5524 758.114 61.3428C757.841 61.1286 757.524 60.9144 757.164 60.7002C756.809 60.4814 756.426 60.2673 756.016 60.0576C755.61 59.848 755.198 59.6452 754.778 59.4492ZM767.37 57.9658L768.361 58.957L767.37 59.9482L766.379 58.957L767.37 57.9658ZM764.937 68.6777L764.533 67.5908C765.276 67.4313 765.868 67.1875 766.311 66.8594C766.753 66.5358 767.072 66.1462 767.268 65.6904C767.468 65.2347 767.568 64.7311 767.568 64.1797C767.568 63.7923 767.525 63.3867 767.438 62.9629C767.356 62.5345 767.24 62.0993 767.09 61.6572L768.225 61.2744C768.384 61.7301 768.505 62.1859 768.587 62.6416C768.674 63.0973 768.717 63.5417 768.717 63.9746C768.717 64.7357 768.582 65.4398 768.313 66.0869C768.049 66.7386 767.637 67.29 767.076 67.7412C766.52 68.1969 765.807 68.5091 764.937 68.6777ZM771.622 55.5186V64.9932H770.453V55.5186H771.622ZM776.749 68.6777L776.346 67.5908C777.089 67.4313 777.681 67.1875 778.123 66.8594C778.565 66.5358 778.884 66.1462 779.08 65.6904C779.281 65.2347 779.381 64.7311 779.381 64.1797C779.381 63.7923 779.338 63.3867 779.251 62.9629C779.169 62.5345 779.053 62.0993 778.902 61.6572L780.037 61.2744C780.197 61.7301 780.317 62.1859 780.399 62.6416C780.486 63.0973 780.529 63.5417 780.529 63.9746C780.529 64.7357 780.395 65.4398 780.126 66.0869C779.862 66.7386 779.449 67.29 778.889 67.7412C778.333 68.1969 777.619 68.5091 776.749 68.6777ZM782.266 55.5186H783.435V62.1221C783.435 62.7646 783.551 63.1976 783.783 63.4209C784.02 63.6442 784.378 63.7559 784.856 63.7559H785.021V65H784.856C783.986 65 783.337 64.7699 782.908 64.3096C782.48 63.8447 782.266 63.1133 782.266 62.1152V55.5186ZM784.74 63.7559H785.287V65H784.74V63.7559ZM787.208 66.0869L788.165 67.0371L787.208 68.001L786.258 67.0371L787.208 66.0869ZM784.938 66.0869L785.896 67.0371L784.938 68.001L783.988 67.0371L784.938 66.0869ZM787.324 60.8232L788.466 60.6865L788.575 62.2861C788.593 62.5778 788.657 62.8353 788.767 63.0586C788.876 63.2773 789.029 63.4482 789.225 63.5713C789.425 63.6943 789.671 63.7559 789.963 63.7559H790.1V65H789.949C789.612 65 789.32 64.959 789.074 64.877C788.828 64.7949 788.618 64.6764 788.445 64.5215C788.272 64.3665 788.124 64.1774 788.001 63.9541C787.755 64.3141 787.431 64.5785 787.03 64.7471C786.629 64.9157 786.21 65 785.772 65H785.13V63.7559H785.772C786.351 63.7559 786.764 63.6032 787.01 63.2979C787.26 62.9925 787.386 62.571 787.386 62.0332C787.386 61.8145 787.379 61.6071 787.365 61.4111C787.356 61.2152 787.342 61.0192 787.324 60.8232ZM798.255 65C797.817 65 797.457 64.9089 797.175 64.7266C796.897 64.5443 796.674 64.2868 796.505 63.9541C796.25 64.3232 795.949 64.5898 795.603 64.7539C795.256 64.918 794.901 65 794.536 65C794.012 65 793.606 64.9111 793.319 64.7334C793.037 64.5511 792.811 64.2913 792.643 63.9541C792.428 64.2913 792.144 64.5511 791.788 64.7334C791.433 64.9111 790.947 65 790.332 65H789.854V63.7559H790.346C790.929 63.7559 791.367 63.6237 791.658 63.3594C791.95 63.0905 792.096 62.6689 792.096 62.0947C792.096 62.0127 792.093 61.9284 792.089 61.8418C792.084 61.7552 792.077 61.6481 792.068 61.5205C792.059 61.3929 792.046 61.2334 792.027 61.042L793.169 60.8984L793.278 62.293C793.297 62.5482 793.354 62.7874 793.449 63.0107C793.549 63.234 793.691 63.4141 793.873 63.5508C794.055 63.6875 794.281 63.7559 794.55 63.7559C795.033 63.7559 795.377 63.6009 795.582 63.291C795.792 62.9811 795.896 62.5824 795.896 62.0947C795.896 62.0127 795.894 61.9284 795.89 61.8418C795.885 61.7507 795.878 61.6436 795.869 61.5205C795.86 61.3929 795.846 61.2334 795.828 61.042L796.97 60.8984L797.079 62.293C797.097 62.5391 797.147 62.7738 797.229 62.9971C797.316 63.2204 797.441 63.4027 797.605 63.5439C797.774 63.6852 797.988 63.7559 798.248 63.7559C798.476 63.7559 798.663 63.6875 798.809 63.5508C798.959 63.4141 799.071 63.2227 799.144 62.9766C799.221 62.7259 799.26 62.4365 799.26 62.1084C799.26 61.9443 799.253 61.7734 799.239 61.5957C799.23 61.418 799.214 61.1833 799.191 60.8916L800.333 60.7549L800.442 62.293C800.461 62.5846 800.524 62.8398 800.634 63.0586C800.743 63.2773 800.894 63.4482 801.085 63.5713C801.281 63.6943 801.518 63.7559 801.796 63.7559H801.987V65H801.81C801.331 65 800.932 64.9134 800.613 64.7402C800.294 64.5625 800.076 64.2982 799.957 63.9473C799.766 64.2845 799.545 64.5443 799.294 64.7266C799.048 64.9089 798.701 65 798.255 65ZM801.728 63.7559H802.056V65H801.728V63.7559ZM803.136 66.0459L804.127 67.0371L803.136 68.0283L802.145 67.0371L803.136 66.0459ZM802.637 65H801.885V63.7559H802.623C803.234 63.7559 803.642 63.6237 803.847 63.3594C804.056 63.0905 804.161 62.7282 804.161 62.2725C804.161 62.0173 804.136 61.7005 804.086 61.3223C804.036 60.944 803.958 60.568 803.854 60.1943L805.022 59.8799C805.132 60.2399 805.209 60.6273 805.255 61.042C805.3 61.4567 805.323 61.8304 805.323 62.1631C805.323 62.71 805.248 63.1976 805.098 63.626C804.952 64.0498 804.685 64.3848 804.298 64.6309C803.91 64.877 803.357 65 802.637 65Z" fill="#1967D2"/>
</svg>
