<svg width="387" height="72" viewBox="0 0 387 72" fill="none" xmlns="http://www.w3.org/2000/svg">
<rect x="1" y="1" width="385" height="70" rx="15" fill="#F5F5F5"/>
<rect x="1" y="1" width="385" height="70" rx="15" stroke="#8B8B8B" stroke-width="2"/>
<path d="M11.5439 32.1777L12.9502 33.584L11.5439 34.9902L10.1377 33.584L11.5439 32.1777ZM11.6582 41.8984C12.5781 41.8984 13.2959 41.749 13.8115 41.4502C14.3271 41.1514 14.6904 40.7529 14.9014 40.2549C15.1123 39.7627 15.2178 39.2236 15.2178 38.6377C15.2178 37.9639 15.1182 37.29 14.9189 36.6162C14.7256 35.9424 14.5293 35.3506 14.3301 34.8408L16.2021 34.1113C16.501 34.9199 16.7207 35.6875 16.8613 36.4141C17.002 37.1406 17.0723 37.8525 17.0723 38.5498C17.0723 39.6162 16.876 40.5479 16.4834 41.3447C16.0908 42.1475 15.4932 42.7715 14.6904 43.2168C13.8936 43.6621 12.8828 43.8848 11.6582 43.8848C10.3926 43.8848 9.36719 43.6475 8.58203 43.1729C7.79688 42.7041 7.22266 42.0713 6.85938 41.2744C6.50195 40.4775 6.32324 39.5928 6.32324 38.6201C6.32324 37.9639 6.39062 37.29 6.52539 36.5986C6.66602 35.9014 6.8623 35.2158 7.11426 34.542L8.83691 35.2188C8.64941 35.793 8.48828 36.3701 8.35352 36.9502C8.22461 37.5244 8.16016 38.0752 8.16016 38.6025C8.16016 39.2061 8.26562 39.7568 8.47656 40.2549C8.69336 40.7529 9.05371 41.1514 9.55762 41.4502C10.0674 41.749 10.7676 41.8984 11.6582 41.8984ZM19.1465 27.7129H21.0449V36.0449C21.0449 36.7832 21.168 37.293 21.4141 37.5742C21.6602 37.8496 22.082 37.9873 22.6797 37.9873H22.8906V40H22.6797C21.4727 40 20.582 39.6865 20.0078 39.0596C19.4336 38.4268 19.1465 37.4512 19.1465 36.1328V27.7129ZM28.2871 35.2451C28.0176 35.2451 27.7715 35.3359 27.5488 35.5176C27.332 35.6934 27.1357 35.9189 26.96 36.1943C26.79 36.4697 26.6406 36.7451 26.5117 37.0205C26.6934 37.1963 26.8691 37.3516 27.0391 37.4863C27.209 37.6211 27.373 37.7354 27.5312 37.8291C27.7598 37.9697 27.9736 38.0723 28.1729 38.1367C28.3721 38.2012 28.5508 38.2334 28.709 38.2334C29.0898 38.2334 29.3682 38.1221 29.5439 37.8994C29.7256 37.6768 29.8164 37.3809 29.8164 37.0117C29.8164 36.5078 29.6816 36.0889 29.4121 35.7549C29.1426 35.415 28.7676 35.2451 28.2871 35.2451ZM28.709 40.2021C28.3105 40.2021 27.9326 40.1436 27.5752 40.0264C27.2236 39.9092 26.8779 39.7422 26.5381 39.5254C26.1982 39.3086 25.8525 39.0479 25.501 38.7432C25.2666 38.9951 25.0352 39.2178 24.8066 39.4111C24.584 39.5986 24.3262 39.7451 24.0332 39.8506C23.7402 39.9502 23.377 40 22.9434 40H22.5742V37.9873H22.8994C23.2451 37.9873 23.5439 37.876 23.7959 37.6533C24.0479 37.4248 24.2793 37.1348 24.4902 36.7832C24.707 36.4258 24.9238 36.0479 25.1406 35.6494C25.3633 35.251 25.6123 34.873 25.8877 34.5156C26.1631 34.1582 26.4883 33.8682 26.8633 33.6455C27.2441 33.4229 27.7012 33.3115 28.2344 33.3115C28.9258 33.3115 29.5234 33.4756 30.0273 33.8037C30.5371 34.1318 30.9297 34.5713 31.2051 35.1221C31.4863 35.667 31.627 36.2676 31.627 36.9238C31.627 37.5859 31.5156 38.1631 31.293 38.6553C31.0703 39.1416 30.7422 39.5225 30.3086 39.7979C29.875 40.0674 29.3418 40.2021 28.709 40.2021ZM36.3643 33.083C36.8916 33.083 37.3604 33.2031 37.7705 33.4434C38.1807 33.6836 38.5322 34.0234 38.8252 34.4629C39.124 34.8965 39.3525 35.4121 39.5107 36.0098C39.6748 36.6074 39.7715 37.2666 39.8008 37.9873H40.6797V40H39.6426C39.4727 40.7676 39.168 41.4678 38.7285 42.1006C38.2949 42.7334 37.6885 43.2754 36.9092 43.7266C36.1299 44.1777 35.1426 44.5176 33.9473 44.7461L33.2705 42.9355C34.0908 42.7715 34.8174 42.5547 35.4502 42.2852C36.083 42.0156 36.6045 41.6904 37.0146 41.3096C37.4248 40.9287 37.7031 40.4922 37.8496 40H36.707C35.5645 40 34.7002 39.7656 34.1143 39.2969C33.5342 38.8281 33.2441 38.0986 33.2441 37.1084C33.2441 36.6631 33.3057 36.2061 33.4287 35.7373C33.5576 35.2627 33.751 34.8262 34.0088 34.4277C34.2725 34.0234 34.6006 33.6982 34.9932 33.4521C35.3857 33.2061 35.8428 33.083 36.3643 33.083ZM36.6543 37.9873H38.0166C37.9873 37.5596 37.9316 37.1699 37.8496 36.8184C37.7734 36.4609 37.668 36.1533 37.5332 35.8955C37.3984 35.6318 37.2314 35.4297 37.0322 35.2891C36.8389 35.1426 36.6104 35.0693 36.3467 35.0693C36.0127 35.0693 35.749 35.1865 35.5557 35.4209C35.3682 35.6494 35.2363 35.916 35.1602 36.2207C35.084 36.5254 35.0459 36.7949 35.0459 37.0293C35.0459 37.3984 35.1807 37.6504 35.4502 37.7852C35.7197 37.9199 36.1211 37.9873 36.6543 37.9873ZM40.3457 37.9873H40.9697V40H40.3457V37.9873ZM44.2217 29.0752L45.5752 30.4111L44.2217 31.7734L42.8857 30.4111L44.2217 29.0752ZM41.2861 29.0752L42.6396 30.4111L41.2861 31.7734L39.9414 30.4111L41.2861 29.0752ZM41.7168 40H40.75V37.9873H41.6992C42.3672 37.9873 42.833 37.8525 43.0967 37.583C43.3662 37.3135 43.501 36.8945 43.501 36.3262C43.501 35.998 43.4658 35.585 43.3955 35.0869C43.3311 34.583 43.2227 34.0469 43.0703 33.4785L44.916 32.9863C45.0625 33.5078 45.168 34.041 45.2324 34.5859C45.2969 35.1309 45.3291 35.6377 45.3291 36.1064C45.3291 36.874 45.2207 37.5508 45.0039 38.1367C44.793 38.7168 44.4238 39.1738 43.8965 39.5078C43.375 39.8359 42.6484 40 41.7168 40ZM57.5723 27.1592V40H55.4541V29.6729L52.3164 30.7363V28.9873L57.3174 27.1592H57.5723ZM68.418 27.124H68.6816V28.8555H68.5322C67.7764 28.8555 67.123 28.9727 66.5723 29.207C66.0273 29.4414 65.5791 29.7637 65.2275 30.1738C64.876 30.584 64.6123 31.0645 64.4365 31.6152C64.2666 32.1602 64.1816 32.7402 64.1816 33.3555V35.3682C64.1816 36.0479 64.2783 36.6191 64.4717 37.082C64.6709 37.5449 64.9346 37.8965 65.2627 38.1367C65.5967 38.3711 65.9658 38.4883 66.3701 38.4883C66.8037 38.4883 67.1729 38.374 67.4775 38.1455C67.7881 37.917 68.0254 37.6064 68.1895 37.2139C68.3594 36.8154 68.4443 36.3613 68.4443 35.8516C68.4443 35.3711 68.3652 34.9287 68.207 34.5244C68.0488 34.1201 67.8145 33.8008 67.5039 33.5664C67.1934 33.3262 66.8096 33.2061 66.3525 33.2061C65.9307 33.2061 65.5469 33.3057 65.2012 33.5049C64.8613 33.7041 64.5859 33.9648 64.375 34.2871C64.1699 34.6035 64.0586 34.9404 64.041 35.2979L63.2324 35.0342C63.2969 34.3076 63.4902 33.6807 63.8125 33.1533C64.1406 32.626 64.5684 32.2217 65.0957 31.9404C65.623 31.6592 66.2236 31.5186 66.8975 31.5186C67.7236 31.5186 68.4062 31.7207 68.9453 32.125C69.4844 32.5293 69.8857 33.0566 70.1494 33.707C70.4189 34.3574 70.5537 35.0547 70.5537 35.7988C70.5537 36.6191 70.3867 37.3604 70.0527 38.0225C69.7246 38.6787 69.25 39.2031 68.6289 39.5957C68.0078 39.9824 67.2637 40.1758 66.3965 40.1758C65.7109 40.1758 65.0986 40.0439 64.5596 39.7803C64.0264 39.5166 63.5723 39.1533 63.1973 38.6904C62.8281 38.2275 62.5469 37.6943 62.3535 37.0908C62.1602 36.4873 62.0635 35.8486 62.0635 35.1748V34.2959C62.0635 33.3232 62.1865 32.4062 62.4326 31.5449C62.6787 30.6777 63.0566 29.9131 63.5664 29.251C64.082 28.5889 64.7412 28.0703 65.5439 27.6953C66.3467 27.3145 67.3047 27.124 68.418 27.124ZM74.3594 37.9609L74.3506 39.4727C74.3506 40.0703 74.2012 40.6855 73.9023 41.3184C73.6035 41.9512 73.208 42.4727 72.7158 42.8828L71.582 42.2236C71.7461 41.96 71.8955 41.6934 72.0303 41.4238C72.165 41.1543 72.2734 40.8672 72.3555 40.5625C72.4375 40.2578 72.4785 39.9209 72.4785 39.5518V37.9609H74.3594ZM77.9805 38.3301H78.1562C78.9648 38.3301 79.6387 38.2246 80.1777 38.0137C80.7227 37.7969 81.1562 37.498 81.4785 37.1172C81.8008 36.7363 82.0322 36.2881 82.1729 35.7725C82.3135 35.2568 82.3838 34.6973 82.3838 34.0938V31.8877C82.3838 31.1904 82.2871 30.6074 82.0938 30.1387C81.9062 29.6699 81.6514 29.3154 81.3291 29.0752C81.0068 28.835 80.6523 28.7148 80.2656 28.7148C79.832 28.7148 79.4629 28.8408 79.1582 29.0928C78.8535 29.3389 78.6221 29.6699 78.4639 30.0859C78.3057 30.4961 78.2266 30.9502 78.2266 31.4482C78.2266 31.917 78.2998 32.3594 78.4463 32.7754C78.5986 33.1855 78.8271 33.5166 79.1318 33.7686C79.4365 34.0205 79.8203 34.1465 80.2832 34.1465C80.6113 34.1465 80.9131 34.085 81.1885 33.9619C81.4639 33.833 81.7041 33.6602 81.9092 33.4434C82.1143 33.2266 82.2754 32.9834 82.3926 32.7139C82.5098 32.4443 82.5742 32.1689 82.5859 31.8877L83.3945 32.1338C83.3945 32.5791 83.3008 33.0186 83.1133 33.4521C82.9316 33.8799 82.6768 34.2725 82.3486 34.6299C82.0264 34.9814 81.6484 35.2627 81.2148 35.4736C80.7871 35.6846 80.3213 35.79 79.8174 35.79C79.0029 35.79 78.3203 35.5908 77.7695 35.1924C77.2246 34.7939 76.8145 34.2695 76.5391 33.6191C76.2637 32.9688 76.126 32.2627 76.126 31.501C76.126 30.6807 76.29 29.9336 76.6182 29.2598C76.9463 28.5801 77.4209 28.0381 78.042 27.6338C78.6631 27.2295 79.4072 27.0273 80.2744 27.0273C80.9658 27.0273 81.5723 27.1621 82.0938 27.4316C82.6152 27.7012 83.0547 28.0732 83.4121 28.5479C83.7695 29.0225 84.0391 29.5732 84.2207 30.2002C84.4023 30.8271 84.4932 31.501 84.4932 32.2217V32.9688C84.4932 33.7246 84.4258 34.4541 84.291 35.1572C84.1562 35.8545 83.9365 36.502 83.6318 37.0996C83.333 37.6914 82.9375 38.2129 82.4453 38.6641C81.959 39.1094 81.3613 39.458 80.6523 39.71C79.9492 39.9561 79.123 40.0791 78.1738 40.0791H77.9805V38.3301ZM94.8467 32.5293V34.6211C94.8467 35.957 94.6738 37.0322 94.3281 37.8467C93.9824 38.6611 93.4961 39.2529 92.8691 39.6221C92.2422 39.9912 91.5068 40.1758 90.6631 40.1758C89.8252 40.1758 89.0898 39.9912 88.457 39.6221C87.8242 39.2529 87.332 38.6611 86.9805 37.8467C86.6289 37.0322 86.4531 35.957 86.4531 34.6211V32.5293C86.4531 31.1934 86.626 30.124 86.9717 29.3213C87.3232 28.5127 87.8125 27.9297 88.4395 27.5723C89.0723 27.209 89.8076 27.0273 90.6455 27.0273C91.4893 27.0273 92.2246 27.209 92.8516 27.5723C93.4844 27.9297 93.9736 28.5127 94.3193 29.3213C94.6709 30.124 94.8467 31.1934 94.8467 32.5293ZM92.7285 34.9199V32.2129C92.7285 31.3574 92.6465 30.6719 92.4824 30.1562C92.3242 29.6406 92.0898 29.2715 91.7793 29.0488C91.4688 28.8203 91.0908 28.7061 90.6455 28.7061C90.2061 28.7061 89.8311 28.8203 89.5205 29.0488C89.2158 29.2715 88.9814 29.6406 88.8174 30.1562C88.6592 30.6719 88.5801 31.3574 88.5801 32.2129V34.9199C88.5801 35.7754 88.6592 36.4668 88.8174 36.9941C88.9814 37.5156 89.2188 37.8965 89.5293 38.1367C89.8457 38.3711 90.2236 38.4883 90.6631 38.4883C91.1143 38.4883 91.4922 38.3711 91.7969 38.1367C92.1016 37.8965 92.333 37.5156 92.4912 36.9941C92.6494 36.4668 92.7285 35.7754 92.7285 34.9199ZM105.077 32.5293V34.6211C105.077 35.957 104.904 37.0322 104.559 37.8467C104.213 38.6611 103.727 39.2529 103.1 39.6221C102.473 39.9912 101.737 40.1758 100.894 40.1758C100.056 40.1758 99.3203 39.9912 98.6875 39.6221C98.0547 39.2529 97.5625 38.6611 97.2109 37.8467C96.8594 37.0322 96.6836 35.957 96.6836 34.6211V32.5293C96.6836 31.1934 96.8564 30.124 97.2021 29.3213C97.5537 28.5127 98.043 27.9297 98.6699 27.5723C99.3027 27.209 100.038 27.0273 100.876 27.0273C101.72 27.0273 102.455 27.209 103.082 27.5723C103.715 27.9297 104.204 28.5127 104.55 29.3213C104.901 30.124 105.077 31.1934 105.077 32.5293ZM102.959 34.9199V32.2129C102.959 31.3574 102.877 30.6719 102.713 30.1562C102.555 29.6406 102.32 29.2715 102.01 29.0488C101.699 28.8203 101.321 28.7061 100.876 28.7061C100.437 28.7061 100.062 28.8203 99.751 29.0488C99.4463 29.2715 99.2119 29.6406 99.0479 30.1562C98.8896 30.6719 98.8105 31.3574 98.8105 32.2129V34.9199C98.8105 35.7754 98.8896 36.4668 99.0479 36.9941C99.2119 37.5156 99.4492 37.8965 99.7598 38.1367C100.076 38.3711 100.454 38.4883 100.894 38.4883C101.345 38.4883 101.723 38.3711 102.027 38.1367C102.332 37.8965 102.563 37.5156 102.722 36.9941C102.88 36.4668 102.959 35.7754 102.959 34.9199Z" fill="#212121"/>
<path d="M280.039 44.4385C278.773 44.4385 277.748 44.2012 276.963 43.7266C276.178 43.2578 275.604 42.625 275.24 41.8281C274.883 41.0312 274.704 40.1436 274.704 39.165C274.704 38.5088 274.771 37.835 274.906 37.1436C275.047 36.4463 275.243 35.7637 275.495 35.0957L277.218 35.7725C277.03 36.3408 276.869 36.915 276.734 37.4951C276.605 38.0752 276.541 38.6289 276.541 39.1562C276.541 39.7539 276.646 40.3018 276.857 40.7998C277.074 41.3037 277.435 41.7021 277.938 41.9951C278.448 42.2939 279.148 42.4434 280.039 42.4434C280.678 42.4434 281.252 42.3818 281.762 42.2588C282.271 42.1416 282.702 41.9834 283.054 41.7842C283.405 41.5908 283.675 41.377 283.862 41.1426C284.05 40.9082 284.144 40.6797 284.144 40.457C284.144 40.3164 284.103 40.1904 284.021 40.0791C283.938 39.9678 283.789 39.9121 283.572 39.9121H282.148C281.773 39.9121 281.428 39.8682 281.111 39.7803C280.801 39.6924 280.534 39.5488 280.312 39.3496C280.089 39.1504 279.916 38.8838 279.793 38.5498C279.67 38.2158 279.608 37.8027 279.608 37.3105C279.608 36.7188 279.702 36.1562 279.89 35.623C280.083 35.084 280.355 34.6064 280.707 34.1904C281.059 33.7686 281.483 33.4375 281.981 33.1973C282.485 32.957 283.048 32.8369 283.669 32.8369C284.032 32.8369 284.401 32.8896 284.776 32.9951C285.151 33.1006 285.515 33.2734 285.866 33.5137L285.225 35.2451C284.955 35.1045 284.691 35.0049 284.434 34.9463C284.176 34.8818 283.924 34.8496 283.678 34.8496C283.215 34.8496 282.816 34.958 282.482 35.1748C282.154 35.3916 281.902 35.6875 281.727 36.0625C281.551 36.4316 281.463 36.8477 281.463 37.3105C281.463 37.5332 281.516 37.6885 281.621 37.7764C281.727 37.8643 281.908 37.9082 282.166 37.9082H283.563C284.161 37.9082 284.627 38.0107 284.961 38.2158C285.301 38.4209 285.541 38.7021 285.682 39.0596C285.822 39.417 285.893 39.8271 285.893 40.29C285.893 41.0225 285.67 41.7021 285.225 42.3291C284.779 42.9619 284.123 43.4717 283.256 43.8584C282.389 44.2451 281.316 44.4385 280.039 44.4385ZM289.628 38.0137C290.267 38.0137 290.826 37.9609 291.307 37.8555C291.793 37.75 292.171 37.5859 292.44 37.3633C292.71 37.1348 292.845 36.833 292.845 36.458C292.845 36.0889 292.695 35.7021 292.396 35.2979C292.104 34.8936 291.679 34.4834 291.122 34.0674C290.571 33.6455 289.9 33.2295 289.109 32.8193L289.979 31.0439C290.671 31.3896 291.304 31.7588 291.878 32.1514C292.452 32.5439 292.947 32.9629 293.363 33.4082C293.779 33.8535 294.099 34.3252 294.321 34.8232C294.55 35.3154 294.664 35.8398 294.664 36.3965C294.664 37.2227 294.477 37.9023 294.102 38.4355C293.732 38.9629 293.185 39.3525 292.458 39.6045C291.731 39.8564 290.832 39.9824 289.76 39.9824C289.338 39.9824 288.937 39.9648 288.556 39.9297C288.181 39.8945 287.82 39.8389 287.475 39.7627V37.7588C287.855 37.835 288.233 37.8965 288.608 37.9434C288.983 37.9902 289.323 38.0137 289.628 38.0137ZM301.317 36.5371C301.317 36.3906 301.282 36.1973 301.212 35.957C301.147 35.7109 301.074 35.4941 300.992 35.3066L299.357 31.6504L301.045 30.8418L303.119 35.6846C303.348 36.2178 303.55 36.6543 303.726 36.9941C303.901 37.334 304.083 37.5859 304.271 37.75C304.458 37.9082 304.684 37.9873 304.947 37.9873H305.316V40H304.947C304.496 40 304.118 39.9443 303.813 39.833C303.509 39.7217 303.245 39.5605 303.022 39.3496C302.8 39.1328 302.583 38.8721 302.372 38.5674C302.091 38.8838 301.763 39.1475 301.388 39.3584C301.019 39.5693 300.594 39.7275 300.113 39.833C299.639 39.9385 299.094 39.9912 298.479 39.9912C298.027 39.9912 297.629 39.9736 297.283 39.9385C296.943 39.8975 296.609 39.8389 296.281 39.7627V37.7588C296.639 37.8408 296.993 37.9023 297.345 37.9434C297.696 37.9844 298.03 38.0049 298.347 38.0049C298.938 38.0049 299.454 37.9551 299.894 37.8555C300.339 37.7559 300.688 37.5977 300.939 37.3809C301.191 37.1641 301.317 36.8828 301.317 36.5371ZM307.32 37.9873C307.174 37.7764 307.042 37.5361 306.925 37.2666C306.808 36.9971 306.717 36.7129 306.652 36.4141C306.588 36.1152 306.556 35.8311 306.556 35.5615C306.556 34.8994 306.723 34.2988 307.057 33.7598C307.396 33.2148 307.845 32.7812 308.401 32.459C308.958 32.1309 309.564 31.9668 310.221 31.9668C310.771 31.9668 311.305 32.0693 311.82 32.2744C312.342 32.4795 312.878 32.7725 313.429 33.1533L312.699 34.7969C312.277 34.5508 311.876 34.3545 311.495 34.208C311.114 34.0557 310.733 33.9795 310.353 33.9795C310.03 33.9795 309.72 34.0469 309.421 34.1816C309.128 34.3164 308.888 34.5068 308.7 34.7529C308.513 34.9932 308.419 35.2832 308.419 35.623C308.419 35.9746 308.498 36.2969 308.656 36.5898C308.814 36.877 308.99 37.1113 309.184 37.293C309.383 37.4688 309.529 37.5742 309.623 37.6094C309.652 37.6094 309.688 37.6064 309.729 37.6006C309.77 37.5947 309.813 37.5859 309.86 37.5742L313.824 36.625V38.6377C313.092 38.8604 312.383 39.0566 311.697 39.2266C311.012 39.3965 310.344 39.54 309.693 39.6572C309.043 39.7744 308.401 39.8623 307.769 39.9209C307.142 39.9736 306.515 40 305.888 40H304.982V37.9873H307.32ZM326.059 27.1592V40H323.94V29.6729L320.803 30.7363V28.9873L325.804 27.1592H326.059ZM338.847 32.5293V34.6211C338.847 35.957 338.674 37.0322 338.328 37.8467C337.982 38.6611 337.496 39.2529 336.869 39.6221C336.242 39.9912 335.507 40.1758 334.663 40.1758C333.825 40.1758 333.09 39.9912 332.457 39.6221C331.824 39.2529 331.332 38.6611 330.98 37.8467C330.629 37.0322 330.453 35.957 330.453 34.6211V32.5293C330.453 31.1934 330.626 30.124 330.972 29.3213C331.323 28.5127 331.812 27.9297 332.439 27.5723C333.072 27.209 333.808 27.0273 334.646 27.0273C335.489 27.0273 336.225 27.209 336.852 27.5723C337.484 27.9297 337.974 28.5127 338.319 29.3213C338.671 30.124 338.847 31.1934 338.847 32.5293ZM336.729 34.9199V32.2129C336.729 31.3574 336.646 30.6719 336.482 30.1562C336.324 29.6406 336.09 29.2715 335.779 29.0488C335.469 28.8203 335.091 28.7061 334.646 28.7061C334.206 28.7061 333.831 28.8203 333.521 29.0488C333.216 29.2715 332.981 29.6406 332.817 30.1562C332.659 30.6719 332.58 31.3574 332.58 32.2129V34.9199C332.58 35.7754 332.659 36.4668 332.817 36.9941C332.981 37.5156 333.219 37.8965 333.529 38.1367C333.846 38.3711 334.224 38.4883 334.663 38.4883C335.114 38.4883 335.492 38.3711 335.797 38.1367C336.102 37.8965 336.333 37.5156 336.491 36.9941C336.649 36.4668 336.729 35.7754 336.729 34.9199ZM349.077 32.5293V34.6211C349.077 35.957 348.904 37.0322 348.559 37.8467C348.213 38.6611 347.727 39.2529 347.1 39.6221C346.473 39.9912 345.737 40.1758 344.894 40.1758C344.056 40.1758 343.32 39.9912 342.688 39.6221C342.055 39.2529 341.562 38.6611 341.211 37.8467C340.859 37.0322 340.684 35.957 340.684 34.6211V32.5293C340.684 31.1934 340.856 30.124 341.202 29.3213C341.554 28.5127 342.043 27.9297 342.67 27.5723C343.303 27.209 344.038 27.0273 344.876 27.0273C345.72 27.0273 346.455 27.209 347.082 27.5723C347.715 27.9297 348.204 28.5127 348.55 29.3213C348.901 30.124 349.077 31.1934 349.077 32.5293ZM346.959 34.9199V32.2129C346.959 31.3574 346.877 30.6719 346.713 30.1562C346.555 29.6406 346.32 29.2715 346.01 29.0488C345.699 28.8203 345.321 28.7061 344.876 28.7061C344.437 28.7061 344.062 28.8203 343.751 29.0488C343.446 29.2715 343.212 29.6406 343.048 30.1562C342.89 30.6719 342.811 31.3574 342.811 32.2129V34.9199C342.811 35.7754 342.89 36.4668 343.048 36.9941C343.212 37.5156 343.449 37.8965 343.76 38.1367C344.076 38.3711 344.454 38.4883 344.894 38.4883C345.345 38.4883 345.723 38.3711 346.027 38.1367C346.332 37.8965 346.563 37.5156 346.722 36.9941C346.88 36.4668 346.959 35.7754 346.959 34.9199Z" fill="#212121"/>
<circle cx="370.5" cy="36.5" r="8.5" fill="#8B8B8B"/>
<circle cx="370.5" cy="36.5" r="11" stroke="#8B8B8B"/>
</svg>
