<svg width="472" height="50" viewBox="0 0 472 50" fill="none" xmlns="http://www.w3.org/2000/svg">
<rect width="472" height="50" rx="8" fill="#E3E3E3"/>
<path d="M345.109 26.1406C345.109 25.9323 345.026 25.7135 344.859 25.4844C344.698 25.25 344.497 25.0182 344.258 24.7891C344.018 24.5599 343.776 24.3464 343.531 24.1484C343.276 24.3932 343.042 24.6354 342.828 24.875C342.62 25.1094 342.453 25.3411 342.328 25.5703C342.208 25.7943 342.148 26.0208 342.148 26.25C342.148 26.5208 342.271 26.75 342.516 26.9375C342.76 27.1198 343.128 27.2109 343.617 27.2109C344.128 27.2109 344.503 27.125 344.742 26.9531C344.987 26.776 345.109 26.5052 345.109 26.1406ZM342.312 23.0781L342.008 22.8047L343.047 21.4688C343.542 21.8698 344.008 22.2604 344.445 22.6406C344.888 23.0156 345.281 23.3932 345.625 23.7734C345.969 24.1484 346.237 24.5339 346.43 24.9297C346.628 25.3255 346.727 25.7396 346.727 26.1719C346.727 26.75 346.596 27.2474 346.336 27.6641C346.076 28.0807 345.711 28.4036 345.242 28.6328C344.779 28.8568 344.24 28.9688 343.625 28.9688C342.646 28.9688 341.883 28.7292 341.336 28.25C340.794 27.7656 340.523 27.1562 340.523 26.4219C340.523 25.7917 340.685 25.2188 341.008 24.7031C341.331 24.1875 341.766 23.6458 342.312 23.0781ZM352.633 25.9219C352.633 25.7917 352.602 25.6198 352.539 25.4062C352.482 25.1875 352.417 24.9948 352.344 24.8281L350.891 21.5781L352.391 20.8594L354.234 25.1641C354.438 25.638 354.617 26.026 354.773 26.3281C354.93 26.6302 355.091 26.8542 355.258 27C355.424 27.1406 355.625 27.2109 355.859 27.2109H356.188V29H355.859C355.458 29 355.122 28.9505 354.852 28.8516C354.581 28.7526 354.346 28.6094 354.148 28.4219C353.951 28.2292 353.758 27.9974 353.57 27.7266C353.32 28.0078 353.029 28.2422 352.695 28.4297C352.367 28.6172 351.99 28.7578 351.562 28.8516C351.141 28.9453 350.656 28.9922 350.109 28.9922C349.708 28.9922 349.354 28.9766 349.047 28.9453C348.745 28.9089 348.448 28.8568 348.156 28.7891V27.0078C348.474 27.0807 348.789 27.1354 349.102 27.1719C349.414 27.2083 349.711 27.2266 349.992 27.2266C350.518 27.2266 350.977 27.1823 351.367 27.0938C351.763 27.0052 352.073 26.8646 352.297 26.6719C352.521 26.4792 352.633 26.2292 352.633 25.9219ZM356.75 29H355.891V27.2109H356.734C357.328 27.2109 357.742 27.0911 357.977 26.8516C358.216 26.612 358.336 26.2396 358.336 25.7344C358.336 25.4427 358.305 25.0755 358.242 24.6328C358.185 24.1849 358.089 23.7083 357.953 23.2031L359.594 22.7656C359.724 23.2292 359.818 23.7031 359.875 24.1875C359.932 24.6719 359.961 25.1224 359.961 25.5391C359.961 26.2214 359.865 26.8229 359.672 27.3438C359.484 27.8594 359.156 28.2656 358.688 28.5625C358.224 28.8542 357.578 29 356.75 29ZM358.07 19.2266L359.32 20.4766L358.07 21.7266L356.82 20.4766L358.07 19.2266ZM361.812 18.0781H363.5V25.4844C363.5 26.1406 363.609 26.5938 363.828 26.8438C364.047 27.0885 364.422 27.2109 364.953 27.2109H365.141V29H364.953C363.88 29 363.089 28.7214 362.578 28.1641C362.068 27.6016 361.812 26.7344 361.812 25.5625V18.0781ZM369.938 24.7734C369.698 24.7734 369.479 24.8542 369.281 25.0156C369.089 25.1719 368.914 25.3724 368.758 25.6172C368.607 25.862 368.474 26.1068 368.359 26.3516C368.521 26.5078 368.677 26.6458 368.828 26.7656C368.979 26.8854 369.125 26.987 369.266 27.0703C369.469 27.1953 369.659 27.2865 369.836 27.3438C370.013 27.401 370.172 27.4297 370.312 27.4297C370.651 27.4297 370.898 27.3307 371.055 27.1328C371.216 26.9349 371.297 26.6719 371.297 26.3438C371.297 25.8958 371.177 25.5234 370.938 25.2266C370.698 24.9245 370.365 24.7734 369.938 24.7734ZM370.312 29.1797C369.958 29.1797 369.622 29.1276 369.305 29.0234C368.992 28.9193 368.685 28.7708 368.383 28.5781C368.081 28.3854 367.773 28.1536 367.461 27.8828C367.253 28.1068 367.047 28.3047 366.844 28.4766C366.646 28.6432 366.417 28.7734 366.156 28.8672C365.896 28.9557 365.573 29 365.188 29H364.859V27.2109H365.148C365.456 27.2109 365.721 27.112 365.945 26.9141C366.169 26.7109 366.375 26.4531 366.562 26.1406C366.755 25.8229 366.948 25.487 367.141 25.1328C367.339 24.7786 367.56 24.4427 367.805 24.125C368.049 23.8073 368.339 23.5495 368.672 23.3516C369.01 23.1536 369.417 23.0547 369.891 23.0547C370.505 23.0547 371.036 23.2005 371.484 23.4922C371.938 23.7839 372.286 24.1745 372.531 24.6641C372.781 25.1484 372.906 25.6823 372.906 26.2656C372.906 26.8542 372.807 27.3672 372.609 27.8047C372.411 28.237 372.12 28.5755 371.734 28.8203C371.349 29.0599 370.875 29.1797 370.312 29.1797ZM386.516 29H384.531C383.589 29 382.742 28.9297 381.992 28.7891C381.247 28.6432 380.615 28.4141 380.094 28.1016C379.573 27.7891 379.177 27.3854 378.906 26.8906C378.635 26.3906 378.5 25.7812 378.5 25.0625C378.5 24.6562 378.544 24.2578 378.633 23.8672C378.727 23.4766 378.844 23.1094 378.984 22.7656L380.484 23.3359C380.401 23.5651 380.323 23.8255 380.25 24.1172C380.182 24.4036 380.148 24.6771 380.148 24.9375C380.148 25.375 380.25 25.7396 380.453 26.0312C380.656 26.3229 380.948 26.5547 381.328 26.7266C381.714 26.8984 382.174 27.0234 382.711 27.1016C383.253 27.1745 383.859 27.2109 384.531 27.2109H386.508C387.133 27.2109 387.643 27.1797 388.039 27.1172C388.435 27.0495 388.727 26.9323 388.914 26.7656C389.102 26.599 389.195 26.3646 389.195 26.0625C389.195 25.849 389.115 25.6302 388.953 25.4062C388.792 25.1771 388.576 24.9479 388.305 24.7188C388.034 24.4844 387.734 24.2552 387.406 24.0312C387.083 23.8021 386.758 23.5755 386.43 23.3516C386.102 23.1276 385.799 22.9089 385.523 22.6953C385.336 22.5495 385.19 22.3776 385.086 22.1797C384.982 21.9766 384.93 21.7656 384.93 21.5469C384.93 21.2917 384.997 21.0495 385.133 20.8203C385.268 20.5859 385.466 20.4167 385.727 20.3125L391.523 17.9531V19.7109L386.914 21.5781C387.294 21.8333 387.651 22.0755 387.984 22.3047C388.318 22.5339 388.628 22.7656 388.914 23C389.201 23.2292 389.461 23.4661 389.695 23.7109C389.935 23.9557 390.148 24.2214 390.336 24.5078C390.529 24.7943 390.695 25.1068 390.836 25.4453C391.008 25.862 391.177 26.2005 391.344 26.4609C391.516 26.7214 391.721 26.9115 391.961 27.0312C392.201 27.151 392.508 27.2109 392.883 27.2109H393.102L393.094 29H392.875C392.276 29 391.768 28.8984 391.352 28.6953C390.94 28.487 390.581 28.1484 390.273 27.6797C390.039 27.987 389.768 28.2396 389.461 28.4375C389.154 28.6302 388.766 28.7734 388.297 28.8672C387.833 28.9557 387.24 29 386.516 29ZM397.875 24.7734C397.635 24.7734 397.417 24.8542 397.219 25.0156C397.026 25.1719 396.852 25.3724 396.695 25.6172C396.544 25.862 396.411 26.1068 396.297 26.3516C396.458 26.5078 396.615 26.6458 396.766 26.7656C396.917 26.8854 397.062 26.987 397.203 27.0703C397.406 27.1953 397.596 27.2865 397.773 27.3438C397.951 27.401 398.109 27.4297 398.25 27.4297C398.589 27.4297 398.836 27.3307 398.992 27.1328C399.154 26.9349 399.234 26.6719 399.234 26.3438C399.234 25.8958 399.115 25.5234 398.875 25.2266C398.635 24.9245 398.302 24.7734 397.875 24.7734ZM398.25 29.1797C397.896 29.1797 397.56 29.1276 397.242 29.0234C396.93 28.9193 396.622 28.7708 396.32 28.5781C396.018 28.3854 395.711 28.1536 395.398 27.8828C395.19 28.1068 394.984 28.3047 394.781 28.4766C394.583 28.6432 394.354 28.7734 394.094 28.8672C393.833 28.9557 393.51 29 393.125 29H392.797V27.2109H393.086C393.393 27.2109 393.659 27.112 393.883 26.9141C394.107 26.7109 394.312 26.4531 394.5 26.1406C394.693 25.8229 394.885 25.487 395.078 25.1328C395.276 24.7786 395.497 24.4427 395.742 24.125C395.987 23.8073 396.276 23.5495 396.609 23.3516C396.948 23.1536 397.354 23.0547 397.828 23.0547C398.443 23.0547 398.974 23.2005 399.422 23.4922C399.875 23.7839 400.224 24.1745 400.469 24.6641C400.719 25.1484 400.844 25.6823 400.844 26.2656C400.844 26.8542 400.745 27.3672 400.547 27.8047C400.349 28.237 400.057 28.5755 399.672 28.8203C399.286 29.0599 398.812 29.1797 398.25 29.1797ZM402.688 18.0781H404.375V25.4844C404.375 26.1406 404.484 26.5938 404.703 26.8438C404.922 27.0885 405.297 27.2109 405.828 27.2109H406.016V29H405.828C404.755 29 403.964 28.7214 403.453 28.1641C402.943 27.6016 402.688 26.7344 402.688 25.5625V18.0781ZM405.703 27.2109H406.328V29H405.703V27.2109ZM408.531 30.1328L409.734 31.3281L408.531 32.5391L407.344 31.3281L408.531 30.1328ZM405.922 30.1328L407.125 31.3281L405.922 32.5391L404.727 31.3281L405.922 30.1328ZM408.508 23.8984L410.094 23.7031L410.234 25.7109C410.25 26.013 410.312 26.2786 410.422 26.5078C410.531 26.7318 410.688 26.9062 410.891 27.0312C411.099 27.151 411.359 27.2109 411.672 27.2109H411.828V29H411.656C411.286 29 410.961 28.9557 410.68 28.8672C410.398 28.7734 410.154 28.6458 409.945 28.4844C409.742 28.3177 409.565 28.1172 409.414 27.8828C409.122 28.2526 408.75 28.5312 408.297 28.7188C407.849 28.9062 407.378 29 406.883 29H406.148V27.2109H406.883C407.508 27.2109 407.945 27.0599 408.195 26.7578C408.451 26.4505 408.578 26.0104 408.578 25.4375C408.578 25.1667 408.57 24.9036 408.555 24.6484C408.544 24.3932 408.529 24.1432 408.508 23.8984ZM411.531 27.2109H412.695V29H411.531V27.2109ZM413.375 29H412.516V27.2109H413.359C413.953 27.2109 414.367 27.0911 414.602 26.8516C414.841 26.612 414.961 26.2396 414.961 25.7344C414.961 25.4427 414.93 25.0755 414.867 24.6328C414.81 24.1849 414.714 23.7083 414.578 23.2031L416.219 22.7656C416.349 23.2292 416.443 23.7031 416.5 24.1875C416.557 24.6719 416.586 25.1224 416.586 25.5391C416.586 26.2214 416.49 26.8229 416.297 27.3438C416.109 27.8594 415.781 28.2656 415.312 28.5625C414.849 28.8542 414.203 29 413.375 29ZM413.555 31.875L414.695 33.0234L413.555 34.1641L412.414 33.0234L413.555 31.875ZM414.906 29.8906L416.047 31.0391L414.906 32.1797L413.758 31.0391L414.906 29.8906ZM412.211 29.8906L413.352 31.0391L412.211 32.1797L411.062 31.0391L412.211 29.8906ZM424.102 27.2344C424.669 27.2344 425.167 27.1875 425.594 27.0938C426.026 27 426.362 26.8542 426.602 26.6562C426.841 26.4531 426.961 26.1849 426.961 25.8516C426.961 25.5234 426.828 25.1797 426.562 24.8203C426.302 24.4609 425.924 24.0964 425.43 23.7266C424.94 23.3516 424.344 22.9818 423.641 22.6172L424.414 21.0391C425.029 21.3464 425.591 21.6745 426.102 22.0234C426.612 22.3724 427.052 22.7448 427.422 23.1406C427.792 23.5365 428.076 23.9557 428.273 24.3984C428.477 24.8359 428.578 25.3021 428.578 25.7969C428.578 26.5312 428.411 27.1354 428.078 27.6094C427.75 28.0781 427.263 28.4245 426.617 28.6484C425.971 28.8724 425.172 28.9844 424.219 28.9844C423.844 28.9844 423.487 28.9688 423.148 28.9375C422.815 28.9062 422.495 28.8568 422.188 28.7891V27.0078C422.526 27.0755 422.862 27.1302 423.195 27.1719C423.529 27.2135 423.831 27.2344 424.102 27.2344ZM432.109 18.0781V28.9922H430.43V18.0781H432.109ZM438.445 25.9219C438.445 25.7917 438.414 25.6198 438.352 25.4062C438.294 25.1875 438.229 24.9948 438.156 24.8281L436.703 21.5781L438.203 20.8594L440.047 25.1641C440.25 25.638 440.43 26.026 440.586 26.3281C440.742 26.6302 440.904 26.8542 441.07 27C441.237 27.1406 441.438 27.2109 441.672 27.2109H442V29H441.672C441.271 29 440.935 28.9505 440.664 28.8516C440.393 28.7526 440.159 28.6094 439.961 28.4219C439.763 28.2292 439.57 27.9974 439.383 27.7266C439.133 28.0078 438.841 28.2422 438.508 28.4297C438.18 28.6172 437.802 28.7578 437.375 28.8516C436.953 28.9453 436.469 28.9922 435.922 28.9922C435.521 28.9922 435.167 28.9766 434.859 28.9453C434.557 28.9089 434.26 28.8568 433.969 28.7891V27.0078C434.286 27.0807 434.602 27.1354 434.914 27.1719C435.227 27.2083 435.523 27.2266 435.805 27.2266C436.331 27.2266 436.789 27.1823 437.18 27.0938C437.576 27.0052 437.885 26.8646 438.109 26.6719C438.333 26.4792 438.445 26.2292 438.445 25.9219ZM446.703 24.2031C446.464 24.2031 446.159 24.2188 445.789 24.25C445.419 24.2812 445.06 24.349 444.711 24.4531C444.997 24.7917 445.294 25.112 445.602 25.4141C445.909 25.7161 446.169 25.9635 446.383 26.1562C446.596 26.3438 446.703 26.4375 446.703 26.4375C446.703 26.4375 446.766 26.3828 446.891 26.2734C447.021 26.1641 447.188 26.0156 447.391 25.8281C447.594 25.6406 447.81 25.4271 448.039 25.1875C448.273 24.9479 448.497 24.7031 448.711 24.4531C448.362 24.349 448.003 24.2812 447.633 24.25C447.263 24.2188 446.953 24.2031 446.703 24.2031ZM446.703 22.5547C447.109 22.5547 447.534 22.5859 447.977 22.6484C448.419 22.7109 448.833 22.8047 449.219 22.9297C449.604 23.0547 449.917 23.2109 450.156 23.3984C450.396 23.5859 450.516 23.8073 450.516 24.0625C450.516 24.1875 450.466 24.349 450.367 24.5469C450.273 24.7396 450.146 24.9479 449.984 25.1719C449.823 25.3958 449.646 25.625 449.453 25.8594C449.26 26.0885 449.065 26.3047 448.867 26.5078C448.674 26.7109 448.5 26.888 448.344 27.0391C448.641 27.1172 448.924 27.1667 449.195 27.1875C449.466 27.2031 449.714 27.2109 449.938 27.2109H451.148V29H449.945C449.372 29 448.815 28.9323 448.273 28.7969C447.732 28.6615 447.208 28.4557 446.703 28.1797C446.365 28.362 445.974 28.5156 445.531 28.6406C445.089 28.7604 444.638 28.8516 444.18 28.9141C443.727 28.9714 443.307 29 442.922 29H441.703V27.2109H442.93C443.081 27.2109 443.284 27.2083 443.539 27.2031C443.799 27.1979 444.068 27.1823 444.344 27.1562C444.625 27.1302 444.87 27.0885 445.078 27.0312C444.917 26.8854 444.737 26.7109 444.539 26.5078C444.346 26.3047 444.154 26.0885 443.961 25.8594C443.773 25.625 443.599 25.3958 443.438 25.1719C443.276 24.9427 443.146 24.7318 443.047 24.5391C442.948 24.3464 442.898 24.1875 442.898 24.0625C442.898 23.8073 443.016 23.5859 443.25 23.3984C443.49 23.2109 443.802 23.0547 444.188 22.9297C444.573 22.8047 444.987 22.7109 445.43 22.6484C445.872 22.5859 446.297 22.5547 446.703 22.5547ZM450.844 27.2109H451.398V29H450.844V27.2109ZM454.289 19.2891L455.492 20.4766L454.289 21.6875L453.102 20.4766L454.289 19.2891ZM451.68 19.2891L452.883 20.4766L451.68 21.6875L450.484 20.4766L451.68 19.2891ZM452.062 29H451.203V27.2109H452.047C452.641 27.2109 453.055 27.0911 453.289 26.8516C453.529 26.612 453.648 26.2396 453.648 25.7344C453.648 25.4427 453.617 25.0755 453.555 24.6328C453.497 24.1849 453.401 23.7083 453.266 23.2031L454.906 22.7656C455.036 23.2292 455.13 23.7031 455.188 24.1875C455.245 24.6719 455.273 25.1224 455.273 25.5391C455.273 26.2214 455.177 26.8229 454.984 27.3438C454.797 27.8594 454.469 28.2656 454 28.5625C453.536 28.8542 452.891 29 452.062 29Z" fill="#424242"/>
<path d="M19.5332 26.6709C20.0723 26.6709 20.5762 26.6299 21.0449 26.5479C21.5137 26.4658 21.8916 26.3252 22.1787 26.126C22.4658 25.9209 22.6094 25.6367 22.6094 25.2734C22.6094 24.9043 22.4424 24.5146 22.1084 24.1045C21.7744 23.6943 21.3203 23.2842 20.7461 22.874C20.1719 22.458 19.5244 22.0742 18.8037 21.7227L19.8145 19.6133C20.4648 19.9355 21.083 20.2871 21.6689 20.668C22.2549 21.0488 22.7764 21.4678 23.2334 21.9248C23.6904 22.3818 24.0508 22.8828 24.3145 23.4277C24.5781 23.9668 24.71 24.5557 24.71 25.1943C24.71 26.0908 24.5049 26.8174 24.0947 27.374C23.6904 27.9307 23.1104 28.3379 22.3545 28.5957C21.6045 28.8535 20.708 28.9824 19.665 28.9824C19.2139 28.9824 18.7891 28.9678 18.3906 28.9385C17.998 28.9033 17.6143 28.8447 17.2393 28.7627V26.4072C17.6201 26.4834 18.0186 26.5479 18.4346 26.6006C18.8564 26.6475 19.2227 26.6709 19.5332 26.6709ZM31.249 25.3174C31.249 25.1709 31.2139 24.9775 31.1436 24.7373C31.0791 24.4971 31.0088 24.2949 30.9326 24.1309L29.2363 20.3428L31.1875 19.4023L33.332 24.377C33.5254 24.8281 33.6982 25.2236 33.8506 25.5635C34.0029 25.9033 34.1699 26.167 34.3516 26.3545C34.5332 26.542 34.7617 26.6357 35.0371 26.6357H35.3975V29H35.0371C34.5918 29 34.2109 28.9443 33.8945 28.833C33.584 28.7158 33.3086 28.5547 33.0684 28.3496C32.834 28.1445 32.6143 27.9043 32.4092 27.6289C32.1221 27.9219 31.791 28.1709 31.416 28.376C31.0469 28.5811 30.6279 28.7363 30.1592 28.8418C29.6904 28.9414 29.1602 28.9912 28.5684 28.9912C28.0762 28.9912 27.6514 28.9736 27.2939 28.9385C26.9424 28.9033 26.585 28.8418 26.2217 28.7539V26.3984C26.585 26.4805 26.96 26.5449 27.3467 26.5918C27.7334 26.6387 28.0967 26.6621 28.4365 26.6621C28.9229 26.6621 29.3799 26.6211 29.8076 26.5391C30.2354 26.4512 30.5811 26.3105 30.8447 26.1172C31.1143 25.918 31.249 25.6514 31.249 25.3174ZM37.1113 26.6357C36.9941 26.4365 36.8887 26.208 36.7949 25.9502C36.707 25.6924 36.6367 25.4287 36.584 25.1592C36.5312 24.8838 36.5049 24.6289 36.5049 24.3945C36.5049 23.709 36.6777 23.0791 37.0234 22.5049C37.3691 21.9307 37.8291 21.4736 38.4033 21.1338C38.9775 20.7881 39.6133 20.6152 40.3105 20.6152C40.9316 20.6152 41.5088 20.7295 42.042 20.958C42.5811 21.1807 43.1348 21.4854 43.7031 21.8721L42.8506 23.8057C42.4521 23.5713 42.0625 23.375 41.6816 23.2168C41.3066 23.0586 40.9023 22.9795 40.4688 22.9795C40.1758 22.9795 39.8887 23.041 39.6074 23.1641C39.3262 23.2812 39.0947 23.4512 38.9131 23.6738C38.7314 23.8906 38.6406 24.1514 38.6406 24.4561C38.6406 24.7432 38.7021 25.0127 38.8252 25.2646C38.9541 25.5166 39.1035 25.7305 39.2734 25.9062C39.4492 26.0762 39.5957 26.1934 39.7129 26.2578C39.7305 26.2578 39.7539 26.2549 39.7832 26.249C39.8184 26.2432 39.8506 26.2373 39.8799 26.2314L44.0547 25.2295V27.5938C43.3164 27.8223 42.5986 28.0244 41.9014 28.2002C41.2041 28.3701 40.5186 28.5166 39.8447 28.6396C39.1768 28.7568 38.5176 28.8477 37.8672 28.9121C37.2227 28.9707 36.584 29 35.9512 29H35.0723V26.6357H37.1113ZM58.9609 27.0225V29H50.207V27.3125L54.3467 22.874C54.7627 22.4111 55.0908 22.0039 55.3311 21.6523C55.5713 21.2949 55.7441 20.9756 55.8496 20.6943C55.9609 20.4072 56.0166 20.1348 56.0166 19.877C56.0166 19.3027 55.8701 18.8486 55.5771 18.5146C55.29 18.1748 54.877 18.0049 54.3379 18.0049C53.9512 18.0049 53.6172 18.0986 53.3359 18.2861C53.0605 18.4736 52.8496 18.7344 52.7031 19.0684C52.5625 19.4023 52.4922 19.7803 52.4922 20.2021H49.9521C49.9521 19.4404 50.1338 18.7432 50.4971 18.1104C50.8604 17.4717 51.373 16.9648 52.0352 16.5898C52.6973 16.209 53.4824 16.0186 54.3906 16.0186C55.7383 16.0186 56.7666 16.3408 57.4756 16.9854C58.1904 17.6299 58.5479 18.5146 58.5479 19.6396C58.5479 20.2021 58.4307 20.7471 58.1963 21.2744C57.9619 21.8018 57.6309 22.332 57.2031 22.8652C56.7754 23.3926 56.2744 23.9463 55.7002 24.5264L53.4766 27.0225H58.9609ZM63.1357 21.5029H64.4893C64.9229 21.5029 65.2803 21.4297 65.5615 21.2832C65.8428 21.1309 66.0508 20.9199 66.1855 20.6504C66.3262 20.375 66.3965 20.0557 66.3965 19.6924C66.3965 19.3643 66.332 19.0742 66.2031 18.8223C66.0801 18.5645 65.8896 18.3652 65.6318 18.2246C65.374 18.0781 65.0488 18.0049 64.6562 18.0049C64.3457 18.0049 64.0586 18.0664 63.7949 18.1895C63.5312 18.3125 63.3203 18.4854 63.1621 18.708C63.0039 18.9307 62.9248 19.2002 62.9248 19.5166H60.3848C60.3848 18.8135 60.5723 18.2012 60.9473 17.6797C61.3281 17.1582 61.8379 16.751 62.4766 16.458C63.1152 16.165 63.8184 16.0186 64.5859 16.0186C65.4531 16.0186 66.2119 16.1592 66.8623 16.4404C67.5127 16.7158 68.0195 17.123 68.3828 17.6621C68.7461 18.2012 68.9277 18.8691 68.9277 19.666C68.9277 20.0703 68.834 20.4629 68.6465 20.8438C68.459 21.2188 68.1895 21.5586 67.8379 21.8633C67.4922 22.1621 67.0703 22.4023 66.5723 22.584C66.0742 22.7598 65.5146 22.8477 64.8936 22.8477H63.1357V21.5029ZM63.1357 23.4277V22.1182H64.8936C65.5908 22.1182 66.2031 22.1973 66.7305 22.3555C67.2578 22.5137 67.7002 22.7422 68.0576 23.041C68.415 23.334 68.6846 23.6826 68.8662 24.0869C69.0479 24.4854 69.1387 24.9277 69.1387 25.4141C69.1387 26.2109 68.9395 26.8906 68.541 27.4531C68.1426 28.0098 67.6006 28.4375 66.915 28.7363C66.2295 29.0293 65.4531 29.1758 64.5859 29.1758C64.0469 29.1758 63.5166 29.1025 62.9951 28.9561C62.4795 28.8037 62.0107 28.5781 61.5889 28.2793C61.1729 27.9746 60.8389 27.5938 60.5869 27.1367C60.3408 26.6738 60.2178 26.126 60.2178 25.4932H62.7578C62.7578 25.8213 62.8398 26.1143 63.0039 26.3721C63.168 26.6299 63.3936 26.832 63.6807 26.9785C63.9736 27.125 64.2988 27.1982 64.6562 27.1982C65.2656 27.1982 65.7402 27.0342 66.0801 26.7061C66.4258 26.3721 66.5986 25.9326 66.5986 25.3877C66.5986 24.9189 66.5137 24.5439 66.3438 24.2627C66.1738 23.9756 65.9307 23.7646 65.6143 23.6299C65.2979 23.4951 64.9229 23.4277 64.4893 23.4277H63.1357Z" fill="#424242"/>
</svg>
