<svg width="50" height="47" viewBox="0 0 50 47" fill="none" xmlns="http://www.w3.org/2000/svg">
<rect x="0.5" y="7.5" width="39" height="39" rx="5.5" fill="white"/>
<rect x="0.5" y="7.5" width="39" height="39" rx="5.5" stroke="#E2E8F0"/>
<path d="M15.5803 18.83L14.1503 17.4C11.7503 19.23 10.1703 22.05 10.0303 25.25H12.0303C12.1803 22.6 13.5403 20.28 15.5803 18.83ZM27.9703 25.25H29.9703C29.8203 22.05 28.2403 19.23 25.8503 17.4L24.4303 18.83C26.4503 20.28 27.8203 22.6 27.9703 25.25ZM26.0003 25.75C26.0003 22.68 24.3603 20.11 21.5003 19.43V18.75C21.5003 17.92 20.8303 17.25 20.0003 17.25C19.1703 17.25 18.5003 17.92 18.5003 18.75V19.43C15.6303 20.11 14.0003 22.67 14.0003 25.75V30.75L12.0003 32.75V33.75H28.0003V32.75L26.0003 30.75V25.75ZM20.0003 36.75C20.1403 36.75 20.2703 36.74 20.4003 36.71C21.0503 36.57 21.5803 36.13 21.8403 35.53C21.9403 35.29 21.9903 35.03 21.9903 34.75H17.9903C18.0003 35.85 18.8903 36.75 20.0003 36.75Z" fill="#1967D2"/>
<path d="M32 9C32 4.02944 36.0294 0 41 0C45.9706 0 50 4.02944 50 9C50 13.9706 45.9706 18 41 18C36.0294 18 32 13.9706 32 9Z" fill="#E61D1D"/>
<path d="M43.249 10.2578V11H38.5957V10.3506L40.9248 7.75781C41.2113 7.4388 41.4326 7.16862 41.5889 6.94727C41.7484 6.72266 41.859 6.52246 41.9209 6.34668C41.986 6.16764 42.0186 5.98535 42.0186 5.7998C42.0186 5.4515 41.9111 5.15365 41.6963 4.90625C41.4814 4.65885 41.1755 4.53516 40.7783 4.53516C40.4626 4.53516 40.1989 4.59701 39.9873 4.7207C39.779 4.84115 39.6227 5.01042 39.5186 5.22852C39.4144 5.44661 39.3623 5.69727 39.3623 5.98047H38.459C38.459 5.58008 38.5469 5.21387 38.7227 4.88184C38.8984 4.5498 39.1589 4.28613 39.5039 4.09082C39.849 3.89225 40.2738 3.79297 40.7783 3.79297C41.4489 3.79297 41.973 3.96712 42.3506 4.31543C42.7314 4.66374 42.9219 5.12272 42.9219 5.69238C42.9219 5.97233 42.8617 6.25391 42.7412 6.53711C42.6208 6.82031 42.4596 7.10189 42.2578 7.38184C42.056 7.65853 41.833 7.92871 41.5889 8.19238L39.6846 10.2578H43.249Z" fill="white"/>
</svg>
