<svg width="17" height="20" viewBox="0 0 17 20" fill="none" xmlns="http://www.w3.org/2000/svg">
<path fill-rule="evenodd" clip-rule="evenodd" d="M8.46204 6.66667C7.4723 6.66667 6.66717 7.47179 6.66717 8.46256C6.66717 9.45231 7.4723 10.2564 8.46204 10.2564C9.45178 10.2564 10.2569 9.45231 10.2569 8.46256C10.2569 7.47179 9.45178 6.66667 8.46204 6.66667ZM8.46204 11.7949C6.62409 11.7949 5.12871 10.3005 5.12871 8.46256C5.12871 6.62359 6.62409 5.12821 8.46204 5.12821C10.3 5.12821 11.7954 6.62359 11.7954 8.46256C11.7954 10.3005 10.3 11.7949 8.46204 11.7949Z" fill="#424242"/>
<mask id="mask0_0_96" style="mask-type:luminance" maskUnits="userSpaceOnUse" x="0" y="0" width="17" height="20">
<path fill-rule="evenodd" clip-rule="evenodd" d="M0 0H16.9226V20H0V0Z" fill="white"/>
</mask>
<g mask="url(#mask0_0_96)">
<path fill-rule="evenodd" clip-rule="evenodd" d="M8.46104 1.53846C4.6436 1.53846 1.53796 4.67385 1.53796 8.52615C1.53796 13.4277 7.30617 18.2031 8.46104 18.4574C9.61591 18.2021 15.3841 13.4267 15.3841 8.52615C15.3841 4.67385 12.2785 1.53846 8.46104 1.53846ZM8.46104 20C6.62104 20 -0.000500801 14.3056 -0.000500801 8.52615C-0.000500801 3.82461 3.7954 0 8.46104 0C13.1267 0 16.9226 3.82461 16.9226 8.52615C16.9226 14.3056 10.301 20 8.46104 20Z" fill="#424242"/>
</g>
</svg>
