<svg width="17" height="17" viewBox="0 0 17 17" fill="none" xmlns="http://www.w3.org/2000/svg">
<path fill-rule="evenodd" clip-rule="evenodd" d="M8.5 11.9826C8.17265 11.9826 7.90698 11.7169 7.90698 11.3896V5.59614C7.90698 5.26879 8.17265 5.00312 8.5 5.00312C8.82735 5.00312 9.09302 5.26879 9.09302 5.59614V11.3896C9.09302 11.7169 8.82735 11.9826 8.5 11.9826Z" fill="white"/>
<path fill-rule="evenodd" clip-rule="evenodd" d="M11.3991 9.0853H5.6009C5.27276 9.0853 5.00788 8.81963 5.00788 8.49228C5.00788 8.16493 5.27276 7.89926 5.6009 7.89926H11.3991C11.7264 7.89926 11.9921 8.16493 11.9921 8.49228C11.9921 8.81963 11.7264 9.0853 11.3991 9.0853Z" fill="white"/>
<path fill-rule="evenodd" clip-rule="evenodd" d="M4.79479 1.18605C2.60298 1.18605 1.18605 2.686 1.18605 5.00907V11.9909C1.18605 14.314 2.60298 15.814 4.79479 15.814H12.2052C14.3978 15.814 15.814 14.314 15.814 11.9909V5.00907C15.814 2.686 14.3978 1.18605 12.2052 1.18605H4.79479ZM12.2052 17H4.79479C1.92693 17 0 14.9869 0 11.9909V5.00907C0 2.01312 1.92693 0 4.79479 0H12.2052C15.0731 0 17 2.01312 17 5.00907V11.9909C17 14.9869 15.0731 17 12.2052 17Z" fill="white"/>
</svg>
