<svg width="16" height="20" viewBox="0 0 16 20" fill="none" xmlns="http://www.w3.org/2000/svg">
<mask id="mask0_244_4856" style="mask-type:luminance" maskUnits="userSpaceOnUse" x="0" y="12" width="16" height="8">
<path fill-rule="evenodd" clip-rule="evenodd" d="M0 12.5777H15.9435V20H0V12.5777Z" fill="white"/>
</mask>
<g mask="url(#mask0_244_4856)">
<path fill-rule="evenodd" clip-rule="evenodd" d="M7.97283 14.0875C3.68395 14.0875 1.50981 14.8243 1.50981 16.2788C1.50981 17.7463 3.68395 18.4902 7.97283 18.4902C12.2607 18.4902 14.4338 17.7534 14.4338 16.2989C14.4338 14.8314 12.2607 14.0875 7.97283 14.0875ZM7.97283 20C6.00101 20 0 20 0 16.2788C0 12.9612 4.55058 12.5777 7.97283 12.5777C9.94464 12.5777 15.9436 12.5777 15.9436 16.2989C15.9436 19.6165 11.3941 20 7.97283 20Z" fill="#1967D2"/>
</g>
<mask id="mask1_244_4856" style="mask-type:luminance" maskUnits="userSpaceOnUse" x="2" y="0" width="12" height="11">
<path fill-rule="evenodd" clip-rule="evenodd" d="M2.62694 0H13.3165V10.6881H2.62694V0Z" fill="white"/>
</mask>
<g mask="url(#mask1_244_4856)">
<path fill-rule="evenodd" clip-rule="evenodd" d="M7.97272 1.43691C5.81771 1.43691 4.06431 3.1893 4.06431 5.34431C4.05727 7.49227 5.79758 9.24366 7.94353 9.25171L7.97272 9.97038V9.25171C10.1267 9.25171 11.8791 7.49831 11.8791 5.34431C11.8791 3.1893 10.1267 1.43691 7.97272 1.43691ZM7.97272 10.688H7.94051C4.99939 10.679 2.61691 8.2804 2.62697 5.34129C2.62697 2.39716 5.02456 -0.000430041 7.97272 -0.000430041C10.9199 -0.000430041 13.3165 2.39715 13.3165 5.34431C13.3165 8.29147 10.9199 10.688 7.97272 10.688Z" fill="#1967D2"/>
</g>
</svg>
