<svg width="37" height="37" viewBox="0 0 37 37" fill="none" xmlns="http://www.w3.org/2000/svg">
<path d="M15.91 27.01L28.9525 13.9675L26.3625 11.3775L15.91 21.83L10.6375 16.5575L8.0475 19.1475L15.91 27.01ZM18.5 37C15.9408 37 13.5358 36.5144 11.285 35.5431C9.03417 34.5719 7.07625 33.2538 5.41125 31.5888C3.74625 29.9238 2.42813 27.9658 1.45688 25.715C0.485625 23.4642 0 21.0592 0 18.5C0 15.9408 0.485625 13.5358 1.45688 11.285C2.42813 9.03417 3.74625 7.07625 5.41125 5.41125C7.07625 3.74625 9.03417 2.42813 11.285 1.45688C13.5358 0.485625 15.9408 0 18.5 0C21.0592 0 23.4642 0.485625 25.715 1.45688C27.9658 2.42813 29.9238 3.74625 31.5888 5.41125C33.2538 7.07625 34.5719 9.03417 35.5431 11.285C36.5144 13.5358 37 15.9408 37 18.5C37 21.0592 36.5144 23.4642 35.5431 25.715C34.5719 27.9658 33.2538 29.9238 31.5888 31.5888C29.9238 33.2538 27.9658 34.5719 25.715 35.5431C23.4642 36.5144 21.0592 37 18.5 37ZM18.5 33.3C22.6317 33.3 26.1313 31.8663 28.9988 28.9988C31.8663 26.1313 33.3 22.6317 33.3 18.5C33.3 14.3683 31.8663 10.8688 28.9988 8.00125C26.1313 5.13375 22.6317 3.7 18.5 3.7C14.3683 3.7 10.8688 5.13375 8.00125 8.00125C5.13375 10.8688 3.7 14.3683 3.7 18.5C3.7 22.6317 5.13375 26.1313 8.00125 28.9988C10.8688 31.8663 14.3683 33.3 18.5 33.3Z" fill="#1967D2"/>
</svg>
