<svg width="24" height="24" viewBox="0 0 24 24" fill="none" xmlns="http://www.w3.org/2000/svg">
<path d="M7.03005 0.0840164C5.75325 0.144216 4.88136 0.348015 4.11906 0.647414C3.33026 0.954912 2.66157 1.36741 1.99627 2.03511C1.33107 2.7028 0.921277 3.3719 0.616078 4.1621C0.32068 4.92589 0.120481 5.79859 0.0640813 7.07608C0.00768155 8.35357 -0.00481839 8.76427 0.00148158 12.0231C0.00768155 15.2816 0.0220815 15.6901 0.0839812 16.9703C0.144981 18.2468 0.34798 19.1185 0.647478 19.881C0.955477 20.6699 1.36747 21.3383 2.03547 22.0038C2.70337 22.6693 3.37196 23.0781 4.16396 23.3838C4.92716 23.6788 5.80005 23.8799 7.07735 23.9358C8.35464 23.9918 8.76574 24.0048 12.0235 23.9985C15.2813 23.9923 15.6915 23.9778 16.9713 23.9171C18.2513 23.8564 19.1183 23.6519 19.8811 23.3538C20.67 23.0452 21.3389 22.6338 22.0039 21.9657C22.6689 21.2975 23.0784 20.6279 23.3834 19.8373C23.6791 19.0741 23.88 18.2013 23.9354 16.9249C23.9914 15.644 24.0046 15.2351 23.9984 11.977C23.9921 8.71867 23.9774 8.31017 23.9167 7.03048C23.856 5.75079 23.6527 4.88179 23.3534 4.1188C23.045 3.3299 22.6334 2.662 21.9658 1.99601C21.2981 1.33001 20.6279 0.920812 19.8377 0.616514C19.0739 0.321015 18.2016 0.119716 16.9243 0.0645165C15.647 0.00931674 15.2359 -0.00498318 11.9769 0.00141678C8.71794 0.00761675 8.30994 0.0216167 7.03005 0.0840164ZM7.17024 21.777C6.00025 21.7261 5.36495 21.5317 4.94156 21.369C4.38096 21.153 3.98156 20.8919 3.55966 20.474C3.13767 20.0562 2.87857 19.6554 2.65967 19.096C2.49527 18.6726 2.29727 18.038 2.24257 16.868C2.18307 15.6035 2.17057 15.2238 2.16357 12.0201C2.15657 8.81637 2.16887 8.43707 2.22427 7.17208C2.27427 6.00309 2.46987 5.36709 2.63227 4.94389C2.84827 4.38259 3.10847 3.9839 3.52726 3.5623C3.94606 3.1406 4.34566 2.8809 4.90556 2.662C5.32855 2.4969 5.96305 2.30061 7.13254 2.24491C8.39804 2.18491 8.77724 2.17291 11.9805 2.16591C15.1838 2.15891 15.564 2.17091 16.83 2.22671C17.999 2.27751 18.6353 2.4712 19.058 2.6347C19.6188 2.8507 20.018 3.1101 20.4396 3.5297C20.8613 3.9491 21.1212 4.34729 21.3401 4.90839C21.5054 5.33009 21.7018 5.96439 21.757 7.13468C21.8172 8.40017 21.8309 8.77967 21.8366 11.9827C21.8424 15.1856 21.8311 15.566 21.7756 16.8306C21.7246 18.0006 21.5306 18.6361 21.3676 19.06C21.1516 19.6204 20.8913 20.02 20.4722 20.4414C20.0532 20.8629 19.6541 21.1225 19.0939 21.3414C18.6715 21.5063 18.0362 21.7031 16.8677 21.7588C15.6021 21.8183 15.2229 21.8308 12.0184 21.8378C8.81394 21.8448 8.43574 21.8318 7.17024 21.777ZM16.9529 5.58639C16.9534 5.87122 17.0383 6.14951 17.197 6.38606C17.3556 6.62262 17.5808 6.80681 17.8442 6.91534C18.1075 7.02387 18.3971 7.05187 18.6764 6.99579C18.9556 6.93972 19.212 6.80208 19.413 6.6003C19.614 6.39852 19.7507 6.14165 19.8057 5.86219C19.8608 5.58273 19.8317 5.29322 19.7222 5.03029C19.6127 4.76736 19.4276 4.54281 19.1905 4.38505C18.9533 4.22729 18.6747 4.1434 18.3899 4.144C18.0081 4.14479 17.6422 4.29718 17.3727 4.56767C17.1033 4.83815 16.9523 5.20458 16.9529 5.58639ZM5.83845 12.012C5.84515 15.4151 8.60904 18.1676 12.0114 18.1612C15.414 18.1547 18.1684 15.3911 18.162 11.988C18.1555 8.58477 15.391 5.83149 11.988 5.83819C8.58504 5.84489 5.83205 8.60917 5.83845 12.012ZM7.99994 12.0077C7.99838 11.2165 8.23145 10.4427 8.66967 9.78407C9.10788 9.12542 9.73158 8.6115 10.4619 8.3073C11.1922 8.00311 11.9963 7.9223 12.7725 8.0751C13.5487 8.2279 14.2622 8.60744 14.8227 9.16574C15.3832 9.72403 15.7656 10.436 15.9215 11.2116C16.0774 11.9872 15.9997 12.7916 15.6985 13.5231C15.3972 14.2546 14.8857 14.8803 14.2288 15.3212C13.5719 15.762 12.799 15.9982 12.0079 15.9997C11.4826 16.0008 10.9622 15.8985 10.4765 15.6984C9.99077 15.4984 9.5492 15.2046 9.17701 14.8339C8.80482 14.4632 8.50931 14.0228 8.30735 13.5379C8.10538 13.0529 8.00092 12.533 7.99994 12.0077Z" fill="white"/>
</svg>
