<svg width="28" height="35" viewBox="0 0 28 35" fill="none" xmlns="http://www.w3.org/2000/svg">
<path d="M14 17.5C12.075 17.5 10.5 15.925 10.5 14C10.5 12.075 12.075 10.5 14 10.5C15.925 10.5 17.5 12.075 17.5 14C17.5 15.925 15.925 17.5 14 17.5ZM24.5 14.35C24.5 7.9975 19.8625 3.5 14 3.5C8.1375 3.5 3.5 7.9975 3.5 14.35C3.5 18.445 6.9125 23.87 14 30.345C21.0875 23.87 24.5 18.445 24.5 14.35ZM14 0C21.35 0 28 5.635 28 14.35C28 20.16 23.3275 27.0375 14 35C4.6725 27.0375 0 20.16 0 14.35C0 5.635 6.65 0 14 0Z" fill="#1967D2"/>
</svg>
