<svg width="21" height="20" viewBox="0 0 21 20" fill="none" xmlns="http://www.w3.org/2000/svg">
<path fill-rule="evenodd" clip-rule="evenodd" d="M20.2369 13.1214H16.118C14.1878 13.1214 12.6168 11.5514 12.6157 9.62217C12.6157 7.69094 14.1868 6.11991 16.118 6.11889H20.2369C20.6581 6.11889 21 6.46078 21 6.88202C21 7.30327 20.6581 7.64515 20.2369 7.64515H16.118C15.0283 7.64617 14.142 8.53242 14.142 9.62115C14.142 10.7089 15.0293 11.5951 16.118 11.5951H20.2369C20.6581 11.5951 21 11.937 21 12.3582C21 12.7795 20.6581 13.1214 20.2369 13.1214Z" fill="#1967D2"/>
<path fill-rule="evenodd" clip-rule="evenodd" d="M16.5837 10.3212H16.2662C15.845 10.3212 15.5031 9.97932 15.5031 9.55807C15.5031 9.13682 15.845 8.79494 16.2662 8.79494H16.5837C17.0049 8.79494 17.3468 9.13682 17.3468 9.55807C17.3468 9.97932 17.0049 10.3212 16.5837 10.3212Z" fill="#1967D2"/>
<mask id="mask0_244_4836" style="mask-type:luminance" maskUnits="userSpaceOnUse" x="0" y="0" width="21" height="20">
<path fill-rule="evenodd" clip-rule="evenodd" d="M0 0H20.9999V19.5086H0V0Z" fill="white"/>
</mask>
<g mask="url(#mask0_244_4836)">
<path fill-rule="evenodd" clip-rule="evenodd" d="M6.10251 1.52626C3.57909 1.52626 1.52576 3.57959 1.52576 6.10301V13.4057C1.52576 15.9291 3.57909 17.9824 6.10251 17.9824H14.8978C17.4213 17.9824 19.4736 15.9291 19.4736 13.4057V6.10301C19.4736 3.57959 17.4213 1.52626 14.8978 1.52626H6.10251ZM14.8978 19.5087H6.10251C2.73762 19.5087 -0.00049683 16.7706 -0.00049683 13.4057V6.10301C-0.00049683 2.73709 2.73762 0 6.10251 0H14.8978C18.2627 0 20.9998 2.73709 20.9998 6.10301V13.4057C20.9998 16.7706 18.2627 19.5087 14.8978 19.5087Z" fill="#1967D2"/>
</g>
<path fill-rule="evenodd" clip-rule="evenodd" d="M10.8717 6.1438H5.37818C4.95693 6.1438 4.61505 5.80191 4.61505 5.38067C4.61505 4.95942 4.95693 4.61754 5.37818 4.61754H10.8717C11.293 4.61754 11.6348 4.95942 11.6348 5.38067C11.6348 5.80191 11.293 6.1438 10.8717 6.1438Z" fill="#1967D2"/>
</svg>
